<?xml version="1.0" encoding="utf-8"?>
<!-- Generator: Adobe Illustrator 28.7.1, SVG Export Plug-In . SVG Version: 9.03 Build 54978)  -->
<svg version="1.1" id="Layer_1" xmlns="http://www.w3.org/2000/svg" xmlns:xlink="http://www.w3.org/1999/xlink" x="0px" y="0px"
	 width="622.4px" height="800px" viewBox="0 0 622.4 800" style="enable-background:new 0 0 622.4 800;" xml:space="preserve">
<style type="text/css">
	.Drop_x0020_Shadow{fill:none;}
	.Outer_x0020_Glow_x0020_5_x0020_pt{fill:none;}
	.Blue_x0020_Neon{fill:none;stroke:#8AACDA;stroke-width:7;stroke-linecap:round;stroke-linejoin:round;}
	.Chrome_x0020_Highlight{fill:url(#SVGID_1_);stroke:#FFFFFF;stroke-width:0.3629;stroke-miterlimit:1;}
	.Jive_GS{fill:#FFDD00;}
	.Alyssa_GS{fill:#A6D0E4;}
	.st0{fill-rule:evenodd;clip-rule:evenodd;}
	.st1{fill-rule:evenodd;clip-rule:evenodd;fill:#901713;}
	.st2{fill-rule:evenodd;clip-rule:evenodd;fill:#F65043;}
	.st3{fill-rule:evenodd;clip-rule:evenodd;fill:#6B536B;}
	.st4{fill-rule:evenodd;clip-rule:evenodd;fill:#CEB555;}
	.st5{fill-rule:evenodd;clip-rule:evenodd;fill:#FFFFFF;}
	.st6{fill-rule:evenodd;clip-rule:evenodd;fill:#1D1715;}
	.st7{fill-rule:evenodd;clip-rule:evenodd;fill:#FFFCE0;}
	.st8{fill-rule:evenodd;clip-rule:evenodd;fill:#C53029;}
	.st9{fill-rule:evenodd;clip-rule:evenodd;fill:#978026;}
	.st10{fill-rule:evenodd;clip-rule:evenodd;fill:#E5D6A2;}
	.st11{fill-rule:evenodd;clip-rule:evenodd;fill:#D0E2F7;}
	.st12{fill-rule:evenodd;clip-rule:evenodd;fill:#A1C2F3;}
	.st13{fill-rule:evenodd;clip-rule:evenodd;fill:#C5C6C6;}
	.st14{fill-rule:evenodd;clip-rule:evenodd;fill:#3B3635;}
</style>
<linearGradient id="SVGID_1_" gradientUnits="userSpaceOnUse" x1="-88.8084" y1="-9.094947e-13" x2="-88.8084" y2="-1">
	<stop  offset="0" style="stop-color:#656565"/>
	<stop  offset="0.618" style="stop-color:#1B1B1B"/>
	<stop  offset="0.6292" style="stop-color:#545454"/>
	<stop  offset="0.9831" style="stop-color:#3E3E3E"/>
</linearGradient>
<g>
	<path class="st0" d="M192.9,105.4c-6.7,0.8-10.6,6.9-10.6,6.9l13.3,26.8l15.8-14.5L192.9,105.4z"/>
	<path class="st0" d="M213.5,139.4c1.4,2.1,0.9,4.9-1.2,6.3c-2.1,1.4-4.9,0.9-6.3-1.2L128.4,23c-2.2-3.3-2.8-4.9-2.3-6
		c0.9-2.1,3.4-1.5,4.4,0L213.5,139.4z"/>
	<path class="st0" d="M241.4,121.4c5.1,6.8,5.5,16.2,3.5,24.3c-2.4,9.4-8.1,17.9-15.8,23.6c-7.8,5.8-17.6,8.7-27.3,8.2
		c-8.3-0.5-17.2-3.6-22.3-10.5c-1.7-2.3-2.8-4.8-3.4-7.6c-2.5-13.6,10.7-26.5,20.5-33.8c5.8-4.3,12.6-8.3,19.7-10.4
		c6.2-1.8,13.1-2.2,19,0.9C237.7,117.3,239.8,119.1,241.4,121.4z"/>
	<path class="st1" d="M237,124.6c-7.2-9.7-22.5-5.6-37.2,5.3c-14.6,10.9-23.2,24.1-16,33.8c7.2,9.7,27.3,12,41.9,1.2
		C240.5,154,244.2,134.3,237,124.6z"/>
	<path class="st2" d="M210.4,125.6c4.1-1,7.9-1.2,11.2-0.2c3.2-1.8,6.5-3.6,9.8-5.2c-5.7-2.2-13.2-0.8-21.2,3.2
		c-1.8,0.9-3.6,1.9-5.4,3.1c-1.6,1-3.2,2.1-4.9,3.3c0,0-0.1,0-0.1,0.1c1.8-1,3.7-1.9,5.5-2.6C207,126.6,208.7,126,210.4,125.6z"/>
	<path class="st0" d="M194,149.6c0.2,0.5-0.1,1-0.6,1.1c-0.5,0.2-1-0.1-1.1-0.6c-1.5-4.7-1.6-9-0.4-12.9c1.2-4.3,3.8-8.1,7.3-11.2
		c0.4-0.3,0.9-0.3,1.3,0.1c0.3,0.4,0.3,0.9-0.1,1.3c-3.2,2.9-5.6,6.4-6.7,10.3C192.6,141.3,192.6,145.3,194,149.6z"/>
	<g>
		<path class="st0" d="M125.4,0c7.1,0,12.8,5.8,12.8,12.8c0,7.1-5.8,12.8-12.8,12.8c-7.1,0-12.8-5.8-12.8-12.8
			C112.6,5.8,118.3,0,125.4,0z"/>
		<path class="st3" d="M125.4,4.6c4.6,0,8.3,3.7,8.3,8.3c0,4.6-3.7,8.3-8.3,8.3c-4.6,0-8.3-3.7-8.3-8.3
			C117.1,8.3,120.8,4.6,125.4,4.6z"/>
		<path class="st4" d="M125.4,4.6c1.6,0,3.1,0.5,4.4,1.3c0,0.3,0,0.5,0,0.8c0,4.6-3.7,8.3-8.3,8.3c-1.6,0-3.1-0.5-4.4-1.3
			c0-0.3,0-0.5,0-0.8C117.1,8.3,120.8,4.6,125.4,4.6z"/>
		<path class="st5" d="M122.7,5.4c2.2-0.7,4.3-0.2,4.7,1.1c0.4,1.3-1.1,0.9-3.3,1.6c-2.2,0.7-4.2,2.4-4.6,1
			C119.1,7.7,120.5,6.1,122.7,5.4z"/>
	</g>
	<path class="st0" d="M430.2,105.4c6.7,0.8,10.6,6.9,10.6,6.9l-13.3,26.8l-15.8-14.5L430.2,105.4z"/>
	<path class="st0" d="M409.6,139.4c-1.4,2.1-0.9,4.9,1.2,6.3c2.1,1.4,4.9,0.9,6.3-1.2L494.6,23c2.2-3.3,2.8-4.9,2.3-6
		c-0.9-2.1-3.4-1.5-4.4,0L409.6,139.4z"/>
	<path class="st0" d="M381.6,121.4c-5.1,6.8-5.5,16.2-3.5,24.3c2.4,9.4,8.1,17.9,15.8,23.6c7.8,5.8,17.6,8.7,27.3,8.2
		c8.3-0.5,17.2-3.6,22.3-10.5c1.7-2.3,2.8-4.8,3.4-7.6c2.5-13.6-10.7-26.5-20.5-33.8c-5.9-4.3-12.6-8.3-19.7-10.4
		c-6.2-1.8-13.1-2.2-19,0.9C385.3,117.3,383.3,119.1,381.6,121.4z"/>
	<path class="st1" d="M386,124.6c7.2-9.7,22.5-5.6,37.2,5.3c14.6,10.9,23.2,24.1,16,33.8c-7.2,9.7-27.3,12-41.9,1.2
		C382.6,154,378.9,134.3,386,124.6z"/>
	<path class="st2" d="M412.7,125.6c-4.1-1-7.9-1.2-11.2-0.2c-3.2-1.8-6.5-3.6-9.8-5.2c5.7-2.2,13.2-0.8,21.2,3.2
		c1.8,0.9,3.6,1.9,5.4,3.1c1.6,1,3.2,2.1,4.9,3.3c0,0,0.1,0,0.1,0.1c-1.8-1-3.7-1.9-5.5-2.6C416.1,126.6,414.4,126,412.7,125.6z"/>
	<path class="st0" d="M429.1,149.6c-0.2,0.5,0.1,1,0.6,1.1c0.5,0.2,1-0.1,1.1-0.6c1.5-4.7,1.6-9,0.4-12.9c-1.2-4.3-3.8-8.1-7.3-11.2
		c-0.4-0.3-0.9-0.3-1.3,0.1c-0.3,0.4-0.3,0.9,0.1,1.3c3.2,2.9,5.6,6.4,6.7,10.3C430.5,141.3,430.5,145.3,429.1,149.6z"/>
	<path class="st0" d="M497.7,0c-7.1,0-12.8,5.8-12.8,12.8c0,7.1,5.8,12.8,12.8,12.8c7.1,0,12.8-5.8,12.8-12.8
		C510.5,5.8,504.7,0,497.7,0z"/>
	<path class="st3" d="M497.7,4.6c-4.6,0-8.3,3.7-8.3,8.3c0,4.6,3.7,8.3,8.3,8.3c4.6,0,8.3-3.7,8.3-8.3
		C505.9,8.3,502.2,4.6,497.7,4.6z"/>
	<path class="st4" d="M497.7,4.6c-1.6,0-3.1,0.5-4.4,1.3c0,0.3,0,0.5,0,0.8c0,4.6,3.7,8.3,8.3,8.3c1.6,0,3.1-0.5,4.4-1.3
		c0-0.3,0-0.5,0-0.8C505.9,8.3,502.2,4.6,497.7,4.6z"/>
	<path class="st5" d="M500.4,5.4c-2.2-0.7-4.3-0.2-4.7,1.1c-0.4,1.3,1.1,0.9,3.3,1.6c2.2,0.7,4.2,2.4,4.6,1
		C504,7.7,502.6,6.1,500.4,5.4z"/>
	<path class="st0" d="M379.6,458.9c25.6,15,89.4,80.9,79,108.7l25.7,11.1c16.2-43.4-54.1-120.8-92.3-143.1L379.6,458.9z"/>
	<path class="st6" d="M470.5,522.6c-11.1-20.4-28.6-39.8-45.9-56.1c-1.7-1.6-5.4-5.4-7.6-3.8c-5.2,3.7-5.1,8.2,6.8,21.7
		c15.3,17.4,32.3,40.2,35.2,45.8c1.1,2.3,5.1,2.5,9.3,2C474.5,531.4,472.3,525.9,470.5,522.6z"/>
	<path class="st0" d="M414,753.4c-11.2-13.6-16.6-30.7-5.8-60.2c10.8-29.5,13.5-19.4,13.5-19.4S434.1,696.3,414,753.4z"/>
	<path class="st0" d="M469.1,633.9c-0.1,0-0.1,0-0.2,0c-0.9,0-1.8,0.1-2.7,0.2c-7.4,1.2-12.8,7.2-16.1,13.5
		c-3.9,7.5-5.6,16.6-5.6,25c0,8.4,1.7,17.5,5.6,25c3.3,6.4,8.7,12.3,16.1,13.5c0.2,0,0.3,0.1,0.5,0.1c2.2,0.6,4.5,0.7,6.8,0.6
		c2.2-0.1,4.6-0.5,6.8-0.5c0.9,0,1.8-0.1,2.7-0.2c7.4-1.2,12.8-7.2,16.1-13.5c1.6-3.1,2.9-6.5,3.7-10c5.2-3.1,8.3-9.5,8.3-15.8
		c0-6.5-3.3-13.1-8.8-16.1c-0.8-2.9-1.9-5.6-3.3-8.2c-3.3-6.4-8.7-12.3-16.1-13.5c-0.9-0.1-1.8-0.2-2.7-0.2c-1.8,0-3.8-0.3-5.6-0.3
		C472.9,633.5,470.9,633.5,469.1,633.9z"/>
	<path class="st4" d="M495.8,684.2c5.5,0,9.9-5.5,9.9-12.3c0-6.7-4.5-12.3-9.9-12.3c-5.5,0-9.9,5.5-9.9,12.3
		C485.8,678.7,490.3,684.2,495.8,684.2z"/>
	<path class="st0" d="M480.3,635.7c-1.8,0-3.8-0.3-5.7-0.3c-2.8-0.1-6.3,0-8.6,1.8c-0.9,0.7-1.7,1.6-2.3,2.6
		c-2.5,4.1-1.6,9.4-0.6,13.8c1.1,4.9,2.6,9.8,3.2,14.8c0.2,1.4,0.3,2.9,0.3,4.3c0,3.4-1.2,7.3-2.3,10.5c-1.2,3.6-2.7,7.2-3.6,10.9
		c-0.9,3.5-1.4,7.5,0.4,10.9c0.2,0.4,0.5,0.8,0.7,1.1c0.4,0.6,1,1.1,1.6,1.6c2.8,2.2,6.6,2.5,10,2.4c2.3-0.1,4.6-0.5,6.9-0.5
		c0.8,0,1.6-0.1,2.4-0.2c6.8-1.1,11.8-6.7,14.8-12.6c3.8-7.3,5.4-16,5.4-24.2c0-8.1-1.6-16.9-5.4-24.2c-3-5.8-8-11.5-14.8-12.6
		C481.9,635.8,481.1,635.7,480.3,635.7z"/>
	<path class="st7" d="M480.3,639.4c10.4,0,18.9,14.9,18.9,33.3c0,18.4-8.5,33.3-18.9,33.3c-4.2,0-12.4,2-15.5-2.1
		c-4.7-6.1,5.5-20.2,5.5-31.2c0-13.6-8.6-27.4-2-32.6C470.7,638.2,477.6,639.4,480.3,639.4z"/>
	<path class="st0" d="M468.9,709.6c12.4,0,22.6-16.6,22.6-37c0-20.4-10.1-37-22.6-37c-12.4,0-22.6,16.6-22.6,37
		C446.4,693,456.5,709.6,468.9,709.6z"/>
	<path class="st4" d="M468.9,706c10.4,0,18.9-15,18.9-33.3c0-18.3-8.5-33.3-18.9-33.3c-10.4,0-18.9,15-18.9,33.3
		C450,691,458.5,706,468.9,706z"/>
	<path class="st0" d="M482.6,558.5c-9.5,24.2-75.3,140-75.5,140.3l23.7,13.5c0.2-0.3,67-118,77.2-143.8L482.6,558.5z"/>
	<path class="st0" d="M464.3,643c4.9,0,9.3,3.3,12.6,8.5c3.3,5.4,5.4,12.9,5.4,21.1c0,8.3-2.1,15.7-5.4,21.1
		c-3.3,5.3-7.7,8.5-12.6,8.5s-9.3-3.3-12.6-8.5c-3.3-5.4-5.4-12.9-5.4-21.1c0-8.3,2.1-15.7,5.4-21.1
		C454.9,646.3,459.4,643,464.3,643L464.3,643z M478.4,650.6c-3.6-5.8-8.6-9.4-14.1-9.4s-10.6,3.6-14.1,9.4
		c-3.5,5.7-5.7,13.5-5.7,22.1c0,8.6,2.2,16.4,5.7,22.1c3.6,5.8,8.6,9.4,14.1,9.4s10.6-3.6,14.1-9.4c3.5-5.7,5.7-13.5,5.7-22.1
		C484.1,664.1,482,656.3,478.4,650.6z"/>
	<path class="st0" d="M449.4,674.5c0-1.2-0.5-2.3-1.4-3.3c-2.2-2.5-5.3-2.3-7.8-0.7c-0.7,0.5-1.5,1-2.2,1.6c-2.1,1.6-4.1,3.4-6,5.2
		c-5.6,5.3-11,11.2-15.4,17.5c-6,8.4-11.7,19.5-10.1,30.2c0.7,4.6,0.8,9.3,1.4,13.9c1,6.8,3.4,12.2,7.3,17.8c1.4,2,3.1,4,4.7,5.9
		c2.5,3.1,5.1,6.2,7.6,9.3c2.2,2.7,4.5,5.5,6.7,8.2c9.2,11.4,16.2,19,32,18.7c13-0.3,26,0,39,0.2c19,0.4,38.1,0.8,57.1,1
		c7.7,0.1,15.7-0.6,20.9-6.9c4.5-5.5,6-11,3.5-17.9c-11.3-30.6-32.3-54.7-59-72.9c-19-12.9-39.5-22.1-61.2-29.5
		c-1-0.3-1.9-0.4-2.9-0.2C461.2,673.1,454,674.4,449.4,674.5z"/>
	<path class="st2" d="M464.7,677.9c27.7,9.5,93.1,34.5,116.9,99.1c2.3,6.2-0.4,9.9-2.6,12.5c-3.3,4-8.5,5-16.6,4.9
		c-44.6-0.6-75.5-1.8-96.3-1.3c-13.4,0.3-19-6.1-27.6-16.6c-6.6-8.1-17.1-20.6-18.8-23.1c-8-11.4-6-17.8-7.8-29.4
		c-3.5-22.7,35.8-53.9,31.6-48.8C436.7,683.9,464.7,677.9,464.7,677.9z"/>
	<path class="st8" d="M464.7,677.9c3.6,1.2,7.7,2.7,12.3,4.5c-5.9,2.4-19,2.3-25.7,2c-7.1-0.4-13.3,8.3-11.4,16.4
		c1.9,8.1,12.7,18.9,15.6,34.7c1.4,7.4,2.9,15.1,3.5,21.4c0.8,7.1,0.8,12.5,4.4,13.7c6.7,2.3,80.4,3.7,96.4,6.4
		c16,2.7-22.3,3.5-61.3,3.1c-39-0.4-39-10.1-41.7,12.1c-7.3-2.3-12-7.8-18.3-15.5c-6.6-8.1-17.1-20.6-18.8-23.1
		c-8-11.4-6-17.8-7.8-29.4c-3.5-22.7,35.8-53.9,31.6-48.8C436.7,683.9,464.7,677.9,464.7,677.9z"/>
	<path class="st0" d="M583.3,780c0.8,0,1.4-0.6,1.4-1.4s-0.6-1.4-1.4-1.4l-103.3,0c-10.4,0-17.4-1-22.4-2.7
		c-4.9-1.7-7.9-4.1-10.5-7.1c-13-14.9-35.5-45.6-35.6-45.7c-0.4-0.6-1.3-0.7-1.9-0.3c-0.6,0.4-0.7,1.3-0.3,1.9
		c0.1,0.1,22.6,30.9,35.7,45.9c2.9,3.3,6.2,6,11.6,7.9c5.3,1.8,12.5,2.8,23.2,2.9L583.3,780z"/>
	<path class="st0" d="M465.9,655.4c-11.4,0-22.9,0-34.3,0c-3,0-5.5,2.5-5.5,5.5v14.7c0,3,2.5,5.5,5.5,5.5h36.9
		c1.1,0,2.2-0.2,3.2-0.6C482.3,676.3,481.1,655.4,465.9,655.4z"/>
	<path class="st9" d="M465.9,660.9c-34.3,0-34.3,0-34.3,0v14.7h36.9C474.3,675.5,476,660.9,465.9,660.9z"/>
	<path class="st4" d="M465.9,660.9h-31.6v7.7h36.9c0.7,0,1.4-0.2,2-0.6C473,664.4,470.8,660.9,465.9,660.9z"/>
	<path class="st0" d="M500,587.6c7,0,12.8-6.7,12.8-14.9c0-8.2-5.7-14.9-12.8-14.9c-7,0-12.8,6.7-12.8,14.9
		C487.2,580.9,493,587.6,500,587.6z"/>
	<path class="st4" d="M500,583.9c5,0,9.1-5,9.1-11.2c0-6.2-4.1-11.2-9.1-11.2c-5,0-9.1,5-9.1,11.2C490.9,578.9,495,583.9,500,583.9z
		"/>
	<path class="st0" d="M483.3,536.7c-5.6,0-18.2-1.6-22.5,1.8c-1,0.8-1.9,1.8-2.6,2.9c-2.6,4.3-1.8,9.5-0.8,14.2
		c1,4.4,2.3,8.8,2.9,13.4c0.2,1.2,0.2,2.4,0.2,3.7c0,9.7-10.7,23-3.9,31.9c5,6.5,19.3,4,26.7,4c0.8,0,1.7-0.1,2.5-0.2
		c6.9-1.1,12-6.7,15.1-12.6c3.6-7,5.2-15.3,5.2-23.1c0-7.8-1.5-16.1-5.2-23.1c-3.1-6-8.2-11.5-15.1-12.6
		C485,536.8,484.1,536.7,483.3,536.7z"/>
	<path class="st9" d="M483.3,542.2c9.6,0,17.3,13.6,17.3,30.5c0,16.8-7.7,30.5-17.3,30.5c-3.9,0-19.5,1.8-22.3-1.9
		c-4.3-5.6,5-18.5,5-28.6c0-12.4-7.8-25.1-1.8-29.9C466.3,541.1,480.8,542.2,483.3,542.2z"/>
	<path class="st4" d="M483.3,542.2c9.6,0,17.3,13.6,17.3,30.5c0,2.4-0.2,4.8-0.5,7c-1.8,1-3.8,1.5-5.9,1.4
		c-3.9-0.3-19.5,0.4-22.3-3.5c-4.3-5.9,5-18.2,5-28.2c0-2.4-5.1-4.9-5.6-7.4C474.6,542,482.3,542.2,483.3,542.2z"/>
	<path class="st0" d="M471.1,538c-0.5,0-0.9,0.4-0.9,0.9c0,0.5,0.4,0.9,0.9,0.9c8.5,0,14.2,7.3,17.2,16.9c1.4,4.4,2.2,9.3,2.4,14.2
		c0.3,4.9,0,9.9-0.9,14.4c-1.9,10.3-6.6,18.4-13.8,18.8c-0.5,0-0.9,0.4-0.8,1c0,0.5,0.5,0.9,1,0.9c8.2-0.4,13.4-9.1,15.4-20.2
		c0.9-4.7,1.2-9.8,0.9-14.8c-0.3-5.1-1.1-10.1-2.5-14.6C486.9,545.9,480.6,538,471.1,538z"/>
	<path class="st0" d="M493.2,598.8c-3.1-2-10.5-2-14.8-0.8c-5.8,1.5-11.2,6.9-11.2,6.9c3.4,0.8,13,2.8,20,1.1
		C491.8,605,497,601.2,493.2,598.8z"/>
	<path class="st0" d="M461.7,608.6c12.5,0,22.8-16.1,22.8-35.9c0-19.8-10.2-35.9-22.8-35.9c-12.5,0-22.8,16.1-22.8,35.9
		C438.9,592.5,449.1,608.6,461.7,608.6z"/>
	<path class="st4" d="M461.7,603.2c9.5,0,17.3-13.7,17.3-30.5c0-16.8-7.8-30.5-17.3-30.5c-9.5,0-17.3,13.7-17.3,30.5
		C444.3,589.5,452.1,603.2,461.7,603.2z"/>
	<path class="st0" d="M458.8,593c6.4,0,11.6-9.1,11.6-20.3c0-11.2-5.2-20.3-11.6-20.3c-6.4,0-11.6,9.1-11.6,20.3
		C447.2,583.9,452.4,593,458.8,593z"/>
	<path class="st9" d="M458.8,590.3c4.9,0,8.9-7.9,8.9-17.6c0-9.7-4-17.6-8.9-17.6s-8.9,7.9-8.9,17.6
		C449.9,582.4,453.9,590.3,458.8,590.3z"/>
	<path class="st4" d="M442.3,572.7c0-12.4,15.5-14,19.3-8.6c3.1,4.5,2.3,15.2,0,17.6C456.3,587.2,442.3,584,442.3,572.7z"/>
	<path class="st7" d="M474.5,572.7c0-14.6-5.8-26.8-13.6-29.8c-0.5-0.2-1-0.3-1.5-0.5c0.7-0.2,1.5-0.2,2.2-0.2c0.3,0,0.7,0,1,0
		c9.1,0.9,16.3,14.2,16.3,30.4c0,1.3,0,2.6-0.1,3.9c0,0.4-0.1,0.7-0.1,1.1c-1.1,12.3-6.4,22.1-13.3,24.8c-1.1,0.4-2.2,0.7-3.4,0.7
		c-0.1,0-0.3,0-0.4,0c-0.8,0-1.5-0.1-2.2-0.2c0.3-0.1,0.5-0.1,0.8-0.2c7.6-2.3,13.4-13.3,14.2-26.9
		C474.5,574.8,474.5,573.7,474.5,572.7z"/>
	<path class="st9" d="M447.9,565.5c1,0.8,1.7,1.8,2.2,3.1c0.4,0.9,0.7,2,1.1,3.3c0.7,2.4,2.5,3,6.1,2.8c1.5-0.1,3.4-0.3,5.6-0.6
		c0.2,0,0.5-0.1,0.7-0.1c-0.1,3.4-0.9,6.6-2,7.7c-0.2,0.2-0.3,0.3-0.5,0.5c-1.7,1.4-4,2.1-6.5,2.1c-0.8,0-1.7-0.1-2.5-0.2
		c-1.1-0.2-2.2-0.6-3.2-1.1c-1.5-0.7-2.8-1.7-3.9-3c-1.6-1.9-2.6-4.3-2.6-7.3c0-3.2,1-5.7,2.6-7.5c0.3-0.3,0.6-0.7,1-1
		C446.7,564.7,447.3,565.1,447.9,565.5z"/>
	<path class="st0" d="M443.6,572.7c0-2.8,0.9-5,2.2-6.6c1.3-1.5,3.1-2.6,5-3.1c1.9-0.6,4-0.6,5.7-0.3c1.7,0.3,3.1,1.1,3.8,2.1
		c1.3,1.8,1.8,5,1.8,8c0,3.5-0.6,6.8-1.6,7.8c-1.4,1.5-3.6,2.2-6,2.2c-1.4,0-2.9-0.3-4.3-0.8c-1.4-0.5-2.6-1.3-3.7-2.3
		C444.8,578.2,443.6,575.8,443.6,572.7L443.6,572.7z M443.8,564.4c-1.8,2.1-2.9,4.8-2.9,8.3c0,3.9,1.5,7,3.8,9.1
		c1.3,1.3,2.9,2.2,4.6,2.9c1.7,0.6,3.5,1,5.2,1c3.1,0,6-1,8-3.1c1.5-1.5,2.4-5.6,2.4-9.7c0-3.6-0.7-7.3-2.3-9.6
		c-1.2-1.7-3.2-2.8-5.5-3.3c-2.2-0.4-4.6-0.3-7,0.3C447.8,561.1,445.5,562.4,443.8,564.4z"/>
	<path class="st0" d="M428,636.5c-1.4,0-3-0.2-4.4-0.3c-3-0.1-6.2,0.1-8.6,2.1c-0.7,0.6-1.4,1.4-1.9,2.2c-2.7,4.1-2,9.3-1,13.8
		c0.9,4.4,2.1,8.7,2.6,13.2c0.1,1,0.2,2,0.2,3c0,9.1-9.2,21.8-3.4,30c0.6,0.9,1.4,1.7,2.3,2.3c2.6,1.9,5.8,2.2,9,2.1
		c1.8-0.1,3.6-0.4,5.3-0.4c7.1,0,12.2-5.4,15.2-11.2c3.6-6.8,5-15.2,5-22.8c0-7.6-1.4-16-5-22.8C440.2,641.9,435,636.5,428,636.5z"
		/>
	<path class="st4" d="M428,641.7c8.3,0,15,12.9,15,28.8s-6.7,28.8-15,28.8c-3.3,0-9.9,1.7-12.4-1.8c-3.7-5.2,4.4-17.5,4.4-27
		c0-11.7-6.8-23.7-1.6-28.2C420.3,640.7,425.8,641.7,428,641.7z"/>
	<path class="st0" d="M414.8,704.3c11.9,0,21.7-15.4,21.7-34.2c0-18.8-9.7-34.2-21.7-34.2c-11.9,0-21.7,15.4-21.7,34.2
		C393.1,689,402.9,704.3,414.8,704.3z"/>
	<path class="st4" d="M414.8,699.1c9.1,0,16.5-13,16.5-29c0-16-7.4-29-16.5-29c-9.1,0-16.5,13-16.5,29
		C398.3,686.1,405.7,699.1,414.8,699.1z"/>
	<path class="st0" d="M412,689.5c6.1,0,11-8.7,11-19.3c0-10.7-5-19.3-11-19.3c-6.1,0-11,8.7-11,19.3C401,680.8,406,689.5,412,689.5z
		"/>
	<path class="st9" d="M412,686.9c4.6,0,8.4-7.5,8.4-16.7c0-9.2-3.8-16.7-8.4-16.7c-4.6,0-8.4,7.5-8.4,16.7
		C403.6,679.4,407.4,686.9,412,686.9z"/>
	<path class="st4" d="M396.4,670.1c0-11.8,14.8-13.3,18.3-8.2c2.9,4.2,2.2,14.5,0,16.7C409.7,683.9,396.4,680.9,396.4,670.1z"/>
	<path class="st5" d="M427,670.1c0-13.9-5.5-25.4-12.9-28.3c-0.5-0.2-1-0.3-1.4-0.4c0.7-0.2,1.4-0.2,2.1-0.2c0.3,0,0.6,0,1,0
		c8.6,0.9,15.5,13.5,15.5,28.9c0,1.3,0,2.5-0.1,3.7c0,0.3-0.1,0.7-0.1,1c-1.1,11.7-6.1,21-12.6,23.6c-1,0.4-2.1,0.7-3.2,0.7
		c-0.1,0-0.3,0-0.4,0c-0.7,0-1.4-0.1-2.1-0.2c0.3-0.1,0.5-0.1,0.8-0.2c7.2-2.2,12.8-12.7,13.5-25.6C427,672.1,427,671.1,427,670.1z"
		/>
	<path class="st9" d="M401.7,663.3c1,0.8,1.6,1.7,2.1,2.9c0.4,0.9,0.7,1.9,1,3.1c0.6,2.3,2.3,2.9,5.8,2.6c1.4-0.1,3.2-0.3,5.3-0.6
		c0.2,0,0.5-0.1,0.7-0.1c-0.1,3.3-0.8,6.2-1.9,7.3c-0.2,0.2-0.3,0.3-0.5,0.5c-1.6,1.4-3.8,2-6.2,2c-0.8,0-1.6-0.1-2.4-0.2
		c-1.1-0.2-2.1-0.5-3.1-1c-1.4-0.7-2.7-1.6-3.7-2.8c-1.5-1.8-2.5-4.1-2.5-7c0-3,1-5.4,2.5-7.1c0.3-0.3,0.6-0.6,0.9-0.9
		C400.5,662.5,401.2,662.9,401.7,663.3z"/>
	<path class="st0" d="M397.7,670.1c0-2.7,0.8-4.7,2.1-6.2c1.3-1.5,3-2.4,4.8-3c1.8-0.5,3.8-0.6,5.4-0.3c1.6,0.3,2.9,1,3.6,2
		c1.2,1.7,1.7,4.7,1.7,7.6c0,3.3-0.6,6.5-1.6,7.5c-1.4,1.4-3.5,2.1-5.7,2.1c-1.4,0-2.7-0.2-4.1-0.7c-1.3-0.5-2.5-1.2-3.5-2.2
		C398.8,675.4,397.7,673.1,397.7,670.1L397.7,670.1z M397.8,662.2c-1.7,2-2.8,4.6-2.8,7.9c0,3.7,1.4,6.6,3.6,8.7
		c1.3,1.2,2.8,2.1,4.4,2.7c1.6,0.6,3.3,0.9,5,0.9c2.9,0,5.7-1,7.6-2.9c1.4-1.5,2.3-5.3,2.3-9.3c0-3.4-0.6-6.9-2.2-9.1
		c-1.1-1.6-3-2.6-5.3-3.1c-2.1-0.4-4.4-0.3-6.7,0.3C401.6,659.1,399.4,660.3,397.8,662.2z"/>
	<path class="st4" d="M412.4,727.4c6.6,8.9,22.5,30.1,32.7,41.8c2.9,3.3,6.2,6,11.6,7.9c5.3,1.8,12.5,2.8,23.2,2.9l102.4,0
		c0.7,4.6-1.5,7.5-3.3,9.7c-3.3,4-8.5,5-16.6,4.9c-44.6-0.6-75.5-1.8-96.3-1.3c-13.4,0.3-19-6.1-27.6-16.6
		c-6.6-8.1-17.1-20.6-18.8-23.1C412.6,743.2,413.5,737,412.4,727.4z"/>
	<path class="st9" d="M412.4,727.4c6.6,8.9,22.5,30.1,32.7,41.8c2.9,3.3,6.2,6,11.6,7.9c0.2,0.1-0.7,14.9-2.7,14
		c-5.8-2.7-10-7.7-15.5-14.4c-6.6-8.1-17.1-20.6-18.8-23.1C412.6,743.2,413.5,737,412.4,727.4z"/>
	<path class="st7" d="M513.2,710.4c-2.7,7.6-19.9-2.1-17.2-9.9c1.3-3.7,7.7-0.6,2-5.4c-3.6-3-10.2-7.4-11.8-8.6
		c-0.3-0.3-0.7-0.5-1-0.8c1.5,0.6,3,1.3,4.4,1.9c2.2,1,4.4,2,6.7,3.1c1.1,0.5,2.2,1.1,3.3,1.6c0.5,0.3,1.1,0.5,1.6,0.8
		c29.5,14.9,64.4,40.5,80.5,84c0,0,0,0.1,0,0.1l-11.6,0c-2.4-4.5-11.8-26.9-26.6-45.4C533.5,719.1,515.3,704.5,513.2,710.4z"/>
	<path class="st5" d="M570.3,780l12.1,0c0.7,4.6-1.5,7.5-3.3,9.7c-2.5,3-6,4.3-11.1,4.8c2.8-2.6,3.8-6.2,4.5-9.3
		C573.1,782.5,572.1,781,570.3,780z"/>
	<path class="st0" d="M440.2,705.7c12.4,21.5,17.9,36.2,19,61.4c2.4-23.1-5.7-43-16.5-62.8c-0.4-0.7-1.3-0.9-1.9-0.5
		C440,704.2,439.8,705.1,440.2,705.7z"/>
	<path class="st0" d="M452.3,796.1c5.3-0.2,4.8-16.1,4.8-18c-0.5,2.2-3,13.3-5.1,15.5c-0.5,0.2-0.9,0.6-0.9,1.1
		C450.9,795.4,451.5,796.1,452.3,796.1L452.3,796.1z M451.8,793.7L451.8,793.7C451.8,793.7,451.8,793.7,451.8,793.7z"/>
	<path class="st6" d="M469.9,613.9c-17.1,33.7-19,40.7-20.5,36.8c-1.5-4-5.1-8.1-5.1-8.1l17.3-33.9c0,0,3.1,0.6,8,0.3
		C472.4,608.8,470.5,612.8,469.9,613.9z"/>
	<path class="st5" d="M497.4,558.1c-2.9-7.2-7.5-12.1-12.7-12.9c-0.6-0.7-1.2-1.5-1.8-2.1c-0.3-0.3-0.6-0.6-1-0.9c0.2,0,0.5,0,0.7,0
		c0.4,0,0.6,0,0.8,0c6.5,0,12.2,6.3,15.1,15.7c0.4,1.1,0.7,2.3,1,3.6c0.3,1.3,0.5,2.5,0.7,3.9c0.3,2.4,0.5,4.8,0.5,7.3
		c0,1.1,0,2.2-0.1,3.2c0-0.1,0-0.2,0-0.4c0-3.7-0.4-7.2-1.1-10.5c-0.3-1.2-0.5-2.4-0.9-3.5C498.2,560.4,497.8,559.2,497.4,558.1z"/>
	<path class="st5" d="M482.2,545.1c-1.3,0-3.7-0.1-6.1-0.1c-0.8-1.1-1.7-2.1-2.6-3c1.6,0,3.5,0.1,5.3,0.1
		C480,542.9,481.2,543.9,482.2,545.1z"/>
	<path class="st0" d="M436.8,406.3c-6-9.8-17.6-15-28.6-16.5c-13.2-1.9-26.9,1.1-38.3,8c-11.4,7-20.2,18-24.5,30.6
		c-3.6,10.5-4.2,23.3,1.7,33.1c1.9,3.2,4.5,5.8,7.6,7.8c15.7,10,39.3-0.5,53.3-9.1c8.6-5.3,17.3-12,23.7-20c5.4-6.8,9.4-15.1,8.5-24
		C439.9,412.8,438.7,409.4,436.8,406.3z"/>
	<path class="st1" d="M432.1,409.2c9,14.7-4.7,32.9-26.9,46.5c-22.2,13.6-44.4,17.8-53.4,3.1c-9-14.7-1.3-42.7,20.9-56.2
		C395,388.9,423.2,394.5,432.1,409.2z"/>
	<path class="st0" d="M397.4,465.2c-0.4,0.3-1,0.1-1.2-0.3c-0.3-0.4-0.1-1,0.3-1.2c0.8-0.5,1.5-1,2.1-1.5c2.8-2.5,3.5-5.5,3.2-8.6
		c-0.3-3.2-1.7-6.3-3.3-8.9c-1.2-2-2.4-3.6-3.3-4.6c-0.3-0.4-0.3-1,0.1-1.3c0.4-0.3,1-0.3,1.3,0.1c0.9,1,2.2,2.7,3.5,4.8
		c1.6,2.7,3.2,6.2,3.5,9.6c0.3,3.6-0.6,7.2-3.8,10.1C399.1,464.1,398.3,464.7,397.4,465.2z"/>
	<path class="st0" d="M388.7,469.2c-0.5,0.8-1.7,1.1-2.5,0.6c-0.8-0.5-1.1-1.7-0.6-2.5c1.5-2.4,1.5-5.2,0.8-7.9
		c-1.2-4.7-4.3-9-5.9-10.8c-0.7-0.8-0.6-1.9,0.2-2.6c0.8-0.7,1.9-0.6,2.6,0.2c1.8,2,5.4,7,6.7,12.3C391,462,390.9,465.8,388.7,469.2
		z"/>
	<path class="st0" d="M411.4,457.7c-0.9,0.5-2,0.2-2.5-0.6c-0.5-0.9-0.2-2,0.6-2.5c0.7-0.4,1.4-0.9,2-1.4c2.5-2.2,3.2-5,2.9-7.8
		c-0.3-3-1.7-6-3.1-8.5c-1.2-1.9-2.4-3.5-3.2-4.4c-0.7-0.8-0.6-1.9,0.2-2.6c0.8-0.7,1.9-0.6,2.6,0.2c0.9,1,2.3,2.8,3.6,5
		c1.7,2.8,3.3,6.4,3.6,10c0.4,3.8-0.6,7.7-4.2,10.9C413.2,456.5,412.3,457.1,411.4,457.7z"/>
	<path class="st4" d="M401.2,458.6c0.7-1.6,0.8-3.3,0.6-5c-0.3-3-1.6-6-3-8.5c-0.1-0.1-0.1-0.2-0.2-0.4c-0.5-0.9-1-1.7-1.5-2.4
		c-0.4,0.3-0.9,0.5-1.3,0.8c-3.3,2-6.7,3.9-10.2,5.7c1.7,2.5,3.6,5.9,4.6,9.5c0.5,1.9,0.7,3.9,0.5,5.8
		C394,462.6,397.6,460.7,401.2,458.6z"/>
	<path class="st9" d="M401.4,451.4c-0.6-2.3-1.6-4.5-2.7-6.3c-0.1-0.1-0.1-0.2-0.2-0.4c-0.5-0.9-1-1.7-1.5-2.4
		c-0.4,0.3-0.9,0.5-1.3,0.8c-3.3,2-6.7,3.9-10.2,5.7c1.6,2.3,3.4,5.5,4.4,8.8c3.2-1.5,6.4-3.2,9.6-5.1
		C400.2,452.2,400.8,451.8,401.4,451.4z"/>
	<path class="st4" d="M403.6,453.4c0.1,1.3,0.1,2.5-0.1,3.8c2.8-1.7,5.4-3.5,7.9-5.3c0.8-0.6,1.7-1.2,2.5-1.9
		c0.6-1.5,0.8-3.1,0.6-4.7c-0.3-3-1.7-6-3.1-8.5c-0.6-1.1-1.3-2-1.9-2.8c-3.6,2.6-7.2,5.1-10.9,7.4c0.5,0.7,1,1.5,1.6,2.4
		c0.6,0.9,1.1,2,1.6,3C402.6,448.9,403.4,451.1,403.6,453.4z"/>
	<path class="st9" d="M413.9,442.6c-0.6-2.1-1.6-4-2.6-5.8c-0.6-1.1-1.3-2-1.9-2.8c-3.6,2.6-7.2,5.1-10.9,7.4c0.5,0.7,1,1.5,1.6,2.4
		c0.6,0.9,1.1,2,1.6,3c0.5,1.2,1,2.4,1.3,3.6C407,447.9,410.6,445.3,413.9,442.6z"/>
	<g>
		<path class="st0" d="M485.7,267.7c26.4,7.3,50.1,22.1,68,38.2c10.5,9.4,18.9,18.9,24.7,27c3.9,5.6,40.4,16.5,25-9.3
			c-7.3-12.3-18.2-25.6-31.9-37.8c-20.8-18.7-48.4-35.9-79.5-44.4L485.7,267.7z"/>
		<path class="st6" d="M582.9,309.4c-8.9,2.1-9,1.1-10.2-0.1c-13.3-13.8-36.2-30.5-53.8-36.6c-3.2-1.1-3.7,0.5-0.6,2.1
			c17.4,8.9,37.1,22.3,54.1,41.3c0.8,1,1.6,0,2.7-0.8c0.2-0.1,3.6-2.4,6.3-4.1C583.7,309.7,585.6,308.8,582.9,309.4z"/>
	</g>
	<path class="st0" d="M474.5,207.6c-11.9,1.4-21.9,10.2-28.2,19.9c-7.5,11.7-10.8,26.1-9.2,39.9c1.6,13.9,8.2,27.1,18.4,36.7
		c8.4,8,20.3,14.2,32.2,12.9c3.8-0.4,7.4-1.7,10.7-3.8c16.4-10.6,16.7-37.6,14.7-54.7c-2-17.3-8.9-43.5-27.6-49.9
		C481.9,207.5,478.2,207.1,474.5,207.6z"/>
	<path class="st8" d="M475.1,213c18-2.1,29.4,19,32.6,46.2c3.2,27.2-2.6,50.3-20.6,52.4c-18,2.1-41.4-17.6-44.5-44.8
		C439.4,239.5,457.1,215.1,475.1,213z"/>
	<path class="st1" d="M489.2,311.2c-0.7,0.2-1.4,0.3-2.1,0.4c-18,2.1-41.4-17.6-44.5-44.8c-2.6-22.6,9.1-43.2,23.4-50.8
		c1.1-0.3,2.2-0.5,3.4-0.7c18-2.1,29.4,19,32.6,46.2C504.5,284.2,500.9,304.1,489.2,311.2z"/>
	<path class="st0" d="M510.7,252.2c-0.1-0.5-0.5-0.9-1-0.8c-0.5,0.1-0.9,0.5-0.8,1c0.1,0.9,0.1,1.8,0.1,2.6
		c-0.3,3.7-2.3,6.2-4.9,7.8c-2.7,1.7-6.1,2.4-9.1,2.8c-2.3,0.3-4.4,0.2-5.6,0.1c-0.5,0-0.9,0.3-1,0.8c0,0.5,0.3,0.9,0.8,1
		c1.3,0.1,3.5,0.1,5.9-0.1c3.2-0.4,6.8-1.2,9.8-3c3.1-1.9,5.4-4.8,5.7-9.2C510.8,254.2,510.8,253.2,510.7,252.2z"/>
	<path class="st0" d="M508.6,242.9c0.4-0.9-0.1-2-1.1-2.3c-0.9-0.3-2,0.1-2.3,1.1c-1,2.7-3.2,4.4-5.8,5.5c-4.4,1.9-9.8,2-12.2,1.8
		c-1-0.1-1.9,0.7-2,1.7c-0.1,1,0.7,1.9,1.7,2c2.7,0.2,8.8,0.1,13.9-2.1C504.2,249,507.2,246.6,508.6,242.9z"/>
	<path class="st0" d="M513.1,267.9c-0.1-1-1-1.7-2-1.6c-1,0.1-1.7,1-1.6,2c0.1,0.9,0.1,1.7,0.1,2.4c-0.3,3.4-2.1,5.6-4.4,7
		c-2.6,1.6-5.8,2.3-8.7,2.6c-2.2,0.2-4.2,0.2-5.4,0.1c-1-0.1-1.9,0.7-2,1.7c-0.1,1,0.7,1.9,1.7,2c1.4,0.1,3.6,0.1,6.1-0.1
		c3.3-0.4,7.1-1.3,10.2-3.2c3.3-2,5.8-5.1,6.2-9.9C513.3,270,513.3,269,513.1,267.9z"/>
	<path class="st4" d="M507.7,259.2c-0.9,1.5-2.1,2.6-3.6,3.5c-2.6,1.6-5.8,2.4-8.6,2.7c-0.1,0-0.3,0-0.4,0c-1,0.1-2,0.2-2.8,0.2
		c-0.1-0.5-0.1-1-0.2-1.6c-0.4-3.9-1-7.7-1.6-11.5c3-0.1,6.9-0.6,10.3-2.1c1.8-0.8,3.5-1.8,4.9-3.1
		C506.5,251.1,507.2,255.1,507.7,259.2z"/>
	<path class="st9" d="M502.1,263.7c-2.1,0.9-4.5,1.4-6.7,1.7c-0.1,0-0.3,0-0.4,0c-1,0.1-2,0.2-2.8,0.2c-0.1-0.5-0.1-1-0.2-1.6
		c-0.4-3.9-1-7.7-1.6-11.5c2.8-0.1,6.4-0.6,9.7-1.8c0.7,3.4,1.3,7.1,1.8,10.8C502,262.2,502,263,502.1,263.7z"/>
	<path class="st4" d="M505,264.3c1.1-0.7,2.1-1.5,2.9-2.4c0.3,3.2,0.5,6.4,0.5,9.5c0,1,0,2.1,0,3.1c-0.8,1.4-2,2.5-3.3,3.3
		c-2.6,1.6-5.8,2.3-8.7,2.6c-1.2,0.1-2.4,0.2-3.4,0.2c-0.1-4.4-0.3-8.8-0.7-13.1c0.9,0,1.8-0.1,2.8-0.2c1.1-0.1,2.2-0.3,3.4-0.6
		C500.8,266.2,503.1,265.5,505,264.3z"/>
	<path class="st9" d="M502.6,279c-2,0.8-4.2,1.2-6.1,1.4c-1.2,0.1-2.4,0.2-3.4,0.2c-0.1-4.4-0.3-8.8-0.7-13.1c0.9,0,1.8-0.1,2.8-0.2
		c1.1-0.1,2.2-0.3,3.4-0.6c1.2-0.3,2.5-0.6,3.7-1.1C502.7,270.2,502.8,274.7,502.6,279z"/>
	<path class="st0" d="M244.9,458.9c-25.6,15-89.4,80.9-79,108.7l-25.7,11.1c-16.2-43.4,54.1-120.8,92.3-143.1L244.9,458.9z"/>
	<path class="st6" d="M154,522.6c11.1-20.4,28.6-39.8,45.9-56.1c1.7-1.6,5.4-5.4,7.6-3.8c5.2,3.7,5.1,8.2-6.8,21.7
		c-15.3,17.4-32.3,40.2-35.2,45.8c-1.1,2.3-5.1,2.5-9.3,2C150,531.4,152.2,525.9,154,522.6z"/>
	<path class="st0" d="M210.5,753.4c11.2-13.6,16.6-30.7,5.8-60.2c-10.8-29.5-13.5-19.4-13.5-19.4S190.5,696.3,210.5,753.4z"/>
	<path class="st0" d="M155.5,633.9c0.1,0,0.1,0,0.2,0c0.9,0,1.8,0.1,2.7,0.2c7.4,1.2,12.8,7.2,16.1,13.5c3.9,7.5,5.6,16.6,5.6,25
		c0,8.4-1.7,17.5-5.6,25c-3.3,6.4-8.7,12.3-16.1,13.5c-0.2,0-0.3,0.1-0.5,0.1c-2.2,0.6-4.5,0.7-6.8,0.6c-2.2-0.1-4.6-0.5-6.8-0.5
		c-0.9,0-1.8-0.1-2.7-0.2c-7.4-1.2-12.8-7.2-16.1-13.5c-1.6-3.1-2.9-6.5-3.7-10c-5.2-3.1-8.3-9.5-8.3-15.8c0-6.5,3.3-13.1,8.8-16.1
		c0.8-2.9,1.9-5.6,3.3-8.2c3.3-6.4,8.7-12.3,16.1-13.5c0.9-0.1,1.8-0.2,2.7-0.2c1.8,0,3.8-0.3,5.6-0.3
		C151.6,633.5,153.6,633.5,155.5,633.9z"/>
	<path class="st4" d="M128.8,684.2c5.5,0,9.9-5.5,9.9-12.3c0-6.7-4.5-12.3-9.9-12.3c-5.5,0-9.9,5.5-9.9,12.3
		C118.9,678.7,123.3,684.2,128.8,684.2z"/>
	<path class="st0" d="M144.2,635.7c1.8,0,3.8-0.3,5.7-0.3c2.8-0.1,6.3,0,8.6,1.8c0.9,0.7,1.7,1.6,2.3,2.6c2.5,4.1,1.6,9.4,0.6,13.8
		c-1.1,4.9-2.6,9.8-3.2,14.8c-0.2,1.4-0.3,2.9-0.3,4.3c0,3.4,1.2,7.3,2.3,10.5c1.2,3.6,2.7,7.2,3.6,10.9c0.9,3.5,1.4,7.5-0.4,10.9
		c-0.2,0.4-0.5,0.8-0.7,1.1c-0.4,0.6-1,1.1-1.6,1.6c-2.8,2.2-6.6,2.5-10,2.4c-2.3-0.1-4.6-0.5-6.9-0.5c-0.8,0-1.6-0.1-2.4-0.2
		c-6.8-1.1-11.8-6.7-14.8-12.6c-3.8-7.3-5.4-16-5.4-24.2c0-8.1,1.6-16.9,5.4-24.2c3-5.8,8-11.5,14.8-12.6
		C142.6,635.8,143.4,635.7,144.2,635.7z"/>
	<path class="st7" d="M144.2,639.4c-10.4,0-18.9,14.9-18.9,33.3c0,18.4,8.5,33.3,18.9,33.3c4.2,0,12.4,2,15.5-2.1
		c4.7-6.1-5.5-20.2-5.5-31.2c0-13.6,8.6-27.4,2-32.6C153.9,638.2,147,639.4,144.2,639.4z"/>
	<path class="st0" d="M155.6,709.6c12.4,0,22.6-16.6,22.6-37c0-20.4-10.1-37-22.6-37c-12.4,0-22.6,16.6-22.6,37
		C133.1,693,143.2,709.6,155.6,709.6z"/>
	<path class="st4" d="M155.6,706c10.4,0,18.9-15,18.9-33.3c0-18.3-8.5-33.3-18.9-33.3c-10.4,0-18.9,15-18.9,33.3
		C136.7,691,145.2,706,155.6,706z"/>
	<path class="st0" d="M142,558.5c9.5,24.2,75.3,140,75.5,140.3l-23.7,13.5c-0.2-0.3-67-118-77.2-143.8L142,558.5z"/>
	<path class="st0" d="M160.3,643c-4.9,0-9.3,3.3-12.6,8.5c-3.3,5.4-5.4,12.9-5.4,21.1c0,8.3,2.1,15.7,5.4,21.1
		c3.3,5.3,7.7,8.5,12.6,8.5c4.9,0,9.3-3.3,12.6-8.5c3.3-5.4,5.4-12.9,5.4-21.1c0-8.3-2.1-15.7-5.4-21.1
		C169.6,646.3,165.1,643,160.3,643L160.3,643z M146.1,650.6c3.6-5.8,8.6-9.4,14.1-9.4c5.6,0,10.6,3.6,14.1,9.4
		c3.5,5.7,5.7,13.5,5.7,22.1c0,8.6-2.2,16.4-5.7,22.1c-3.6,5.8-8.6,9.4-14.1,9.4c-5.6,0-10.6-3.6-14.1-9.4
		c-3.5-5.7-5.7-13.5-5.7-22.1C140.4,664.1,142.6,656.3,146.1,650.6z"/>
	<path class="st0" d="M175.1,674.5c0-1.2,0.5-2.3,1.4-3.3c2.2-2.5,5.3-2.3,7.8-0.7c0.7,0.5,1.5,1,2.2,1.6c2.1,1.6,4.1,3.4,6,5.2
		c5.6,5.3,11,11.2,15.4,17.5c6,8.4,11.7,19.5,10.1,30.2c-0.7,4.6-0.8,9.3-1.4,13.9c-1,6.8-3.4,12.2-7.3,17.8c-1.4,2-3.1,4-4.7,5.9
		c-2.5,3.1-5.1,6.2-7.6,9.3c-2.2,2.7-4.5,5.5-6.7,8.2c-9.2,11.4-16.2,19-32,18.7c-13-0.3-26,0-39,0.2c-19,0.4-38.1,0.8-57.1,1
		c-7.7,0.1-15.7-0.6-20.9-6.9c-4.5-5.5-6-11-3.5-17.9c11.3-30.6,32.3-54.7,59-72.9c19-12.9,39.5-22.1,61.2-29.5
		c1-0.3,1.9-0.4,2.9-0.2C163.4,673.1,170.5,674.4,175.1,674.5z"/>
	<path class="st2" d="M159.8,677.9c-27.7,9.5-93.1,34.5-116.9,99.1c-2.3,6.2,0.4,9.9,2.6,12.5c3.3,4,8.5,5,16.6,4.9
		c44.6-0.6,75.5-1.8,96.3-1.3c13.4,0.3,19-6.1,27.6-16.6c6.6-8.1,17.1-20.6,18.8-23.1c8-11.4,6-17.8,7.8-29.4
		c3.5-22.7-35.8-53.9-31.6-48.8C187.8,683.9,159.8,677.9,159.8,677.9z"/>
	<path class="st8" d="M159.8,677.9c-3.6,1.2-7.7,2.7-12.3,4.5c5.9,2.4,19,2.3,25.7,2c7.1-0.4,13.3,8.3,11.4,16.4
		c-1.9,8.1-12.7,18.9-15.6,34.7c-1.4,7.4-2.9,15.1-3.5,21.4c-0.8,7.1-0.8,12.5-4.4,13.7c-6.7,2.3-80.4,3.7-96.4,6.4
		c-16,2.7,22.3,3.5,61.3,3.1c39-0.4,39-10.1,41.7,12.1c7.3-2.3,12-7.8,18.3-15.5c6.6-8.1,17.1-20.6,18.8-23.1
		c8-11.4,6-17.8,7.8-29.4c3.5-22.7-35.8-53.9-31.6-48.8C187.8,683.9,159.8,677.9,159.8,677.9z"/>
	<path class="st0" d="M41.2,780c-0.8,0-1.4-0.6-1.4-1.4s0.6-1.4,1.4-1.4l103.3,0c10.4,0,17.4-1,22.4-2.7c4.9-1.7,7.9-4.1,10.5-7.1
		c13-14.9,35.5-45.6,35.6-45.7c0.4-0.6,1.3-0.7,1.9-0.3c0.6,0.4,0.7,1.3,0.3,1.9c-0.1,0.1-22.6,30.9-35.7,45.9
		c-2.9,3.3-6.2,6-11.6,7.9c-5.3,1.8-12.5,2.8-23.2,2.9L41.2,780z"/>
	<path class="st0" d="M158.7,655.4c11.4,0,22.9,0,34.3,0c3,0,5.5,2.5,5.5,5.5v14.7c0,3-2.5,5.5-5.5,5.5h-36.9
		c-1.1,0-2.2-0.2-3.2-0.6C142.3,676.3,143.4,655.4,158.7,655.4z"/>
	<path class="st9" d="M158.7,660.9c34.3,0,34.3,0,34.3,0v14.7h-36.9C150.2,675.5,148.5,660.9,158.7,660.9z"/>
	<path class="st4" d="M158.7,660.9h31.6v7.7h-36.9c-0.7,0-1.4-0.2-2-0.6C151.6,664.4,153.7,660.9,158.7,660.9z"/>
	<path class="st0" d="M124.6,587.6c7,0,12.8-6.7,12.8-14.9c0-8.2-5.7-14.9-12.8-14.9c-7,0-12.8,6.7-12.8,14.9
		C111.8,580.9,117.5,587.6,124.6,587.6z"/>
	<path class="st4" d="M124.6,583.9c5,0,9.1-5,9.1-11.2c0-6.2-4.1-11.2-9.1-11.2c-5,0-9.1,5-9.1,11.2
		C115.4,578.9,119.5,583.9,124.6,583.9z"/>
	<path class="st0" d="M141.3,536.7c5.6,0,18.2-1.6,22.5,1.8c1,0.8,1.9,1.8,2.6,2.9c2.6,4.3,1.8,9.5,0.8,14.2
		c-1,4.4-2.3,8.8-2.9,13.4c-0.2,1.2-0.2,2.4-0.2,3.7c0,9.7,10.7,23,3.9,31.9c-5,6.5-19.3,4-26.7,4c-0.8,0-1.7-0.1-2.5-0.2
		c-6.9-1.1-12-6.7-15.1-12.6c-3.6-7-5.2-15.3-5.2-23.1c0-7.8,1.5-16.1,5.2-23.1c3.1-6,8.1-11.5,15.1-12.6
		C139.6,536.8,140.4,536.7,141.3,536.7z"/>
	<path class="st9" d="M141.3,542.2c-9.6,0-17.3,13.6-17.3,30.5c0,16.8,7.7,30.5,17.3,30.5c3.9,0,19.5,1.8,22.3-1.9
		c4.3-5.6-5-18.5-5-28.6c0-12.4,7.8-25.1,1.8-29.9C158.2,541.1,143.8,542.2,141.3,542.2z"/>
	<path class="st4" d="M141.3,542.2c-9.6,0-17.3,13.6-17.3,30.5c0,2.4,0.2,4.8,0.5,7c1.8,1,3.8,1.5,5.9,1.4
		c3.9-0.3,19.5,0.4,22.3-3.5c4.3-5.9-5-18.2-5-28.2c0-2.4,5.1-4.9,5.6-7.4C149.9,542,142.3,542.2,141.3,542.2z"/>
	<path class="st0" d="M153.4,538c0.5,0,0.9,0.4,0.9,0.9c0,0.5-0.4,0.9-0.9,0.9c-8.5,0-14.2,7.3-17.2,16.9c-1.4,4.4-2.2,9.3-2.4,14.2
		c-0.3,4.9,0,9.9,0.9,14.4c1.9,10.3,6.6,18.4,13.8,18.8c0.5,0,0.9,0.4,0.8,1c0,0.5-0.5,0.9-1,0.9c-8.2-0.4-13.4-9.1-15.4-20.2
		c-0.9-4.7-1.2-9.8-0.9-14.8c0.3-5.1,1.1-10.1,2.5-14.6C137.6,545.9,143.9,538,153.4,538z"/>
	<path class="st0" d="M131.4,598.8c3.1-2,10.5-2,14.8-0.8c5.8,1.5,11.2,6.9,11.2,6.9c-3.4,0.8-13,2.8-20,1.1
		C132.8,605,127.6,601.2,131.4,598.8z"/>
	<path class="st0" d="M162.9,608.6c12.5,0,22.8-16.1,22.8-35.9c0-19.8-10.2-35.9-22.8-35.9c-12.5,0-22.8,16.1-22.8,35.9
		C140.1,592.5,150.4,608.6,162.9,608.6z"/>
	<path class="st4" d="M162.9,603.2c9.5,0,17.3-13.7,17.3-30.5c0-16.8-7.8-30.5-17.3-30.5c-9.5,0-17.3,13.7-17.3,30.5
		C145.6,589.5,153.4,603.2,162.9,603.2z"/>
	<path class="st0" d="M165.8,593c6.4,0,11.6-9.1,11.6-20.3c0-11.2-5.2-20.3-11.6-20.3c-6.4,0-11.6,9.1-11.6,20.3
		C154.2,583.9,159.4,593,165.8,593z"/>
	<path class="st9" d="M165.8,590.3c4.9,0,8.9-7.9,8.9-17.6c0-9.7-4-17.6-8.9-17.6c-4.9,0-8.9,7.9-8.9,17.6
		C156.9,582.4,160.9,590.3,165.8,590.3z"/>
	<path class="st4" d="M182.3,572.7c0-12.4-15.5-14-19.3-8.6c-3.1,4.5-2.3,15.2,0,17.6C168.3,587.2,182.3,584,182.3,572.7z"/>
	<path class="st7" d="M150,572.7c0-14.6,5.8-26.8,13.6-29.8c0.5-0.2,1-0.3,1.5-0.5c-0.7-0.2-1.5-0.2-2.2-0.2c-0.3,0-0.7,0-1,0
		c-9.1,0.9-16.3,14.2-16.3,30.4c0,1.3,0,2.6,0.1,3.9c0,0.4,0.1,0.7,0.1,1.1c1.1,12.3,6.4,22.1,13.3,24.8c1.1,0.4,2.2,0.7,3.4,0.7
		c0.1,0,0.3,0,0.4,0c0.8,0,1.5-0.1,2.2-0.2c-0.3-0.1-0.5-0.1-0.8-0.2c-7.6-2.3-13.4-13.3-14.2-26.9C150.1,574.8,150,573.7,150,572.7
		z"/>
	<path class="st9" d="M176.7,565.5c-1,0.8-1.7,1.8-2.2,3.1c-0.4,0.9-0.7,2-1.1,3.3c-0.7,2.4-2.5,3-6.1,2.8c-1.5-0.1-3.4-0.3-5.6-0.6
		c-0.2,0-0.5-0.1-0.7-0.1c0.1,3.4,0.9,6.6,2,7.7c0.2,0.2,0.3,0.3,0.5,0.5c1.7,1.4,4,2.1,6.5,2.1c0.8,0,1.7-0.1,2.5-0.2
		c1.1-0.2,2.2-0.6,3.2-1.1c1.5-0.7,2.8-1.7,3.9-3c1.6-1.9,2.6-4.3,2.6-7.3c0-3.2-1-5.7-2.6-7.5c-0.3-0.3-0.6-0.7-1-1
		C177.9,564.7,177.2,565.1,176.7,565.5z"/>
	<path class="st0" d="M180.9,572.7c0-2.8-0.9-5-2.2-6.6c-1.3-1.5-3.1-2.6-5-3.1c-1.9-0.6-4-0.6-5.7-0.3c-1.7,0.3-3.1,1.1-3.8,2.1
		c-1.3,1.8-1.8,5-1.8,8c0,3.5,0.6,6.8,1.6,7.8c1.4,1.5,3.6,2.2,6,2.2c1.4,0,2.9-0.3,4.3-0.8c1.4-0.5,2.6-1.3,3.7-2.3
		C179.7,578.2,180.9,575.8,180.9,572.7L180.9,572.7z M180.8,564.4c1.8,2.1,2.9,4.8,2.9,8.3c0,3.9-1.5,7-3.8,9.1
		c-1.3,1.3-2.9,2.2-4.6,2.9c-1.7,0.6-3.5,1-5.2,1c-3.1,0-6-1-8-3.1c-1.5-1.5-2.4-5.6-2.4-9.7c0-3.6,0.7-7.3,2.3-9.6
		c1.2-1.7,3.2-2.8,5.5-3.3c2.2-0.4,4.6-0.3,7,0.3C176.8,561.1,179.1,562.4,180.8,564.4z"/>
	<path class="st0" d="M196.6,636.5c1.4,0,3-0.2,4.4-0.3c3-0.1,6.2,0.1,8.6,2.1c0.7,0.6,1.4,1.4,1.9,2.2c2.7,4.1,2,9.3,1,13.8
		c-0.9,4.4-2.1,8.7-2.6,13.2c-0.1,1-0.2,2-0.2,3c0,9.1,9.2,21.8,3.4,30c-0.6,0.9-1.4,1.7-2.3,2.3c-2.6,1.9-5.8,2.2-9,2.1
		c-1.8-0.1-3.6-0.4-5.3-0.4c-7.1,0-12.2-5.4-15.2-11.2c-3.6-6.8-5-15.2-5-22.8c0-7.6,1.4-16,5-22.8
		C184.4,641.9,189.5,636.5,196.6,636.5z"/>
	<path class="st4" d="M196.6,641.7c-8.3,0-15,12.9-15,28.8s6.7,28.8,15,28.8c3.3,0,9.9,1.7,12.4-1.8c3.7-5.2-4.4-17.5-4.4-27
		c0-11.7,6.8-23.7,1.6-28.2C204.3,640.7,198.8,641.7,196.6,641.7z"/>
	<path class="st0" d="M209.8,704.3c11.9,0,21.7-15.4,21.7-34.2c0-18.8-9.7-34.2-21.7-34.2s-21.7,15.4-21.7,34.2
		C188.1,689,197.8,704.3,209.8,704.3z"/>
	<path class="st4" d="M209.8,699.1c9.1,0,16.5-13,16.5-29c0-16-7.4-29-16.5-29c-9.1,0-16.5,13-16.5,29
		C193.3,686.1,200.7,699.1,209.8,699.1z"/>
	<path class="st0" d="M212.5,689.5c6.1,0,11-8.7,11-19.3c0-10.7-5-19.3-11-19.3c-6.1,0-11,8.7-11,19.3
		C201.5,680.8,206.4,689.5,212.5,689.5z"/>
	<path class="st9" d="M212.5,686.9c4.6,0,8.4-7.5,8.4-16.7c0-9.2-3.8-16.7-8.4-16.7c-4.6,0-8.4,7.5-8.4,16.7
		C204.1,679.4,207.9,686.9,212.5,686.9z"/>
	<path class="st4" d="M228.2,670.1c0-11.8-14.8-13.3-18.3-8.2c-2.9,4.2-2.2,14.5,0,16.7C214.9,683.9,228.2,680.9,228.2,670.1z"/>
	<path class="st5" d="M197.5,670.1c0-13.9,5.5-25.4,12.9-28.3c0.5-0.2,1-0.3,1.4-0.4c-0.7-0.2-1.4-0.2-2.1-0.2c-0.3,0-0.6,0-1,0
		c-8.6,0.9-15.5,13.5-15.5,28.9c0,1.3,0,2.5,0.1,3.7c0,0.3,0.1,0.7,0.1,1c1.1,11.7,6.1,21,12.6,23.6c1,0.4,2.1,0.7,3.2,0.7
		c0.1,0,0.3,0,0.4,0c0.7,0,1.4-0.1,2.1-0.2c-0.3-0.1-0.5-0.1-0.8-0.2c-7.2-2.2-12.8-12.7-13.5-25.6
		C197.5,672.1,197.5,671.1,197.5,670.1z"/>
	<path class="st9" d="M222.8,663.3c-1,0.8-1.6,1.7-2.1,2.9c-0.4,0.9-0.7,1.9-1,3.1c-0.6,2.3-2.3,2.9-5.8,2.6
		c-1.4-0.1-3.2-0.3-5.3-0.6c-0.2,0-0.5-0.1-0.7-0.1c0.1,3.3,0.8,6.2,1.9,7.3c0.2,0.2,0.3,0.3,0.5,0.5c1.6,1.4,3.8,2,6.2,2
		c0.8,0,1.6-0.1,2.4-0.2c1.1-0.2,2.1-0.5,3.1-1c1.4-0.7,2.7-1.6,3.7-2.8c1.5-1.8,2.5-4.1,2.5-7c0-3-1-5.4-2.5-7.1
		c-0.3-0.3-0.6-0.6-0.9-0.9C224,662.5,223.4,662.9,222.8,663.3z"/>
	<path class="st0" d="M226.9,670.1c0-2.7-0.8-4.7-2.1-6.2c-1.3-1.5-3-2.4-4.8-3c-1.8-0.5-3.8-0.6-5.4-0.3c-1.6,0.3-2.9,1-3.6,2
		c-1.2,1.7-1.7,4.7-1.7,7.6c0,3.3,0.6,6.5,1.6,7.5c1.4,1.4,3.5,2.1,5.7,2.1c1.4,0,2.7-0.2,4.1-0.7c1.3-0.5,2.5-1.2,3.5-2.2
		C225.8,675.4,226.9,673.1,226.9,670.1L226.9,670.1z M226.7,662.2c1.7,2,2.8,4.6,2.8,7.9c0,3.7-1.4,6.6-3.6,8.7
		c-1.3,1.2-2.8,2.1-4.4,2.7c-1.6,0.6-3.3,0.9-5,0.9c-2.9,0-5.7-1-7.6-2.9c-1.4-1.5-2.3-5.3-2.3-9.3c0-3.4,0.6-6.9,2.2-9.1
		c1.1-1.6,3-2.6,5.3-3.1c2.1-0.4,4.4-0.3,6.7,0.3C223,659.1,225.1,660.3,226.7,662.2z"/>
	<path class="st4" d="M212.1,727.4c-6.6,8.9-22.5,30.1-32.7,41.8c-2.9,3.3-6.2,6-11.6,7.9c-5.3,1.8-12.5,2.8-23.2,2.9l-102.4,0
		c-0.7,4.6,1.5,7.5,3.3,9.7c3.3,4,8.5,5,16.6,4.9c44.6-0.6,75.5-1.8,96.3-1.3c13.4,0.3,19-6.1,27.6-16.6
		c6.6-8.1,17.1-20.6,18.8-23.1C211.9,743.2,211.1,737,212.1,727.4z"/>
	<path class="st9" d="M212.1,727.4c-6.6,8.9-22.5,30.1-32.7,41.8c-2.9,3.3-6.2,6-11.6,7.9c-0.2,0.1,0.7,14.9,2.7,14
		c5.8-2.7,10-7.7,15.5-14.4c6.6-8.1,17.1-20.6,18.8-23.1C211.9,743.2,211.1,737,212.1,727.4z"/>
	<path class="st7" d="M111.4,710.4c2.7,7.6,19.9-2.1,17.2-9.9c-1.3-3.7-7.7-0.6-2-5.4c3.6-3,10.2-7.4,11.8-8.6
		c0.3-0.3,0.7-0.5,1-0.8c-1.5,0.6-3,1.3-4.4,1.9c-2.2,1-4.4,2-6.7,3.1c-1.1,0.5-2.2,1.1-3.3,1.6c-0.5,0.3-1.1,0.5-1.6,0.8
		c-29.5,14.9-64.4,40.5-80.5,84c0,0,0,0.1,0,0.1l11.6,0c2.4-4.5,11.8-26.9,26.6-45.4C91.1,719.1,109.2,704.5,111.4,710.4z"/>
	<path class="st5" d="M54.2,780l-12.1,0c-0.7,4.6,1.5,7.5,3.3,9.7c2.5,3,6,4.3,11.1,4.8c-2.8-2.6-3.8-6.2-4.5-9.3
		C51.5,782.5,52.4,781,54.2,780z"/>
	<path class="st0" d="M184.4,705.7c-12.4,21.5-17.9,36.2-19,61.4c-2.4-23.1,5.7-43,16.5-62.8c0.4-0.7,1.3-0.9,1.9-0.5
		C184.6,704.2,184.8,705.1,184.4,705.7z"/>
	<path class="st0" d="M172.3,796.1c-5.3-0.2-4.8-16.1-4.8-18c0.5,2.2,3,13.3,5.1,15.5c0.5,0.2,0.9,0.6,0.9,1.1
		C173.7,795.4,173.1,796.1,172.3,796.1L172.3,796.1z M172.7,793.7L172.7,793.7C172.8,793.7,172.8,793.7,172.7,793.7z"/>
	<path class="st6" d="M154.6,613.9c17.1,33.7,19,40.7,20.5,36.8c1.5-4,5.1-8.1,5.1-8.1L163,608.7c0,0-3.1,0.6-8,0.3
		C152.1,608.8,154,612.8,154.6,613.9z"/>
	<path class="st5" d="M127.2,558.1c2.9-7.2,7.5-12.1,12.7-12.9c0.6-0.7,1.2-1.5,1.8-2.1c0.3-0.3,0.6-0.6,1-0.9c-0.2,0-0.5,0-0.7,0
		c-0.4,0-0.6,0-0.8,0c-6.5,0-12.2,6.3-15.1,15.7c-0.4,1.1-0.7,2.3-1,3.6c-0.3,1.3-0.5,2.5-0.7,3.9c-0.3,2.4-0.5,4.8-0.5,7.3
		c0,1.1,0,2.2,0.1,3.2c0-0.1,0-0.2,0-0.4c0-3.7,0.4-7.2,1.1-10.5c0.3-1.2,0.5-2.4,0.9-3.5C126.3,560.4,126.7,559.2,127.2,558.1z"/>
	<path class="st5" d="M142.3,545.1c1.3,0,3.7-0.1,6.1-0.1c0.8-1.1,1.7-2.1,2.6-3c-1.6,0-3.5,0.1-5.3,0.1
		C144.5,542.9,143.4,543.9,142.3,545.1z"/>
	<path class="st0" d="M187.8,406.3c6-9.8,17.6-15,28.6-16.5c13.2-1.9,26.9,1.1,38.3,8c11.4,7,20.2,18,24.5,30.6
		c3.6,10.5,4.2,23.3-1.7,33.1c-1.9,3.2-4.5,5.8-7.6,7.8c-15.7,10-39.3-0.5-53.3-9.1c-8.6-5.3-17.3-12-23.7-20
		c-5.4-6.8-9.5-15.1-8.5-24C184.7,412.8,185.9,409.4,187.8,406.3z"/>
	<path class="st1" d="M192.4,409.2c-9,14.7,4.7,32.9,26.9,46.5c22.2,13.6,44.4,17.8,53.4,3.1c9-14.7,1.3-42.7-20.9-56.2
		C229.5,388.9,201.4,394.5,192.4,409.2z"/>
	<path class="st0" d="M227.2,465.2c0.4,0.3,1,0.1,1.2-0.3c0.3-0.4,0.1-1-0.3-1.2c-0.8-0.5-1.5-1-2.1-1.5c-2.8-2.5-3.5-5.5-3.2-8.6
		c0.3-3.2,1.7-6.3,3.3-8.9c1.2-2,2.4-3.6,3.3-4.6c0.3-0.4,0.3-1-0.1-1.3c-0.4-0.3-1-0.3-1.3,0.1c-0.9,1-2.2,2.7-3.5,4.8
		c-1.6,2.7-3.2,6.2-3.5,9.6c-0.3,3.6,0.6,7.2,3.8,10.1C225.5,464.1,226.3,464.7,227.2,465.2z"/>
	<path class="st0" d="M235.8,469.2c0.5,0.8,1.7,1.1,2.5,0.6c0.8-0.5,1.1-1.7,0.6-2.5c-1.5-2.4-1.5-5.2-0.8-7.9
		c1.2-4.7,4.3-9,5.9-10.8c0.7-0.8,0.6-1.9-0.2-2.6c-0.8-0.7-1.9-0.6-2.6,0.2c-1.8,2-5.4,7-6.7,12.3
		C233.6,462,233.7,465.8,235.8,469.2z"/>
	<path class="st0" d="M213.2,457.7c0.9,0.5,2,0.2,2.5-0.6c0.5-0.9,0.2-2-0.6-2.5c-0.7-0.4-1.4-0.9-2-1.4c-2.5-2.2-3.2-5-2.9-7.8
		c0.3-3,1.7-6,3.1-8.5c1.2-1.9,2.4-3.5,3.2-4.4c0.7-0.8,0.6-1.9-0.2-2.6c-0.8-0.7-1.9-0.6-2.6,0.2c-0.9,1-2.3,2.8-3.6,5
		c-1.7,2.8-3.3,6.4-3.6,10c-0.4,3.8,0.6,7.7,4.2,10.9C211.4,456.5,212.2,457.1,213.2,457.7z"/>
	<path class="st4" d="M223.4,458.6c-0.7-1.6-0.8-3.3-0.6-5c0.3-3,1.6-6,3-8.5c0.1-0.1,0.1-0.2,0.2-0.4c0.5-0.9,1-1.7,1.5-2.4
		c0.4,0.3,0.9,0.5,1.3,0.8c3.3,2,6.7,3.9,10.2,5.7c-1.7,2.5-3.6,5.9-4.6,9.5c-0.5,1.9-0.7,3.9-0.5,5.8
		C230.5,462.6,227,460.7,223.4,458.6z"/>
	<path class="st9" d="M223.1,451.4c0.6-2.3,1.6-4.5,2.7-6.3c0.1-0.1,0.1-0.2,0.2-0.4c0.5-0.9,1-1.7,1.5-2.4c0.4,0.3,0.9,0.5,1.3,0.8
		c3.3,2,6.7,3.9,10.2,5.7c-1.6,2.3-3.4,5.5-4.4,8.8c-3.2-1.5-6.4-3.2-9.6-5.1C224.4,452.2,223.8,451.8,223.1,451.4z"/>
	<path class="st4" d="M220.9,453.4c-0.1,1.3-0.1,2.5,0.1,3.8c-2.8-1.7-5.4-3.5-7.9-5.3c-0.8-0.6-1.7-1.2-2.5-1.9
		c-0.6-1.5-0.8-3.1-0.6-4.7c0.3-3,1.7-6,3.1-8.5c0.6-1.1,1.3-2,1.9-2.8c3.6,2.6,7.2,5.1,10.9,7.4c-0.5,0.7-1,1.5-1.6,2.4
		c-0.6,0.9-1.1,2-1.6,3C221.9,448.9,221.2,451.1,220.9,453.4z"/>
	<path class="st9" d="M210.7,442.6c0.6-2.1,1.6-4,2.6-5.8c0.6-1.1,1.3-2,1.9-2.8c3.6,2.6,7.2,5.1,10.9,7.4c-0.5,0.7-1,1.5-1.6,2.4
		c-0.6,0.9-1.1,2-1.6,3c-0.5,1.2-1,2.4-1.3,3.6C217.6,447.9,213.9,445.3,210.7,442.6z"/>
	<g>
		<path class="st0" d="M136.7,267.7c-26.4,7.3-50.1,22.1-68,38.2c-10.5,9.4-18.9,18.9-24.7,27c-3.9,5.6-40.4,16.5-25-9.3
			c7.3-12.3,18.2-25.6,31.9-37.8c20.8-18.7,48.4-35.9,79.5-44.4L136.7,267.7z"/>
		<path class="st6" d="M39.5,309.4c8.9,2.1,9,1.1,10.2-0.1c13.3-13.8,36.2-30.5,53.8-36.6c3.2-1.1,3.7,0.5,0.6,2.1
			C86.7,283.7,67,297,50,316c-0.8,1-1.6,0-2.7-0.8c-0.2-0.1-3.6-2.4-6.3-4.1C38.7,309.7,36.8,308.8,39.5,309.4z"/>
	</g>
	<path class="st0" d="M147.9,207.6c11.9,1.4,21.9,10.2,28.2,19.9c7.5,11.7,10.8,26.1,9.2,39.9c-1.6,13.9-8.2,27.1-18.4,36.7
		c-8.4,8-20.3,14.2-32.2,12.9c-3.8-0.4-7.4-1.7-10.7-3.8c-16.4-10.6-16.7-37.6-14.7-54.7c2-17.3,8.9-43.5,27.6-49.9
		C140.5,207.5,144.2,207.1,147.9,207.6z"/>
	<path class="st8" d="M147.3,213c-18-2.1-29.4,19-32.6,46.2c-3.2,27.2,2.6,50.3,20.6,52.4c18,2.1,41.4-17.6,44.5-44.8
		C183,239.5,165.3,215.1,147.3,213z"/>
	<path class="st1" d="M133.2,311.2c0.7,0.2,1.4,0.3,2.1,0.4c18,2.1,41.4-17.6,44.5-44.8c2.6-22.6-9.1-43.2-23.4-50.8
		c-1.1-0.3-2.2-0.5-3.4-0.7c-18-2.1-29.4,19-32.6,46.2C117.9,284.2,121.4,304.1,133.2,311.2z"/>
	<path class="st0" d="M111.7,252.2c0.1-0.5,0.5-0.9,1-0.8c0.5,0.1,0.9,0.5,0.8,1c-0.1,0.9-0.1,1.8-0.1,2.6c0.3,3.7,2.3,6.2,4.9,7.8
		c2.7,1.7,6.1,2.4,9.1,2.8c2.3,0.3,4.4,0.2,5.6,0.1c0.5,0,0.9,0.3,1,0.8c0,0.5-0.3,0.9-0.8,1c-1.3,0.1-3.5,0.1-5.9-0.1
		c-3.2-0.4-6.8-1.2-9.8-3c-3.1-1.9-5.4-4.8-5.7-9.2C111.6,254.2,111.6,253.2,111.7,252.2z"/>
	<path class="st0" d="M113.8,242.9c-0.3-0.9,0.1-2,1.1-2.3c0.9-0.3,2,0.1,2.3,1.1c1,2.7,3.2,4.4,5.8,5.5c4.4,1.9,9.8,2,12.2,1.8
		c1-0.1,1.9,0.7,2,1.7c0.1,1-0.7,1.9-1.7,2c-2.7,0.2-8.8,0.1-13.9-2.1C118.2,249,115.2,246.6,113.8,242.9z"/>
	<path class="st0" d="M109.2,267.9c0.1-1,1-1.7,2-1.6c1,0.1,1.7,1,1.6,2c-0.1,0.9-0.1,1.7-0.1,2.4c0.3,3.4,2.1,5.6,4.4,7
		c2.6,1.6,5.8,2.3,8.7,2.6c2.2,0.2,4.2,0.2,5.4,0.1c1-0.1,1.9,0.7,2,1.7c0.1,1-0.7,1.9-1.7,2c-1.4,0.1-3.6,0.1-6.1-0.1
		c-3.3-0.4-7.1-1.3-10.2-3.2c-3.3-2-5.8-5.1-6.2-9.9C109.1,270,109.1,269,109.2,267.9z"/>
	<path class="st4" d="M114.7,259.2c0.9,1.5,2.1,2.6,3.6,3.5c2.6,1.6,5.8,2.4,8.6,2.7c0.1,0,0.3,0,0.4,0c1,0.1,2,0.2,2.8,0.2
		c0.1-0.5,0.1-1,0.2-1.6c0.4-3.9,1-7.7,1.6-11.5c-3-0.1-6.9-0.6-10.3-2.1c-1.8-0.8-3.5-1.8-4.9-3.1
		C115.9,251.1,115.2,255.1,114.7,259.2z"/>
	<path class="st9" d="M120.3,263.7c2.1,0.9,4.5,1.4,6.7,1.7c0.1,0,0.3,0,0.4,0c1,0.1,2,0.2,2.8,0.2c0.1-0.5,0.1-1,0.2-1.6
		c0.4-3.9,1-7.7,1.6-11.5c-2.8-0.1-6.4-0.6-9.7-1.8c-0.7,3.4-1.3,7.1-1.8,10.8C120.4,262.2,120.3,263,120.3,263.7z"/>
	<path class="st4" d="M117.3,264.3c-1.1-0.7-2.1-1.5-2.9-2.4c-0.3,3.2-0.5,6.4-0.5,9.5c0,1,0,2.1,0,3.1c0.8,1.4,2,2.5,3.3,3.3
		c2.6,1.6,5.8,2.3,8.7,2.6c1.2,0.1,2.4,0.2,3.4,0.2c0.1-4.4,0.3-8.8,0.7-13.1c-0.9,0-1.8-0.1-2.8-0.2c-1.1-0.1-2.2-0.3-3.4-0.6
		C121.6,266.2,119.3,265.5,117.3,264.3z"/>
	<path class="st9" d="M119.8,279c2,0.8,4.2,1.2,6.1,1.4c1.2,0.1,2.4,0.2,3.4,0.2c0.1-4.4,0.3-8.8,0.7-13.1c-0.9,0-1.8-0.1-2.8-0.2
		c-1.1-0.1-2.2-0.3-3.4-0.6c-1.2-0.3-2.5-0.6-3.7-1.1C119.7,270.2,119.6,274.7,119.8,279z"/>
	<path class="st0" d="M106.5,446.1c-12.9-9.3-33.9-31.5-54.5-57.2c-10-12.5-20-25.9-29-39.1c-2.8-4.2-6.8-11-9.3-18.1
		c-1.8-5,18.7-17,28.5-2.2c9.3,14.1,20.2,28.8,31.1,42.3c19.1,23.9,38.1,44.1,49.1,52.1L106.5,446.1z"/>
	<path class="st0" d="M20.6,307.9c15-4.3,30.7,4.4,35,19.5c4.3,15-4.4,30.7-19.5,35c-15,4.3-30.7-4.4-35-19.5
		C-3.2,327.9,5.5,312.2,20.6,307.9z"/>
	<path class="st9" d="M22.1,313.2c12.1-3.5,24.8,3.6,28.3,15.7c3.5,12.1-3.6,24.8-15.7,28.3c-12.1,3.5-24.8-3.6-28.3-15.7
		C2.9,329.3,9.9,316.6,22.1,313.2z"/>
	<path class="st4" d="M22.1,313.2c8.5-2.4,17.3,0.3,23,6.3c0.3,0.7,0.5,1.4,0.7,2.1c3.5,12.1-3.6,24.8-15.7,28.3
		c-8.5,2.4-17.3-0.3-23-6.3c-0.3-0.7-0.5-1.4-0.7-2.1C2.9,329.3,9.9,316.6,22.1,313.2z"/>
	<path class="st0" d="M131.6,447c4.8-7,11.6-16.7,20.7-17.8c4.3-0.5,8.5,0.9,12.4,2.7c4.6,2.1,9.2,4.8,13.7,7.1
		c0.1,0,0.2,0.1,0.2,0.1c4.8,2.8,11.5,7,15.5,10.8c4.2,4,7.2,10.6,6.1,16.5c-0.7,3.7-6.3,9.2-8.9,11.9c-2.5,2.5-5.4,5.4-8.3,7.6
		c-5.5,4.1-11.3,3.2-17.4,1.4c-2.5-0.7-5.7-2.8-7.9-4.2c-3.4-2.2-6.8-4.5-10.2-6.8c-4.6-3.2-9.2-6.4-13.6-9.8
		C126.9,461.4,126.9,453.8,131.6,447z"/>
	<path class="st9" d="M136.1,450.1c-3.5,5.2-2.8,9.2,1,12.1c7.1,5.3,25.6,18.6,30,19.9c4.3,1.3,8.7,2.4,12.6-0.5
		c3.9-2.9,14.6-13.6,15.1-16.1c0.5-2.5-0.4-7.6-4.5-11.5c-4.1-4-14.4-10.1-14.4-10.1C155.1,433,151.3,428,136.1,450.1z"/>
	<path class="st0" d="M110.7,472.1c4.8-7,11.6-16.7,20.7-17.8c4.3-0.5,8.5,0.9,12.4,2.7c4.6,2.1,9.2,4.8,13.7,7.1
		c0.1,0,0.2,0.1,0.2,0.1c4.8,2.8,11.5,7,15.5,10.8c4.2,4,7.2,10.6,6.1,16.5c-0.7,3.7-6.3,9.2-8.9,11.9c-2.5,2.5-5.4,5.4-8.3,7.6
		c-5.5,4.1-11.3,3.2-17.4,1.4c-2.5-0.7-5.7-2.8-7.9-4.2c-3.4-2.2-6.8-4.5-10.2-6.8c-4.6-3.2-9.2-6.4-13.6-9.8
		C106,486.5,106,478.9,110.7,472.1z"/>
	<path class="st9" d="M115.2,475.2c-3.5,5.2-2.8,9.2,1,12.1c7.1,5.3,25.6,18.6,30,19.9c4.3,1.3,8.7,2.4,12.6-0.5
		c3.9-2.9,14.6-13.6,15.1-16.1c0.5-2.5-0.4-7.6-4.5-11.5c-4.1-4-14.4-10.1-14.4-10.1C134.1,458.1,130.4,453,115.2,475.2z"/>
	<path class="st0" d="M103.9,523.5c-0.3-0.2-0.5-0.3-0.7-0.5c-0.1,0-0.2,0.1-0.3,0.1c-1.7,0.6-3.5,0.4-5-0.7
		c-2.6-1.9-5.2-3.7-7.7-5.7c-6.9-5.2-6.9-12.8-2.3-19.6c4.8-7,11.6-16.7,20.7-17.8c4.3-0.5,8.5,0.9,12.4,2.7
		c4.6,2.1,9.2,4.8,13.7,7.1c0.1,0,0.2,0.1,0.2,0.1c4.8,2.8,11.5,7,15.5,10.8c4.2,4,7.2,10.6,6.1,16.5c-0.7,3.7-6.3,9.2-8.9,11.9
		c-2.5,2.5-5.4,5.4-8.3,7.6c-5.5,4.1-11.3,3.2-17.4,1.4c-2.2-0.7-4.9-2.3-6.9-3.5c-3-1.8-5.9-3.8-8.7-5.7
		C104.6,527.1,103.8,525.4,103.9,523.5z"/>
	<path class="st9" d="M92.4,500.3c-3.5,5.2-2.8,9.2,1,12.1c1.9,1.4,4.6,3.4,7.7,5.6c0.2-0.7,0.5-1.5,0.8-2.1c2,0.9,6,4.1,8.1,4.7
		c-0.3,1-0.5,2.1-0.6,3.2c6.1,4.2,11.9,7.8,14,8.5c4.3,1.3,8.7,2.4,12.6-0.5c3.9-2.9,14.6-13.6,15.1-16.1c0.5-2.5-0.4-7.6-4.5-11.5
		c-4.1-4-14.4-10.1-14.4-10.1C111.3,483.2,107.5,478.1,92.4,500.3z"/>
	<path class="st0" d="M32.4,393.3c-5.6-5.3-7.5-13.7-7-21.2c0.6-8.7,4.4-17.1,10.4-23.5c6-6.4,14.3-10.5,23-11.6
		c7.5-0.9,15.9,0.6,21.6,5.9c1.9,1.8,3.4,3.9,4.3,6.4c4.4,11.8-5.2,25.3-12.8,33.4c-4.5,4.8-9.9,9.3-15.8,12.2
		c-5.3,2.6-11.4,4.1-17.2,2.2C36.4,396.3,34.2,395,32.4,393.3z"/>
	<path class="st8" d="M36.1,389.3c7.8,7.3,20.6,1.4,31.7-10.3c11.1-11.8,16.5-24.7,8.8-32c-7.8-7.3-25.8-6.3-36.9,5.4
		C28.6,364.1,28.4,382,36.1,389.3z"/>
	<path class="st0" d="M87.1,340.1c15,0,49.3,28.5,60.8,38c9.1,7.6,17.9,15.4,26.5,23.5c6.4,6,13,12.3,18.8,18.9
		c6.7,7.6,5.1,17.8,2.2,26.6c-1.2,3.6-6.6,10.1-9,13.2c-5.3,6.6-10.8,13-16.4,19.3c-4.9,5.5-9.9,11-15.1,16.4
		c-3.5,3.6-7.5,7.8-11.5,10.9c-4.6,3.5-9.4,7.3-15.1,8.6c-8.8,2.1-17-2.2-24-7.1c-2.9-2-5.7-4.4-8.4-6.8c-3.8-3.3-7.4-6.8-11-10.3
		c-9-8.8-17.7-18-26.1-27.5C48.4,451.9,25,424.4,23,408.5c-1-8.2,2.4-16.5,6.6-23.3c4.8-7.9,11.3-15.1,18-21.4
		c9.6-8.9,25.3-20.6,38.2-23.5C86.3,340.2,86.7,340.1,87.1,340.1z"/>
	<path class="st2" d="M87.1,345.6C67,350.2,25.7,385,28.5,407.8c2.8,22.8,63,85.1,79,96.1c15.9,11.1,22.2,6.6,32.7-1.4
		c10.5-8.1,48.1-51.1,50.1-57.1c2.5-7.4,3.9-15.6-1.1-21.3C170.8,403.3,105,345.6,87.1,345.6z"/>
	<path class="st8" d="M35.9,385.5c-5.2,7.8-8.3,15.6-7.5,22.4c2.8,22.8,63,85.1,79,96.1c15.9,11.1,22.2,6.6,32.7-1.4
		c10.5-8.1,48.1-51.1,50.1-57.1c2.2-6.6,3.6-13.7,0.4-19.2c-7,5.2-18.2,11.2-36,16.2C115.1,453.5,63.6,423.6,35.9,385.5z"/>
	<path class="st5" d="M87.1,345.6c-4.2,1-9.4,3.3-14.9,6.5c7.5-0.7,16.4,1.3,27.3,7.4c30.1,17,87.2,56.3,91.4,77.1
		c0.3,1.4,0.5,2.6,0.7,3.8c1.4-5.9,1.4-11.8-2.5-16.3C170.8,403.3,105,345.6,87.1,345.6z"/>
	<path class="st1" d="M110.6,486.6c-2.9-1.9-9.5-6.9-13.2-9.7c-6.6-4.9-30.3-32.1-47.8-53.3c-16.4-19.8-14.6-21.1-15-20.3
		c-0.3,0.5-3.1-10.2-3.4-9.6c-2.3,5-3.3,9.8-2.8,14.2c2.2,18.5,39.2,60.7,65.1,84.4c6,5.5,10.9,9.6,13.9,11.7
		c15.9,11.1,22.2,6.6,32.7-1.4c1-0.7,2.1-1.8,3.5-3c0.7-0.7,1.5-1.5,2.4-2.3c5.5-5.4,12.9-13.4,20.1-21.5c1.1-1.2,2.2-2.5,3.3-3.7
		c4-4.6,7.9-9.2,11.2-13.2c4.1-5,7.2-9.2,8.7-11.6c0.1-0.2,0.2-0.4,0.3-0.6c0.3-0.4,0.4-0.8,0.5-1.1c1.9-5.8,3.2-12,1.4-17.1
		c-0.3-0.7-3.1-4.9-3.5-5.5c-1,5.3-3.8,10-8.8,17.2c-6.5,9.4-16.2,21.7-25.3,30C138.6,484.3,122.9,494.8,110.6,486.6z"/>
	<path class="st0" d="M122.1,513.9c-3.3,3.2-0.5,9,1.1,12.2c-5.6-2.7-7.5-10.1-3.9-15c0.8-0.8,2-0.8,2.8,0
		C122.9,511.9,122.9,513.1,122.1,513.9z"/>
	<path class="st0" d="M184.6,417.1c-0.3-0.4-0.1-1,0.3-1.3c0.4-0.3,1-0.1,1.3,0.3c2.1,3.4,2.4,6.7,1.8,9.6c-0.6,2.9-2,5.5-3.4,7.4
		c-8.4,12.4-22.5,30.7-36.5,43.2c-10,8.9-19.9,14.9-27.9,14c-20.1-2.4-42.6-29.8-67.3-59.9c-2.5-3-4.9-6-8-9.7
		c-5.6-6.8-9-12.4-11-16.8c-2-4.5-2.7-7.7-3-9.7c-0.6-4.7-0.1-6.9,0.1-7.4c0-0.1,0-0.1,0.1-0.2c1.1-3.7,2.4-5.7,3.1-5.9
		c0.2-0.3,0.3-0.3,0.3,0c0.5,0.4,0.3,2.5-1.7,6.5c-0.1,0.3-0.6,2.2,0,6.8c0.2,1.9,0.9,4.9,2.8,9.2c2,4.3,5.3,9.8,10.8,16.4
		c2.3,2.8,5.2,6.3,8,9.7c24.5,29.8,46.7,56.9,66.1,59.2c7.4,0.9,16.8-4.9,26.4-13.5c13.9-12.4,27.9-30.5,36.2-42.8
		c1.2-1.8,2.5-4.2,3.1-6.8C186.7,422.8,186.4,420,184.6,417.1z"/>
	<path class="st0" d="M120.7,489.4c0.1-0.5,0.6-0.8,1.1-0.6c0.5,0.1,0.8,0.6,0.6,1.1c-1.9,7.1,1.9,20.9,1.9,20.9
		c0.1,0.5-0.2,1-0.6,1.1c-0.5,0.1-1-0.2-1.1-0.6C122.6,511.2,118.7,496.9,120.7,489.4z"/>
	<path class="st0" d="M36.3,353.4c0.2-0.5,0.7-0.7,1.2-0.5c0.5,0.2,0.7,0.7,0.5,1.2c-5.3,13.3,3.8,21.1,3.8,21.2
		c0.4,0.3,0.4,0.9,0.1,1.3c-0.3,0.4-0.9,0.4-1.3,0.1C40.5,376.6,30.4,367.9,36.3,353.4z"/>
	<path class="st0" d="M104.2,505.7c0.5-0.5,1.4-0.6,1.9,0c0.5,0.5,0.6,1.4,0,1.9c-3.9,4.1-3.9,9.2-3.9,11.5c0,0.4,0,0,0,0.5
		c0,0.8-0.6,1.4-1.4,1.4s-1.4-0.6-1.4-1.4c0-0.7,0-0.3,0-0.4C99.6,516.5,99.5,510.6,104.2,505.7z"/>
	<path class="st0" d="M111.6,510.7c0.4-0.6,1.3-0.8,1.9-0.3c0.6,0.4,0.8,1.3,0.3,1.9c-3.9,5.5-2.5,14.8-2.5,14.8
		c0.1,0.7-0.4,1.4-1.1,1.6c-0.7,0.1-1.4-0.4-1.6-1.1C108.7,527.5,107,517.1,111.6,510.7z"/>
	<path class="st5" d="M24.4,314.9c7.6-1.9,15.4,0.3,20.8,5.3c-0.1-0.2-0.2-0.4-0.2-0.7c-4.8-5.1-11.7-7.8-18.8-7.1
		c-1.4,0.1-2.7,0.4-4.1,0.8c-12.1,3.5-19.2,16.1-15.7,28.3c0.2,0.7,0.4,1.4,0.7,2.1c0.4,0.4,0.8,0.9,1.3,1.3
		c-0.2-0.5-0.3-0.9-0.4-1.4c-1.3-4.7-1.1-9.4,0.4-13.7c0.2-1.1,0.5-2.3,0.9-3.4c1.3-3.3,3.8-6.5,7.2-8.7c2.6-1.7,5.3-2.5,7.9-2.6
		C24.3,314.9,24.4,314.9,24.4,314.9z"/>
	<path class="st9" d="M16.9,318.6c6.1-3.9,13.2-2.9,15.8,2.3c2.6,5.2-0.3,12.6-6.5,16.6c-6.1,3.9-13.2,2.9-15.8-2.3
		C7.9,330,10.8,322.6,16.9,318.6z"/>
	<path class="st0" d="M31.9,322c0.2,0.3,0.3,0.5,0.5,0.8c2.2,4.4-0.3,10.8-5.5,14.1c-2.2,1.4-4.5,2.1-6.7,2c-0.8-0.6-1.5-1.4-2-2.4
		c-2-4.1,0.3-10,5.1-13.1C26.2,321.7,29.3,321.2,31.9,322z"/>
	<path class="st0" d="M16.4,317.5c3.4-2.2,7.1-3,10.3-2.5c3.2,0.5,5.9,2.2,7.3,5.1c1.4,2.9,1.3,6.4,0,9.7c-1.3,3.3-3.8,6.5-7.2,8.7
		c-3.4,2.2-7.1,3-10.3,2.5c-3.2-0.5-5.9-2.2-7.3-5.1c-1.4-2.9-1.3-6.4,0-9.7C10.4,322.9,13,319.7,16.4,317.5L16.4,317.5z
		 M25.6,317.7c-2.5-0.4-5.5,0.3-8.2,2c-2.7,1.7-4.7,4.3-5.8,6.9c-1,2.7-1.1,5.5,0,7.8c1.1,2.3,3.3,3.7,5.8,4.1
		c2.5,0.4,5.5-0.3,8.2-2c2.7-1.7,4.7-4.3,5.8-6.9c1-2.7,1.1-5.5,0-7.8C30.3,319.4,28.2,318,25.6,317.7z"/>
	<path class="st2" d="M54.4,346.2c4.9-0.4,9.5,0.4,13,2.4c2.1-1.3,4.3-2.6,6.5-3.7c-4.8-2.7-11.6-3.4-18.4-1.7
		c-1.1,0.3-2.1,0.6-3.2,1c-1.3,0.5-2.5,1-3.8,1.6c-1.9,1-3.8,2.1-5.5,3.5c1.5-0.7,3-1.3,4.5-1.8c2.1-0.7,4.2-1.1,6.3-1.3
		C54,346.3,54.2,346.2,54.4,346.2z"/>
	<path class="st4" d="M124.2,516c2.8,6.5,9.7,7.8,17.7,1.4c2-1.6,3.6-3.1,5-4.4c1.4-1.3,2.5-2.5,3.3-3.5c-0.2-0.5-0.4-0.9-0.7-1.4
		c-0.7-1.3-1.6-2.6-2.9-3.9c-0.8,0.7-1.6,1.4-2.5,2.1c-0.3,0.2-0.5,0.4-0.8,0.6c-1.3,1-2.6,2-4,3c-3.4,2.5-7.1,4.7-11.2,5.6
		C126.9,515.8,125.5,516,124.2,516z"/>
	<path class="st4" d="M154.5,496.4c1,1.9,3.3,4.8,6.7,2.5c2.6-1.7,6.5-6.3,9.7-10.3c0.9-1.2,1.8-2.3,2.5-3.2c-0.2-0.7-0.5-1.3-0.8-2
		c-0.6-1.3-1.5-2.5-2.6-3.7c0,0,0,0-0.1,0.1c-0.8,0.9-1.5,1.7-2.3,2.6c-1.3,1.5-2.6,2.9-3.9,4.4c-2.9,3.2-5.8,6.3-8.8,9.4
		C154.7,496.2,154.6,496.3,154.5,496.4z"/>
	<path class="st4" d="M176.2,472.5c1.6,1.4,3.9,2.4,6.7,0.2c3.4-2.7,8.3-8.1,11.5-11.8c-0.6-2-1.7-4.3-3.6-6.4
		c-1.7,2.3-3.4,4.4-4.6,5.8C183,464.4,179.7,468.5,176.2,472.5z"/>
	<path class="st5" d="M41,322.8c-1.6,0-2.9,1.3-2.9,2.9c0,1.6,1.3,2.9,2.9,2.9c1.6,0,2.9-1.3,2.9-2.9
		C43.9,324.1,42.6,322.8,41,322.8z"/>
	<path class="st5" d="M37,318.5c0.7,0,1.3,0.6,1.3,1.3c0,0.7-0.6,1.3-1.3,1.3c-0.7,0-1.3-0.6-1.3-1.3
		C35.7,319.1,36.3,318.5,37,318.5z"/>
	<path class="st8" d="M44.4,396.7c3.1,0,5.7-2.5,5.7-5.7s-2.5-5.7-5.7-5.7c-3.1,0-5.7,2.5-5.7,5.7S41.3,396.7,44.4,396.7z"/>
	<path class="st4" d="M45.4,394.6c2.3,0,4.2-1.9,4.2-4.2c0-2.3-1.9-4.2-4.2-4.2c-2.3,0-4.2,1.9-4.2,4.2
		C41.2,392.7,43.1,394.6,45.4,394.6z"/>
	<path class="st0" d="M45.4,385.2c1.4,0,2.7,0.6,3.6,1.5c0.9,0.9,1.5,2.2,1.5,3.6c0,1.4-0.6,2.7-1.5,3.6c-0.9,0.9-2.2,1.5-3.6,1.5
		c-1.4,0-2.7-0.6-3.6-1.5c-0.9-0.9-1.5-2.2-1.5-3.6c0-1.4,0.6-2.7,1.5-3.6C42.7,385.8,44,385.2,45.4,385.2L45.4,385.2z M47.8,388
		c-0.6-0.6-1.4-1-2.4-1c-0.9,0-1.8,0.4-2.4,1c-0.6,0.6-1,1.4-1,2.4c0,0.9,0.4,1.8,1,2.4c0.6,0.6,1.4,1,2.4,1c0.9,0,1.8-0.4,2.4-1
		c0.6-0.6,1-1.4,1-2.4C48.7,389.5,48.4,388.6,47.8,388z"/>
	<path class="st0" d="M41.5,389.7c-0.2-0.1-0.4-0.3-0.3-0.6c0.1-0.2,0.3-0.4,0.6-0.3c3.9,1,7.6,2.6,7.6,2.6c0.2,0.1,0.3,0.4,0.2,0.6
		c-0.1,0.2-0.4,0.3-0.6,0.2C48.9,392.2,45.3,390.6,41.5,389.7z"/>
	<path class="st8" d="M89,360.3c3.1,0,5.7-2.5,5.7-5.7c0-3.1-2.5-5.7-5.7-5.7c-3.1,0-5.7,2.5-5.7,5.7
		C83.3,357.7,85.9,360.3,89,360.3z"/>
	<path class="st4" d="M89.8,358c2.3,0,4.2-1.9,4.2-4.2c0-2.3-1.9-4.2-4.2-4.2c-2.3,0-4.2,1.9-4.2,4.2C85.5,356.1,87.4,358,89.8,358z
		"/>
	<path class="st0" d="M89.8,348.6c1.4,0,2.7,0.6,3.6,1.5c0.9,0.9,1.5,2.2,1.5,3.6c0,1.4-0.6,2.7-1.5,3.6c-0.9,0.9-2.2,1.5-3.6,1.5
		c-1.4,0-2.7-0.6-3.6-1.5c-0.9-0.9-1.5-2.2-1.5-3.6c0-1.4,0.6-2.7,1.5-3.6C87,349.2,88.3,348.6,89.8,348.6L89.8,348.6z M92.1,351.4
		c-0.6-0.6-1.4-1-2.4-1c-0.9,0-1.8,0.4-2.4,1c-0.6,0.6-1,1.4-1,2.4c0,0.9,0.4,1.8,1,2.4c0.6,0.6,1.4,1,2.4,1c0.9,0,1.8-0.4,2.4-1
		c0.6-0.6,1-1.4,1-2.4C93.1,352.8,92.7,352,92.1,351.4z"/>
	<path class="st0" d="M86.4,352.6c-0.2-0.1-0.4-0.3-0.3-0.6c0.1-0.2,0.3-0.4,0.6-0.3c3.9,1,7.6,2.6,7.6,2.6c0.2,0.1,0.3,0.4,0.2,0.6
		c-0.1,0.2-0.4,0.3-0.6,0.2C93.8,355.2,90.2,353.6,86.4,352.6z"/>
	<path class="st8" d="M175.8,429.3c3.1,0,5.7-2.5,5.7-5.7c0-3.1-2.5-5.7-5.7-5.7c-3.1,0-5.7,2.5-5.7,5.7
		C170.1,426.8,172.6,429.3,175.8,429.3z"/>
	<path class="st4" d="M176.5,427c2.3,0,4.2-1.9,4.2-4.2s-1.9-4.2-4.2-4.2c-2.3,0-4.2,1.9-4.2,4.2S174.2,427,176.5,427z"/>
	<path class="st0" d="M176.5,417.6c1.4,0,2.7,0.6,3.6,1.5c0.9,0.9,1.5,2.2,1.5,3.6c0,1.4-0.6,2.7-1.5,3.6c-0.9,0.9-2.2,1.5-3.6,1.5
		c-1.4,0-2.7-0.6-3.6-1.5c-0.9-0.9-1.5-2.2-1.5-3.6c0-1.4,0.6-2.7,1.5-3.6C173.8,418.2,175.1,417.6,176.5,417.6L176.5,417.6z
		 M178.9,420.4c-0.6-0.6-1.4-1-2.4-1c-0.9,0-1.8,0.4-2.4,1c-0.6,0.6-1,1.4-1,2.4s0.4,1.8,1,2.4c0.6,0.6,1.4,1,2.4,1
		c0.9,0,1.8-0.4,2.4-1c0.6-0.6,1-1.4,1-2.4C179.9,421.9,179.5,421,178.9,420.4z"/>
	<path class="st0" d="M173.2,421.7c-0.2-0.1-0.4-0.3-0.3-0.6c0.1-0.2,0.3-0.4,0.6-0.3c3.9,1,7.6,2.6,7.6,2.6
		c0.2,0.1,0.3,0.4,0.2,0.6c-0.1,0.2-0.4,0.3-0.6,0.2C180.6,424.2,177,422.6,173.2,421.7z"/>
	<path class="st8" d="M121.8,482.2c3.1,0,5.7-2.5,5.7-5.7c0-3.1-2.5-5.7-5.7-5.7c-3.1,0-5.7,2.5-5.7,5.7
		C116.1,479.6,118.6,482.2,121.8,482.2z"/>
	<path class="st4" d="M122.5,479.9c2.3,0,4.2-1.9,4.2-4.2c0-2.3-1.9-4.2-4.2-4.2c-2.3,0-4.2,1.9-4.2,4.2
		C118.3,478,120.2,479.9,122.5,479.9z"/>
	<path class="st0" d="M122.5,470.5c1.4,0,2.7,0.6,3.6,1.5c0.9,0.9,1.5,2.2,1.5,3.6c0,1.4-0.6,2.7-1.5,3.6c-0.9,0.9-2.2,1.5-3.6,1.5
		c-1.4,0-2.7-0.6-3.6-1.5c-0.9-0.9-1.5-2.2-1.5-3.6c0-1.4,0.6-2.7,1.5-3.6C119.8,471,121.1,470.5,122.5,470.5L122.5,470.5z
		 M124.9,473.3c-0.6-0.6-1.4-1-2.4-1c-0.9,0-1.8,0.4-2.4,1c-0.6,0.6-1,1.4-1,2.4c0,0.9,0.4,1.8,1,2.4c0.6,0.6,1.4,1,2.4,1
		c0.9,0,1.8-0.4,2.4-1c0.6-0.6,1-1.4,1-2.4C125.9,474.7,125.5,473.9,124.9,473.3z"/>
	<path class="st0" d="M119.2,474.5c-0.2-0.1-0.4-0.3-0.3-0.6c0.1-0.2,0.3-0.4,0.6-0.3c3.9,1,7.6,2.6,7.6,2.6
		c0.2,0.1,0.3,0.4,0.2,0.6c-0.1,0.2-0.4,0.3-0.6,0.2C126.6,477.1,123,475.5,119.2,474.5z"/>
	<path class="st0" d="M515.9,446.1c12.9-9.3,33.9-31.5,54.5-57.2c10-12.5,20-25.9,29-39.1c2.8-4.2,6.8-11,9.3-18.1
		c1.8-5-18.7-17-28.5-2.2c-9.3,14.1-20.2,28.8-31.1,42.3c-19.1,23.9-38.1,44.1-49.1,52.1L515.9,446.1z"/>
	<path class="st0" d="M601.8,307.9c-15-4.3-30.7,4.4-35,19.5c-4.3,15,4.4,30.7,19.5,35c15,4.3,30.7-4.4,35-19.5
		C625.6,327.9,616.9,312.2,601.8,307.9z"/>
	<path class="st9" d="M600.3,313.2c-12.1-3.5-24.8,3.6-28.3,15.7c-3.5,12.1,3.6,24.8,15.7,28.3c12.1,3.5,24.8-3.6,28.3-15.7
		C619.5,329.3,612.5,316.6,600.3,313.2z"/>
	<path class="st4" d="M600.3,313.2c-8.5-2.4-17.3,0.3-23,6.3c-0.3,0.7-0.5,1.4-0.7,2.1c-3.5,12.1,3.6,24.8,15.7,28.3
		c8.5,2.4,17.3-0.3,23-6.3c0.3-0.7,0.5-1.4,0.7-2.1C619.5,329.3,612.5,316.6,600.3,313.2z"/>
	<path class="st0" d="M490.8,447c-4.8-7-11.6-16.7-20.7-17.8c-4.3-0.5-8.5,0.9-12.4,2.7c-4.6,2.1-9.2,4.8-13.7,7.1
		c-0.1,0-0.2,0.1-0.2,0.1c-4.8,2.8-11.5,7-15.5,10.8c-4.2,4-7.2,10.6-6.1,16.5c0.7,3.7,6.3,9.2,8.9,11.9c2.5,2.5,5.4,5.4,8.3,7.6
		c5.5,4.1,11.3,3.2,17.4,1.4c2.5-0.7,5.7-2.8,7.9-4.2c3.4-2.2,6.8-4.5,10.2-6.8c4.6-3.2,9.2-6.4,13.6-9.8
		C495.4,461.4,495.4,453.8,490.8,447z"/>
	<path class="st9" d="M486.3,450.1c3.5,5.2,2.8,9.2-1,12.1c-7.1,5.3-25.6,18.6-30,19.9c-4.3,1.3-8.7,2.4-12.6-0.5
		c-3.9-2.9-14.6-13.6-15.1-16.1c-0.5-2.5,0.4-7.6,4.5-11.5c4.1-4,14.4-10.1,14.4-10.1C467.3,433,471.1,428,486.3,450.1z"/>
	<path class="st0" d="M511.7,472.1c-4.8-7-11.6-16.7-20.7-17.8c-4.3-0.5-8.5,0.9-12.4,2.7c-4.6,2.1-9.2,4.8-13.7,7.1
		c-0.1,0-0.2,0.1-0.2,0.1c-4.8,2.8-11.5,7-15.5,10.8c-4.2,4-7.2,10.6-6.1,16.5c0.7,3.7,6.3,9.2,8.9,11.9c2.5,2.5,5.4,5.4,8.3,7.6
		c5.5,4.1,11.3,3.2,17.4,1.4c2.5-0.7,5.7-2.8,7.9-4.2c3.4-2.2,6.8-4.5,10.2-6.8c4.6-3.2,9.2-6.4,13.6-9.8
		C516.4,486.5,516.4,478.9,511.7,472.1z"/>
	<path class="st9" d="M507.2,475.2c3.5,5.2,2.8,9.2-1,12.1c-7.1,5.3-25.6,18.6-30,19.9c-4.3,1.3-8.7,2.4-12.6-0.5
		c-3.9-2.9-14.6-13.6-15.1-16.1c-0.5-2.5,0.4-7.6,4.5-11.5c4.1-4,14.4-10.1,14.4-10.1C488.2,458.1,492,453,507.2,475.2z"/>
	<path class="st0" d="M518.5,523.5c0.3-0.2,0.5-0.3,0.7-0.5c0.1,0,0.2,0.1,0.3,0.1c1.7,0.6,3.5,0.4,5-0.7c2.6-1.9,5.2-3.7,7.7-5.7
		c6.9-5.2,6.9-12.8,2.3-19.6c-4.8-7-11.6-16.7-20.7-17.8c-4.3-0.5-8.5,0.9-12.4,2.7c-4.6,2.1-9.2,4.8-13.7,7.1
		c-0.1,0-0.2,0.1-0.2,0.1c-4.8,2.8-11.5,7-15.5,10.8c-4.2,4-7.2,10.6-6.1,16.5c0.7,3.7,6.3,9.2,8.9,11.9c2.5,2.5,5.4,5.4,8.3,7.6
		c5.5,4.1,11.3,3.2,17.4,1.4c2.2-0.7,4.9-2.3,6.9-3.5c3-1.8,5.9-3.8,8.7-5.7C517.7,527.1,518.6,525.4,518.5,523.5z"/>
	<path class="st9" d="M530,500.3c3.5,5.2,2.8,9.2-1,12.1c-1.9,1.4-4.6,3.4-7.7,5.6c-0.2-0.7-0.5-1.5-0.8-2.1c-2,0.9-6,4.1-8.1,4.7
		c0.3,1,0.5,2.1,0.6,3.2c-6.1,4.2-11.9,7.8-14,8.5c-4.3,1.3-8.7,2.4-12.6-0.5c-3.9-2.9-14.6-13.6-15.1-16.1
		c-0.5-2.5,0.4-7.6,4.5-11.5c4.1-4,14.4-10.1,14.4-10.1C511.1,483.2,514.8,478.1,530,500.3z"/>
	<path class="st0" d="M590,393.3c5.6-5.3,7.5-13.7,7-21.2c-0.6-8.7-4.4-17.1-10.4-23.5c-6-6.4-14.3-10.5-23-11.6
		c-7.5-0.9-15.9,0.6-21.6,5.9c-1.9,1.8-3.4,3.9-4.3,6.4c-4.4,11.8,5.2,25.3,12.8,33.4c4.5,4.8,9.9,9.3,15.8,12.2
		c5.3,2.6,11.4,4.1,17.2,2.2C586,396.3,588.1,395,590,393.3z"/>
	<path class="st8" d="M586.2,389.3c-7.8,7.3-20.6,1.4-31.7-10.3c-11.1-11.8-16.5-24.7-8.8-32c7.8-7.3,25.8-6.3,36.9,5.4
		C593.8,364.1,594,382,586.2,389.3z"/>
	<path class="st0" d="M535.3,340.1c-15,0-49.3,28.5-60.8,38c-9.1,7.6-17.9,15.4-26.5,23.5c-6.4,6-13,12.3-18.8,18.9
		c-6.7,7.6-5.1,17.8-2.2,26.6c1.2,3.6,6.6,10.1,9,13.2c5.3,6.6,10.8,13,16.4,19.3c4.9,5.5,9.9,11,15.1,16.4
		c3.5,3.6,7.5,7.8,11.4,10.9c4.6,3.5,9.4,7.3,15.1,8.6c8.8,2.1,17-2.2,24-7.1c2.9-2,5.7-4.4,8.4-6.8c3.8-3.3,7.4-6.8,11-10.3
		c9-8.8,17.7-18,26.1-27.5c10.5-11.9,33.9-39.5,35.8-55.4c1-8.2-2.4-16.5-6.6-23.3c-4.8-7.9-11.3-15.1-18-21.4
		c-9.6-8.9-25.3-20.6-38.2-23.5C536,340.2,535.7,340.1,535.3,340.1z"/>
	<path class="st2" d="M535.3,345.6c20.1,4.6,61.4,39.4,58.7,62.2c-2.8,22.8-63,85.1-79,96.1c-15.9,11.1-22.2,6.6-32.7-1.4
		c-10.5-8.1-48.1-51.1-50.1-57.1c-2.5-7.4-3.9-15.6,1.1-21.3C451.6,403.3,517.4,345.6,535.3,345.6z"/>
	<path class="st8" d="M586.4,385.5c5.2,7.8,8.3,15.6,7.5,22.4c-2.8,22.8-63,85.1-79,96.1c-15.9,11.1-22.2,6.6-32.7-1.4
		c-10.5-8.1-48.1-51.1-50.1-57.1c-2.2-6.6-3.6-13.7-0.4-19.2c7,5.2,18.2,11.2,36,16.2C507.3,453.5,558.8,423.6,586.4,385.5z"/>
	<path class="st5" d="M535.3,345.6c4.2,1,9.4,3.3,14.9,6.5c-7.5-0.7-16.4,1.3-27.3,7.4c-30.1,17-87.2,56.3-91.4,77.1
		c-0.3,1.4-0.5,2.6-0.7,3.8c-1.4-5.9-1.4-11.8,2.5-16.3C451.6,403.3,517.4,345.6,535.3,345.6z"/>
	<path class="st1" d="M511.7,486.6c2.9-1.9,9.5-6.9,13.2-9.7c6.6-4.9,30.3-32.1,47.8-53.3c16.4-19.8,14.6-21.1,15-20.3
		c0.3,0.5,3.1-10.2,3.4-9.6c2.3,5,3.3,9.8,2.8,14.2c-2.2,18.5-39.2,60.7-65.1,84.4c-6,5.5-10.9,9.6-13.9,11.7
		c-15.9,11.1-22.2,6.6-32.7-1.4c-1-0.7-2.1-1.8-3.5-3c-0.7-0.7-1.5-1.5-2.4-2.3c-5.5-5.4-12.9-13.4-20.1-21.5
		c-1.1-1.2-2.2-2.5-3.3-3.7c-4-4.6-7.9-9.2-11.2-13.2c-4.1-5-7.2-9.2-8.7-11.6c-0.1-0.2-0.2-0.4-0.3-0.6c-0.3-0.4-0.4-0.8-0.5-1.1
		c-1.9-5.8-3.2-12-1.4-17.1c0.3-0.7,3.1-4.9,3.5-5.5c1,5.3,3.8,10,8.8,17.2c6.5,9.4,16.2,21.7,25.3,30
		C483.8,484.3,499.5,494.8,511.7,486.6z"/>
	<path class="st0" d="M500.2,513.9c3.3,3.2,0.5,9-1.1,12.2c5.6-2.7,7.5-10.1,3.9-15c-0.8-0.8-2-0.8-2.8,0
		C499.5,511.9,499.5,513.1,500.2,513.9z"/>
	<path class="st0" d="M437.8,417.1c0.3-0.4,0.1-1-0.3-1.3c-0.4-0.3-1-0.1-1.3,0.3c-2.1,3.4-2.4,6.7-1.8,9.6c0.6,2.9,2,5.5,3.4,7.4
		c8.4,12.4,22.5,30.7,36.5,43.2c10,8.9,19.9,14.9,27.9,14c20.1-2.4,42.6-29.8,67.3-59.9c2.5-3,4.9-6,8-9.7c5.6-6.8,9-12.4,11-16.8
		c2.1-4.5,2.7-7.7,3-9.7c0.6-4.7,0.1-6.9-0.1-7.4c0-0.1,0-0.1-0.1-0.2c-1.1-3.7-2.4-5.7-3.1-5.9c-0.2-0.3-0.3-0.3-0.3,0
		c-0.5,0.4-0.3,2.5,1.7,6.5c0.1,0.3,0.6,2.2,0,6.8c-0.2,1.9-0.9,4.9-2.8,9.2c-2,4.3-5.3,9.8-10.8,16.4c-2.3,2.8-5.2,6.3-8,9.7
		c-24.5,29.8-46.7,56.9-66.1,59.2c-7.4,0.9-16.8-4.9-26.4-13.5c-13.9-12.4-27.9-30.5-36.2-42.8c-1.2-1.8-2.5-4.2-3.1-6.8
		C435.7,422.8,435.9,420,437.8,417.1z"/>
	<path class="st0" d="M501.7,489.4c-0.1-0.5-0.6-0.8-1.1-0.6c-0.5,0.1-0.8,0.6-0.6,1.1c1.9,7.1-1.9,20.9-1.9,20.9
		c-0.1,0.5,0.2,1,0.6,1.1c0.5,0.1,1-0.2,1.1-0.6C499.8,511.2,503.7,496.9,501.7,489.4z"/>
	<path class="st0" d="M586.1,353.4c-0.2-0.5-0.7-0.7-1.2-0.5c-0.5,0.2-0.7,0.7-0.5,1.2c5.3,13.3-3.8,21.1-3.8,21.2
		c-0.4,0.3-0.4,0.9-0.1,1.3c0.3,0.4,0.9,0.4,1.3,0.1C581.8,376.6,591.9,367.9,586.1,353.4z"/>
	<path class="st0" d="M518.2,505.7c-0.5-0.5-1.4-0.6-1.9,0c-0.5,0.5-0.6,1.4,0,1.9c3.9,4.1,3.9,9.2,3.9,11.5c0,0.4,0,0,0,0.5
		c0,0.8,0.6,1.4,1.4,1.4c0.8,0,1.4-0.6,1.4-1.4c0-0.7,0-0.3,0-0.4C522.8,516.5,522.9,510.6,518.2,505.7z"/>
	<path class="st0" d="M510.8,510.7c-0.4-0.6-1.3-0.8-1.9-0.3c-0.6,0.4-0.8,1.3-0.3,1.9c3.9,5.5,2.5,14.8,2.5,14.8
		c-0.1,0.7,0.4,1.4,1.1,1.6c0.7,0.1,1.4-0.4,1.6-1.1C513.7,527.5,515.4,517.1,510.8,510.7z"/>
	<path class="st5" d="M597.9,314.9c-7.6-1.9-15.4,0.3-20.8,5.3c0.1-0.2,0.2-0.4,0.2-0.7c4.8-5.1,11.7-7.8,18.8-7.1
		c1.4,0.1,2.7,0.4,4.1,0.8c12.1,3.5,19.2,16.1,15.7,28.3c-0.2,0.7-0.4,1.4-0.7,2.1c-0.4,0.4-0.9,0.9-1.3,1.3
		c0.2-0.5,0.3-0.9,0.4-1.4c1.3-4.7,1.1-9.4-0.4-13.7c-0.2-1.1-0.5-2.3-0.9-3.4c-1.3-3.3-3.8-6.5-7.2-8.7c-2.6-1.7-5.3-2.5-7.9-2.6
		C598.1,314.9,598,314.9,597.9,314.9z"/>
	<path class="st9" d="M605.5,318.6c-6.1-3.9-13.2-2.9-15.8,2.3c-2.6,5.2,0.3,12.6,6.5,16.6c6.1,3.9,13.2,2.9,15.8-2.3
		C614.5,330,611.6,322.6,605.5,318.6z"/>
	<path class="st0" d="M590.5,322c-0.2,0.3-0.3,0.5-0.5,0.8c-2.2,4.4,0.3,10.8,5.5,14.1c2.2,1.4,4.5,2.1,6.7,2c0.8-0.6,1.5-1.4,2-2.4
		c2-4.1-0.3-10-5.1-13.1C596.2,321.7,593,321.2,590.5,322z"/>
	<path class="st0" d="M606,317.5c-3.4-2.2-7.1-3-10.3-2.5c-3.2,0.5-5.9,2.2-7.3,5.1c-1.4,2.9-1.3,6.4,0,9.7c1.3,3.3,3.8,6.5,7.2,8.7
		c3.4,2.2,7.1,3,10.3,2.5c3.2-0.5,5.9-2.2,7.3-5.1c1.4-2.9,1.3-6.4,0-9.7C611.9,322.9,609.4,319.7,606,317.5L606,317.5z
		 M596.8,317.7c2.5-0.4,5.5,0.3,8.2,2c2.7,1.7,4.7,4.3,5.8,6.9c1,2.7,1.1,5.5,0,7.8c-1.1,2.3-3.3,3.7-5.8,4.1
		c-2.5,0.4-5.5-0.3-8.2-2c-2.7-1.7-4.7-4.3-5.8-6.9c-1-2.7-1.1-5.5,0-7.8C592.1,319.4,594.2,318,596.8,317.7z"/>
	<path class="st2" d="M568,346.2c-4.9-0.4-9.5,0.4-13,2.4c-2.1-1.3-4.3-2.6-6.5-3.7c4.8-2.7,11.6-3.4,18.4-1.7
		c1.1,0.3,2.1,0.6,3.2,1c1.3,0.5,2.5,1,3.8,1.6c1.9,1,3.8,2.1,5.5,3.5c-1.5-0.7-3-1.3-4.5-1.8c-2.1-0.7-4.2-1.1-6.3-1.3
		C568.3,346.3,568.1,346.2,568,346.2z"/>
	<path class="st4" d="M498.2,516c-2.8,6.5-9.7,7.8-17.7,1.4c-2-1.6-3.6-3.1-5-4.4c-1.4-1.3-2.5-2.5-3.3-3.5c0.2-0.5,0.4-0.9,0.7-1.4
		c0.7-1.3,1.6-2.6,2.9-3.9c0.8,0.7,1.6,1.4,2.5,2.1c0.3,0.2,0.5,0.4,0.8,0.6c1.3,1,2.6,2,4,3c3.4,2.5,7.1,4.7,11.2,5.6
		C495.5,515.8,496.8,516,498.2,516z"/>
	<path class="st4" d="M467.9,496.4c-1,1.9-3.3,4.8-6.7,2.5c-2.6-1.7-6.5-6.3-9.7-10.3c-0.9-1.2-1.8-2.3-2.5-3.2
		c0.2-0.7,0.5-1.3,0.8-2c0.6-1.3,1.5-2.5,2.6-3.7c0,0,0,0,0.1,0.1c0.8,0.9,1.5,1.7,2.3,2.6c1.3,1.5,2.6,2.9,3.9,4.4
		c2.9,3.2,5.8,6.3,8.8,9.4C467.6,496.2,467.8,496.3,467.9,496.4z"/>
	<path class="st4" d="M446.2,472.5c-1.6,1.4-3.9,2.4-6.7,0.2c-3.4-2.7-8.3-8.1-11.5-11.8c0.6-2,1.7-4.3,3.6-6.4
		c1.7,2.3,3.4,4.4,4.6,5.8C439.3,464.4,442.7,468.5,446.2,472.5z"/>
	<path class="st5" d="M581.3,322.8c1.6,0,2.9,1.3,2.9,2.9c0,1.6-1.3,2.9-2.9,2.9c-1.6,0-2.9-1.3-2.9-2.9
		C578.4,324.1,579.7,322.8,581.3,322.8z"/>
	<path class="st5" d="M585.4,318.5c-0.7,0-1.3,0.6-1.3,1.3c0,0.7,0.6,1.3,1.3,1.3c0.7,0,1.3-0.6,1.3-1.3
		C586.6,319.1,586.1,318.5,585.4,318.5z"/>
	<path class="st8" d="M577.9,396.7c3.1,0,5.7-2.5,5.7-5.7s-2.5-5.7-5.7-5.7s-5.7,2.5-5.7,5.7S574.8,396.7,577.9,396.7z"/>
	<path class="st4" d="M577,394.6c2.3,0,4.2-1.9,4.2-4.2c0-2.3-1.9-4.2-4.2-4.2c-2.3,0-4.2,1.9-4.2,4.2
		C572.7,392.7,574.6,394.6,577,394.6z"/>
	<path class="st0" d="M577,385.2c-1.4,0-2.7,0.6-3.6,1.5c-0.9,0.9-1.5,2.2-1.5,3.6c0,1.4,0.6,2.7,1.5,3.6c0.9,0.9,2.2,1.5,3.6,1.5
		s2.7-0.6,3.6-1.5c0.9-0.9,1.5-2.2,1.5-3.6c0-1.4-0.6-2.7-1.5-3.6C579.7,385.8,578.4,385.2,577,385.2L577,385.2z M574.6,388
		c0.6-0.6,1.4-1,2.4-1s1.8,0.4,2.4,1c0.6,0.6,1,1.4,1,2.4c0,0.9-0.4,1.8-1,2.4c-0.6,0.6-1.4,1-2.4,1s-1.8-0.4-2.4-1
		c-0.6-0.6-1-1.4-1-2.4C573.6,389.5,574,388.6,574.6,388z"/>
	<path class="st0" d="M580.9,389.7c0.2-0.1,0.4-0.3,0.3-0.6c-0.1-0.2-0.3-0.4-0.6-0.3c-3.9,1-7.6,2.6-7.6,2.6
		c-0.2,0.1-0.3,0.4-0.2,0.6c0.1,0.2,0.4,0.3,0.6,0.2C573.5,392.2,577.1,390.6,580.9,389.7z"/>
	<path class="st8" d="M533.4,360.3c3.1,0,5.7-2.5,5.7-5.7c0-3.1-2.5-5.7-5.7-5.7c-3.1,0-5.7,2.5-5.7,5.7
		C527.7,357.7,530.3,360.3,533.4,360.3z"/>
	<circle class="st4" cx="532.6" cy="353.7" r="4.2"/>
	<path class="st0" d="M532.6,348.6c-1.4,0-2.7,0.6-3.6,1.5c-0.9,0.9-1.5,2.2-1.5,3.6c0,1.4,0.6,2.7,1.5,3.6c0.9,0.9,2.2,1.5,3.6,1.5
		c1.4,0,2.7-0.6,3.6-1.5c0.9-0.9,1.5-2.2,1.5-3.6c0-1.4-0.6-2.7-1.5-3.6C535.3,349.2,534,348.6,532.6,348.6L532.6,348.6z
		 M530.3,351.4c0.6-0.6,1.4-1,2.4-1s1.8,0.4,2.4,1c0.6,0.6,1,1.4,1,2.4c0,0.9-0.4,1.8-1,2.4c-0.6,0.6-1.4,1-2.4,1s-1.8-0.4-2.4-1
		c-0.6-0.6-1-1.4-1-2.4C529.3,352.8,529.7,352,530.3,351.4z"/>
	<path class="st0" d="M536,352.6c0.2-0.1,0.4-0.3,0.3-0.6c-0.1-0.2-0.3-0.4-0.6-0.3c-3.9,1-7.6,2.6-7.6,2.6
		c-0.2,0.1-0.3,0.4-0.2,0.6c0.1,0.2,0.4,0.3,0.6,0.2C528.6,355.2,532.2,353.6,536,352.6z"/>
	<path class="st8" d="M446.6,429.3c3.1,0,5.7-2.5,5.7-5.7c0-3.1-2.5-5.7-5.7-5.7c-3.1,0-5.7,2.5-5.7,5.7
		C441,426.8,443.5,429.3,446.6,429.3z"/>
	<path class="st4" d="M445.8,427c2.3,0,4.2-1.9,4.2-4.2s-1.9-4.2-4.2-4.2c-2.3,0-4.2,1.9-4.2,4.2S443.5,427,445.8,427z"/>
	<path class="st0" d="M445.8,417.6c-1.4,0-2.7,0.6-3.6,1.5c-0.9,0.9-1.5,2.2-1.5,3.6c0,1.4,0.6,2.7,1.5,3.6c0.9,0.9,2.2,1.5,3.6,1.5
		c1.4,0,2.7-0.6,3.6-1.5c0.9-0.9,1.5-2.2,1.5-3.6c0-1.4-0.6-2.7-1.5-3.6C448.6,418.2,447.3,417.6,445.8,417.6L445.8,417.6z
		 M443.5,420.4c0.6-0.6,1.4-1,2.4-1c0.9,0,1.8,0.4,2.4,1c0.6,0.6,1,1.4,1,2.4s-0.4,1.8-1,2.4c-0.6,0.6-1.4,1-2.4,1
		c-0.9,0-1.8-0.4-2.4-1c-0.6-0.6-1-1.4-1-2.4C442.5,421.9,442.9,421,443.5,420.4z"/>
	<path class="st0" d="M449.2,421.7c0.2-0.1,0.4-0.3,0.3-0.6c-0.1-0.2-0.3-0.4-0.6-0.3c-3.9,1-7.6,2.6-7.6,2.6
		c-0.2,0.1-0.3,0.4-0.2,0.6c0.1,0.2,0.4,0.3,0.6,0.2C441.8,424.2,445.4,422.6,449.2,421.7z"/>
	<path class="st8" d="M500.6,482.2c3.1,0,5.7-2.5,5.7-5.7c0-3.1-2.5-5.7-5.7-5.7c-3.1,0-5.7,2.5-5.7,5.7
		C494.9,479.6,497.5,482.2,500.6,482.2z"/>
	<path class="st4" d="M499.8,479.9c2.3,0,4.2-1.9,4.2-4.2c0-2.3-1.9-4.2-4.2-4.2c-2.3,0-4.2,1.9-4.2,4.2
		C495.6,478,497.5,479.9,499.8,479.9z"/>
	<path class="st0" d="M499.8,470.5c-1.4,0-2.7,0.6-3.6,1.5c-0.9,0.9-1.5,2.2-1.5,3.6c0,1.4,0.6,2.7,1.5,3.6c0.9,0.9,2.2,1.5,3.6,1.5
		c1.4,0,2.7-0.6,3.6-1.5c0.9-0.9,1.5-2.2,1.5-3.6c0-1.4-0.6-2.7-1.5-3.6C502.6,471,501.3,470.5,499.8,470.5L499.8,470.5z
		 M497.5,473.3c0.6-0.6,1.4-1,2.4-1c0.9,0,1.8,0.4,2.4,1c0.6,0.6,1,1.4,1,2.4c0,0.9-0.4,1.8-1,2.4c-0.6,0.6-1.4,1-2.4,1
		c-0.9,0-1.8-0.4-2.4-1c-0.6-0.6-1-1.4-1-2.4C496.5,474.7,496.9,473.9,497.5,473.3z"/>
	<path class="st0" d="M503.2,474.5c0.2-0.1,0.4-0.3,0.3-0.6c-0.1-0.2-0.3-0.4-0.6-0.3c-3.9,1-7.6,2.6-7.6,2.6
		c-0.2,0.1-0.3,0.4-0.2,0.6c0.1,0.2,0.4,0.3,0.6,0.2C495.8,477.1,499.4,475.5,503.2,474.5z"/>
	
		<ellipse transform="matrix(0.7071 -0.7071 0.7071 0.7071 -109.467 303.1425)" class="st0" cx="311.2" cy="283.7" rx="181.9" ry="181.9"/>
	
		<ellipse transform="matrix(0.9703 -0.242 0.242 0.9703 -59.4179 83.7598)" class="st8" cx="311.2" cy="283.7" rx="176.4" ry="176.4"/>
	<path class="st2" d="M311.2,107.3c-208.9,0-208.9,316.9,0,316.9C520.1,424.2,520.1,107.3,311.2,107.3z"/>
	<path class="st7" d="M200,150.1c30.2-14.5,69-29.1,111.2-29.1c42.2,0,81,14.5,111.2,29.1c-10.1-10.1-21.8-18.8-35.3-25.7
		c-19.2-9.2-40.3-15-62.6-16.6c-0.3,0-0.5,0-0.8-0.1c-1.3-0.1-2.7-0.2-4.1-0.2c-2.8-0.1-5.6-0.2-8.5-0.2c-2.9,0-5.7,0.1-8.5,0.2
		c-1.4,0.1-2.7,0.1-4.1,0.2c-0.3,0-0.5,0-0.8,0.1c-22.3,1.7-43.4,7.5-62.6,16.6C221.8,131.3,210.1,140,200,150.1z"/>
	<path class="st1" d="M154.9,201.7c-12.9,24.5-20.2,52.4-20.2,82c0,29.6,7.3,57.5,20.2,82c2.5-10.4,4.5-21.9,6-34.4
		c1-8.5,1.7-17.4,2.2-26.5c0.1-2.7,0.2-5.4,0.3-8.2c0.1-4.2,0.2-8.5,0.2-12.9c0-16.8-0.9-32.8-2.7-47.6c-0.7-5.8-1.5-11.3-2.4-16.7
		c-0.4-2.6-0.9-5.1-1.4-7.6C156.4,208.4,155.7,205,154.9,201.7L154.9,201.7z M170.3,177.5c4,13,7.3,28.4,9.7,45.5
		c1.4,10,2.4,20.6,3.1,31.7c0.1,1.5,0.2,3,0.3,4.5c0.4,7.9,0.6,16.1,0.6,24.4c0,21.6-1.4,42.1-3.9,60.6c-2.3,17.1-5.6,32.5-9.7,45.5
		c-5-6.6-9.5-13.5-13.5-20.8c2.8-11.2,5.1-23.9,6.7-37.6c1.1-9.1,1.8-18.7,2.3-28.6c0.1-2.8,0.2-5.7,0.3-8.6c0.1-3.5,0.1-7,0.1-10.6
		c0-16.8-1-32.9-2.7-47.8c-0.6-5-1.3-9.9-2-14.7c-0.4-2.8-0.9-5.5-1.4-8.1c-1-5.2-2.1-10.2-3.3-14.9
		C160.8,191.1,165.3,184.1,170.3,177.5z"/>
	<path class="st8" d="M162.2,317.6c0.3-4.2,0.6-8.5,0.8-12.8c0.1-2.7,0.2-5.4,0.3-8.2c0.1-4.2,0.2-8.5,0.2-12.9
		c0-16.8-0.9-32.8-2.7-47.6c-0.5-3.9-1-7.8-1.5-11.6C152.1,255.1,153,287.7,162.2,317.6L162.2,317.6z M173,187.2
		c2.8,10.8,5.1,22.8,6.9,35.8c1.4,10,2.4,20.6,3.1,31.7c0.1,1.5,0.2,3,0.3,4.5c0.4,7.9,0.6,16.1,0.6,24.4c0,21.6-1.4,42.1-3.9,60.6
		c-0.4,3.2-0.9,6.4-1.4,9.5c-5.8-9.5-10.5-19.5-14.2-30c0.7-6.8,1.1-13.8,1.5-21c0.1-2.8,0.2-5.7,0.3-8.6c0.1-3.5,0.1-7,0.1-10.6
		c0-16.8-1-32.9-2.7-47.8c-0.6-5-1.3-9.9-2-14.7c-0.2-1-0.3-2-0.5-3c1.6-5.9-0.8-18.9,1.4-24.6c0.8-2,7.6-15.8,8.2-15
		C171.1,179.4,172.6,186.1,173,187.2z"/>
	<path class="st0" d="M156.4,194.8c-0.1-0.5,0.2-1,0.6-1.1c0.5-0.1,1,0.2,1.1,0.6c3.3,12.1,6,26.2,7.8,41.6
		c1.7,14.9,2.7,31,2.7,47.8c0,16.8-1,32.9-2.7,47.8c-1.8,15.4-4.5,29.5-7.8,41.6c-0.1,0.5-0.6,0.8-1.1,0.6c-0.5-0.1-0.8-0.6-0.6-1.1
		c3.3-12,5.9-26,7.7-41.4c1.7-14.8,2.7-30.8,2.7-47.6c0-16.8-0.9-32.8-2.7-47.6C162.3,220.8,159.7,206.8,156.4,194.8z"/>
	<path class="st0" d="M171.1,172.8c-0.2-0.5,0.1-1,0.6-1.2c0.5-0.2,1,0.1,1.2,0.6c4.8,14.1,8.6,31.3,11.3,50.6
		c2.5,18.6,4,39.2,4,60.9c0,21.7-1.4,42.2-4,60.9c-2.6,19.4-6.5,36.6-11.3,50.6c-0.2,0.5-0.7,0.7-1.2,0.6c-0.5-0.2-0.7-0.7-0.6-1.2
		c4.7-14,8.6-31.1,11.2-50.3c2.5-18.5,3.9-39,3.9-60.6c0-21.6-1.4-42.1-3.9-60.6C179.7,203.8,175.9,186.7,171.1,172.8z"/>
	<path class="st7" d="M164.1,198.8c0.7-7.7,8.4-21.9,7.9-23.5c-5,6.4-9.5,13.1-13.6,20.1c0,0,0,0,0,0c1.5,5.5,2.8,11.5,4,17.7
		c0,0,0,0,0,0.1c0.5,2.6,1,5.3,1.4,8.1c0.8,4.7,1.4,9.6,2,14.7c1.7,14.8,2.7,30.9,2.7,47.7c2.6-19.2,0.7-41.8-1.4-58.9
		c-0.4-3.1-0.8-6-1.1-8.7c-0.5-3.7-1-6.9-1.3-9.6C164.2,202.5,163.8,201.9,164.1,198.8z"/>
	<path class="st1" d="M230.3,440.5c24.2,12.5,51.8,19.6,80.9,19.6c29.2,0,56.7-7.1,80.9-19.6l-4.9-7.4c-0.4,0.5-0.9,1.2-1.7,1.9
		c-0.3,0.3-0.6,0.5-0.9,0.7c-2,1.4-4.4,2-6.7,1.7c-2.3-0.3-4.5-1.4-6.2-3.3c-0.3-0.3-0.5-0.6-0.7-0.9c-0.6-0.8-1-1.5-1.3-2.1
		l-0.2-0.4c-19.8,13.2-58.1,16.8-88,10.8c-1.9-0.4-3.9-0.8-5.7-1.3c-8.9-2.2-16.7-5.4-22.8-9.5l-0.2,0.4c-0.3,0.6-0.7,1.3-1.3,2.1
		c-0.2,0.3-0.5,0.6-0.7,0.9c-1.7,1.9-3.9,3-6.2,3.3c-2.3,0.3-4.7-0.3-6.7-1.7c-0.3-0.2-0.6-0.5-0.9-0.7c-0.8-0.7-1.3-1.3-1.7-1.9
		l-4.1,6.2L230.3,440.5z"/>
	<path class="st8" d="M243.2,419c-3.1,0.4-5.3,3.2-5,6.3c0.4,3.1,3.2,5.3,6.3,5c3.1-0.4,5.3-3.2,5-6.3
		C249.1,420.9,246.3,418.7,243.2,419z"/>
	<path class="st4" d="M242.5,419.7c-2.3,0.3-4,2.4-3.7,4.7c0.3,2.3,2.4,4,4.7,3.7c2.3-0.3,4-2.4,3.7-4.7
		C247,421.1,244.8,419.4,242.5,419.7z"/>
	<path class="st0" d="M246.2,422.4c0.2-0.1,0.4-0.4,0.3-0.6c-0.1-0.2-0.4-0.4-0.6-0.3c-3.7,1.4-7.2,3.5-7.2,3.5
		c-0.2,0.1-0.3,0.4-0.2,0.6c0.1,0.2,0.4,0.3,0.6,0.2C239.2,425.8,242.6,423.8,246.2,422.4z"/>
	<path class="st1" d="M393.5,439.8l-6.3-9.6c-0.4,0.5-0.9,1.2-1.7,1.9c-0.3,0.3-0.6,0.5-0.9,0.7c-2,1.4-4.4,2-6.7,1.7
		c-2.3-0.3-4.5-1.4-6.2-3.3c-0.3-0.3-0.5-0.6-0.7-0.9c-0.6-0.8-1-1.5-1.3-2.1l-0.2-0.4c-27.2,18.2-89.4,18.2-116.6,0l-0.2,0.4
		c-0.3,0.6-0.7,1.3-1.3,2.1c-0.2,0.3-0.5,0.6-0.7,0.9c-1.7,1.9-3.9,3-6.2,3.3c-2.3,0.3-4.7-0.3-6.7-1.7c-0.3-0.2-0.6-0.4-0.9-0.7
		c-0.8-0.7-1.3-1.3-1.7-1.9l-6.3,9.6c-0.5-0.3-1.1-0.6-1.6-0.9l7-10.7c0.4-0.6,0.8-0.7,1.4-0.3h0c0.3,0.2,0.4,0.4,0.7,0.8
		c0.3,0.5,0.9,1.2,1.6,1.9c0.2,0.2,0.5,0.4,0.7,0.6c1.7,1.2,3.6,1.6,5.5,1.4c1.9-0.2,3.7-1.1,5-2.7c0.2-0.2,0.4-0.5,0.6-0.8
		c0.5-0.7,0.9-1.4,1.2-2c0.2-0.4,0.4-0.7,0.6-1c0.5-0.7,1-1,1.7-0.5l0,0c26.4,18.2,89.3,18.2,115.6,0l0,0c0.7-0.5,1.2-0.2,1.7,0.5
		c0.2,0.3,0.3,0.6,0.6,1c0.3,0.6,0.7,1.3,1.2,2c0.2,0.3,0.4,0.5,0.6,0.8c1.4,1.5,3.2,2.4,5,2.7c1.9,0.2,3.8-0.2,5.5-1.4
		c0.2-0.2,0.5-0.4,0.7-0.6c0.8-0.7,1.3-1.4,1.6-1.9c0.3-0.4,0.5-0.7,0.7-0.8h0c0.6-0.4,1-0.3,1.4,0.3l7,10.7
		C394.6,439.2,394.1,439.5,393.5,439.8z"/>
	<path class="st0" d="M242.5,418.8c-1.4,0.2-2.6,0.9-3.4,1.9c-0.8,1-1.2,2.4-1.1,3.8c0.2,1.4,0.9,2.6,1.9,3.4c1,0.8,2.4,1.2,3.8,1.1
		c1.4-0.2,2.6-0.9,3.4-1.9c0.8-1,1.2-2.4,1.1-3.8c-0.2-1.4-0.9-2.6-1.9-3.4C245.3,419,243.9,418.6,242.5,418.8L242.5,418.8z
		 M240.5,421.8c0.5-0.7,1.3-1.1,2.2-1.2c0.9-0.1,1.8,0.2,2.5,0.7c0.7,0.5,1.1,1.3,1.2,2.2c0.1,0.9-0.2,1.8-0.7,2.5
		c-0.5,0.7-1.3,1.1-2.2,1.2c-0.9,0.1-1.8-0.2-2.5-0.7c-0.7-0.5-1.1-1.3-1.2-2.2C239.7,423.4,240,422.5,240.5,421.8z"/>
	<path class="st8" d="M379.1,419c3.1,0.4,5.3,3.2,5,6.3c-0.4,3.1-3.2,5.3-6.3,5c-3.1-0.4-5.3-3.2-5-6.3
		C373.1,420.9,375.9,418.7,379.1,419z"/>
	<path class="st4" d="M379.8,419.7c2.3,0.3,4,2.4,3.7,4.7c-0.3,2.3-2.4,4-4.7,3.7c-2.3-0.3-4-2.4-3.7-4.7
		C375.3,421.1,377.4,419.4,379.8,419.7z"/>
	<path class="st0" d="M379.9,418.8c1.4,0.2,2.6,0.9,3.4,1.9c0.8,1,1.2,2.4,1.1,3.8c-0.2,1.4-0.9,2.6-1.9,3.4c-1,0.8-2.4,1.2-3.8,1.1
		c-1.4-0.2-2.6-0.9-3.4-1.9c-0.8-1-1.2-2.4-1.1-3.8c0.2-1.4,0.9-2.6,1.9-3.4C377.1,419,378.5,418.6,379.9,418.8L379.9,418.8z
		 M381.9,421.8c-0.5-0.7-1.3-1.1-2.2-1.2c-0.9-0.1-1.8,0.2-2.5,0.7c-0.7,0.5-1.1,1.3-1.2,2.2c-0.1,0.9,0.2,1.8,0.7,2.5
		c0.5,0.7,1.3,1.1,2.2,1.2c0.9,0.1,1.8-0.2,2.5-0.7c0.7-0.5,1.1-1.3,1.2-2.2C382.7,423.4,382.4,422.5,381.9,421.8z"/>
	<path class="st0" d="M376,422.4c-0.2-0.1-0.4-0.4-0.3-0.6c0.1-0.2,0.4-0.4,0.6-0.3c3.7,1.4,7.2,3.5,7.2,3.5
		c0.2,0.1,0.3,0.4,0.2,0.6c-0.1,0.2-0.4,0.3-0.6,0.2C383.1,425.8,379.7,423.8,376,422.4z"/>
	<path class="st1" d="M467.5,201.7c12.9,24.5,20.2,52.4,20.2,82c0,29.6-7.3,57.5-20.2,82c-2.5-10.4-4.5-21.9-6-34.4
		c-1-8.5-1.7-17.4-2.2-26.5c-0.1-2.7-0.2-5.4-0.3-8.2c-0.1-4.2-0.2-8.5-0.2-12.9c0-16.8,0.9-32.8,2.7-47.6
		c0.7-5.8,1.5-11.3,2.4-16.7c0.4-2.6,0.9-5.1,1.4-7.6C465.9,208.4,466.7,205,467.5,201.7L467.5,201.7z M452.1,177.5
		c-4,13-7.3,28.4-9.7,45.5c-1.4,10-2.4,20.6-3.1,31.7c-0.1,1.5-0.2,3-0.3,4.5c-0.4,7.9-0.6,16.1-0.6,24.4c0,21.6,1.4,42.1,3.9,60.6
		c2.3,17.1,5.6,32.5,9.7,45.5c5-6.6,9.5-13.5,13.5-20.8c-2.8-11.2-5.1-23.9-6.7-37.6c-1.1-9.1-1.8-18.7-2.3-28.6
		c-0.1-2.8-0.2-5.7-0.3-8.6c-0.1-3.5-0.1-7-0.1-10.6c0-16.8,1-32.9,2.7-47.8c0.6-5,1.3-9.9,2-14.7c0.4-2.8,0.9-5.5,1.4-8.1
		c1-5.2,2.1-10.2,3.3-14.9C461.6,191.1,457.1,184.1,452.1,177.5z"/>
	<path class="st8" d="M460.2,317.6c-0.3-4.2-0.6-8.5-0.8-12.8c-0.1-2.7-0.2-5.4-0.3-8.2c-0.1-4.2-0.2-8.5-0.2-12.9
		c0-16.8,0.9-32.8,2.7-47.6c0.5-3.9,1-7.8,1.5-11.6C470.3,255.1,469.3,287.7,460.2,317.6L460.2,317.6z M449.4,187.2
		c-2.8,10.8-5.1,22.8-6.9,35.8c-1.4,10-2.4,20.6-3.1,31.7c-0.1,1.5-0.2,3-0.3,4.5c-0.4,7.9-0.6,16.1-0.6,24.4
		c0,21.6,1.4,42.1,3.9,60.6c0.4,3.2,0.9,6.4,1.4,9.5c5.8-9.5,10.5-19.5,14.2-30c-0.7-6.8-1.1-13.8-1.5-21c-0.1-2.8-0.2-5.7-0.3-8.6
		c-0.1-3.5-0.1-7-0.1-10.6c0-16.8,1-32.9,2.7-47.8c0.6-5,1.3-9.9,2-14.7c0.2-1,0.3-2,0.5-3c-1.6-5.9,0.8-18.9-1.4-24.6
		c-0.8-2-7.6-15.8-8.2-15C451.3,179.4,449.8,186.1,449.4,187.2z"/>
	<path class="st0" d="M466,194.8c0.1-0.5-0.2-1-0.6-1.1c-0.5-0.1-1,0.2-1.1,0.6c-3.3,12.1-6,26.2-7.8,41.6
		c-1.7,14.9-2.7,31-2.7,47.8c0,16.8,1,32.9,2.7,47.8c1.8,15.4,4.5,29.5,7.8,41.6c0.1,0.5,0.6,0.8,1.1,0.6c0.5-0.1,0.8-0.6,0.6-1.1
		c-3.3-12-5.9-26-7.7-41.4c-1.7-14.8-2.7-30.8-2.7-47.6c0-16.8,0.9-32.8,2.7-47.6C460.1,220.8,462.7,206.8,466,194.8z"/>
	<path class="st0" d="M451.3,172.8c0.2-0.5-0.1-1-0.6-1.2c-0.5-0.2-1,0.1-1.2,0.6c-4.8,14.1-8.6,31.3-11.3,50.6
		c-2.5,18.6-4,39.2-4,60.9c0,21.7,1.4,42.2,4,60.9c2.6,19.4,6.5,36.6,11.3,50.6c0.2,0.5,0.7,0.7,1.2,0.6c0.5-0.2,0.7-0.7,0.6-1.2
		c-4.7-14-8.6-31.1-11.2-50.3c-2.5-18.5-3.9-39-3.9-60.6c0-21.6,1.4-42.1,3.9-60.6C442.7,203.8,446.5,186.7,451.3,172.8z"/>
	<path class="st7" d="M458.3,198.8c-0.7-7.7-8.4-21.9-7.9-23.5c5,6.4,9.5,13.1,13.6,20.1c0,0,0,0,0,0c-1.5,5.5-2.8,11.5-4,17.7
		c0,0,0,0,0,0.1c-0.5,2.6-1,5.3-1.4,8.1c-0.8,4.7-1.4,9.6-2,14.7c-1.7,14.8-2.7,30.9-2.7,47.7c-2.6-19.2-0.7-41.8,1.4-58.9
		c0.4-3.1,0.8-6,1.1-8.7c0.5-3.7,1-6.9,1.3-9.6C458.1,202.5,458.6,201.9,458.3,198.8z"/>
	
		<ellipse transform="matrix(0.9783 -0.207 0.207 0.9783 -49.6588 70.324)" class="st2" cx="311.2" cy="272.4" rx="118.1" ry="118.1"/>
	<path class="st0" d="M311.2,154.8c-32.5,0-61.9,13.2-83.2,34.5c-21.3,21.3-34.5,50.7-34.5,83.2c0,32.5,13.2,61.9,34.5,83.2
		c21.3,21.3,50.7,34.5,83.2,34.5c32.5,0,61.9-13.2,83.2-34.5c21.3-21.3,34.5-50.7,34.5-83.2s-13.2-61.9-34.5-83.2
		C373.1,167.9,343.7,154.8,311.2,154.8L311.2,154.8z M227.3,188.6c21.5-21.5,51.1-34.7,83.9-34.7c32.7,0,62.4,13.3,83.9,34.7
		c21.5,21.5,34.7,51.1,34.7,83.9c0,32.7-13.3,62.4-34.7,83.9c-21.5,21.5-51.1,34.7-83.9,34.7c-32.7,0-62.4-13.3-83.9-34.7
		c-21.5-21.5-34.7-51.1-34.7-83.9C192.6,239.7,205.9,210,227.3,188.6z"/>
	
		<ellipse transform="matrix(0.7071 -0.7071 0.7071 0.7071 -101.499 299.842)" class="st0" cx="311.2" cy="272.4" rx="114" ry="114"/>
	
		<ellipse transform="matrix(0.7071 -0.7071 0.7071 0.7071 -101.499 299.8419)" class="st9" cx="311.2" cy="272.4" rx="110.4" ry="110.4"/>
	
		<ellipse transform="matrix(0.7071 -0.7071 0.7071 0.7071 -101.4991 299.8422)" class="st4" cx="311.2" cy="272.4" rx="104.1" ry="104.1"/>
	<path class="st0" d="M311.2,168.8c-28.6,0-54.5,11.6-73.3,30.4c-18.8,18.8-30.4,44.7-30.4,73.3c0,28.6,11.6,54.5,30.4,73.3
		c18.8,18.8,44.7,30.4,73.3,30.4c28.6,0,54.5-11.6,73.3-30.4c18.8-18.8,30.4-44.7,30.4-73.3c0-28.6-11.6-54.5-30.4-73.3
		C365.7,180.4,339.8,168.8,311.2,168.8L311.2,168.8z M237.3,198.5c18.9-18.9,45.1-30.6,73.9-30.6c28.9,0,55,11.7,73.9,30.6
		c18.9,18.9,30.6,45.1,30.6,73.9s-11.7,55-30.6,73.9c-18.9,18.9-45.1,30.6-73.9,30.6c-28.9,0-55-11.7-73.9-30.6
		c-18.9-18.9-30.6-45.1-30.6-73.9S218.3,217.4,237.3,198.5z"/>
	<path class="st10" d="M311.2,182.3c49.8,0,90.1,40.4,90.1,90.2c0,49.8-40.4,90.2-90.1,90.2c-49.8,0-90.2-40.4-90.2-90.2
		C221,222.7,261.4,182.3,311.2,182.3z"/>
	<path class="st0" d="M311.2,185c48.3,0,87.5,39.2,87.5,87.5c0,48.3-39.2,87.5-87.5,87.5c-48.3,0-87.5-39.2-87.5-87.5
		C223.7,224.1,262.9,185,311.2,185z"/>
	<path class="st11" d="M311.2,188.6c-46.3,0-83.8,37.5-83.8,83.8c0,46.3,37.5,83.8,83.8,83.8c46.3,0,83.8-37.5,83.8-83.8
		C395,226.2,357.5,188.6,311.2,188.6z"/>
	<path class="st12" d="M311.2,189.7c-44.1,0-79.8,35.7-79.8,79.8c0,44.1,35.7,79.8,79.8,79.8c44.1,0,79.8-35.7,79.8-79.8
		C391,225.5,355.3,189.7,311.2,189.7z"/>
	<path class="st2" d="M373.8,193.5c0.3,1.8,1.1,3.5,2.5,4.9l8.9,8.9c1.4,1.4,3.1,2.2,4.9,2.5c2.6,0.4,5.4-0.4,7.5-2.5l1.6-1.6
		l2.6-2.6l3.8-3.8c3.4-3.4,3.4-9,0-12.4l-8.9-8.9c-3.4-3.4-9-3.4-12.4,0l-3.8,3.8l-2.6,2.6l-1.6,1.6
		C374.3,188.1,373.5,190.9,373.8,193.5z"/>
	<path class="st5" d="M394.7,188.7c2.2,2.2,2.2,5.8,0,8c-2.2,2.2-5.8,2.2-8,0c-2.2-2.2-2.2-5.8,0-8
		C388.9,186.5,392.5,186.5,394.7,188.7z"/>
	<path class="st4" d="M394.9,189.7c1.7,1.7,1.7,4.3,0,6c-1.7,1.7-4.3,1.7-6,0c-1.7-1.7-1.7-4.3,0-6C390.5,188,393.2,188,394.9,189.7
		z"/>
	<path class="st0" d="M395.5,189c1,1,1.5,2.3,1.5,3.6s-0.5,2.6-1.5,3.6c-1,1-2.3,1.5-3.6,1.5c-1.3,0-2.6-0.5-3.6-1.5
		c-1-1-1.5-2.3-1.5-3.6s0.5-2.6,1.5-3.6c1-1,2.3-1.5,3.6-1.5C393.2,187.5,394.5,188,395.5,189L395.5,189z M395.2,192.7
		c0-0.9-0.3-1.7-1-2.4c-0.7-0.7-1.5-1-2.4-1c-0.9,0-1.7,0.3-2.4,1c-0.7,0.7-1,1.5-1,2.4c0,0.9,0.3,1.7,1,2.4c0.7,0.7,1.5,1,2.4,1
		c0.9,0,1.7-0.3,2.4-1C394.9,194.4,395.2,193.5,395.2,192.7z"/>
	<path class="st0" d="M390.3,189.5c-0.1-0.2-0.1-0.5,0.2-0.6c0.2-0.1,0.5-0.1,0.6,0.2c2.1,3.4,3.5,7.2,3.5,7.2
		c0.1,0.2,0,0.5-0.3,0.6c-0.2,0.1-0.5,0-0.6-0.3C393.7,196.6,392.3,192.9,390.3,189.5z"/>
	<path class="st0" d="M382.2,177.6c0.7-0.7,1.9-0.7,2.6,0c0.7,0.7,0.7,1.9,0,2.6l-7.2,7.2c-0.8,0.8-1.3,1.7-1.7,2.7
		c-0.3,1-0.4,2.1-0.3,3.2c0.1,0.7,0.3,1.4,0.7,2.1c0.3,0.6,0.8,1.2,1.3,1.8l8.9,8.9c0.6,0.6,1.2,1,1.8,1.3c0.7,0.3,1.4,0.6,2.1,0.7
		c1.1,0.2,2.2,0.1,3.2-0.3c1-0.3,1.9-0.9,2.7-1.7l7.2-7.2c0.7-0.7,1.9-0.7,2.6,0c0.7,0.7,0.7,1.9,0,2.6l-7.2,7.2
		c-1.2,1.2-2.6,2.1-4.1,2.6c-1.6,0.5-3.2,0.7-4.9,0.4c-1.1-0.2-2.2-0.5-3.2-1c-1-0.5-1.9-1.2-2.7-2l-8.9-8.9c-0.8-0.8-1.5-1.7-2-2.7
		c-0.5-1-0.9-2.1-1-3.2c-0.2-1.6-0.1-3.3,0.4-4.9c0.5-1.5,1.4-2.9,2.6-4.1L382.2,177.6z"/>
	<path class="st2" d="M214.4,353c0.3,1.8,1.1,3.5,2.5,4.9l8.9,8.9c1.4,1.4,3.1,2.2,4.9,2.5c2.6,0.4,5.4-0.4,7.5-2.5l1.6-1.6l2.6-2.6
		l3.8-3.8c3.4-3.4,3.4-9,0-12.4l-8.9-8.9c-3.4-3.4-9-3.4-12.4,0l-3.8,3.8l-2.6,2.6l-1.6,1.6C214.8,347.5,214,350.3,214.4,353z"/>
	<path class="st5" d="M235.2,348.2c2.2,2.2,2.2,5.8,0,8c-2.2,2.2-5.8,2.2-8,0c-2.2-2.2-2.2-5.8,0-8C229.4,346,233,346,235.2,348.2z"
		/>
	<path class="st4" d="M235.4,349.1c1.7,1.7,1.7,4.3,0,6c-1.7,1.7-4.3,1.7-6,0c-1.7-1.7-1.7-4.3,0-6
		C231.1,347.5,233.7,347.5,235.4,349.1z"/>
	<path class="st0" d="M236,348.5c1,1,1.5,2.3,1.5,3.6c0,1.3-0.5,2.6-1.5,3.6c-1,1-2.3,1.5-3.6,1.5c-1.3,0-2.6-0.5-3.6-1.5
		c-1-1-1.5-2.3-1.5-3.6c0-1.3,0.5-2.6,1.5-3.6c1-1,2.3-1.5,3.6-1.5C233.7,347,235,347.5,236,348.5L236,348.5z M235.7,352.1
		c0-0.9-0.3-1.7-1-2.4c-0.7-0.7-1.5-1-2.4-1c-0.9,0-1.7,0.3-2.4,1c-0.7,0.7-1,1.5-1,2.4c0,0.9,0.3,1.7,1,2.4c0.7,0.7,1.5,1,2.4,1
		c0.9,0,1.7-0.3,2.4-1C235.4,353.8,235.7,353,235.7,352.1z"/>
	<path class="st0" d="M230.8,349c-0.1-0.2-0.1-0.5,0.2-0.6c0.2-0.1,0.5-0.1,0.6,0.2c2.1,3.4,3.5,7.2,3.5,7.2c0.1,0.2,0,0.5-0.3,0.6
		c-0.2,0.1-0.5,0-0.6-0.3C234.2,356,232.8,352.3,230.8,349z"/>
	<path class="st0" d="M240.9,366.6c-0.7,0.7-1.9,0.7-2.6,0c-0.7-0.7-0.7-1.9,0-2.6l6.5-6.5c1.4-1.4,2-3.1,2-4.9c0-1.8-0.7-3.6-2-4.9
		l-8.9-8.9c-1.4-1.4-3.1-2-4.9-2c-1.8,0-3.6,0.7-4.9,2l-6.5,6.5c-0.7,0.7-1.9,0.7-2.6,0c-0.7-0.7-0.7-1.9,0-2.6l6.5-6.5
		c2.1-2.1,4.8-3.1,7.5-3.1s5.4,1,7.5,3.1l8.9,8.9c2.1,2.1,3.1,4.8,3.1,7.5c0,2.7-1,5.4-3.1,7.5L240.9,366.6z"/>
	<path class="st2" d="M390.1,335.1c-1.8,0.3-3.5,1.1-4.9,2.5l-8.9,8.9c-1.4,1.4-2.2,3.1-2.5,4.9c-0.4,2.6,0.4,5.4,2.5,7.5l1.6,1.6
		l2.6,2.6l3.8,3.8c3.4,3.4,9,3.4,12.4,0l8.9-8.9c3.4-3.4,3.4-9,0-12.4l-3.8-3.8l-2.6-2.6l-1.6-1.6
		C395.6,335.5,392.8,334.7,390.1,335.1z"/>
	<path class="st5" d="M394.9,356c-2.2,2.2-5.8,2.2-8,0c-2.2-2.2-2.2-5.8,0-8c2.2-2.2,5.8-2.2,8,0C397.1,350.2,397.1,353.8,394.9,356
		z"/>
	<path class="st4" d="M394,356.1c-1.7,1.7-4.3,1.7-6,0c-1.7-1.7-1.7-4.3,0-6c1.7-1.7,4.3-1.7,6,0C395.6,351.8,395.6,354.5,394,356.1
		z"/>
	<path class="st0" d="M394.6,356.8c-1,1-2.3,1.5-3.6,1.5c-1.3,0-2.6-0.5-3.6-1.5c-1-1-1.5-2.3-1.5-3.6c0-1.3,0.5-2.6,1.5-3.6
		c1-1,2.3-1.5,3.6-1.5c1.3,0,2.6,0.5,3.6,1.5c1,1,1.5,2.3,1.5,3.6C396.1,354.4,395.6,355.8,394.6,356.8L394.6,356.8z M391,356.4
		c0.9,0,1.7-0.3,2.4-1c0.7-0.7,1-1.5,1-2.4c0-0.9-0.3-1.7-1-2.4c-0.7-0.7-1.5-1-2.4-1c-0.9,0-1.7,0.3-2.4,1c-0.7,0.7-1,1.5-1,2.4
		c0,0.9,0.3,1.7,1,2.4C389.3,356.1,390.1,356.4,391,356.4z"/>
	<path class="st0" d="M394.1,351.5c0.2-0.1,0.5-0.1,0.6,0.2c0.1,0.2,0.1,0.5-0.2,0.6c-3.4,2.1-7.2,3.5-7.2,3.5
		c-0.2,0.1-0.5,0-0.6-0.3c-0.1-0.2,0-0.5,0.3-0.6C387.1,354.9,390.8,353.5,394.1,351.5z"/>
	<path class="st0" d="M406.2,343.6c0.7,0.7,0.7,1.9,0,2.6c-0.7,0.7-1.9,0.7-2.6,0l-7.3-7.3c-0.8-0.8-1.7-1.3-2.7-1.7
		c-1-0.3-2.1-0.4-3.2-0.3c-0.7,0.1-1.4,0.3-2.1,0.7c-0.6,0.3-1.2,0.7-1.8,1.3l-8.9,8.9c-0.5,0.6-1,1.2-1.3,1.8
		c-0.3,0.7-0.6,1.4-0.7,2.1c-0.2,1.1-0.1,2.2,0.3,3.2c0.3,1,0.9,1.9,1.7,2.7l7.3,7.3c0.7,0.7,0.7,1.9,0,2.6c-0.7,0.7-1.9,0.7-2.6,0
		l-7.3-7.3c-1.2-1.2-2.1-2.6-2.6-4.1c-0.5-1.6-0.7-3.2-0.4-4.9c0.2-1.1,0.5-2.2,1-3.2c0.5-1,1.2-1.9,2-2.7l8.9-8.9
		c0.8-0.8,1.7-1.5,2.7-2c1-0.5,2.1-0.9,3.2-1c1.6-0.2,3.3-0.1,4.9,0.4c1.5,0.5,2.9,1.4,4.1,2.6L406.2,343.6z"/>
	<path class="st2" d="M230.6,175.6c-1.8,0.3-3.5,1.1-4.9,2.5l-8.9,8.9c-1.4,1.4-2.2,3.1-2.5,4.9c-0.4,2.6,0.4,5.4,2.5,7.5l1.6,1.6
		l2.6,2.6l3.8,3.8c3.4,3.4,9,3.4,12.4,0l8.9-8.9c3.4-3.4,3.4-9,0-12.4l-3.8-3.8l-2.6-2.6l-1.6-1.6
		C236.1,176.1,233.3,175.2,230.6,175.6z"/>
	<path class="st8" d="M234.5,198.7c-2.2,2.2-5.8,2.2-8,0c-2.2-2.2-2.2-5.8,0-8c2.2-2.2,5.8-2.2,8,0
		C236.7,192.9,236.7,196.5,234.5,198.7z"/>
	<path class="st4" d="M234.5,196.6c-1.7,1.7-4.3,1.7-6,0c-1.7-1.7-1.7-4.3,0-6c1.7-1.7,4.3-1.7,6,0
		C236.2,192.3,236.2,195,234.5,196.6z"/>
	<path class="st0" d="M235.1,197.3c-1,1-2.3,1.5-3.6,1.5c-1.3,0-2.6-0.5-3.6-1.5c-1-1-1.5-2.3-1.5-3.6c0-1.3,0.5-2.6,1.5-3.6
		c1-1,2.3-1.5,3.6-1.5c1.3,0,2.6,0.5,3.6,1.5c1,1,1.5,2.3,1.5,3.6C236.6,195,236.1,196.3,235.1,197.3L235.1,197.3z M231.5,197
		c0.9,0,1.7-0.3,2.4-1c0.7-0.7,1-1.5,1-2.4c0-0.9-0.3-1.7-1-2.4c-0.7-0.7-1.5-1-2.4-1c-0.9,0-1.7,0.3-2.4,1c-0.7,0.7-1,1.5-1,2.4
		c0,0.9,0.3,1.7,1,2.4C229.8,196.7,230.6,197,231.5,197z"/>
	<path class="st0" d="M234.7,192c0.2-0.1,0.5-0.1,0.6,0.2c0.1,0.2,0.1,0.5-0.2,0.6c-3.4,2.1-7.2,3.5-7.2,3.5c-0.2,0.1-0.5,0-0.6-0.3
		c-0.1-0.2,0-0.5,0.3-0.6C227.6,195.5,231.3,194.1,234.7,192z"/>
	<path class="st0" d="M215.7,200.7c-0.7-0.7-0.7-1.9,0-2.6c0.7-0.7,1.9-0.7,2.6,0l7.9,7.9c1.4,1.4,3.1,2,4.9,2c1.8,0,3.6-0.7,4.9-2
		l8.9-8.9c1.4-1.4,2-3.1,2-4.9c0-1.8-0.7-3.6-2-4.9l-7.9-7.9c-0.7-0.7-0.7-1.9,0-2.6c0.7-0.7,1.9-0.7,2.6,0l7.9,7.9
		c2.1,2.1,3.1,4.8,3.1,7.5c0,2.7-1,5.4-3.1,7.5l-8.9,8.9c-2.1,2.1-4.8,3.1-7.5,3.1s-5.4-1-7.5-3.1L215.7,200.7z"/>
	<g>
		<path class="st11" d="M312.1,189.7v159.7c-0.3,0-0.6,0-0.9,0c-0.3,0-0.6,0-0.9,0V189.7c0.3,0,0.6,0,0.9,0
			C311.5,189.7,311.8,189.7,312.1,189.7z"/>
		<path class="st11" d="M332.8,192.7l-41.3,154.3c-0.6-0.2-1.2-0.3-1.8-0.5L331,192.2C331.6,192.3,332.2,192.5,332.8,192.7z"/>
		<path class="st11" d="M351.9,200.9l-79.8,138.3c-0.5-0.3-1.1-0.6-1.6-0.9l79.8-138.3C350.9,200.2,351.4,200.5,351.9,200.9z"/>
		<path class="st11" d="M368.3,213.8L255.4,326.7c-0.4-0.4-0.9-0.9-1.3-1.3L367,212.4C367.4,212.9,367.9,213.3,368.3,213.8z"/>
		<path class="st11" d="M380.8,230.4l-138.3,79.8c-0.3-0.5-0.6-1.1-0.9-1.6l138.3-79.8C380.2,229.4,380.5,229.9,380.8,230.4z"/>
		<path class="st11" d="M388.6,249.8l-154.3,41.3c-0.2-0.6-0.3-1.2-0.5-1.8L388.1,248C388.3,248.6,388.4,249.2,388.6,249.8z"/>
		<path class="st11" d="M391,270.5H231.4c0-0.3,0-0.6,0-0.9c0-0.3,0-0.6,0-0.9H391c0,0.3,0,0.6,0,0.9C391,269.9,391,270.2,391,270.5
			z"/>
		<path class="st11" d="M388.1,291.1l-154.3-41.3c0.2-0.6,0.3-1.2,0.5-1.8l154.3,41.3C388.4,289.9,388.3,290.5,388.1,291.1z"/>
		<path class="st11" d="M379.9,310.3l-138.3-79.8c0.3-0.5,0.6-1.1,0.9-1.6l138.3,79.8C380.5,309.2,380.2,309.7,379.9,310.3z"/>
		<path class="st11" d="M367,326.7L254.1,213.8c0.4-0.4,0.9-0.9,1.3-1.3l112.9,112.9C367.9,325.8,367.4,326.2,367,326.7z"/>
		<path class="st11" d="M350.3,339.2l-79.8-138.3c0.5-0.3,1.1-0.6,1.6-0.9l79.8,138.3C351.4,338.5,350.9,338.9,350.3,339.2z"/>
		<path class="st11" d="M331,346.9l-41.3-154.3c0.6-0.2,1.2-0.3,1.8-0.5l41.3,154.3C332.2,346.6,331.6,346.8,331,346.9z"/>
	</g>
	<path class="st0" d="M311.4,301.5c16.1,0,29.2-13.1,29.2-29.2s-13.1-29.2-29.2-29.2c-16.1,0-29.2,13.1-29.2,29.2
		S295.3,301.5,311.4,301.5z"/>
	<path class="st5" d="M311.4,299.6c15.1,0,27.3-12.3,27.3-27.3c0-15.1-12.3-27.3-27.3-27.3c-15.1,0-27.3,12.3-27.3,27.3
		C284.1,287.4,296.3,299.6,311.4,299.6z"/>
	<path class="st13" d="M311.4,296.7c13.4,0,24.4-11,24.4-24.4c0-13.4-11-24.4-24.4-24.4c-13.4,0-24.4,11-24.4,24.4
		C287,285.8,297.9,296.7,311.4,296.7z"/>
	<g>
		<path class="st0" d="M314.5,252.5v39.6c-1,0.2-2.1,0.2-3.1,0.2c-1.1,0-2.1-0.1-3.2-0.2v-39.6c1-0.2,2.1-0.2,3.2-0.2
			C312.5,252.3,313.5,252.4,314.5,252.5z"/>
		<path class="st0" d="M324,256.8L304.2,291c-2-0.8-3.8-1.8-5.5-3.2l19.8-34.3C320.5,254.4,322.4,255.4,324,256.8z"/>
		<path class="st0" d="M330.1,265.1l-34.3,19.8c-1.3-1.6-2.4-3.5-3.2-5.5l34.3-19.8C328.3,261.3,329.3,263.2,330.1,265.1z"/>
		<path class="st0" d="M331.2,275.5h-39.6c-0.2-1-0.2-2.1-0.2-3.1c0-1.1,0.1-2.1,0.2-3.1h39.6c0.2,1,0.2,2.1,0.2,3.1
			C331.4,273.4,331.3,274.4,331.2,275.5z"/>
		<path class="st0" d="M326.9,284.9l-34.3-19.8c0.8-2,1.8-3.8,3.2-5.5l34.3,19.8C329.3,281.5,328.3,283.3,326.9,284.9z"/>
		<path class="st0" d="M318.6,291l-19.8-34.3c1.6-1.3,3.5-2.4,5.5-3.2l19.8,34.3C322.4,289.2,320.5,290.3,318.6,291z"/>
	</g>
	<path class="st0" d="M311.2,283.9c7.9,0,14.3-6.4,14.3-14.3c0-7.9-6.4-14.3-14.3-14.3c-7.9,0-14.3,6.4-14.3,14.3
		C296.9,277.4,303.3,283.9,311.2,283.9z"/>
	<path class="st14" d="M311.2,279.7c5.6,0,10.1-4.6,10.1-10.1c0-5.6-4.6-10.1-10.1-10.1c-5.6,0-10.1,4.6-10.1,10.1
		C301.1,275.1,305.6,279.7,311.2,279.7z"/>
	<path class="st0" d="M311.2,277.5c5.6,0,10.1-4.4,10.1-9.9s-4.6-9.9-10.1-9.9c-5.6,0-10.1,4.4-10.1,9.9S305.6,277.5,311.2,277.5z"
		/>
	<path class="st5" d="M319,253.9c-2.6-1.5-5.4-1.4-6.3,0.3c-0.9,1.6,1.3,2.5,3.9,4c2.6,1.5,4.5,2.9,5.4,1.3
		C322.8,257.8,321.5,255.3,319,253.9z"/>
	<path class="st5" d="M335.1,216.2c11.7,5.2,21.2,14.5,26.5,26.2c4.8,0,9.5,0,14.3,0c6,0,5.6,0.7,3-5.4c-7.4-17.9-22.1-32-40.2-38.8
		c-4.1-1.5-3.5-1.8-3.5,2.3C335.1,205.7,335.1,210.9,335.1,216.2z"/>
	<path class="st5" d="M287.5,320.4c-11.8-4.9-21.4-14.1-27-25.6c-4.7,0.1-9.5,0.2-14.2,0.3c-6,0.1-5.6-0.6-2.9,5.4
		c7.8,17.7,22.7,31.5,41,38c4.1,1.5,3.5,1.8,3.4-2.4C287.7,330.8,287.6,325.6,287.5,320.4z"/>
	<path d="M311.4,188.7c-46.5,0-84.4,37.5-84.4,83.6s37.8,83.6,84.4,83.6s84.4-37.5,84.4-83.6S357.9,188.7,311.4,188.7z M348.1,272.3
		c0,20-16.5,36.4-36.7,36.4s-36.7-16.3-36.7-36.4s16.5-36.4,36.7-36.4S348.1,252.3,348.1,272.3z M299.2,333.1
		c3.9,0.8,8,1.2,12.1,1.2s8.2-0.4,12.1-1.2l0.1,0.1l-12.3,21l-12.3-21L299.2,333.1z M370.6,252.3c-2.7-7.7-6.8-14.8-12.2-20.8l0-0.2
		H383l-12.3,21.1L370.6,252.3z M357.2,230.2c-5.5-5.9-12.2-10.7-19.6-14.1l0-0.2L360,206l-2.6,24.2H357.2z M337.2,214.8l-7.5-22.9
		c10.8,2.4,20.9,7,29.7,13.1L337.2,214.8L337.2,214.8z M336.2,215.3l-0.1,0.1c-7.3-3.1-15.3-4.9-23.8-5l-0.1-0.1l16.4-18.1
		L336.2,215.3L336.2,215.3z M310.5,210.3c-8.4,0.1-16.5,1.9-23.8,5l-0.1-0.1l7.6-23.1l16.4,18.1L310.5,210.3z M285.5,214.8
		l-22.2-9.8c8.8-6.2,18.8-10.7,29.7-13.1L285.5,214.8L285.5,214.8z M285.2,215.9l0,0.1c-7.4,3.4-14.1,8.2-19.6,14.1h-0.2l-2.6-24.2
		L285.2,215.9z M264.3,231.5c-5.3,6-9.5,13.1-12.2,20.8l-0.1,0.1l-12.3-21.1h24.5L264.3,231.5L264.3,231.5z M251,252.9l-22.2,9.8
		c1.3-11,4.8-21.4,10.1-30.6L251,252.9L251,252.9z M251.6,253.9l0.1,0.1c-1.8,5.8-2.8,12-2.8,18.4c0,1.9,0.1,3.8,0.3,5.6L249,278
		l-19.9-14.3L251.6,253.9L251.6,253.9z M249.3,279.7c1,8.2,3.6,15.9,7.5,22.9l-0.1,0.2l-24-5.1l16.4-18.1L249.3,279.7L249.3,279.7z
		 M256.4,303.8l-7.5,22.8c-7.1-8.1-12.7-17.5-16.3-27.8L256.4,303.8L256.4,303.8z M257.5,304l0.2,0c4.2,7,9.7,13,16.2,17.9l0,0.2
		l-24,5.1L257.5,304L257.5,304z M275.4,322.9c6.6,4.6,14.1,8,22.2,9.8l0.1,0.1l-19.9,14.3l-2.6-24.2L275.4,322.9z M298.2,333.9
		l12.1,20.8c-11.3-0.1-22-2.5-31.8-6.7L298.2,333.9z M324.6,333.9l19.7,14.2c-9.8,4.2-20.5,6.5-31.8,6.7L324.6,333.9z M325.2,332.9
		l0.1-0.1c8.1-1.8,15.6-5.2,22.2-9.8l0.2,0l-2.6,24.2L325.2,332.9L325.2,332.9z M348.9,321.9c6.5-4.8,12.1-10.9,16.3-17.9l0.2,0
		l7.6,23.1l-24-5.1L348.9,321.9L348.9,321.9z M366.4,303.8l23.8-5c-3.6,10.4-9.1,19.8-16.3,27.9L366.4,303.8z M366.1,302.7l-0.1-0.2
		c3.9-6.9,6.5-14.6,7.5-22.9l0.1-0.1l16.4,18.1L366.1,302.7L366.1,302.7z M373.7,277.9c0.2-1.9,0.3-3.7,0.3-5.6
		c0-6.4-1-12.5-2.8-18.3l0.1-0.1l22.4,9.9L373.8,278L373.7,277.9L373.7,277.9z M371.8,252.9L384,232c5.3,9.3,8.8,19.6,10.1,30.6
		L371.8,252.9z M382.9,230.2h-24.3l2.5-23.9C369.9,212.7,377.3,220.9,382.9,230.2z M327.7,191.5l-16.3,17.9l-16.3-17.9
		c5.3-1,10.7-1.6,16.3-1.6C317,189.9,322.4,190.4,327.7,191.5L327.7,191.5z M261.6,206.3l2.5,23.9h-24.3
		C245.5,220.9,252.9,212.7,261.6,206.3z M228.5,264.7l19.7,14.2l-16.3,17.9c-2.4-7.7-3.8-16-3.8-24.5
		C228.2,269.8,228.3,267.2,228.5,264.7z M250.3,328.2l23.7-5l2.5,23.9C266.6,342.6,257.7,336.1,250.3,328.2L250.3,328.2z
		 M346.2,347.2l2.5-23.9l23.7,5C365.1,336.1,356.2,342.6,346.2,347.2L346.2,347.2z M390.9,296.8l-16.3-17.9l19.7-14.2
		c0.2,2.5,0.4,5,0.4,7.6C394.6,280.8,393.3,289.1,390.9,296.8z"/>
</g>
</svg>
