<?xml version="1.0" encoding="utf-8"?>
<!-- Generator: Adobe Illustrator 28.7.1, SVG Export Plug-In . SVG Version: 9.03 Build 54978)  -->
<svg version="1.1" id="Layer_1" xmlns="http://www.w3.org/2000/svg" xmlns:xlink="http://www.w3.org/1999/xlink" x="0px" y="0px"
	 width="621.1px" height="798.4px" viewBox="0 0 621.1 798.4" style="enable-background:new 0 0 621.1 798.4;" xml:space="preserve"
	>
<style type="text/css">
	.Drop_x0020_Shadow{fill:none;}
	.Outer_x0020_Glow_x0020_5_x0020_pt{fill:none;}
	.Blue_x0020_Neon{fill:none;stroke:#8AACDA;stroke-width:7;stroke-linecap:round;stroke-linejoin:round;}
	.Chrome_x0020_Highlight{fill:url(#SVGID_1_);stroke:#FFFFFF;stroke-width:0.3629;stroke-miterlimit:1;}
	.Jive_GS{fill:#FFDD00;}
	.Alyssa_GS{fill:#A6D0E4;}
	.st0{fill-rule:evenodd;clip-rule:evenodd;}
	.st1{fill-rule:evenodd;clip-rule:evenodd;fill:#901713;}
	.st2{fill-rule:evenodd;clip-rule:evenodd;fill:#F65043;}
	.st3{fill-rule:evenodd;clip-rule:evenodd;fill:#6B536B;}
	.st4{fill-rule:evenodd;clip-rule:evenodd;fill:#CEB555;}
	.st5{fill-rule:evenodd;clip-rule:evenodd;fill:#FFFFFF;}
	.st6{fill-rule:evenodd;clip-rule:evenodd;fill:#1D1715;}
	.st7{fill-rule:evenodd;clip-rule:evenodd;fill:#FFFCE0;}
	.st8{fill-rule:evenodd;clip-rule:evenodd;fill:#C53029;}
	.st9{fill-rule:evenodd;clip-rule:evenodd;fill:#978026;}
	.st10{fill-rule:evenodd;clip-rule:evenodd;fill:#E5D6A2;}
	.st11{fill-rule:evenodd;clip-rule:evenodd;fill:#D0E2F7;}
	.st12{fill-rule:evenodd;clip-rule:evenodd;fill:#A1C2F3;}
	.st13{fill-rule:evenodd;clip-rule:evenodd;fill:#C5C6C6;}
	.st14{fill-rule:evenodd;clip-rule:evenodd;fill:#3B3635;}
</style>
<linearGradient id="SVGID_1_" gradientUnits="userSpaceOnUse" x1="-909.4474" y1="-0.8211" x2="-909.4474" y2="-1.8211">
	<stop  offset="0" style="stop-color:#656565"/>
	<stop  offset="0.618" style="stop-color:#1B1B1B"/>
	<stop  offset="0.6292" style="stop-color:#545454"/>
	<stop  offset="0.9831" style="stop-color:#3E3E3E"/>
</linearGradient>
<g>
	<path class="st0" d="M313.9,252v3.1c0.8,0.2,1.6,0.5,2.4,0.8l1.6-2.8c2,0.8,3.8,1.8,5.4,3.1l-2,3.4c0.4,0.5,0.9,1.1,1.2,1.6
		l3.7-2.1c1.3,1.6,2.4,3.5,3.1,5.4l-4.7,2.7c0.1,0.4,0.1,0.9,0.1,1.3h5.6c0.2,1,0.2,2.1,0.2,3.1s-0.1,2.1-0.2,3.1h-6.9
		c-0.1,0.2-0.2,0.3-0.2,0.5l6.1,3.5c-0.8,2-1.8,3.8-3.1,5.4l-6.9-4l4,6.9c-1.6,1.3-3.5,2.4-5.4,3.1l-4-6.9v8c-1,0.2-2.1,0.2-3.1,0.2
		c-1.1,0-2.1-0.1-3.1-0.2v-8l-4,6.9c-2-0.8-3.8-1.8-5.4-3.1l3.9-6.8l-0.1-0.1l-6.8,3.9c-1.3-1.6-2.4-3.5-3.1-5.4l5.8-3.3
		c-0.1-0.2-0.2-0.4-0.3-0.7H291c-0.2-1-0.2-2.1-0.2-3.1s0.1-2.1,0.2-3.1h5.2c0-0.5,0.1-1,0.1-1.5l-4.3-2.5c0.8-2,1.8-3.8,3.1-5.4
		l3.4,2c0.4-0.6,0.9-1.2,1.4-1.7l-1.8-3.1c1.6-1.3,3.5-2.4,5.4-3.1l1.5,2.7c0.8-0.3,1.6-0.6,2.5-0.8v-3c1-0.2,2.1-0.2,3.1-0.2
		C311.8,251.8,312.9,251.9,313.9,252L313.9,252z M316.9,258.1c-2.5-1.5-5.4-1.4-6.3,0.3c-0.9,1.6,1.3,2.5,3.8,4
		c2.5,1.5,4.5,2.9,5.4,1.3C320.8,262.1,319.5,259.6,316.9,258.1L316.9,258.1z M310.6,279.1c5.6,0,10.1-4.5,10.1-10.1
		c0-0.3,0-0.7,0-1c-0.5,5-4.8,8.9-10.1,8.9c-5.2,0-9.6-3.9-10.1-8.9c0,0.3,0,0.7,0,1C300.4,274.6,305,279.1,310.6,279.1z"/>
	<path class="st0" d="M231.4,467.3c-20.2,16.4-48.2,46.2-60.6,70.8c8.5,5.2,14.5,18.2,14.5,33.4c0,17.5-8,32.1-18.5,35.3
		c5.9,11,12.3,22.6,18.4,33.7c2.9-3.1,6.6-5.2,11-5.2c1.4,0,2.9-0.2,4.4-0.3c1.6-0.1,3.2,0,4.8,0.3c1.3-0.4,2.6-0.6,4-0.6
		c11.9,0,21.6,15.3,21.6,34.1c0,13.6-5.1,25.4-12.5,30.9c6.5,22.6,2.6,37.3-5.9,49c-1.1,2.2-2.3,4.3-3.8,6.4c-1.4,2-3.1,4-4.7,5.9
		c-2.5,3.1-5.1,6.2-7.6,9.3c-2.2,2.7-4.5,5.4-6.7,8.2c-5.7,7-10.5,12.6-17.1,15.8c-0.1,0.1-0.3,0.2-0.4,0.2c-4,1.8-8.6,2.8-14.4,2.7
		c-12.9-0.3-26,0-38.9,0.2c-19,0.4-38,0.8-57,1c-7.6,0.1-15.6-0.6-20.8-6.9c-4.5-5.5-6-10.9-3.5-17.9C49,743,69.9,719.1,96.6,700.9
		c8-5.5,16.3-10.2,24.8-14.5l0-0.1c-5.2-3.1-8.3-9.5-8.3-15.7c0-6.5,3.3-13,8.8-16c0.8-2.9,1.9-5.6,3.3-8.2
		c3.3-6.4,8.7-12.3,16.1-13.5c0.9-0.1,1.8-0.2,2.7-0.2c1.8,0,3.7-0.3,5.6-0.3l0.1,0c-4.8-8.8-9.5-17.6-13.9-25.7
		c-5.6-1.9-9.7-6.8-12.4-11.9c-1.5-2.8-2.6-5.9-3.4-9.1c-4.9-2.1-8.4-7.6-8.4-14c0-6.4,3.5-11.9,8.4-14c0.8-3.2,1.9-6.2,3.4-9.1
		c2.3-4.4,5.6-8.6,10-10.9c-3.8,0.8-7.7,0-11.8-1.2c-2.2-0.7-4.9-2.3-6.9-3.5c-2.9-1.8-5.8-3.7-8.7-5.7c-1.6-1.1-2.5-2.8-2.4-4.8
		c-0.2-0.2-0.5-0.3-0.7-0.5c-0.1,0-0.2,0.1-0.3,0.1c-1.7,0.6-3.5,0.4-5-0.7c-2.6-1.9-5.2-3.7-7.7-5.6c-6.9-5.2-6.9-12.8-2.3-19.5
		c0.4-0.6,0.8-1.2,1.2-1.8c-1.4-1.3-2.8-2.7-4.1-4c-9-8.8-17.7-18-26-27.5C48.3,451,24.9,423.5,23,407.7c-0.9-7.2,1.7-14.5,5.2-20.8
		c-2.4-4.7-3.2-10.3-2.8-15.5c0.2-2.9,0.8-5.8,1.6-8.6c-11.8-0.5-22.5-8.5-25.9-20.5c-4.3-15,4.4-30.7,19.4-35c3.4-1,6.9-1.3,10.2-1
		c5.7-7.1,12.5-14.2,20-21c16.3-14.7,36.9-28.5,60-37.8c3.3-15.9,10.7-34.1,25.9-39.2c3-1,6-1.4,9.1-1.3c7.8-16.9,18.2-32.4,30.5-46
		c-0.2-0.7-0.4-1.3-0.5-2c-2-11.1,6.4-21.7,14.9-29.2l-8.7-17.6c0,0,0.6-1,1.8-2.2l-54.2-85c-1.3,0.5-2.8,0.7-4.3,0.7
		c-7.1,0-12.8-5.7-12.8-12.8c0-7.1,5.7-12.8,12.8-12.8c7.1,0,12.8,5.7,12.8,12.8c0,3.7-1.6,7.1-4.1,9.4l56.5,83.4
		c0.7-0.2,1.4-0.4,2.1-0.4l13.3,13.9c3.2-1.7,6.6-3.2,10-4.2c6.2-1.8,13.1-2.2,19,0.9c0.8,0.4,1.5,0.9,2.2,1.4
		c22.5-10,47.4-15.5,73.6-15.5c26.4,0,51.4,5.6,74,15.7c0.8-0.6,1.6-1.1,2.4-1.6c5.9-3.1,12.8-2.7,19-0.9c3.4,1,6.8,2.5,10,4.2
		l13.3-13.9c0.7,0.1,1.5,0.2,2.1,0.4l56.5-83.4c-2.5-2.3-4.1-5.7-4.1-9.4c0-7.1,5.7-12.8,12.8-12.8c7.1,0,12.8,5.7,12.8,12.8
		c0,7.1-5.7,12.8-12.8,12.8c-1.5,0-2.9-0.3-4.3-0.7l-54.2,85c1.2,1.2,1.8,2.2,1.8,2.2l-8.7,17.6c8.5,7.5,16.9,18.1,14.9,29.2
		c-0.2,0.9-0.4,1.8-0.7,2.6c12.2,13.5,22.3,28.8,30,45.4c3.1-0.1,6.1,0.3,9.1,1.3c15.1,5.1,22.5,23.3,25.9,39.2
		c23.1,9.4,43.7,23.1,60,37.8c7.6,6.8,14.3,13.9,20,21c3.3-0.3,6.8,0,10.2,1c15,4.3,23.7,19.9,19.4,35c-3.4,12-14.1,20-25.9,20.5
		c0.9,2.8,1.4,5.7,1.6,8.6c0.4,5.2-0.4,10.8-2.8,15.5c3.5,6.3,6,13.6,5.2,20.8c-1.9,15.9-25.3,43.3-35.7,55.3
		c-8.3,9.5-17,18.7-26,27.5c-1.4,1.3-2.8,2.7-4.1,4c0.4,0.6,0.8,1.2,1.2,1.8c4.6,6.8,4.6,14.3-2.3,19.5c-2.6,1.9-5.1,3.8-7.7,5.6
		c-1.5,1.1-3.3,1.3-5,0.7c-0.1,0-0.2-0.1-0.3-0.1c-0.2,0.2-0.5,0.3-0.7,0.5c0.1,1.9-0.8,3.7-2.4,4.8c-2.9,2-5.8,3.9-8.7,5.7
		c-2,1.2-4.6,2.8-6.9,3.5c-4.1,1.2-8,2-11.8,1.2c4.4,2.3,7.7,6.5,10,10.9c1.5,2.8,2.6,5.9,3.4,9.1c4.9,2.1,8.4,7.6,8.4,14
		c0,6.4-3.5,11.9-8.4,14c-0.8,3.2-1.9,6.2-3.4,9.1c-2.7,5.2-6.8,10-12.4,11.9c-4.3,8.2-9,16.9-13.9,25.7l0.1,0
		c1.8,0.1,3.8,0.3,5.6,0.3c0.9,0,1.8,0.1,2.7,0.2c7.4,1.2,12.8,7.2,16.1,13.5c1.3,2.6,2.4,5.3,3.3,8.2c5.5,3,8.8,9.5,8.8,16
		c0,6.3-3.1,12.6-8.3,15.7l0,0.1c8.5,4.3,16.8,9.1,24.8,14.5c26.7,18.2,47.6,42.2,58.9,72.7c2.5,6.9,1,12.4-3.5,17.9
		c-5.2,6.3-13.2,7-20.8,6.9c-19-0.3-38-0.7-57-1c-12.9-0.2-26-0.5-38.9-0.2c-5.8,0.1-10.4-0.8-14.4-2.7c-0.2,0-0.3-0.1-0.4-0.2
		c-6.6-3.2-11.4-8.8-17.1-15.8c-2.2-2.7-4.5-5.5-6.7-8.2c-2.5-3.1-5.1-6.2-7.6-9.3c-1.6-1.9-3.3-3.9-4.7-5.9
		c-1.5-2.1-2.8-4.2-3.8-6.4c-8.5-11.7-12.4-26.4-5.9-49c-7.4-5.4-12.5-17.3-12.5-30.9c0-18.8,9.7-34.1,21.6-34.1
		c1.4,0,2.7,0.2,4,0.6c1.6-0.4,3.2-0.4,4.8-0.3c1.4,0.1,3,0.3,4.4,0.3c4.5,0,8.1,2.2,11,5.2c6.1-11.1,12.5-22.7,18.4-33.7
		c-10.5-3.1-18.5-17.8-18.5-35.3c0-15.2,6-28.2,14.5-33.4c-12.4-24.7-40.3-54.4-60.6-70.8c-12.6,5.2-27,8-37.9,1.2
		c-2.9-1.8-5.2-4.2-7.1-7c-11.1,2.1-22.5,3.2-34.2,3.2c-11.7,0-23.1-1.1-34.2-3.2c-1.9,2.8-4.2,5.2-7.1,7
		C258.4,475.3,243.9,472.5,231.4,467.3L231.4,467.3z M392.7,438.9l-6.3-9.6c-0.4,0.5-0.9,1.2-1.7,1.9c-0.3,0.3-0.6,0.5-0.9,0.7
		c-2,1.4-4.4,2-6.7,1.7c-2.3-0.3-4.5-1.4-6.2-3.3c-0.3-0.3-0.5-0.6-0.7-0.9c-0.6-0.8-1-1.5-1.3-2.1l-0.2-0.4
		c-27.1,18.1-89.2,18.1-116.3,0l-0.2,0.4c-0.3,0.6-0.7,1.3-1.3,2.1c-0.2,0.3-0.5,0.6-0.7,0.9c-1.7,1.9-3.9,3-6.2,3.3
		c-2.3,0.3-4.7-0.3-6.7-1.7c-0.3-0.2-0.6-0.4-0.9-0.7c-0.8-0.7-1.3-1.3-1.7-1.9l-6.3,9.6l-0.3-0.1c0.8,0.4,1.5,0.8,2.3,1.2l4.8-7.7
		l0.4,0.6c1,1.4,2.2,2.3,3.5,2.8c1.3,0.5,2.9,0.6,4.7,0.3c1.1-0.1,2.2-0.5,3.2-1c1-0.5,1.9-1.2,2.7-2.1c0.1-0.1,0.2-0.3,0.4-0.4
		c0.1-0.2,0.2-0.3,0.3-0.5c0.5-0.8,0.9-1.5,1.2-2.1l0.5-0.9l0.4,0.3c3,2,6.4,3.7,10.1,5.3c3.9,1.6,8.1,3,12.6,4.1
		c0.9,0.2,1.9,0.5,2.8,0.7c1,0.2,1.9,0.4,2.9,0.6c15.3,3.1,32.7,3.6,48.8,1.7c15.2-1.9,29.1-6,38.7-12.4l0.4-0.3l0.5,0.9
		c0.3,0.6,0.7,1.3,1.2,2.1c0.1,0.1,0.2,0.3,0.3,0.5c0.1,0.2,0.2,0.3,0.4,0.4c0.8,0.9,1.7,1.6,2.7,2.1c1,0.5,2.1,0.9,3.2,1
		c1.8,0.2,3.4,0.1,4.9-0.4c1.4-0.5,2.6-1.4,3.6-2.6l0.4-0.5l4.8,7.5c0.7-0.3,1.3-0.7,2-1.1L392.7,438.9L392.7,438.9z M226.8,438
		l7-10.7c0.4-0.6,0.8-0.7,1.4-0.3h0c0.3,0.2,0.4,0.4,0.7,0.8c0.3,0.5,0.9,1.2,1.6,1.9c0.2,0.2,0.5,0.4,0.7,0.6
		c1.6,1.2,3.6,1.6,5.5,1.4c1.9-0.2,3.7-1.1,5-2.7c0.2-0.2,0.4-0.5,0.6-0.8c0.5-0.7,0.9-1.4,1.2-2c0.2-0.4,0.4-0.7,0.6-1
		c0.5-0.7,1-1,1.7-0.5l0,0c26.3,18.2,89.1,18.2,115.4,0l0,0c0.7-0.5,1.2-0.2,1.7,0.5c0.2,0.3,0.3,0.6,0.6,1c0.3,0.6,0.7,1.3,1.2,2
		c0.2,0.3,0.4,0.5,0.6,0.8c1.4,1.5,3.2,2.4,5,2.7c1.9,0.2,3.8-0.2,5.5-1.4c0.2-0.2,0.5-0.4,0.7-0.6c0.8-0.7,1.3-1.4,1.6-1.9
		c0.3-0.4,0.5-0.7,0.7-0.8h0c0.6-0.4,1-0.3,1.4,0.3l7,10.7l0,0c55-29.8,92.3-88,92.3-154.9c0-97.2-78.8-176.1-176.1-176.1
		c-97.2,0-176.1,78.8-176.1,176.1C134.5,350,171.8,408.2,226.8,438L226.8,438z M231.3,440.4c11.9,6.1,24.4,10.7,37.5,13.7
		c13.3,3.1,27.2,4.6,41.7,4.6c14.4,0,28.3-1.6,41.5-4.8c13.2-3.1,25.9-7.8,37.8-14l-3.9-6c-1,1.2-2.3,2-3.6,2.4
		c-1.7,0.6-3.5,0.7-5.4,0.5c-1.2-0.2-2.4-0.5-3.5-1.1c-1.1-0.6-2.1-1.3-2.9-2.3c-0.1-0.2-0.3-0.3-0.4-0.5c-0.1-0.1-0.2-0.3-0.4-0.5
		c-0.6-0.8-1-1.5-1.3-2.1c-9.7,6.3-23.5,10.4-38.6,12.2c-16.2,2-33.8,1.4-49.1-1.7c-1-0.2-2-0.4-2.9-0.6c-1-0.2-1.9-0.4-2.8-0.7
		c-4.5-1.1-8.8-2.5-12.7-4.2c-3.6-1.5-6.9-3.2-9.8-5.1c-0.3,0.6-0.7,1.3-1.3,2.1c-0.1,0.2-0.3,0.4-0.4,0.5c-0.1,0.2-0.3,0.3-0.4,0.5
		c-0.9,1-1.9,1.7-2.9,2.3c-1.1,0.6-2.3,1-3.5,1.1c-2,0.2-3.7,0.2-5.2-0.4c-1.3-0.5-2.5-1.3-3.5-2.6L231.3,440.4L231.3,440.4z
		 M132,316c-2.9-0.6-5.7-1.7-8.2-3.4c-10.7-6.9-14.6-20.9-15.4-34.6c-15.1,7.5-28.6,17.2-39.9,27.3c-5.8,5.2-11,10.5-15.5,15.5
		c1,1.8,1.8,3.8,2.4,5.9c1,3.3,1.3,6.7,1,10c0.7-0.1,1.5-0.2,2.2-0.3c7.1-0.8,15.2,0.4,20.8,5.2c2.1-0.9,4.2-1.5,6.3-2
		c0.4-0.1,0.8-0.1,1.2-0.1c14.9,0,49.2,28.4,60.6,38c6.6,5.5,13.2,11.2,19.6,17C149.6,371.9,137.3,345.2,132,316L132,316z
		 M390.5,120.1c13.9,6.9,26.9,15.4,38.5,25.5c0.4-2.9,0.2-5.6-0.5-8.1c-0.4-1.5-1.1-3-1.9-4.4c-1.4-1.2-2.9-2.4-4.4-3.5
		C410.7,121,398.6,116.6,390.5,120.1L390.5,120.1z M430.7,147c3.5,3.1,6.9,6.3,10.2,9.7c0.5-6.5-3.7-13.7-10.8-20.6
		c0.1,0.3,0.2,0.6,0.3,0.9C431.2,140.1,431.4,143.4,430.7,147L430.7,147z M477.8,212.4c4.8,11.4,8.5,23.5,10.9,36
		c2.7-0.1,6.4-0.5,9.6-1.8c2.1-0.9,4-2.2,5.2-4.2C498.8,225.3,490,213.2,477.8,212.4L477.8,212.4z M489.4,252
		c0.7,4.3,1.3,8.7,1.8,13.1c0.9,0,1.8-0.1,2.8-0.2c3-0.3,6.3-1.1,9-2.8c1.4-0.9,2.7-2,3.6-3.5c-0.5-4.1-1.1-8.1-2-11.8
		c-1.4,1.3-3.1,2.4-4.9,3.1C496.3,251.4,492.4,251.9,489.4,252L489.4,252z M491.4,266.9c0.4,4.3,0.6,8.7,0.7,13.1
		c1,0,2.2-0.1,3.4-0.2c2.8-0.3,6.1-1.1,8.7-2.6c1.4-0.8,2.5-1.9,3.3-3.3c0.1-4-0.1-8.2-0.5-12.5c-0.8,0.9-1.8,1.7-2.9,2.4
		c-3,1.8-6.6,2.7-9.8,3C493.2,266.8,492.2,266.9,491.4,266.9L491.4,266.9z M492.1,283.6c0,9-0.7,17.8-2,26.4
		c10.4-3.4,15.8-15.2,17.1-30.6c-0.4,0.3-0.8,0.5-1.1,0.8c-3.1,1.9-6.9,2.8-10.2,3.2C494.5,283.6,493.2,283.6,492.1,283.6
		L492.1,283.6z M489.1,316c-5.3,29.2-17.7,56-35.2,78.5c6.4-5.8,12.9-11.5,19.6-17c11.4-9.5,45.7-37.9,60.6-38c0.4,0,0.8,0,1.2,0.1
		c2,0.5,4.1,1.1,6.3,2c5.6-4.8,13.6-6.1,20.8-5.2c0.7,0.1,1.5,0.2,2.2,0.3c-0.3-3.3,0-6.7,1-10c0.6-2.1,1.4-4.1,2.4-5.9
		c-4.4-5-9.6-10.3-15.5-15.5c-11.3-10.1-24.8-19.7-39.9-27.3c-0.8,13.6-4.6,27.6-15.4,34.6C494.8,314.2,492,315.3,489.1,316
		L489.1,316z M425.7,423.5c-4.6,3.8-9.4,7.3-14.3,10.6l0,0c1.7,2.8,3.3,6.4,3.6,10c0,0.5,0.1,1,0.1,1.4c3.4-2.8,6.3-5.8,8.8-8.8
		C423.3,432.2,423.6,427.6,425.7,423.5L425.7,423.5z M408.4,436.1c-3.7,2.4-7.4,4.6-11.3,6.7l0.1,0.1c1.6,2.7,3.2,6.2,3.5,9.6
		c0.1,1.1,0.1,2.2-0.1,3.2c0.6-0.3,1.1-0.7,1.7-1c3-1.9,5.9-3.8,8.6-5.8c0.6-1.4,0.7-2.9,0.6-4.5
		C411.1,441.5,409.8,438.5,408.4,436.1L408.4,436.1z M395.4,443.6c-3.9,2.1-7.9,4-12,5.8c1.4,2.3,2.8,5.1,3.6,8
		c0.4,1.6,0.6,3.2,0.5,4.8c3.5-1.5,7.2-3.2,10.8-5.3c0.4-1.4,0.5-2.8,0.4-4.3c-0.3-3.2-1.7-6.3-3.3-8.9L395.4,443.6L395.4,443.6z
		 M380.1,450.8c-9.4,3.9-19.3,7.1-29.4,9.4c6.9,8.2,19.2,8.5,33.1,3.5c0.4-1.7,0.3-3.6-0.2-5.4C382.9,455.6,381.5,452.9,380.1,450.8
		L380.1,450.8z M270.4,460.2c-10.2-2.3-20-5.4-29.4-9.4c-1.4,2.1-2.8,4.7-3.4,7.5c-0.5,1.8-0.6,3.7-0.2,5.4
		C251.3,468.7,263.5,468.4,270.4,460.2L270.4,460.2z M237.6,449.4c-4.1-1.8-8-3.7-12-5.8l-0.1,0.2c-1.5,2.6-2.9,5.7-3.3,8.9
		c-0.1,1.5,0,2.9,0.4,4.3c3.6,2,7.3,3.8,10.8,5.3c-0.1-1.6,0.1-3.2,0.5-4.8C234.8,454.5,236.2,451.7,237.6,449.4L237.6,449.4z
		 M224.1,442.8c-3.9-2.1-7.6-4.3-11.3-6.7c-1.4,2.4-2.8,5.4-3.1,8.4c-0.1,1.5,0,3,0.6,4.5c2.7,2,5.6,4,8.6,5.8
		c0.6,0.3,1.1,0.7,1.7,1c-0.2-1.1-0.2-2.2-0.1-3.2c0.3-3.5,1.9-6.9,3.5-9.6L224.1,442.8L224.1,442.8z M209.7,434.1
		c-5-3.3-9.7-6.9-14.3-10.6c2.1,4.1,2.4,8.7,1.9,13.3c2.5,3,5.4,5.9,8.8,8.8c0-0.5,0-1,0.1-1.4C206.4,440.5,208,436.9,209.7,434.1
		L209.7,434.1L209.7,434.1z M131,310.1c-1.3-8.6-2-17.4-2-26.4c-1.1,0-2.4-0.1-3.8-0.2c-3.3-0.4-7.1-1.3-10.2-3.2
		c-0.4-0.2-0.8-0.5-1.1-0.8C115.2,294.9,120.6,306.6,131,310.1L131,310.1z M129.1,280c0.1-4.4,0.3-8.8,0.7-13.1
		c-0.9,0-1.8-0.1-2.9-0.2c-3.2-0.4-6.8-1.2-9.8-3c-1.1-0.7-2.1-1.5-2.9-2.4c-0.4,4.3-0.6,8.5-0.5,12.5c0.8,1.4,2,2.5,3.3,3.3
		c2.6,1.6,5.8,2.3,8.7,2.6C126.9,279.9,128.1,280,129.1,280L129.1,280z M129.9,265.1c0.4-4.4,1-8.8,1.8-13.1
		c-3-0.1-6.9-0.6-10.3-2.1c-1.8-0.8-3.5-1.8-4.9-3.1c-0.8,3.8-1.5,7.7-2,11.8c0.9,1.5,2.1,2.6,3.6,3.5c2.7,1.7,6.1,2.4,9,2.8
		C128.1,265,129,265.1,129.9,265.1L129.9,265.1z M132.3,248.4c2.4-12.5,6.1-24.5,10.9-36c-12.2,0.8-21,12.9-25.7,30
		c1.2,1.9,3.1,3.3,5.2,4.2C126,248,129.6,248.4,132.3,248.4L132.3,248.4z M180.9,156.1c3.2-3.3,6.6-6.5,10.1-9.6
		c-0.6-3.4-0.4-6.6,0.4-9.5c0.1-0.3,0.2-0.6,0.3-0.9C184.9,142.7,180.7,149.8,180.9,156.1L180.9,156.1z M192.7,145.1
		c11.6-9.9,24.4-18.4,38.2-25.1c-8.1-3.2-20,1.1-31.4,9.6c-1.5,1.1-3,2.3-4.4,3.5c-0.8,1.4-1.4,2.9-1.9,4.4
		C192.5,139.9,192.3,142.4,192.7,145.1L192.7,145.1z M125.2,4.5c-4.6,0-8.3,3.7-8.3,8.3c0,4.6,3.7,8.3,8.3,8.3
		c4.6,0,8.3-3.7,8.3-8.3C133.4,8.3,129.7,4.5,125.2,4.5L125.2,4.5z M496.6,4.5c-4.6,0-8.3,3.7-8.3,8.3c0,4.6,3.7,8.3,8.3,8.3
		s8.3-3.7,8.3-8.3C504.9,8.3,501.2,4.5,496.6,4.5L496.6,4.5z M489.4,597.2c4.8-5.4,8-14.9,8-25.7c0-16.8-7.7-30.4-17.3-30.4
		c-0.3,0-0.8,0-1.5,0c3.7,3.3,6.5,8.3,8.3,14.1c1.4,4.5,2.2,9.6,2.5,14.6c0.3,5.1,0,10.1-0.9,14.8c-0.8,4.3-2.1,8.3-3.8,11.5
		C486.5,596.3,488.2,596.6,489.4,597.2L489.4,597.2z M475.5,540.9c-1.6-0.1-3.4-0.1-5.3-0.2c6.6,6.3,11,17.7,11,30.7
		c0,9.9-2.6,18.9-6.7,25.4c0.2-0.1,0.5-0.1,0.7-0.2c2.1-0.6,4.8-0.8,7.5-0.8c1.9-3.2,3.2-7.3,4-11.8c0.8-4.5,1.1-9.5,0.9-14.4
		c-0.3-4.9-1-9.8-2.4-14.2C483.2,549.2,480,543.8,475.5,540.9L475.5,540.9z M567.6,775.6l10.8,0l0-0.1
		c-18.5-50.2-62.1-76.5-93.6-90.1l0.9,0.6c2.7,1.9,7,4.9,9.6,7.1c2.5,2.1,2.9,3,2.3,3.7c-0.3,0.4-0.8,0.5-1.5,0.6
		c-0.9,0.2-2.2,0.5-2.6,1.8h0c-1.1,3,1.4,6.5,4.6,8.9c1.1,0.8,2.3,1.5,3.5,2c1.2,0.5,2.4,0.8,3.5,0.9c2,0.2,3.7-0.5,4.3-2.3
		c0.1-0.4,0.3-0.7,0.5-0.9c1-1.1,2.6-1.1,4.7-0.3c1.9,0.7,4.2,2,6.7,3.8c6.4,4.5,14.1,11.8,19.5,18.7c12.2,15.4,20.8,33.4,24.7,41.7
		C566.2,773,567,774.7,567.6,775.6L567.6,775.6z M478.2,682.7c-3.4-1.4-6.6-2.6-9.6-3.7c0,0,0,0-0.1,0c-1,0.4-2.1,0.6-3.2,0.6h-21.1
		c-0.8,4.3-2.1,8.5-4.1,12.3c-3,5.8-8.2,11.2-15.2,11.2c-1.7,0-3.6,0.3-5.3,0.4c-1.9,0.1-3.8,0-5.6-0.5c-3.3,5.8-5.4,11.9-5.2,17.5
		c2.1,2.9,23,31.2,35.3,45.4c2.6,3,5.6,5.4,10.4,7.1c5,1.7,11.9,2.7,22.3,2.7l89.2,0c-0.4-0.8-1-2-1.7-3.5
		c-3.9-8.2-12.5-26.1-24.6-41.4c-5.3-6.7-13-14-19.2-18.4c-2.4-1.7-4.6-3-6.4-3.6c-1.6-0.6-2.7-0.6-3.3,0c-0.1,0.1-0.2,0.3-0.3,0.5
		c-0.9,2.5-3.1,3.3-5.6,3.1c-1.2-0.1-2.5-0.4-3.9-1c-1.3-0.5-2.6-1.3-3.8-2.1c-3.7-2.7-6.3-6.7-5.1-10.3l0,0
		c0.7-1.9,2.4-2.3,3.6-2.6c0.4-0.1,0.7-0.2,0.8-0.2c0,0-0.5-0.5-2.2-1.9c-2.6-2.2-6.8-5.1-9.5-7c-1-0.7-1.7-1.2-2.2-1.6
		c-0.1-0.1-1.8-1.2-3.4-2.2L478.2,682.7L478.2,682.7z M442.2,581.1c2.3,12.1,8.8,20.8,16.4,20.8c9.5,0,17.3-13.7,17.3-30.4
		c0-16.8-7.8-30.4-17.3-30.4c-7.6,0-14,8.7-16.4,20.7c1.2-1,2.7-1.8,4.2-2.3c2.1-5,5.5-8.3,9.3-8.3c6.4,0,11.6,9.1,11.6,20.3
		c0,11.2-5.2,20.3-11.6,20.3c-3.8,0-7.2-3.2-9.3-8.2l-0.1,0C444.8,583,443.4,582.2,442.2,581.1L442.2,581.1z M449.6,584.4
		c1.6,2.9,3.7,4.7,6,4.7c4.9,0,8.9-7.9,8.9-17.6c0-9.7-4-17.6-8.9-17.6c-2.3,0-4.5,1.8-6.1,4.8c1.5-0.2,3.1-0.1,4.4,0.2
		c2.3,0.5,4.4,1.6,5.5,3.3c1.6,2.3,2.3,6,2.3,9.6c0,4.1-0.9,8.2-2.4,9.7c-2,2-4.9,3.1-8,3.1C450.8,584.5,450.2,584.4,449.6,584.4
		L449.6,584.4z M440.6,571.5c0,3.1,1.2,5.5,2.9,7.2c1.1,1,2.3,1.8,3.7,2.3c1.4,0.5,2.8,0.8,4.3,0.8c2.4,0,4.6-0.7,6-2.2
		c1-1,1.6-4.3,1.6-7.8c0-3.1-0.5-6.2-1.8-8c-0.7-1.1-2.1-1.8-3.8-2.1c-1.7-0.4-3.8-0.3-5.7,0.3c-1.9,0.6-3.7,1.6-5,3.1
		C441.4,566.6,440.6,568.7,440.6,571.5L440.6,571.5z M409,688.1c-3.6,0-6.8-3.1-8.9-7.8l-0.1,0c-1.4-0.5-2.7-1.3-3.9-2.3
		c2.2,11.5,8.3,19.8,15.6,19.8c9,0,16.4-13,16.4-28.9c0-15.9-7.4-28.9-16.4-28.9c-7.2,0-13.4,8.3-15.6,19.7c1.2-1,2.5-1.7,4-2.2
		c2-4.8,5.2-7.9,8.9-7.9c6.1,0,11,8.7,11,19.3C420,679.4,415.1,688.1,409,688.1L409,688.1z M403.3,681c1.5,2.8,3.5,4.5,5.7,4.5
		c4.6,0,8.4-7.5,8.4-16.7s-3.8-16.7-8.4-16.7c-2.2,0-4.3,1.7-5.8,4.6c1.5-0.2,2.9-0.1,4.2,0.2c2.2,0.5,4.1,1.5,5.2,3.1
		c1.5,2.2,2.2,5.7,2.2,9.1c0,3.9-0.9,7.8-2.3,9.2c-1.9,1.9-4.7,2.9-7.6,2.9C404.5,681.1,403.9,681.1,403.3,681L403.3,681z
		 M394.7,668.8c0,2.9,1.1,5.2,2.8,6.8c1,1,2.2,1.7,3.5,2.2c1.3,0.5,2.7,0.7,4,0.7c2.3,0,4.4-0.7,5.7-2.1c0.9-1,1.6-4.1,1.6-7.4
		c0-2.9-0.5-5.9-1.7-7.6c-0.7-1-2-1.7-3.6-2c-1.7-0.3-3.6-0.3-5.4,0.3c-1.8,0.5-3.5,1.5-4.8,3C395.5,664,394.7,666.1,394.7,668.8
		L394.7,668.8z M423.7,640.3c5.8,6.1,9.7,16.6,9.7,28.4c0,12.4-4.2,23.3-10.6,29.3c0.8-0.1,1.5-0.1,2.1-0.1c8.3,0,15-12.9,15-28.8
		s-6.7-28.8-15-28.8C424.6,640.4,424.2,640.4,423.7,640.3L423.7,640.3z M444.9,674.2h20.4c5.9,0,7.6-14.6-2.6-14.6h-18.4
		c0.5,3.2,0.8,6.5,0.8,9.6C445.1,670.8,445.1,672.5,444.9,674.2L444.9,674.2z M452.8,790.1c2.9,1.1,6.3,1.6,10.3,1.5
		c20.7-0.5,51.6,0.7,96.1,1.3c8.1,0.1,13.2-0.9,16.5-4.9c1.8-2.2,4-5.1,3.3-9.6l-102.1,0c-10.7,0-17.9-1-23.2-2.8
		c-5.4-1.9-8.7-4.6-11.6-7.8c-10.2-11.7-26.1-32.8-32.7-41.7c1,9.6,0.2,15.8,7.4,26c1.7,2.5,12.2,14.9,18.8,23.1
		c5.2,6.4,9.3,11.3,14.8,14.1c1.6-4.1,3.1-10.9,3.5-12.6C454,777.8,454.2,785.2,452.8,790.1L452.8,790.1z M437.1,704.3
		c12.3,21.4,17.9,36.1,18.9,61.3c2.4-23.1-5.6-42.9-16.5-62.7c-0.4-0.7-1.3-0.9-1.9-0.5C436.9,702.8,436.7,703.6,437.1,704.3
		L437.1,704.3z M494.6,683.9c0.9-3.9,1.4-8.2,1.4-12.6c0-18.4-8.5-33.2-18.9-33.2c-0.5,0-1.1,0-1.7-0.1c7.6,5.9,12.9,18.6,12.9,33.3
		c0,3.3-0.3,6.4-0.8,9.4C489.9,681.8,492.3,682.8,494.6,683.9L494.6,683.9z M484.1,679.3c0.4-2.6,0.6-5.2,0.6-8
		c0-16.9-7.2-30.9-16.5-33l-1.5,2.8c3.3,1.5,6.3,4.4,8.7,8.2c3.5,5.7,5.7,13.4,5.7,22c0,2.2-0.1,4.4-0.4,6.5
		C481.7,678.3,482.9,678.8,484.1,679.3L484.1,679.3z M499.1,679.7c2.1-2.2,3.4-5.5,3.4-9.2c0-3.8-1.4-7.2-3.7-9.5
		c0.6,3.4,0.9,6.9,0.9,10.2C499.7,674.1,499.5,676.9,499.1,679.7L499.1,679.7z M473.4,675c1.8,0.7,3.6,1.4,5.4,2.1
		c0.2-1.9,0.3-3.8,0.3-5.8c0-8.2-2.1-15.7-5.4-21.1c-2.2-3.6-5-6.2-8-7.5c-2.1,3.8-4.2,7.6-6.3,11.4h3.3
		C475,654.1,478.1,667.6,473.4,675L473.4,675z M502.2,580.6c2.3-2,3.7-5.3,3.7-9.1s-1.5-7-3.7-9.1c0.5,3,0.7,6.1,0.7,9.1
		C502.9,574.5,502.6,577.5,502.2,580.6L502.2,580.6z M477.3,535.6c1.1,0,2,0.1,2.9,0.1c0.8,0,1.7,0.1,2.5,0.2
		c0.4,0.1,0.8,0.1,1.2,0.2c-0.6-0.3-1.1-0.7-1.7-1.1c-2.9-2.1-5.8-5-8.3-7.5l-0.5-0.5C474.8,529.8,476.1,532.7,477.3,535.6
		L477.3,535.6z M595.5,317c-2.5,0.4-4.7,1.7-5.8,4.1c0,0.1-0.1,0.1-0.1,0.2c2.5-0.7,5.5-0.2,8.3,1.6c4.9,3.1,7.1,9,5.1,13.1
		c-0.4,0.7-0.8,1.3-1.4,1.9c0.7,0,1.4,0,2-0.1c2.5-0.4,4.7-1.7,5.8-4.1c1.1-2.3,1.1-5.1,0-7.7c-1-2.7-3-5.2-5.8-6.9
		C601,317.3,598.1,316.6,595.5,317L595.5,317z M604.8,316.9c-3.4-2.2-7.1-3-10.3-2.5c-3.2,0.5-5.9,2.2-7.3,5.1
		c-1.4,2.9-1.3,6.4,0,9.7c1.3,3.3,3.8,6.5,7.2,8.7c3.4,2.2,7.1,3,10.3,2.5c3.2-0.5,5.9-2.2,7.3-5.1c1.4-2.9,1.3-6.4,0-9.7
		C610.7,322.2,608.2,319.1,604.8,316.9L604.8,316.9z M501.6,472.8c-0.1-0.2-0.2-0.3-0.4-0.5c-0.6-0.6-1.4-1-2.4-1
		c-0.9,0-1.7,0.4-2.4,1c-0.6,0.6-1,1.4-1,2.4c0,0.1,0,0.1,0,0.2C496.8,474.3,499.1,473.4,501.6,472.8L501.6,472.8z M495.7,475.7
		c0.2,0.5,0.4,0.9,0.8,1.3c0.6,0.6,1.4,1,2.4,1c0.9,0,1.8-0.4,2.4-1c0.6-0.6,1-1.4,1-2.4c0-0.4-0.1-0.7-0.2-1
		C499.4,474.3,496.9,475.2,495.7,475.7L495.7,475.7z M498.8,469.5c-1.4,0-2.7,0.6-3.6,1.5c-0.9,0.9-1.5,2.2-1.5,3.6s0.6,2.7,1.5,3.6
		c0.9,0.9,2.2,1.5,3.6,1.5c1.4,0,2.7-0.6,3.6-1.5c0.9-0.9,1.5-2.2,1.5-3.6c0-1.4-0.6-2.7-1.5-3.6
		C501.5,470.1,500.2,469.5,498.8,469.5L498.8,469.5z M447.7,420c-0.1-0.2-0.2-0.3-0.4-0.5c-0.6-0.6-1.4-1-2.4-1
		c-0.9,0-1.7,0.4-2.4,1c-0.6,0.6-1,1.4-1,2.4c0,0.1,0,0.1,0,0.2C442.9,421.6,445.2,420.7,447.7,420L447.7,420z M441.8,423
		c0.2,0.5,0.4,0.9,0.8,1.3c0.6,0.6,1.4,1,2.4,1c0.9,0,1.7-0.4,2.4-1c0.6-0.6,1-1.4,1-2.4c0-0.4-0.1-0.7-0.2-1
		C445.5,421.5,443.1,422.5,441.8,423L441.8,423z M444.9,416.8c-1.4,0-2.7,0.6-3.6,1.5c-0.9,0.9-1.5,2.2-1.5,3.6
		c0,1.4,0.6,2.7,1.5,3.6c0.9,0.9,2.2,1.5,3.6,1.5c1.4,0,2.7-0.6,3.6-1.5c0.9-0.9,1.5-2.2,1.5-3.6c0-1.4-0.6-2.7-1.5-3.6
		C447.6,417.3,446.4,416.8,444.9,416.8L444.9,416.8z M534.3,351.1c-0.1-0.2-0.2-0.3-0.4-0.5c-0.6-0.6-1.4-1-2.4-1
		c-0.9,0-1.7,0.4-2.4,1c-0.6,0.6-1,1.4-1,2.4c0,0.1,0,0.1,0,0.2C529.5,352.7,531.8,351.8,534.3,351.1L534.3,351.1z M528.4,354.1
		c0.2,0.5,0.4,0.9,0.8,1.3c0.6,0.6,1.4,1,2.4,1c0.9,0,1.7-0.4,2.4-1c0.6-0.6,1-1.4,1-2.4c0-0.4-0.1-0.7-0.2-1
		C532.1,352.6,529.7,353.6,528.4,354.1L528.4,354.1z M531.5,347.9c-1.4,0-2.7,0.6-3.6,1.5c-0.9,0.9-1.5,2.2-1.5,3.6s0.6,2.7,1.5,3.6
		c0.9,0.9,2.2,1.5,3.6,1.5c1.4,0,2.7-0.6,3.6-1.5c0.9-0.9,1.5-2.2,1.5-3.6c0-1.4-0.6-2.7-1.5-3.6
		C534.2,348.5,532.9,347.9,531.5,347.9L531.5,347.9z M578.8,388.2c-0.2-0.4-0.4-0.7-0.7-0.9c-0.6-0.6-1.4-1-2.4-1
		c-0.9,0-1.7,0.4-2.4,1c-0.6,0.6-1,1.4-1,2.4c0,0.3,0,0.5,0.1,0.8C573.7,389.9,576.1,388.9,578.8,388.2L578.8,388.2z M572.9,391.2
		c0.2,0.3,0.3,0.5,0.6,0.7c0.6,0.6,1.4,1,2.4,1c0.9,0,1.8-0.4,2.4-1c0.6-0.6,1-1.4,1-2.4c0-0.2,0-0.4,0-0.5
		C576.4,389.8,574,390.7,572.9,391.2L572.9,391.2z M575.8,384.4c-1.4,0-2.7,0.6-3.6,1.5c-0.9,0.9-1.5,2.2-1.5,3.6
		c0,1.4,0.6,2.7,1.5,3.6c0.9,0.9,2.2,1.5,3.6,1.5c1.4,0,2.7-0.6,3.6-1.5c0.9-0.9,1.5-2.2,1.5-3.6c0-1.4-0.6-2.7-1.5-3.6
		C578.5,385,577.2,384.4,575.8,384.4L575.8,384.4z M508.3,512.5c-1.5,0.7-3,1.2-4.6,1.7c0.7,4.2-1.4,8.9-5.6,10.9
		c1.3-2.6,3.3-7,2.3-10.2c-2.4,0.3-4.9,0.2-7.4-0.4c-5.7-1.3-10.5-5.1-15.1-8.6l-0.1,0l-0.1,0l-0.1,0l0,0l0,0l0,0l-0.1,0l-0.1,0l0,0
		l0,0l-0.1,0l-0.1,0l-0.1,0l0,0l-0.1,0l-0.1,0l-0.1,0l0,0l0,0l-0.1,0l-0.1,0l-0.1,0l0,0l0,0l-0.1,0l-0.1,0l0,0l0,0l-0.1,0l-0.1,0
		l-0.1,0l0,0l0,0l-0.1,0l-0.1,0l-0.1,0l0,0l0,0l-0.1,0l-0.1,0l0,0l0,0l-0.1,0l-0.1-0.1l0,0l0,0l-0.1-0.1l-0.1,0l0,0l-0.1-0.1l0,0
		l0,0l-0.1,0l-0.1,0l-0.1,0l0,0l0,0l-0.1,0l-0.1,0l-0.1,0l0,0l0,0l-0.1,0l-0.1,0l0,0l0,0l-0.1,0l-0.1,0l-0.1,0l0,0l0,0l0,0l-0.1,0
		l-0.1,0l0,0l0,0l-0.1,0c-4,4-4.9,8.9-4.4,11.4c0.5,2.5,11.2,13.1,15.1,16c3.9,2.9,8.3,1.8,12.6,0.5c2-0.6,6.8-3.6,12.2-7.2
		C510.3,521.1,510.3,516.3,508.3,512.5L508.3,512.5z M512.8,518.8c1.9-1.1,4.5-2.9,6.1-3.8c-0.2-2.1-0.9-4.7-2.6-7.1
		c-1.8,1.2-3.6,2.4-5.5,3.4C512,513.7,512.5,516.4,512.8,518.8L512.8,518.8z M521.7,515.8c2.5-1.8,4.6-3.4,6.2-4.5
		c3.8-2.9,4.6-6.9,1-12.1c-0.3-0.4-0.5-0.7-0.8-1.1l0,0l0,0l0,0l0,0l0,0l0,0l0,0l0,0l0,0l0,0l0,0l0,0l0,0l0,0l0,0l0,0l0,0l0,0l0,0
		l0,0l0,0l0,0l0,0l0,0l0,0l0,0l0,0l0,0l-0.1,0.1l0,0l0,0l0,0l-0.1,0.1l0,0l-0.1,0.1l0,0l0,0l0,0l0,0l0,0l0,0l0,0l0,0l0,0l0,0l0,0
		l0,0l0,0l0,0l0,0l0,0l0,0l0,0l0,0l-0.1,0.1l0,0l0,0l0,0l0,0l0,0l0,0l0,0l0,0l0,0l0,0l0,0l0,0l0,0l0,0l0,0l0,0l0,0l0,0l0,0l0,0l0,0
		c-2.2,1.9-4.5,3.9-6.8,5.7C521,509.7,521.6,513.3,521.7,515.8L521.7,515.8z M583.5,354c-0.6-0.8-1.3-1.6-2-2.4
		c-10-10.5-25.4-12.4-34.1-7.4c9.7,5,19.4,12.6,26.2,18.8c2.9,2.7,5.7,5.5,8.4,8.5C584.1,368.2,586.5,362.2,583.5,354L583.5,354z
		 M583.1,372.9c2.2,2.6,4.4,5.3,6.3,8.1c1.9-6.5,1.1-14.9-2.8-22.3C587.4,365.2,585.1,370.1,583.1,372.9L583.1,372.9z M499,489.4
		c-7.6-0.2-16.6-5.9-25.7-14c-14-12.5-28-30.7-36.4-43.1c-1.3-2-2.8-4.5-3.4-7.4c-0.2-0.8-0.3-1.7-0.3-2.6c-0.3,0.3-0.6,0.7-0.9,1
		c-5,5.7-3.5,13.8-1.1,21.2c2,6,39.5,49,50,57c5.7,4.4,10.2,7.7,15.7,8C497.5,507.9,500.5,496.1,499,489.4L499,489.4z M498.9,509.5
		c4.1-0.3,8.8-2.3,15-6.6c15.9-11,76.1-73.2,78.8-95.9c0.5-4.1-0.5-8.7-2.5-13.4c-0.3,2-1,5.2-2.9,9.4c-2,4.4-5.4,10-11,16.8
		c-3.1,3.7-5.5,6.7-8,9.7c-24.7,30.1-47.1,57.4-67.2,59.8c-0.1,0-0.2,0-0.3,0C502.1,496,499.6,506.7,498.9,509.5L498.9,509.5z
		 M588.7,390.4c-10.6-20.2-38.9-41.9-54.5-45.5c-17,0-77.4,52.3-98.9,75.2c-0.3,1.5-0.2,3,0,4.4c0.5,2.6,1.9,5,3.1,6.8
		c8.3,12.3,22.3,30.4,36.1,42.7c9.6,8.6,19,14.3,26.4,13.5c19.4-2.3,41.6-29.4,66-59.1c2.8-3.4,5.7-6.9,8-9.7
		c5.5-6.7,8.8-12.1,10.8-16.4c1.9-4.2,2.6-7.3,2.8-9.2C588.6,392.1,588.6,391.2,588.7,390.4L588.7,390.4z M427.5,449
		c-0.6-1-1.1-2-1.3-2.8c-0.3-0.9-0.6-1.9-0.9-2.8c-3.4,3.6-7.2,6.9-11.2,9.9c2.4,2.1,4.8,4.3,7.3,6.6
		C422.2,455.8,424.6,451.8,427.5,449L427.5,449L427.5,449z M431.2,454.3l-0.1-0.1l0-0.1l0,0l-0.1-0.1l-0.1-0.1l0,0l-0.1-0.1
		l-0.2-0.2c-3.6,3.9-4.4,8.6-4,10.9c0.5,2.5,11.2,13.1,15.1,16c0.5,0.4,1,0.7,1.6,1c1.1-2.7,2.7-5.1,4.6-7l-0.4-0.5l-0.1-0.1
		l-0.1-0.1l-0.2-0.2l0-0.1l-0.2-0.2l0,0l-0.2-0.2l-0.1-0.1l-0.1-0.2l-0.1-0.1l-0.1-0.1l-0.2-0.2l0,0l-0.5-0.6l-0.1-0.1l-0.1-0.2
		l-0.1-0.1l-0.2-0.2l0,0l-0.2-0.2l-0.1-0.1l-0.1-0.2l-0.1-0.1l-0.1-0.1l-0.2-0.2l0,0l-0.2-0.2l0,0l-0.2-0.2l-0.1-0.1l-0.3-0.3
		l-0.1-0.1l-0.2-0.2l0,0l-0.2-0.2l-0.1-0.1l-0.1-0.2l-0.1-0.1l-0.3-0.3l0,0l-0.2-0.2l0,0l-0.2-0.2l-0.1-0.1l-0.1-0.1l-0.1-0.2
		l-0.1-0.1l-0.2-0.2l0,0l-0.2-0.2l0-0.1l-0.2-0.2l-0.1-0.1l-0.1-0.1l-0.2-0.2l0,0l-0.2-0.2l0,0l-0.2-0.2l-0.1-0.1l-0.1-0.2l-0.1-0.2
		l-0.1-0.1l-0.2-0.2l0,0l-0.2-0.2l0-0.1l-0.2-0.2l-0.1-0.1l-0.1-0.1l-0.2-0.2l0-0.1l-0.2-0.2l0,0l-0.2-0.2l-0.1-0.1l-0.1-0.2
		l-0.1-0.1l-0.1-0.1l-0.2-0.2l0,0l-0.2-0.2l0,0l-0.3-0.3l-0.1-0.1l-0.1-0.2l0-0.1l-0.2-0.2l0,0l-0.2-0.2l-0.1-0.1l-0.1-0.2l-0.1-0.1
		l-0.1-0.1l-0.2-0.2l0,0l-0.2-0.2l0,0l-0.2-0.2l-0.1-0.1l-0.1-0.1l-0.1-0.2l-0.1-0.1l-0.2-0.2l-0.1-0.1l-0.1-0.1l0,0l0-0.1l-0.1-0.1
		l0,0l0,0l-0.1-0.1l0,0l0,0l-0.1-0.1l0-0.1l0,0l-0.1-0.1l-0.1-0.1l0,0l-0.1-0.1l-0.1-0.1l0,0l-0.1-0.1l-0.1-0.1l0,0l-0.1-0.1
		l-0.1-0.1l0,0l0-0.1L434,458l0,0l0,0l-0.1-0.1l0-0.1l0,0l-0.1-0.1l-0.1-0.1l0,0l-0.1-0.1l-0.1-0.1l0,0l-0.1-0.1l-0.1-0.2l-0.1-0.1
		l0,0l0-0.1l-0.1-0.2l-0.1-0.1l-0.1-0.1l-0.1-0.1c-0.2-0.3-0.4-0.5-0.6-0.8l-0.1-0.1l0-0.1l0,0l-0.1-0.1l-0.1-0.1l0,0l-0.1-0.1
		l-0.1-0.1l0,0l-0.1-0.1C431.5,454.8,431.3,454.5,431.2,454.3L431.2,454.3z M591.9,357.3c10.3,0.4,19.9-6.2,22.9-16.5
		c3.5-12.1-3.6-24.8-15.7-28.2c-12.1-3.5-24.8,3.6-28.2,15.7c-1,3.4-1.1,6.8-0.6,10c5.7,2,10.9,5.3,15.1,9.7
		C588,350.7,590.2,353.8,591.9,357.3L591.9,357.3z M470.8,499.4l-0.1-0.1l0,0l-0.1-0.1l-0.3-0.3l0,0l-0.1-0.1l-0.1-0.1l-0.1-0.1l0,0
		l-0.1-0.1l-0.1-0.1l0,0l0,0l-0.1-0.1l-0.1-0.1l0,0l-0.1-0.1l-0.1-0.1l0,0l0,0l-0.1-0.1l-0.4-0.4l0,0l0,0l-0.1-0.1l-0.1-0.1l0,0
		l-0.1-0.1l-0.1-0.1l0,0l0,0l-0.1-0.1l-0.1-0.1l0,0l-0.1-0.1l-0.1-0.1l0,0l0,0l-0.1-0.1l-0.1-0.1l0,0l-0.1-0.1l-0.1-0.1l-0.1-0.1
		l0,0l-0.1-0.1l-0.1-0.1l0,0l0,0l-0.1-0.1l-0.1-0.1l0,0l-0.1-0.1l-0.1-0.1l0,0l0,0l-0.1-0.1l-0.1-0.1l0,0l-0.1-0.1l-0.1-0.1l0,0l0,0
		l-0.1-0.1l-0.1-0.1l0,0l0,0l-0.1-0.1l-0.1-0.1l0,0l-0.1-0.1l-0.1-0.1l0,0l0,0l-0.1-0.1l-0.1-0.1c-5.1-5.3-10.1-10.8-15-16.3
		l-0.1-0.1c-3.6,3.9-4.4,8.5-3.9,10.9c0.5,2.5,11.2,13.1,15.1,16c1.1,0.8,2.1,1.3,3.2,1.6C466.9,504.2,468.7,501.5,470.8,499.4
		L470.8,499.4z M131.7,597.2c1.2-0.6,2.8-0.9,4.6-1.1c-1.7-3.3-3-7.2-3.8-11.5c-0.9-4.7-1.2-9.7-0.9-14.8c0.3-5.1,1.1-10.1,2.5-14.6
		c1.8-5.8,4.6-10.8,8.3-14.1c-0.6,0-1.2,0-1.5,0c-9.5,0-17.3,13.6-17.3,30.4C123.7,582.3,126.9,591.8,131.7,597.2L131.7,597.2z
		 M145.6,540.9c-4.5,2.8-7.7,8.3-9.7,14.7c-1.4,4.4-2.2,9.3-2.4,14.2c-0.3,4.9,0,9.8,0.9,14.4c0.8,4.5,2.2,8.6,4,11.8
		c2.7-0.1,5.4,0.2,7.5,0.8c0.2,0.1,0.5,0.1,0.7,0.2c-4.1-6.5-6.7-15.5-6.7-25.4c0-13,4.4-24.5,11-30.7
		C149.1,540.8,147.2,540.8,145.6,540.9L145.6,540.9z M53.6,775.6c0.5-1,1.4-2.7,2-4.1c4-8.3,12.5-26.3,24.7-41.7
		c5.4-6.8,13.1-14.2,19.5-18.7c2.5-1.8,4.8-3.1,6.7-3.8c2.1-0.7,3.7-0.7,4.7,0.3c0.2,0.2,0.4,0.6,0.5,0.9c0.7,1.8,2.3,2.4,4.3,2.3
		c1.1-0.1,2.3-0.4,3.5-0.9c1.2-0.5,2.4-1.2,3.5-2c3.3-2.4,5.7-5.8,4.6-8.9h0c-0.4-1.3-1.7-1.5-2.6-1.8c-0.6-0.1-1.1-0.3-1.5-0.6
		c-0.6-0.7-0.1-1.6,2.3-3.7c2.7-2.3,6.9-5.2,9.6-7.1l0.9-0.6c-31.5,13.6-75.1,39.9-93.6,90.1l0,0.1L53.6,775.6L53.6,775.6z
		 M142.9,682.7l-1,0.7c-1.6,1-3.3,2.1-3.4,2.2c-0.5,0.4-1.3,0.9-2.2,1.6c-2.7,1.9-6.9,4.8-9.5,7c-1.7,1.4-2.2,1.9-2.2,1.9
		c0,0,0.4,0.1,0.8,0.2c1.2,0.3,2.9,0.7,3.6,2.6l0,0c1.3,3.7-1.4,7.7-5.1,10.3c-1.2,0.9-2.5,1.6-3.8,2.1c-1.3,0.5-2.6,0.9-3.9,1
		c-2.6,0.2-4.7-0.7-5.6-3.1c-0.1-0.2-0.2-0.4-0.3-0.5c-0.5-0.6-1.7-0.5-3.3,0c-1.8,0.6-4,1.9-6.4,3.6c-6.3,4.4-13.9,11.7-19.2,18.4
		c-12.1,15.3-20.7,33.2-24.6,41.4c-0.7,1.5-1.3,2.7-1.7,3.5l89.2,0c10.4,0,17.3-1,22.3-2.7c4.8-1.7,7.8-4.1,10.4-7.1
		c12.4-14.1,33.2-42.5,35.3-45.4c0.2-5.6-1.9-11.7-5.2-17.5c-1.8,0.5-3.7,0.6-5.6,0.5c-1.7-0.1-3.6-0.4-5.3-0.4
		c-7,0-12.2-5.4-15.2-11.2c-2-3.8-3.3-8-4.1-12.3h-21.1c-1.1,0-2.2-0.2-3.2-0.6c0,0,0,0-0.1,0C149.6,680.1,146.4,681.3,142.9,682.7
		L142.9,682.7z M178.9,581.1c-1.2,1-2.6,1.8-4.1,2.4l-0.1,0c-2.1,5-5.5,8.2-9.3,8.2c-6.4,0-11.6-9.1-11.6-20.3
		c0-11.2,5.2-20.3,11.6-20.3c3.8,0,7.2,3.3,9.3,8.3c1.5,0.5,2.9,1.3,4.2,2.3c-2.3-12-8.8-20.7-16.4-20.7c-9.5,0-17.3,13.7-17.3,30.4
		c0,16.8,7.8,30.4,17.3,30.4C170.2,601.9,176.6,593.2,178.9,581.1L178.9,581.1z M171.5,584.4c-0.6,0.1-1.2,0.1-1.8,0.1
		c-3.1,0-6-1-8-3.1c-1.5-1.5-2.4-5.6-2.4-9.7c0-3.5,0.7-7.2,2.3-9.6c1.2-1.7,3.2-2.8,5.5-3.3c1.4-0.3,2.9-0.3,4.4-0.2
		c-1.6-3-3.7-4.8-6.1-4.8c-4.9,0-8.9,7.9-8.9,17.6c0,9.7,4,17.6,8.9,17.6C167.8,589.1,169.9,587.3,171.5,584.4L171.5,584.4z
		 M180.5,571.5c0-2.8-0.9-5-2.2-6.5c-1.3-1.5-3.1-2.6-5-3.1c-1.9-0.6-3.9-0.6-5.7-0.3c-1.7,0.3-3.1,1.1-3.8,2.1
		c-1.3,1.8-1.8,4.9-1.8,8c0,3.5,0.6,6.8,1.6,7.8c1.4,1.5,3.6,2.2,6,2.2c1.4,0,2.9-0.3,4.3-0.8c1.4-0.5,2.6-1.3,3.7-2.3
		C179.4,577,180.5,574.6,180.5,571.5L180.5,571.5z M212.1,688.1c-6.1,0-11-8.7-11-19.3c0-10.6,4.9-19.3,11-19.3
		c3.6,0,6.8,3.1,8.9,7.9c1.4,0.5,2.8,1.2,4,2.2c-2.2-11.4-8.3-19.7-15.6-19.7c-9,0-16.4,13-16.4,28.9c0,15.9,7.4,28.9,16.4,28.9
		c7.2,0,13.4-8.3,15.6-19.8c-1.2,1-2.5,1.7-3.9,2.3l-0.1,0C218.9,685,215.7,688.1,212.1,688.1L212.1,688.1z M217.8,681
		c-0.6,0.1-1.2,0.1-1.7,0.1c-2.9,0-5.7-1-7.6-2.9c-1.4-1.4-2.3-5.3-2.3-9.2c0-3.4,0.6-6.9,2.2-9.1c1.1-1.6,3-2.6,5.2-3.1
		c1.3-0.3,2.8-0.3,4.2-0.2c-1.5-2.8-3.5-4.6-5.8-4.6c-4.6,0-8.4,7.5-8.4,16.7s3.8,16.7,8.4,16.7C214.3,685.5,216.3,683.8,217.8,681
		L217.8,681z M226.4,668.8c0-2.7-0.8-4.7-2.1-6.2c-1.3-1.5-3-2.4-4.8-3c-1.8-0.5-3.8-0.6-5.4-0.3c-1.6,0.3-2.9,1-3.6,2
		c-1.2,1.7-1.7,4.7-1.7,7.6c0,3.3,0.6,6.5,1.6,7.4c1.3,1.4,3.5,2.1,5.7,2.1c1.4,0,2.7-0.2,4-0.7c1.3-0.5,2.5-1.2,3.5-2.2
		C225.3,674,226.4,671.7,226.4,668.8L226.4,668.8z M197.4,640.3c-0.5,0-0.9,0.1-1.2,0.1c-8.3,0-15,12.9-15,28.8s6.7,28.8,15,28.8
		c0.6,0,1.3,0.1,2.1,0.1c-6.3-6-10.6-16.9-10.6-29.3C187.7,656.9,191.6,646.5,197.4,640.3L197.4,640.3z M176.2,674.2
		c-0.1-1.7-0.2-3.4-0.2-5c0-3.1,0.2-6.4,0.8-9.6h-18.4c-10.1,0-8.4,14.6-2.6,14.6H176.2L176.2,674.2z M168.3,790.1
		c-1.4-4.9-1.2-12.3-1.1-13.6c0.4,1.7,1.9,8.4,3.5,12.6c5.5-2.8,9.6-7.6,14.8-14.1c6.6-8.1,17-20.6,18.8-23.1
		c7.2-10.3,6.3-16.5,7.4-26c-6.6,8.9-22.5,30.1-32.7,41.7c-2.9,3.3-6.2,6-11.6,7.8c-5.3,1.8-12.5,2.8-23.2,2.8l-102.1,0
		c-0.7,4.5,1.5,7.5,3.3,9.6c3.3,4,8.4,5,16.5,4.9c44.5-0.6,75.3-1.8,96.1-1.3C162.1,791.7,165.4,791.2,168.3,790.1L168.3,790.1z
		 M184,704.3c0.4-0.7,0.2-1.5-0.5-1.9c-0.7-0.4-1.5-0.2-1.9,0.5c-10.8,19.8-18.9,39.6-16.5,62.7C166.1,740.4,171.7,725.7,184,704.3
		L184,704.3z M126.5,683.9c2.3-1.1,4.7-2.2,7.1-3.2c-0.5-3-0.8-6.2-0.8-9.4c0-14.7,5.3-27.4,12.9-33.3c-0.7,0-1.3,0.1-1.7,0.1
		c-10.4,0-18.9,14.9-18.9,33.2C125.1,675.8,125.6,680,126.5,683.9L126.5,683.9z M137,679.3c1.2-0.5,2.4-1,3.6-1.5
		c-0.3-2.1-0.4-4.3-0.4-6.5c0-8.6,2.2-16.4,5.7-22c2.4-3.8,5.3-6.7,8.7-8.2l-1.5-2.8c-9.3,2-16.5,16.1-16.5,33
		C136.4,674,136.6,676.7,137,679.3L137,679.3z M122,679.7c-0.4-2.8-0.6-5.7-0.6-8.5c0-3.4,0.3-6.8,0.9-10.2
		c-2.2,2.2-3.7,5.7-3.7,9.5C118.6,674.2,119.9,677.5,122,679.7L122,679.7z M147.7,675c-4.8-7.4-1.6-20.9,10.6-20.9h3.3
		c-2.1-3.7-4.2-7.5-6.3-11.4c-3.1,1.3-5.8,4-8,7.5c-3.3,5.4-5.4,12.8-5.4,21.1c0,2,0.1,3.9,0.3,5.8
		C144.1,676.4,145.9,675.7,147.7,675L147.7,675z M118.9,580.6c-0.5-3-0.7-6.1-0.7-9.1c0-3,0.2-6,0.7-9.1c-2.3,2-3.7,5.3-3.7,9.1
		S116.7,578.5,118.9,580.6L118.9,580.6z M143.8,535.6c1.2-2.8,2.5-5.7,3.9-8.6l-0.5,0.5c-2.5,2.5-5.4,5.4-8.3,7.5
		c-0.6,0.4-1.1,0.8-1.7,1.1c0.4-0.1,0.8-0.2,1.2-0.2c0.8-0.1,1.7-0.2,2.5-0.2C141.8,535.6,142.8,535.6,143.8,535.6L143.8,535.6z
		 M25.6,317c-2.5-0.4-5.5,0.3-8.2,2c-2.7,1.7-4.7,4.3-5.8,6.9c-1,2.6-1.1,5.4,0,7.7c1.1,2.3,3.3,3.7,5.8,4.1c0.6,0.1,1.3,0.1,2,0.1
		c-0.6-0.5-1-1.1-1.4-1.9c-2-4.1,0.3-10,5.1-13.1c2.8-1.8,5.8-2.3,8.3-1.6c0-0.1-0.1-0.1-0.1-0.2C30.2,318.8,28.1,317.4,25.6,317
		L25.6,317z M16.3,316.9c-3.4,2.2-5.9,5.3-7.2,8.7c-1.3,3.3-1.4,6.8,0,9.7c1.4,2.9,4.1,4.6,7.3,5.1c3.2,0.5,6.8-0.3,10.3-2.5
		c3.4-2.2,5.9-5.3,7.2-8.7c1.3-3.3,1.4-6.8,0-9.7c-1.4-2.9-4.1-4.6-7.3-5.1C23.4,313.9,19.8,314.7,16.3,316.9L16.3,316.9z
		 M119.5,472.8c2.4,0.6,4.8,1.5,6.1,2.1c0-0.1,0-0.1,0-0.2c0-0.9-0.4-1.7-1-2.4c-0.6-0.6-1.4-1-2.4-1c-0.9,0-1.8,0.4-2.4,1
		C119.8,472.4,119.7,472.6,119.5,472.8L119.5,472.8z M125.4,475.7c-1.3-0.5-3.7-1.5-6.3-2.1c-0.1,0.3-0.2,0.7-0.2,1
		c0,0.9,0.4,1.7,1,2.4c0.6,0.6,1.4,1,2.4,1c0.9,0,1.8-0.4,2.4-1C125,476.6,125.3,476.2,125.4,475.7L125.4,475.7z M122.3,469.5
		c-1.4,0-2.7,0.6-3.6,1.5c-0.9,0.9-1.5,2.2-1.5,3.6c0,1.4,0.6,2.7,1.5,3.6c0.9,0.9,2.2,1.5,3.6,1.5c1.4,0,2.7-0.6,3.6-1.5
		c0.9-0.9,1.5-2.2,1.5-3.6s-0.6-2.7-1.5-3.6C125,470.1,123.7,469.5,122.3,469.5L122.3,469.5z M173.4,420c2.4,0.6,4.8,1.5,6.1,2.1
		c0-0.1,0-0.1,0-0.2c0-0.9-0.4-1.7-1-2.4c-0.6-0.6-1.4-1-2.4-1c-0.9,0-1.8,0.4-2.4,1C173.7,419.7,173.5,419.9,173.4,420L173.4,420z
		 M179.3,423c-1.3-0.5-3.7-1.5-6.3-2.1c-0.1,0.3-0.2,0.7-0.2,1c0,0.9,0.4,1.7,1,2.4c0.6,0.6,1.4,1,2.4,1c0.9,0,1.7-0.4,2.4-1
		C178.9,423.9,179.2,423.5,179.3,423L179.3,423z M176.2,416.8c-1.4,0-2.7,0.6-3.6,1.5c-0.9,0.9-1.5,2.2-1.5,3.6
		c0,1.4,0.6,2.7,1.5,3.6c0.9,0.9,2.2,1.5,3.6,1.5c1.4,0,2.7-0.6,3.6-1.5c0.9-0.9,1.5-2.2,1.5-3.6c0-1.4-0.6-2.7-1.5-3.6
		C178.9,417.3,177.6,416.8,176.2,416.8L176.2,416.8z M86.8,351.1c2.4,0.6,4.8,1.5,6.1,2.1c0-0.1,0-0.1,0-0.2c0-0.9-0.4-1.7-1-2.4
		c-0.6-0.6-1.4-1-2.4-1c-0.9,0-1.7,0.4-2.4,1C87.1,350.8,86.9,351,86.8,351.1L86.8,351.1z M92.7,354.1c-1.3-0.5-3.7-1.5-6.3-2.1
		c-0.1,0.3-0.2,0.7-0.2,1c0,0.9,0.4,1.8,1,2.4c0.6,0.6,1.4,1,2.4,1c0.9,0,1.7-0.4,2.4-1C92.3,355,92.6,354.6,92.7,354.1L92.7,354.1z
		 M89.6,347.9c-1.4,0-2.7,0.6-3.6,1.5c-0.9,0.9-1.5,2.2-1.5,3.6c0,1.4,0.6,2.7,1.5,3.6c0.9,0.9,2.2,1.5,3.6,1.5
		c1.4,0,2.7-0.6,3.6-1.5c0.9-0.9,1.5-2.2,1.5-3.6s-0.6-2.7-1.5-3.6C92.3,348.5,91,347.9,89.6,347.9L89.6,347.9z M42.3,388.2
		c2.7,0.7,5.1,1.7,6.2,2.2c0.1-0.2,0.1-0.5,0.1-0.8c0-0.9-0.4-1.7-1-2.4c-0.6-0.6-1.4-1-2.4-1c-0.9,0-1.7,0.4-2.4,1
		C42.7,387.5,42.5,387.8,42.3,388.2L42.3,388.2z M48.2,391.2c-1.1-0.5-3.5-1.4-6.2-2.2c0,0.2,0,0.4,0,0.5c0,0.9,0.4,1.7,1,2.4
		c0.6,0.6,1.4,1,2.4,1c0.9,0,1.7-0.4,2.4-1C47.9,391.7,48.1,391.5,48.2,391.2L48.2,391.2z M45.3,384.4c-1.4,0-2.7,0.6-3.6,1.5
		c-0.9,0.9-1.5,2.2-1.5,3.6c0,1.4,0.6,2.7,1.5,3.6c0.9,0.9,2.2,1.5,3.6,1.5c1.4,0,2.7-0.6,3.6-1.5c0.9-0.9,1.5-2.2,1.5-3.6
		c0-1.4-0.6-2.7-1.5-3.6C48,385,46.7,384.4,45.3,384.4L45.3,384.4z M112.8,512.5c-2,3.8-2.1,8.7-1.9,11.4c5.4,3.6,10.3,6.7,12.2,7.2
		c4.3,1.3,8.7,2.4,12.6-0.5c3.9-2.9,14.6-13.5,15.1-16c0.5-2.5-0.4-7.5-4.4-11.4l-0.1,0l0,0l0,0l-0.1,0l-0.1,0l-0.1,0l0,0l0,0
		l-0.1,0l-0.1,0l0,0l0,0l0,0l-0.1,0l-0.1,0l0,0l0,0l-0.1,0l-0.1,0l-0.1,0l0,0l0,0l-0.1,0l-0.1,0l-0.1,0l0,0l0,0l-0.1,0.1l0,0l-0.1,0
		l-0.1,0.1l0,0l0,0l-0.1,0.1l-0.1,0l0,0l0,0l-0.1,0l-0.1,0l0,0l0,0l-0.1,0l-0.1,0l-0.1,0l0,0l0,0l-0.1,0l-0.1,0l0,0l0,0l-0.1,0l0,0
		l-0.1,0l0,0l0,0l-0.1,0l-0.1,0l-0.1,0l0,0l0,0l-0.1,0l-0.1,0l-0.1,0l0,0l-0.1,0l-0.1,0l-0.1,0l0,0l0,0l-0.1,0l-0.1,0l-0.1,0l0,0
		l0,0l-0.1,0l-0.1,0l-0.1,0c-4.6,3.5-9.4,7.3-15.1,8.6c-2.5,0.6-5,0.7-7.4,0.4c-1,3.2,1,7.6,2.3,10.2c-4.2-2-6.3-6.6-5.6-10.9
		C115.8,513.7,114.3,513.2,112.8,512.5L112.8,512.5z M108.3,518.8c0.2-2.4,0.8-5.1,2.1-7.5c-1.9-1-3.8-2.2-5.5-3.4
		c-1.8,2.4-2.4,5-2.6,7.1C103.9,515.9,106.4,517.8,108.3,518.8L108.3,518.8z M99.4,515.8c0.1-2.6,0.7-6.2,3.2-9.5
		c-2.4-1.8-4.7-3.7-6.8-5.7l0,0l0,0l0,0l0,0l0,0l0,0l0,0l0,0l0,0l0,0l0,0l0,0l0,0l0,0l0,0l0,0l0,0l0,0l0,0l0,0l0,0l-0.1-0.1l0,0l0,0
		l0,0l0,0l0,0l0,0l0,0l0,0l0,0l0,0l0,0l0,0l0,0l0,0l0,0l0,0l0,0l0,0l0,0l-0.1-0.1l0,0l-0.1-0.1l0,0l0,0l0,0l-0.1-0.1l0,0l0,0l0,0
		l0,0l0,0l0,0l0,0l0,0l0,0l0,0l0,0l0,0l0,0l0,0l0,0l0,0l0,0l0,0l0,0l0,0l0,0l0,0l0,0l0,0l0,0l0,0l0,0l0,0c-0.3,0.4-0.5,0.7-0.8,1.1
		c-3.5,5.2-2.8,9.2,1,12.1C94.8,512.5,97,514.1,99.4,515.8L99.4,515.8z M37.6,354c-3,8.2-0.6,14.2,1.6,17.5c2.7-3,5.5-5.8,8.4-8.5
		c6.7-6.2,16.5-13.9,26.2-18.8c-8.7-5-24.1-3.1-34.1,7.4C38.9,352.4,38.3,353.2,37.6,354L37.6,354z M38,372.9
		c-2-2.8-4.3-7.7-3.4-14.2c-4,7.5-4.8,15.9-2.8,22.3C33.6,378.3,35.8,375.5,38,372.9L38,372.9z M122.1,489.4
		c-1.4,6.7,1.6,18.5,2,20.1c5.5-0.3,10-3.6,15.7-8c10.5-8,48-51,50-57c2.5-7.4,3.9-15.5-1.1-21.2c-0.3-0.3-0.6-0.7-0.9-1
		c0,0.9-0.1,1.8-0.3,2.6c-0.6,2.9-2,5.5-3.4,7.4c-8.4,12.4-22.5,30.6-36.4,43.1C138.7,483.5,129.6,489.2,122.1,489.4L122.1,489.4z
		 M122.2,509.5c-0.7-2.8-3.2-13.5-2-20.2c-0.1,0-0.2,0-0.3,0c-20.1-2.4-42.5-29.7-67.2-59.8c-2.4-3-4.9-6-8-9.7
		c-5.6-6.8-9-12.4-11-16.8c-2-4.3-2.7-7.4-2.9-9.4c-2,4.7-3,9.2-2.5,13.4c2.7,22.8,62.9,84.9,78.8,95.9
		C113.4,507.2,118.1,509.2,122.2,509.5L122.2,509.5z M32.4,390.4c0,0.8,0.1,1.7,0.2,2.7c0.2,1.9,0.9,4.9,2.8,9.2
		c2,4.3,5.3,9.7,10.8,16.4c2.3,2.8,5.2,6.3,8,9.7c24.4,29.8,46.6,56.8,66,59.1c7.3,0.9,16.8-4.9,26.4-13.5
		c13.8-12.4,27.8-30.4,36.1-42.7c1.2-1.8,2.5-4.1,3.1-6.8c0.3-1.4,0.3-2.9,0-4.4c-21.5-22.9-81.9-75.2-98.9-75.2
		C71.3,348.5,43,370.2,32.4,390.4L32.4,390.4z M193.6,449L193.6,449c2.9,2.8,5.3,6.8,6.1,10.9c2.4-2.3,4.9-4.5,7.3-6.6
		c-4-3-7.8-6.3-11.2-9.9c-0.3,1-0.6,1.9-0.9,2.8C194.7,447,194.2,448,193.6,449L193.6,449z M189.9,454.3c-0.2,0.2-0.3,0.4-0.5,0.6
		l-0.1,0.1l0,0l-0.1,0.1l-0.1,0.1l0,0l-0.1,0.1l-0.1,0.1l0,0l0,0.1l-0.1,0.1c-0.2,0.3-0.4,0.5-0.6,0.8l-0.1,0.1l-0.1,0.1l-0.1,0.1
		l-0.1,0.2l0,0.1l0,0l-0.1,0.1l-0.1,0.2l-0.1,0.1l0,0l-0.1,0.1l-0.1,0.1l0,0l-0.1,0.1l-0.1,0.1l0,0l0,0.1l-0.1,0.1l0,0l0,0L187,458
		l0,0.1l0,0l-0.1,0.1l-0.1,0.1l0,0l-0.1,0.1l-0.1,0.1l0,0l-0.1,0.1l-0.1,0.1l0,0l-0.1,0.1l-0.1,0.1l0,0l0,0.1l-0.1,0.1l0,0l0,0
		l-0.1,0.1l0,0l0,0l-0.1,0.1l0,0.1l0,0l-0.1,0.1l-0.1,0.1l-0.2,0.2l-0.1,0.1l-0.1,0.2l-0.1,0.1l-0.1,0.1l-0.2,0.2l0,0l-0.2,0.2l0,0
		l-0.2,0.2l-0.1,0.1l-0.1,0.1l-0.1,0.2l-0.1,0.1l-0.2,0.2l0,0l-0.2,0.2l0,0.1l-0.1,0.2l-0.1,0.1l-0.3,0.3l0,0l-0.2,0.2l0,0L183,463
		l-0.1,0.1l-0.1,0.1l-0.1,0.2l-0.1,0.1l-0.2,0.2l0,0l-0.2,0.2l0,0.1l-0.2,0.2l-0.1,0.1l-0.1,0.1l-0.2,0.2l0,0.1l-0.2,0.2l0,0
		l-0.2,0.2l-0.1,0.1l-0.1,0.2l-0.1,0.2l-0.1,0.1l-0.2,0.2l0,0l-0.2,0.2l0,0l-0.2,0.2l-0.1,0.1l-0.1,0.1l-0.2,0.2l0,0.1l-0.2,0.2l0,0
		l-0.2,0.2l-0.1,0.1l-0.1,0.2l-0.1,0.1l-0.1,0.1l-0.2,0.2l0,0l-0.2,0.2l0,0l-0.3,0.3l-0.1,0.1l-0.1,0.2l-0.1,0.1l-0.2,0.2l0,0
		l-0.2,0.2l-0.1,0.1l-0.3,0.3l-0.1,0.1l-0.2,0.2l0,0l-0.2,0.2l0,0l-0.2,0.2l-0.1,0.1l-0.1,0.1l-0.1,0.2l-0.1,0.1l-0.2,0.2l0,0
		l-0.2,0.2l-0.1,0.1l-0.1,0.2l-0.1,0.1l-0.5,0.6l0,0l-0.2,0.2l-0.1,0.1l-0.1,0.1l-0.1,0.2l-0.1,0.1l-0.2,0.2l0,0l-0.2,0.2l0,0.1
		l-0.2,0.2l-0.1,0.1l-0.1,0.1l-0.4,0.5c1.9,1.9,3.5,4.4,4.6,7c0.5-0.3,1.1-0.6,1.6-1c3.9-2.9,14.6-13.5,15.1-16
		c0.4-2.4-0.3-7.1-4-10.9l-0.2,0.2l-0.1,0.1l0,0l-0.1,0.1l-0.1,0.1l0,0l0,0.1L189.9,454.3L189.9,454.3z M29.2,357.3
		c1.7-3.4,3.9-6.6,6.5-9.4c4.2-4.4,9.4-7.7,15.1-9.7c0.5-3.2,0.4-6.6-0.6-10C46.8,316.1,34.1,309,22,312.5
		C9.9,316,2.9,328.6,6.3,340.7C9.3,351.1,18.9,357.7,29.2,357.3L29.2,357.3z M150.3,499.4c2.1,2.1,3.9,4.8,4.9,7.8
		c1.1-0.3,2.2-0.8,3.2-1.6c3.9-2.9,14.6-13.5,15.1-16c0.4-2.4-0.3-7.1-3.9-10.9l-0.1,0.1c-4.9,5.5-9.9,11-15,16.3l-0.1,0.1l-0.1,0.1
		l0,0l0,0l-0.1,0.1l-0.1,0.1l0,0l-0.1,0.1l-0.1,0.1l0,0l0,0l-0.1,0.1l-0.1,0.1l0,0l0,0l-0.1,0.1l-0.1,0.1l0,0l-0.1,0.1l-0.1,0.1l0,0
		l0,0l-0.1,0.1l-0.1,0.1l0,0l-0.1,0.1l-0.1,0.1l0,0l0,0l-0.1,0.1l-0.1,0.1l0,0l-0.1,0.1l-0.1,0.1l-0.1,0.1l0,0l-0.1,0.1l-0.1,0.1
		l0,0l0,0l-0.1,0.1l-0.1,0.1l0,0l-0.1,0.1l-0.1,0.1l0,0l0,0l-0.1,0.1l-0.1,0.1l0,0l-0.1,0.1l-0.1,0.1l0,0l0,0l-0.4,0.4l-0.1,0.1l0,0
		l0,0l-0.1,0.1l-0.1,0.1l0,0l-0.1,0.1l-0.1,0.1l0,0l0,0l-0.1,0.1l-0.1,0.1l0,0l-0.1,0.1l-0.1,0.1l-0.1,0.1l0,0l-0.3,0.3l-0.1,0.1
		l0,0L150.3,499.4z"/>
	<path class="st0" d="M156,194.4c-0.1-0.5,0.2-1,0.6-1.1c0.5-0.1,1,0.2,1.1,0.6c3.3,12.1,6,26.2,7.8,41.6
		c1.7,14.8,2.7,30.9,2.7,47.7c0,16.8-1,32.8-2.7,47.7c-1.8,15.4-4.5,29.4-7.8,41.6c-0.1,0.5-0.6,0.8-1.1,0.6
		c-0.5-0.1-0.8-0.6-0.6-1.1c3.3-12,5.9-26,7.7-41.3c1.7-14.7,2.7-30.7,2.7-47.5s-0.9-32.7-2.7-47.5C162,220.4,159.3,206.4,156,194.4
		z"/>
	<path class="st0" d="M170.8,172.4c-0.2-0.5,0.1-1,0.6-1.2c0.5-0.2,1,0.1,1.2,0.6c4.8,14,8.6,31.2,11.3,50.5c2.5,18.6,4,39.1,4,60.8
		c0,21.6-1.4,42.2-4,60.8c-2.6,19.3-6.5,36.5-11.3,50.5c-0.2,0.5-0.7,0.7-1.2,0.6c-0.5-0.2-0.7-0.7-0.6-1.1
		c4.7-13.9,8.6-31,11.2-50.2c2.5-18.5,3.9-39,3.9-60.5c0-21.6-1.4-42-3.9-60.5C179.3,203.4,175.5,186.3,170.8,172.4z"/>
	<path class="st0" d="M245.7,421.5c0.2-0.1,0.4-0.3,0.3-0.6c-0.1-0.2-0.4-0.4-0.6-0.3c-3.7,1.4-7.2,3.5-7.2,3.5
		c-0.2,0.1-0.3,0.4-0.2,0.6c0.1,0.2,0.4,0.3,0.6,0.2C238.7,424.9,242.1,422.9,245.7,421.5z"/>
	<path class="st0" d="M240,421c0.5-0.7,1.3-1.1,2.2-1.2c0.9-0.1,1.8,0.2,2.4,0.7c0.7,0.5,1.1,1.3,1.2,2.2c0.1,0.9-0.2,1.8-0.7,2.4
		c-0.5,0.7-1.3,1.1-2.2,1.2c-0.9,0.1-1.8-0.2-2.5-0.7c-0.7-0.5-1.1-1.3-1.2-2.2C239.2,422.5,239.5,421.6,240,421L240,421z
		 M242,417.9c-1.4,0.2-2.6,0.9-3.4,1.9c-0.8,1-1.2,2.4-1.1,3.8c0.2,1.4,0.9,2.6,1.9,3.4c1,0.8,2.4,1.2,3.8,1.1
		c1.4-0.2,2.6-0.9,3.4-1.9c0.8-1,1.2-2.4,1.1-3.8c-0.2-1.4-0.9-2.6-1.9-3.4C244.8,418.2,243.4,417.7,242,417.9z"/>
	<path class="st0" d="M381.1,421c-0.5-0.7-1.3-1.1-2.2-1.2c-0.9-0.1-1.8,0.2-2.5,0.7c-0.7,0.5-1.1,1.3-1.2,2.2
		c-0.1,0.9,0.2,1.8,0.7,2.4c0.5,0.7,1.3,1.1,2.2,1.2c0.9,0.1,1.8-0.2,2.4-0.7c0.7-0.5,1.1-1.3,1.2-2.2
		C381.9,422.5,381.6,421.6,381.1,421L381.1,421z M379.1,417.9c1.4,0.2,2.6,0.9,3.4,1.9c0.8,1,1.2,2.4,1.1,3.8
		c-0.2,1.4-0.9,2.6-1.9,3.4c-1,0.8-2.4,1.2-3.8,1.1c-1.4-0.2-2.6-0.9-3.4-1.9c-0.8-1-1.2-2.4-1.1-3.8c0.2-1.4,0.9-2.6,1.9-3.4
		C376.3,418.2,377.7,417.7,379.1,417.9z"/>
	<path class="st0" d="M375.3,421.5c-0.2-0.1-0.4-0.3-0.3-0.6c0.1-0.2,0.4-0.4,0.6-0.3c3.7,1.4,7.2,3.5,7.2,3.5
		c0.2,0.1,0.3,0.4,0.2,0.6c-0.1,0.2-0.4,0.3-0.6,0.2C382.3,424.9,378.9,422.9,375.3,421.5z"/>
	<path class="st0" d="M465.1,194.4c0.1-0.5-0.2-1-0.6-1.1c-0.5-0.1-1,0.2-1.1,0.6c-3.3,12.1-6,26.2-7.8,41.6
		c-1.7,14.8-2.7,30.9-2.7,47.7c0,16.8,1,32.8,2.7,47.7c1.8,15.4,4.5,29.4,7.8,41.6c0.1,0.5,0.6,0.8,1.1,0.6c0.5-0.1,0.8-0.6,0.6-1.1
		c-3.3-12-5.9-26-7.7-41.3c-1.7-14.7-2.7-30.7-2.7-47.5s0.9-32.7,2.7-47.5C459.1,220.4,461.8,206.4,465.1,194.4z"/>
	<path class="st0" d="M450.3,172.4c0.2-0.5-0.1-1-0.6-1.2c-0.5-0.2-1,0.1-1.2,0.6c-4.8,14-8.6,31.2-11.3,50.5
		c-2.5,18.6-4,39.1-4,60.8c0,21.6,1.4,42.2,4,60.8c2.6,19.3,6.5,36.5,11.3,50.5c0.2,0.5,0.7,0.7,1.2,0.6c0.5-0.2,0.7-0.7,0.6-1.1
		c-4.7-13.9-8.6-31-11.2-50.2c-2.5-18.5-3.9-39-3.9-60.5c0-21.6,1.4-42,3.9-60.5C441.8,203.4,445.6,186.3,450.3,172.4z"/>
	<path class="st0" d="M238.1,178.3c20-15.5,45.1-24.7,72.4-24.7c27.3,0,52.4,9.2,72.4,24.7l-0.6,0.6c-19.8-15.3-44.7-24.5-71.8-24.5
		c-27,0-51.9,9.1-71.8,24.5L238.1,178.3L238.1,178.3z M404.2,199.5c15.5,20,24.7,45.1,24.7,72.4c0,27.3-9.2,52.4-24.7,72.4l-0.6-0.6
		c15.3-19.8,24.5-44.7,24.5-71.8c0-27-9.1-51.9-24.5-71.8L404.2,199.5L404.2,199.5z M383,365.5c-20,15.5-45.1,24.7-72.4,24.7
		c-27.3,0-52.4-9.2-72.4-24.7l0.6-0.6c19.8,15.3,44.7,24.5,71.8,24.5c27,0,51.9-9.1,71.8-24.5L383,365.5L383,365.5z M216.9,344.3
		c-15.5-20-24.7-45.1-24.7-72.4c0-27.3,9.2-52.4,24.7-72.4l0.6,0.6c-15.3,19.8-24.5,44.7-24.5,71.8c0,27,9.1,51.9,24.5,71.8
		L216.9,344.3L216.9,344.3z M310.6,158.1c-26,0-50,8.7-69.2,23.4l0.4,0.4l2.2,2.2c18.5-14,41.6-22.4,66.6-22.4
		c25,0,48.1,8.3,66.6,22.4l0,0l2.6-2.6C360.5,166.8,336.6,158.1,310.6,158.1L310.6,158.1z M400.9,202.7l-2.6,2.6l0,0
		c14,18.5,22.4,41.6,22.4,66.6s-8.3,48.1-22.4,66.6l0,0l2.6,2.6c14.7-19.2,23.4-43.1,23.4-69.2C424.4,245.9,415.6,221.9,400.9,202.7
		L400.9,202.7z M379.7,362.3l-2.6-2.6l0,0c-18.5,14-41.6,22.4-66.6,22.4c-25,0-48.1-8.3-66.6-22.4l-2.2,2.2l-0.4,0.4
		c19.2,14.7,43.1,23.4,69.2,23.4C336.6,385.7,360.5,377,379.7,362.3L379.7,362.3z M220.2,341l0.4-0.4l2.2-2.2
		c-14-18.5-22.4-41.6-22.4-66.6s8.3-48.1,22.4-66.6l-2.2-2.2l-0.4-0.4c-14.7,19.2-23.4,43.1-23.4,69.2S205.5,321.9,220.2,341
		L220.2,341z M247.5,188.7c0.1,0.3,0.2,0.6,0.3,0.9c17.4-13.3,39.1-21.2,62.7-21.2c23.6,0,45.3,7.9,62.7,21.2
		c0.1-0.3,0.2-0.6,0.3-0.9c-17.5-13.3-39.3-21.2-63-21.2C286.9,167.5,265,175.4,247.5,188.7L247.5,188.7z M393.7,208.9
		c-0.3,0.1-0.6,0.2-0.9,0.3c13.3,17.4,21.2,39.1,21.2,62.7c0,23.6-7.9,45.3-21.2,62.7c0.3,0.1,0.6,0.2,0.9,0.3
		c13.3-17.5,21.2-39.3,21.2-63S407,226.4,393.7,208.9L393.7,208.9z M373.6,355.1c-0.1-0.3-0.2-0.6-0.3-0.9
		c-17.4,13.3-39.1,21.2-62.7,21.2c-23.6,0-45.3-7.9-62.7-21.2c-0.1,0.3-0.2,0.6-0.3,0.9c17.5,13.3,39.3,21.2,63,21.2
		C334.2,376.2,356.1,368.3,373.6,355.1L373.6,355.1z M227.4,334.9c0.3-0.1,0.6-0.2,0.9-0.3c-13.3-17.4-21.2-39.1-21.2-62.7
		s7.9-45.3,21.2-62.7c-0.3-0.1-0.6-0.2-0.9-0.3c-13.3,17.5-21.2,39.3-21.2,63S214.1,317.4,227.4,334.9z"/>
	<path class="st0" d="M310.6,184.6c48.2,0,87.3,39.1,87.3,87.3s-39.1,87.3-87.3,87.3c-48.2,0-87.3-39.1-87.3-87.3
		S262.4,184.6,310.6,184.6L310.6,184.6z M390.1,296.2c2.4-7.7,3.7-15.9,3.7-24.4c0-2.5-0.1-5.1-0.4-7.6l-19.6,14.1L390.1,296.2
		L390.1,296.2z M345.5,346.5L345.5,346.5c10-4.6,18.9-11,26.2-18.9l-23.7-5L345.5,346.5L345.5,346.5z M249.8,327.5L249.8,327.5
		c7.4,7.9,16.3,14.3,26.2,18.9l-2.5-23.9L249.8,327.5L249.8,327.5z M228.1,264.2c-0.2,2.5-0.4,5-0.4,7.6c0,8.5,1.3,16.7,3.7,24.4
		l16.2-17.9L228.1,264.2L228.1,264.2z M261.1,205.8c-8.7,6.5-16.1,14.6-21.7,23.9h24.2L261.1,205.8L261.1,205.8z M327,191.1
		L327,191.1c-5.3-1-10.7-1.6-16.2-1.6s-11,0.6-16.2,1.6l16.2,17.9L327,191.1L327,191.1z M382.1,229.7c-5.6-9.3-13-17.4-21.7-23.9
		l-2.5,23.9H382.1L382.1,229.7z M371,252.3l22.2,9.8c-1.3-11-4.8-21.3-10-30.6L371,252.3L371,252.3z M372.9,277.3L372.9,277.3
		l0.1,0.1l19.8-14.3l-22.4-9.9l-0.1,0.1c1.8,5.8,2.8,11.9,2.8,18.3C373.2,273.6,373.1,275.5,372.9,277.3L372.9,277.3z M365.3,302
		L365.3,302l23.9-5l-16.4-18l-0.1,0.1c-1,8.2-3.6,15.9-7.5,22.8L365.3,302L365.3,302z M365.7,303.1l7.5,22.8
		c7.1-8,12.7-17.5,16.2-27.8L365.7,303.1L365.7,303.1z M348.1,321.3L348.1,321.3l0,0.2l24,5l-7.6-23.1l-0.2,0
		C360.2,310.4,354.7,316.4,348.1,321.3L348.1,321.3z M324.5,332.2L324.5,332.2l19.8,14.3l2.6-24.1l-0.2,0c-6.6,4.6-14,8-22.1,9.8
		L324.5,332.2L324.5,332.2z M323.9,333.2L311.8,354c11.3-0.1,22-2.5,31.7-6.7L323.9,333.2L323.9,333.2z M297.6,333.2L278,347.3
		c9.8,4.2,20.5,6.5,31.7,6.7L297.6,333.2L297.6,333.2z M274.8,322.3l-0.2,0l2.6,24.1l19.8-14.3l-0.1-0.1
		C288.8,330.2,281.4,326.9,274.8,322.3L274.8,322.3z M257,303.4L257,303.4l-7.6,23.1l24-5l0-0.2c-6.5-4.8-12-10.9-16.2-17.8
		L257,303.4L257,303.4z M255.8,303.1L255.8,303.1l-23.7-5c3.5,10.3,9.1,19.8,16.2,27.8L255.8,303.1L255.8,303.1z M248.8,279.1
		L248.8,279.1l-0.1-0.1l-16.4,18l23.9,5l0.1-0.2C252.3,295,249.7,287.3,248.8,279.1L248.8,279.1z M251,253.3L251,253.3l-22.4,9.9
		l19.8,14.3l0.1-0.1c-0.2-1.8-0.3-3.7-0.3-5.6c0-6.4,1-12.5,2.8-18.3L251,253.3L251,253.3z M250.5,252.3L250.5,252.3l-12.1-20.8
		c-5.3,9.2-8.7,19.6-10,30.6L250.5,252.3L250.5,252.3z M263.8,231.1L263.8,231.1l0-0.2h-24.5l12.2,21l0.1-0.1
		C254.3,244.1,258.5,237.1,263.8,231.1L263.8,231.1z M284.6,215.5l-22.4-9.9l2.6,24.1h0.2c5.5-5.9,12.1-10.7,19.6-14.1L284.6,215.5
		L284.6,215.5z M285,214.4L285,214.4l7.5-22.9c-10.8,2.4-20.8,6.9-29.6,13.1L285,214.4L285,214.4z M309.9,209.9l0.1-0.1l-16.4-18
		l-7.6,23.1l0.1,0.1C293.4,211.8,301.5,210,309.9,209.9L309.9,209.9z M335.5,214.8L335.5,214.8l-7.6-23.1l-16.4,18l0.1,0.1
		c8.4,0.1,16.4,1.9,23.7,5L335.5,214.8L335.5,214.8z M336.5,214.4L336.5,214.4l22.1-9.8c-8.8-6.2-18.8-10.7-29.6-13.1L336.5,214.4
		L336.5,214.4z M356.5,229.7h0.2l2.6-24.1l-22.4,9.9l0,0.2C344.4,219,351,223.8,356.5,229.7L356.5,229.7z M369.9,251.8l0.1,0.1
		l12.3-21h-24.5l0,0.2C363,237.1,367.2,244.1,369.9,251.8L369.9,251.8z M298.6,332.4l-0.1,0.1l12.2,21l12.2-21l-0.1-0.1
		c-3.9,0.8-8,1.2-12.1,1.2C306.6,333.6,302.6,333.2,298.6,332.4L298.6,332.4z M347.4,271.7c0-20-16.4-36.3-36.6-36.3
		c-20.2,0-36.6,16.3-36.6,36.3s16.4,36.3,36.6,36.3C330.9,308,347.4,291.8,347.4,271.7z"/>
	<path class="st0" d="M394.4,192.3c0-0.9-0.3-1.7-1-2.4c-0.7-0.6-1.5-1-2.4-1c-0.9,0-1.7,0.3-2.4,1c-0.6,0.6-1,1.5-1,2.4
		c0,0.9,0.3,1.7,1,2.4c0.6,0.6,1.5,1,2.4,1c0.9,0,1.7-0.3,2.4-1C394.1,194,394.4,193.1,394.4,192.3L394.4,192.3z M394.7,188.6
		c1,1,1.5,2.3,1.5,3.6c0,1.3-0.5,2.6-1.5,3.6c-1,1-2.3,1.5-3.6,1.5c-1.3,0-2.6-0.5-3.6-1.5c-1-1-1.5-2.3-1.5-3.6
		c0-1.3,0.5-2.6,1.5-3.6c1-1,2.3-1.5,3.6-1.5C392.4,187.1,393.7,187.6,394.7,188.6z"/>
	<path class="st0" d="M389.5,189.1c-0.1-0.2-0.1-0.5,0.2-0.6c0.2-0.1,0.5-0.1,0.6,0.2c2.1,3.4,3.5,7.2,3.5,7.2
		c0.1,0.2,0,0.5-0.3,0.6c-0.2,0.1-0.5,0-0.6-0.3C392.9,196.2,391.5,192.5,389.5,189.1z"/>
	<path class="st0" d="M381.4,177.2c0.7-0.7,1.9-0.7,2.6,0c0.7,0.7,0.7,1.9,0,2.6l-7.1,7.1c-0.8,0.8-1.3,1.7-1.7,2.7
		c-0.3,1-0.4,2.1-0.3,3.2c0.1,0.7,0.3,1.4,0.7,2.1c0.3,0.6,0.7,1.2,1.3,1.8l8.8,8.8c0.5,0.5,1.2,1,1.8,1.3c0.7,0.3,1.4,0.6,2.1,0.7
		c1.1,0.2,2.2,0.1,3.2-0.3c1-0.3,1.9-0.9,2.7-1.7l7.1-7.1c0.7-0.7,1.9-0.7,2.6,0c0.7,0.7,0.7,1.9,0,2.6l-7.1,7.1
		c-1.2,1.2-2.6,2.1-4.1,2.6c-1.6,0.5-3.2,0.7-4.9,0.4c-1.1-0.2-2.2-0.5-3.2-1c-1-0.5-1.9-1.2-2.7-2l-8.8-8.8c-0.8-0.8-1.5-1.7-2-2.7
		c-0.5-1-0.9-2.1-1-3.2c-0.2-1.6-0.1-3.3,0.4-4.9c0.5-1.5,1.4-2.9,2.6-4.1L381.4,177.2z"/>
	<path class="st0" d="M235.2,351.4c0-0.9-0.3-1.7-1-2.4c-0.6-0.6-1.5-1-2.4-1c-0.9,0-1.7,0.3-2.4,1c-0.6,0.6-1,1.5-1,2.4
		c0,0.9,0.3,1.7,1,2.4c0.6,0.6,1.5,1,2.4,1c0.9,0,1.7-0.3,2.4-1C234.9,353.1,235.2,352.3,235.2,351.4L235.2,351.4z M235.6,347.8
		c1,1,1.5,2.3,1.5,3.6s-0.5,2.6-1.5,3.6c-1,1-2.3,1.5-3.6,1.5c-1.3,0-2.6-0.5-3.6-1.5c-1-1-1.5-2.3-1.5-3.6s0.5-2.6,1.5-3.6
		c1-1,2.3-1.5,3.6-1.5C233.2,346.3,234.6,346.8,235.6,347.8z"/>
	<path class="st0" d="M230.3,348.3c-0.1-0.2-0.1-0.5,0.2-0.6c0.2-0.1,0.5-0.1,0.6,0.2c2.1,3.4,3.5,7.2,3.5,7.2
		c0.1,0.2,0,0.5-0.3,0.6c-0.2,0.1-0.5,0-0.6-0.3C233.8,355.3,232.3,351.6,230.3,348.3z"/>
	<path class="st0" d="M240.4,365.9c-0.7,0.7-1.9,0.7-2.6,0c-0.7-0.7-0.7-1.9,0-2.6l6.5-6.5c1.3-1.3,2-3.1,2-4.9c0-1.8-0.7-3.6-2-4.9
		l-8.8-8.8c-1.3-1.3-3.1-2-4.9-2c-1.8,0-3.6,0.7-4.9,2l-6.5,6.5c-0.7,0.7-1.9,0.7-2.6,0c-0.7-0.7-0.7-1.9,0-2.6l6.5-6.5
		c2.1-2.1,4.8-3.1,7.5-3.1c2.7,0,5.4,1,7.5,3.1l8.8,8.8c2.1,2.1,3.1,4.8,3.1,7.5c0,2.7-1,5.4-3.1,7.5L240.4,365.9z"/>
	<path class="st0" d="M390.2,355.7c0.9,0,1.7-0.3,2.4-1c0.6-0.6,1-1.5,1-2.4c0-0.9-0.3-1.7-1-2.4c-0.6-0.6-1.5-1-2.4-1
		s-1.7,0.3-2.4,1c-0.6,0.6-1,1.5-1,2.4c0,0.9,0.3,1.7,1,2.4C388.5,355.4,389.3,355.7,390.2,355.7L390.2,355.7z M393.8,356
		c-1,1-2.3,1.5-3.6,1.5c-1.3,0-2.6-0.5-3.6-1.5c-1-1-1.5-2.3-1.5-3.6c0-1.3,0.5-2.6,1.5-3.6c1-1,2.3-1.5,3.6-1.5
		c1.3,0,2.6,0.5,3.6,1.5c1,1,1.5,2.3,1.5,3.6C395.3,353.7,394.8,355,393.8,356z"/>
	<path class="st0" d="M393.3,350.8c0.2-0.1,0.5-0.1,0.6,0.2c0.1,0.2,0.1,0.5-0.2,0.6c-3.4,2.1-7.2,3.5-7.2,3.5
		c-0.2,0.1-0.5,0-0.6-0.3c-0.1-0.2,0-0.5,0.3-0.6C386.3,354.2,389.9,352.8,393.3,350.8z"/>
	<path class="st0" d="M405.3,342.9c0.7,0.7,0.7,1.9,0,2.6c-0.7,0.7-1.9,0.7-2.6,0l-7.3-7.3c-0.8-0.8-1.7-1.3-2.7-1.7
		c-1-0.3-2.1-0.4-3.2-0.3c-0.7,0.1-1.4,0.3-2.1,0.7c-0.6,0.3-1.2,0.7-1.8,1.3l-8.8,8.8c-0.5,0.5-1,1.2-1.3,1.8
		c-0.3,0.7-0.6,1.4-0.7,2.1c-0.2,1.1-0.1,2.2,0.3,3.2c0.3,1,0.9,1.9,1.7,2.7l7.3,7.3c0.7,0.7,0.7,1.9,0,2.6c-0.7,0.7-1.9,0.7-2.6,0
		l-7.3-7.3c-1.2-1.2-2.1-2.6-2.6-4.1c-0.5-1.6-0.7-3.2-0.4-4.9c0.2-1.1,0.5-2.2,1-3.2c0.5-1,1.2-1.9,2-2.7l8.8-8.8
		c0.8-0.8,1.7-1.5,2.7-2c1-0.5,2.1-0.9,3.2-1c1.6-0.2,3.3-0.1,4.9,0.4c1.5,0.5,2.9,1.4,4.1,2.6L405.3,342.9z"/>
	<path class="st0" d="M231,196.6c0.9,0,1.7-0.3,2.4-1c0.6-0.6,1-1.5,1-2.4c0-0.9-0.3-1.7-1-2.4c-0.6-0.6-1.5-1-2.4-1
		c-0.9,0-1.7,0.3-2.4,1c-0.6,0.6-1,1.5-1,2.4c0,0.9,0.3,1.7,1,2.4C229.3,196.3,230.2,196.6,231,196.6L231,196.6z M234.7,196.9
		c-1,1-2.3,1.5-3.6,1.5c-1.3,0-2.6-0.5-3.6-1.5c-1-1-1.5-2.3-1.5-3.6c0-1.3,0.5-2.6,1.5-3.6c1-1,2.3-1.5,3.6-1.5
		c1.3,0,2.6,0.5,3.6,1.5c1,1,1.5,2.3,1.5,3.6C236.2,194.6,235.7,195.9,234.7,196.9z"/>
	<path class="st0" d="M234.2,191.6c0.2-0.1,0.5-0.1,0.6,0.2c0.1,0.2,0.1,0.5-0.2,0.6c-3.4,2.1-7.2,3.5-7.2,3.5
		c-0.2,0.1-0.5,0-0.6-0.3c-0.1-0.2,0-0.5,0.3-0.6C227.1,195.1,230.8,193.7,234.2,191.6z"/>
	<path class="st0" d="M215.2,200.3c-0.7-0.7-0.7-1.9,0-2.6c0.7-0.7,1.9-0.7,2.6,0l7.8,7.8c1.4,1.3,3.1,2,4.9,2c1.8,0,3.6-0.7,4.9-2
		l8.8-8.8c1.4-1.3,2-3.1,2-4.9c0-1.8-0.7-3.6-2-4.9l-7.8-7.8c-0.7-0.7-0.7-1.9,0-2.6c0.7-0.7,1.9-0.7,2.6,0l7.8,7.8
		c2.1,2.1,3.1,4.8,3.1,7.5c0,2.7-1,5.4-3.1,7.5l-8.8,8.8c-2.1,2.1-4.8,3.1-7.5,3.1c-2.7,0-5.4-1-7.5-3.1L215.2,200.3z"/>
	<path class="st0" d="M310.8,300.8c16,0,29.1-13.1,29.1-29.1c0-16-13.1-29.1-29.1-29.1c-16,0-29.1,13.1-29.1,29.1
		C281.7,287.8,294.7,300.8,310.8,300.8L310.8,300.8z M310.8,299c-15,0-27.3-12.3-27.3-27.3c0-15,12.3-27.3,27.3-27.3
		c15,0,27.3,12.3,27.3,27.3C338,286.8,325.8,299,310.8,299z"/>
</g>
</svg>
