<?xml version="1.0" encoding="UTF-8"?>
<svg id="white" xmlns="http://www.w3.org/2000/svg" viewBox="0 0 1000 1000">
  <defs>
    <style>
      .cls-1 {
        fill: #d0dff8;
      }

      .cls-2 {
        fill: #1d70e8;
      }

      .cls-3 {
        fill: #225ae5;
      }

      .cls-4 {
        fill: #a2c3f4;
      }

      .cls-5 {
        fill: #76a6f0;
      }

      .cls-6 {
        fill: #4c8aec;
      }
    </style>
  </defs>
  <path class="cls-2" d="M823.77,686.81l23.82,73.53,24.11,74.13c46.44-51.51,82.16-112.54,104.2-180.12l-76.22,16.07-75.91,16.37Z"/>
  <path class="cls-3" d="M500.15,1000c72.34,0,141.41-15.48,203.34-43.16l-63.11-45.85-62.52-45.55-38.7,66.99-39,67.58"/>
  <path class="cls-3" d="M719.56,802.32l-8.04,77.11-8.04,77.4c64.3-28.58,121.46-70.55,168.21-122.36l-76.22-16.07-75.92-16.08Z"/>
  <path class="cls-6" d="M176.54,686.82l-75.92-16.08-76.21-16.08c22.03,67.28,57.76,128.61,104.2,180.12l24.11-74.13,23.82-73.83Z"/>
  <path class="cls-6" d="M871.69,539.15l51.8,57.46,52.09,58.05c15.78-48.53,24.41-100.63,24.41-154.51,0-17.56-.89-35.13-2.68-52.4l-63.11,45.85-62.52,45.55Z"/>
  <path class="cls-6" d="M855.32,384.64l70.85,31.56,71.15,31.56c-7.44-71.45-29.77-138.43-64.31-197.68l-39,67.58-38.7,66.98Z"/>
  <path class="cls-6" d="M280.44,802.33l-75.92,16.08-76.21,16.08c46.44,51.8,103.9,93.48,168.21,122.36l-8.04-77.41-8.04-77.11Z"/>
  <path class="cls-6" d="M499.85,1000l-38.7-67.28-38.7-67.29-62.82,45.55-63.11,45.85c62.22,27.69,130.99,43.16,203.33,43.16"/>
  <path class="cls-6" d="M577.85,865.44l62.52,45.55,63.11,45.85,8.04-77.41,8.04-77.11c-41.68,30.07-89.61,52.1-141.71,63.11Z"/>
  <path class="cls-6" d="M823.76,686.81c-26.2,45.25-61.92,84.55-103.9,115.21v.3l75.91,16.08,76.21,16.08-24.11-74.13-24.11-73.53Z"/>
  <path class="cls-1" d="M651.99,158.68l-23.82-73.83-24.11-74.13-52.1,57.76-51.8,57.76c54.18,.3,105.39,11.61,151.83,32.45Z"/>
  <path class="cls-1" d="M499.86,126.53l-51.8-57.76-52.1-57.76-24.11,74.13-23.82,73.53c46.44-20.54,97.95-32.15,151.83-32.15Z"/>
  <path class="cls-1" d="M222.39,250.08c34.83-38.7,77.7-69.96,125.63-91.4l-70.85-31.56-71.15-31.56,8.04,77.4,8.34,77.11Z"/>
  <path class="cls-1" d="M222.39,250.07l-77.4-.3H66.99l39,67.58,38.7,66.98c16.37-50.31,43.17-95.86,77.7-134.27Z"/>
  <path class="cls-1" d="M2.68,447.75l63.11,45.85,62.82,45.55c-1.19-12.8-2.08-25.9-2.08-39,0-40.19,6.55-79.19,18.16-115.51l-70.85,31.56L2.68,447.75Z"/>
  <path class="cls-4" d="M222.39,250.08l-8.04-77.11-8.04-77.4c-56.56,41.08-103.9,93.78-139.03,154.51H222.39Z"/>
  <path class="cls-4" d="M73.83,415.9l70.85-31.56-38.7-66.98-39-67.28C32.75,309.32,10.12,376.3,2.68,447.75l71.15-31.85Z"/>
  <path class="cls-4" d="M348.02,158.68l23.82-73.53,24.11-74.13c-69.66,14.89-134.27,44.06-189.94,84.55l71.15,31.56,70.85,31.56Z"/>
  <path class="cls-4" d="M500.15,126.23l51.8-57.46,52.1-58.05C570.41,3.57,535.88,0,500.15,0s-70.56,3.87-103.9,10.72l52.1,58.05,51.8,57.46Z"/>
  <path class="cls-4" d="M855.32,384.64l38.71-66.98,39-67.58h-155.4v.3c34.83,38.11,61.33,83.95,77.7,134.27Z"/>
  <path class="cls-4" d="M651.98,158.68c47.93,21.44,90.8,52.69,125.63,91.4h.3l8.04-77.11,8.04-77.4-71.15,31.56-70.85,31.56Z"/>
  <path class="cls-4" d="M128.61,539.15l-52.1,57.46-52.1,57.76,76.21,16.08,75.92,16.08c-25.6-44.06-42.57-94.08-47.93-147.37Z"/>
  <path class="cls-4" d="M280.44,802.33c-42.28-30.96-77.7-70.26-103.9-115.51l-23.82,73.53-24.11,74.13,76.21-16.08,75.62-16.08Z"/>
  <path class="cls-5" d="M128.31,539.15l-62.82-45.55L2.68,447.76c-1.79,17.27-2.68,34.53-2.68,52.4,0,53.89,8.63,105.98,24.41,154.51l52.1-58.05,51.8-57.46Z"/>
  <path class="cls-5" d="M777.61,250.08h155.41c-35.13-60.73-82.77-113.43-139.03-154.51l-8.04,77.4-8.34,77.11Z"/>
  <path class="cls-5" d="M651.98,158.68l70.85-31.56,71.15-31.56c-55.67-40.79-120.27-69.96-189.94-84.85l24.11,74.13,23.82,73.83Z"/>
  <path class="cls-5" d="M500.15,1000l39-67.58,38.7-66.99c-25.01,5.36-51.21,8.04-77.7,8.04s-52.69-2.68-77.7-8.04l38.7,66.99,39,67.58"/>
  <path class="cls-5" d="M823.76,686.81l75.91-16.08,76.22-16.08-52.39-58.05-51.8-57.46c-5.65,53.29-22.33,103.31-47.93,147.66Z"/>
  <path class="cls-5" d="M873.48,500.15c0,13.1-.6,26.2-2.09,39l62.82-45.55,63.11-45.85-71.15-31.56-70.85-31.56c11.91,36.32,18.16,75.02,18.16,115.51Z"/>
  <path class="cls-5" d="M280.44,802.33l8.04,77.11,8.04,77.41,63.11-45.85,62.82-45.55c-52.1-11.01-100.33-33.04-142.01-63.11Z"/>
  <path d="M500.15,126.23c-206.31,0-373.62,167.31-373.62,373.62s167.31,373.63,373.62,373.63,373.63-167.31,373.63-373.63S706.46,126.23,500.15,126.23Zm0,615.96c-133.67,0-242.33-108.37-242.33-242.33s108.37-242.34,242.33-242.34,242.33,108.37,242.33,242.34-108.66,242.33-242.33,242.33Z"/>
</svg>