<?xml version="1.0" encoding="UTF-8"?>
<svg id="white" xmlns="http://www.w3.org/2000/svg" viewBox="0 0 1000 1000">
  <path d="M500,0C224.3,0,0,224.3,0,500s224.3,500,500,500,500-224.3,500-500S775.7,0,500,0Zm217.49,500c0,119.93-97.57,217.5-217.5,217.5s-217.49-97.57-217.49-217.5,97.57-217.5,217.49-217.5,217.5,97.57,217.5,217.5Zm-289.5,363.77c23.31,4.61,47.37,7.07,72,7.07s48.7-2.47,72-7.07l.68,.5-72.67,125.87-72.68-125.88,.66-.48Zm423-483.23c-15.8-46.3-40.49-88.48-72.07-124.53l.12-1.15h145.49l-72.76,126.03-.78-.35Zm-79.23-132.52c-32.67-35.21-72.07-64.05-116.15-84.52l-.3-.93,132.77-59.11-15.19,144.56h-1.13Zm-118.58-91.99l-44.51-136.98c64.25,14.51,123.75,41.58,175.83,78.51l-131.33,58.47Zm-6.28,2.8l-.81,.36c-43.35-18.66-90.95-29.22-140.9-29.91l-.57-.64,97.35-108.11,44.94,138.3Zm-152.07-29.55c-49.98,.69-97.6,11.26-140.97,29.93l-.79-.35L398.04,20.5l97.37,108.14-.57,.64Zm-148.04,26.78l-131.33-58.47c52.09-36.94,111.59-64.01,175.85-78.52l-44.51,137Zm-2.13,6.54l-.29,.91c-44.07,20.47-83.48,49.31-116.15,84.52h-1.16l-15.19-144.55,132.79,59.12Zm-123.63,93.44c-31.56,36.04-56.23,78.19-72.03,124.46l-.78,.35-72.74-125.99H220.92l.12,1.18Zm-79.09,127.61L10.33,442.25c7.73-65.91,28.48-127.87,59.65-183.26l71.97,124.66Zm3.44,5.95l.35,.61c-10.78,34.71-16.59,71.58-16.59,109.79,0,11.35,.59,22.55,1.6,33.64l-.6,.66L12.44,448.79l132.95-59.19Zm-13.54,154.39c5.84,49.15,21.3,95.36,44.48,136.72l-.32,.98-142.17-30.22,97.27-108.02,.74,.54Zm42.04,144.24l-44.41,136.68c-42.31-48.19-75.35-104.64-96.42-166.61l140.83,29.93Zm6.73,1.43l.99,.21c24.89,41.58,57.66,77.93,96.27,106.91l.1,.94-142.3,30.25,44.94-138.31Zm105.84,113.25c38.96,27.55,83.43,47.76,131.43,58.66l.45,.77-117.7,85.51-15.21-144.72,1.03-.22Zm135.31,65.39l72,124.7c-66.87-.84-130.57-14.99-188.55-40.02l116.55-84.68Zm156.49,.02l116.54,84.67c-57.98,25.03-121.67,39.18-188.53,40.02l71.99-124.69Zm3.44-5.95l.46-.8c47.97-10.89,92.42-31.1,131.37-58.63l1.03,.22-15.21,144.68-117.65-85.47Zm140.4-65.55c38.64-28.99,71.43-65.36,96.33-106.96l.96-.21,44.96,138.36-142.35-30.26,.1-.93Zm104.02-108.6l140.86-29.94c-21.07,61.99-54.12,118.46-96.43,166.65l-44.42-136.71Zm-2.13-6.54l-.31-.96c23.18-41.36,38.64-87.58,44.48-136.73l.76-.55,97.26,108.01-142.19,30.22Zm45.28-148.06c1-11.08,1.59-22.27,1.59-33.61,0-38.19-5.81-75.05-16.58-109.74l.36-.62,132.9,59.17-117.65,85.48-.62-.68Zm-11.2-149.92l71.98-124.67c31.16,55.39,51.91,117.35,59.64,183.27l-131.61-58.6Zm65.65-135.67h-143.94l15.04-143.13c51.77,38.72,95.64,87.41,128.9,143.13ZM596.49,16.38l-96.48,107.15L403.53,16.38c31.21-6.22,63.46-9.54,96.47-9.54s65.27,3.32,96.49,9.54ZM205.16,104.92l15.04,143.1H76.29c33.26-55.71,77.11-104.38,128.86-143.1ZM9,454.74l116.54,84.67-96.48,107.14c-14.44-46.32-22.23-95.54-22.23-146.55,0-15.27,.8-30.34,2.16-45.26Zm129.01,379.72l140.68-29.9,15.06,143.23c-59.15-27.36-112.01-66.03-155.73-113.32Zm568.2,113.34l15.05-143.23,140.7,29.91c-43.73,47.29-96.6,85.97-155.75,113.32Zm264.72-301.27l-96.47-107.14,116.53-84.66c1.36,14.92,2.16,30,2.16,45.27,0,51-7.78,100.22-22.22,146.53Z"/>
</svg>