<svg id="Layer_1" data-name="Layer 1" xmlns="http://www.w3.org/2000/svg" viewBox="0 0 394 111.71"><defs><style>.cls-1{opacity:0.3;}.cls-2{fill:#fdba12;}.cls-3{fill:none;}.cls-4{fill:#23303f;}.cls-5{fill:#fff;}</style></defs><g class="cls-1"><circle class="cls-2" cx="55.85" cy="55.85" r="55.85"/></g><path class="cls-3" d="M320,111.79v-.18c0-12.3-8.78-20.89-21.35-20.89h-9.41v40.12h12.66a25.43,25.43,0,0,0,9-1.54C316.59,125.79,320,119.6,320,111.79Z" transform="translate(-3 -66.65)"/><path class="cls-3" d="M321.9,111.61v.18a23.15,23.15,0,0,1-3.56,12.7,21.47,21.47,0,0,0,5.87-15.3V109c0-12.57-8.81-21.84-22.3-21.84H289.25v1.65h9.41C312.34,88.82,321.9,98.19,321.9,111.61Z" transform="translate(-3 -66.65)"/><rect class="cls-3" x="356.17" y="20.34" width="32.13" height="1.66"/><polygon class="cls-3" points="344.88 13.8 342.58 13.8 342.58 76.13 388.76 76.13 388.76 74.48 344.88 74.48 344.88 13.8"/><path class="cls-3" d="M275.66,142.78h23a36.27,36.27,0,0,0,17.75-4.4,38.18,38.18,0,0,1-14.5,2.74H278V80.44h-2.3Z" transform="translate(-3 -66.65)"/><polygon class="cls-3" points="217.05 21.72 245.6 21.72 247.16 20.07 219.36 20.07 219.36 13.8 217.05 13.8 217.05 21.72"/><path class="cls-3" d="M219.18,131.49l-2.35,2.21c5.92,6.76,13.75,10.18,23.29,10.18a24.22,24.22,0,0,0,12.5-3.21,27.06,27.06,0,0,1-9.25,1.55C232.45,142.22,224.59,137.76,219.18,131.49Z" transform="translate(-3 -66.65)"/><path class="cls-3" d="M141.78,111.79c0,18.29,14,32.09,32.55,32.09a33.8,33.8,0,0,0,16.41-4.14,35.24,35.24,0,0,1-13.16,2.48c-19.73,0-33.49-15-33.49-33V109A33.47,33.47,0,0,1,150,89.93a32.19,32.19,0,0,0-8.19,21.68Z" transform="translate(-3 -66.65)"/><path class="cls-3" d="M197.11,111.61v.18a24.59,24.59,0,0,1-3.85,13.47,23.13,23.13,0,0,0,6.16-16.07V109c0-12.48-9.09-22.76-21.84-22.76a21.47,21.47,0,0,0-11.26,3.09,23.05,23.05,0,0,1,8-1.43C187.32,87.91,197.11,98.1,197.11,111.61Z" transform="translate(-3 -66.65)"/><path class="cls-3" d="M254.66,122.31v-.18c0-6.33-5.78-9.91-14.78-9.91h-5.23l-1.72-6.65L230.61,108l1.52,5.84h4.5c9.7,0,15.72,4.16,15.72,10.86v.19a10.15,10.15,0,0,1-1.06,4.57A9,9,0,0,0,254.66,122.31Z" transform="translate(-3 -66.65)"/><path class="cls-3" d="M195.21,111.79v-.18c0-12.43-9-21.81-20.88-21.81A20.22,20.22,0,0,0,159.57,96a23.76,23.76,0,0,0-3.64,12.85V109c0,12.48,9.08,22.75,21.83,22.75a22.14,22.14,0,0,0,7.4-1.26C191.27,126.83,195.21,120,195.21,111.79Z" transform="translate(-3 -66.65)"/><rect class="cls-3" x="356.17" y="47.22" width="28" height="1.66"/><path class="cls-2" d="M174.33,89.8c11.9,0,20.88,9.38,20.88,21.81v.18c0,8.2-3.94,15-10.05,18.71a20.46,20.46,0,0,0,8.1-5.24,24.59,24.59,0,0,0,3.85-13.47v-.18c0-13.51-9.79-23.7-22.78-23.7a23.05,23.05,0,0,0-8,1.43A21.06,21.06,0,0,0,159.57,96,20.22,20.22,0,0,1,174.33,89.8Z" transform="translate(-3 -66.65)"/><path class="cls-2" d="M190.74,139.74a33.8,33.8,0,0,1-16.41,4.14c-18.56,0-32.55-13.8-32.55-32.09v-.18A32.19,32.19,0,0,1,150,89.93a32.28,32.28,0,0,1,10.91-9.88,33.29,33.29,0,0,0-11.28,7.51,34,34,0,0,0-9.71,24v.18c0,19.38,14.8,34,34.44,34a33.74,33.74,0,0,0,28.54-14.5A32.46,32.46,0,0,1,190.74,139.74Z" transform="translate(-3 -66.65)"/><path class="cls-2" d="M247.48,103.76l15-15.44V87.7l-15.58,16Z" transform="translate(-3 -66.65)"/><path class="cls-2" d="M240.12,143.88c-9.54,0-17.37-3.42-23.29-10.18l2.35-2.21c-.13-.15-.27-.3-.4-.46l5.55-5.23c-.06-.08-.13-.14-.19-.21l-.65-.77-9.26,8.73.57.69c6.27,7.55,15,11.53,25.32,11.53,9.15,0,16.44-3.87,20.34-10.13a20.69,20.69,0,0,1-7.84,5A24.22,24.22,0,0,1,240.12,143.88Z" transform="translate(-3 -66.65)"/><path class="cls-2" d="M228.51,107.49l2.16,8.28h6c8.66,0,13.82,3.35,13.82,9v.19a8.17,8.17,0,0,1-3.22,6.63,11.13,11.13,0,0,0,4.06-2.06,10.15,10.15,0,0,0,1.06-4.57v-.19c0-6.7-6-10.86-15.72-10.86h-4.5L230.61,108l2.32-2.46-.11-.42L248.6,88.37H220.05V80.44h2.31V78.55h-4.2V90.26h26.55Z" transform="translate(-3 -66.65)"/><path class="cls-2" d="M316.41,138.38a36.27,36.27,0,0,1-17.75,4.4h-23V80.44H278V78.55h-4.2v66.12h24.9c13,0,23.68-5.67,29.72-14.76A31.91,31.91,0,0,1,316.41,138.38Z" transform="translate(-3 -66.65)"/><path class="cls-2" d="M320,111.61v.18c0,7.81-3.42,14-9.14,17.51a20.34,20.34,0,0,0,7.47-4.81,23.15,23.15,0,0,0,3.56-12.7v-.18c0-13.42-9.56-22.79-23.24-22.79h-9.41v1.9h9.41C311.23,90.72,320,99.31,320,111.61Z" transform="translate(-3 -66.65)"/><polygon class="cls-2" points="386.07 47.23 384.17 47.23 384.17 48.88 356.17 48.88 356.17 50.78 386.07 50.78 386.07 47.23"/><polygon class="cls-2" points="390.2 20.34 388.3 20.34 388.3 22 356.17 22 356.17 23.89 390.2 23.89 390.2 20.34"/><polygon class="cls-2" points="388.76 74.48 388.76 76.13 342.58 76.13 342.58 13.8 344.88 13.8 344.88 11.9 340.68 11.9 340.68 78.03 390.66 78.03 390.66 74.48 388.76 74.48"/><path class="cls-4" d="M177.76,75.79a34.51,34.51,0,0,0-16.88,4.26A32.28,32.28,0,0,0,150,89.93,33.47,33.47,0,0,0,144.09,109v.18c0,18.08,13.76,33,33.49,33a35.24,35.24,0,0,0,13.16-2.48,32.46,32.46,0,0,0,12.13-8.47A33.21,33.21,0,0,0,211.25,109v-.19C211.25,90.75,197.49,75.79,177.76,75.79Zm0,56c-12.75,0-21.83-10.27-21.83-22.75v-.19A23.76,23.76,0,0,1,159.57,96a21.06,21.06,0,0,1,6.75-6.63,21.47,21.47,0,0,1,11.26-3.09c12.75,0,21.84,10.28,21.84,22.76v.18a23.13,23.13,0,0,1-6.16,16.07,20.46,20.46,0,0,1-8.1,5.24A22.14,22.14,0,0,1,177.76,131.76Z" transform="translate(-3 -66.65)"/><path class="cls-4" d="M247.48,103.76l-.53-.07,15.58-16,2.31-2.37V76.89H222.36v9.82h27.8l-1.56,1.66-15.78,16.78.11.42,1.72,6.65h5.23c9,0,14.78,3.58,14.78,9.91v.18a9,9,0,0,1-3.37,7.18,11.13,11.13,0,0,1-4.06,2.06,14.1,14.1,0,0,1-3.68.49c-7.15,0-12.29-3-16.88-8.44l-2.34,2.2L218.78,131c.13.16.27.31.4.46,5.41,6.27,13.27,10.73,24.19,10.73a27.06,27.06,0,0,0,9.25-1.55,20.69,20.69,0,0,0,7.84-5,19.49,19.49,0,0,0,5.39-13.79v-.18C265.85,110.05,257,105.07,247.48,103.76Z" transform="translate(-3 -66.65)"/><path class="cls-4" d="M301.91,76.89H278v64.23h24a38.18,38.18,0,0,0,14.5-2.74,31.91,31.91,0,0,0,12-8.47A31.35,31.35,0,0,0,336,109v-.19C336,90.75,322.1,76.89,301.91,76.89Zm0,54H289.25V87.17h12.66c13.49,0,22.3,9.27,22.3,21.84v.18a21.47,21.47,0,0,1-5.87,15.3,20.34,20.34,0,0,1-7.47,4.81A25.43,25.43,0,0,1,301.91,130.84Z" transform="translate(-3 -66.65)"/><polygon class="cls-4" points="356.17 64.38 356.17 50.78 356.17 48.88 356.17 47.23 384.17 47.23 386.07 47.23 388.38 47.23 388.38 37.04 356.17 37.04 356.17 23.89 356.17 22 356.17 20.34 388.3 20.34 390.2 20.34 392.5 20.34 392.5 10.25 344.88 10.25 344.88 11.9 344.88 13.8 344.88 74.48 388.76 74.48 390.66 74.48 392.96 74.48 392.96 64.38 356.17 64.38"/><rect class="cls-2" x="86.63" y="70.28" width="15.39" height="1.92"/><rect class="cls-2" x="39.51" y="9.7" width="1.92" height="15.31"/><path class="cls-2" d="M74.64,169.62H11.73v-62.9L43.07,75.38H106v62.9Zm-61-1.92H73.84l30.21-30.21V77.3H43.87L13.66,107.51Z" transform="translate(-3 -66.65)"/><rect class="cls-2" x="6.32" y="152.31" width="43.52" height="1.92" transform="translate(-103.16 -1.89) rotate(-45)"/><path class="cls-5" d="M90.59,154.15H27.12V90.69H90.59ZM29,152.23H88.67V92.61H29Z" transform="translate(-3 -66.65)"/><rect class="cls-5" x="39.51" y="25" width="1.92" height="61.54"/><rect class="cls-5" x="54.89" y="25" width="1.92" height="61.54"/><rect class="cls-5" x="70.28" y="25" width="1.92" height="61.54"/><rect class="cls-5" x="25.08" y="39.43" width="61.55" height="1.92"/><rect class="cls-5" x="25.08" y="54.81" width="61.55" height="1.92"/><rect class="cls-5" x="25.08" y="70.2" width="61.55" height="1.92"/><polygon class="cls-2" points="72.2 102.01 70.28 102.01 70.28 41.43 9.7 41.43 9.7 39.51 72.2 39.51 72.2 102.01"/><rect class="cls-2" x="67.87" y="90.77" width="43.52" height="1.92" transform="translate(-41.61 23.62) rotate(-45.01)"/><path class="cls-4" d="M149.45,164.92v0a5,5,0,0,1,10,0v0a5,5,0,0,1-10,0Zm8.22,0v0a3.26,3.26,0,0,0-3.25-3.38,3.21,3.21,0,0,0-3.21,3.35v0a3.25,3.25,0,0,0,3.24,3.38A3.21,3.21,0,0,0,157.67,164.92Z" transform="translate(-3 -66.65)"/><path class="cls-4" d="M162.55,160.12h3.76c2.24,0,3.63,1.26,3.63,3.19v0c0,2.15-1.72,3.27-3.82,3.27h-1.89v3.06h-1.68Zm3.63,5c1.27,0,2.06-.71,2.06-1.7v0c0-1.12-.81-1.71-2.06-1.71h-2v3.44Z" transform="translate(-3 -66.65)"/><path class="cls-4" d="M172.75,160.12h7.08v1.5h-5.4v2.48h4.79v1.51h-4.79v2.55h5.47v1.5h-7.15Z" transform="translate(-3 -66.65)"/><path class="cls-4" d="M183,160.12h1.55l5.12,6.6v-6.6h1.65v9.54h-1.41l-5.26-6.79v6.79H183Z" transform="translate(-3 -66.65)"/><path class="cls-2" d="M199.38,168.16l1.18-1.1a3.11,3.11,0,0,0,2.51,1.25,1.5,1.5,0,0,0,1.65-1.44v0c0-.94-.86-1.47-2.2-1.47h-.78l-.27-1.05,2.58-2.74h-4.13v-1.46h6.31v1.25l-2.66,2.73c1.45.18,2.81.91,2.81,2.67v0a3.06,3.06,0,0,1-3.34,3A4.58,4.58,0,0,1,199.38,168.16Z" transform="translate(-3 -66.65)"/><path class="cls-2" d="M209.54,160.12h3.56a4.76,4.76,0,0,1,5.08,4.74v0a4.78,4.78,0,0,1-5.08,4.77h-3.56Zm1.68,1.52v6.5h1.88a3.11,3.11,0,0,0,3.32-3.22v0a3.14,3.14,0,0,0-3.32-3.25Z" transform="translate(-3 -66.65)"/><path class="cls-2" d="M226.48,160.12h7.08v1.5h-5.4v2.48H233v1.51h-4.79v2.55h5.47v1.5h-7.15Z" transform="translate(-3 -66.65)"/><path class="cls-2" d="M236.71,160.12h1.55l5.12,6.6v-6.6H245v9.54h-1.41l-5.26-6.79v6.79h-1.65Z" transform="translate(-3 -66.65)"/><path class="cls-2" d="M248.15,164.92v0a4.87,4.87,0,0,1,4.92-4.94,5.16,5.16,0,0,1,3.67,1.3l-1.06,1.27a3.77,3.77,0,0,0-2.67-1,3.21,3.21,0,0,0-3.1,3.35v0a3.19,3.19,0,0,0,3.25,3.41,3.93,3.93,0,0,0,2.3-.72V165.8H253v-1.47h4.06v4a6.05,6.05,0,0,1-4,1.49A4.74,4.74,0,0,1,248.15,164.92Z" transform="translate(-3 -66.65)"/><path class="cls-2" d="M260.45,160.12h1.68v9.54h-1.68Z" transform="translate(-3 -66.65)"/><path class="cls-2" d="M265.77,160.12h1.55l5.12,6.6v-6.6h1.65v9.54h-1.41l-5.26-6.79v6.79h-1.65Z" transform="translate(-3 -66.65)"/><path class="cls-2" d="M277.63,160.12h7.08v1.5h-5.4v2.48h4.79v1.51h-4.79v2.55h5.47v1.5h-7.15Z" transform="translate(-3 -66.65)"/><path class="cls-4" d="M293,160.12h7.11v1.52h-5.43v2.61h4.82v1.53h-4.82v3.88H293Z" transform="translate(-3 -66.65)"/><path class="cls-4" d="M302.58,164.92v0a5,5,0,0,1,10,0v0a5,5,0,0,1-10,0Zm8.22,0v0a3.26,3.26,0,0,0-3.25-3.38,3.21,3.21,0,0,0-3.21,3.35v0a3.25,3.25,0,0,0,3.24,3.38A3.21,3.21,0,0,0,310.8,164.92Z" transform="translate(-3 -66.65)"/><path class="cls-4" d="M315.53,165.61v-5.49h1.68v5.42c0,1.78.91,2.72,2.41,2.72s2.4-.89,2.4-2.65v-5.49h1.68v5.41c0,2.85-1.61,4.28-4.1,4.28S315.53,168.38,315.53,165.61Z" transform="translate(-3 -66.65)"/><path class="cls-4" d="M327.09,160.12h1.56l5.11,6.6v-6.6h1.65v9.54H334l-5.27-6.79v6.79h-1.65Z" transform="translate(-3 -66.65)"/><path class="cls-4" d="M339,160.12h3.56a4.75,4.75,0,0,1,5.07,4.74v0a4.77,4.77,0,0,1-5.07,4.77H339Zm1.68,1.52v6.5h1.88a3.11,3.11,0,0,0,3.31-3.22v0a3.13,3.13,0,0,0-3.31-3.25Z" transform="translate(-3 -66.65)"/><path class="cls-4" d="M353.43,160.05H355l4.2,9.61h-1.77l-1-2.3h-4.51l-1,2.3h-1.72Zm2.4,5.82-1.65-3.82-1.64,3.82Z" transform="translate(-3 -66.65)"/><path class="cls-4" d="M363,161.67h-3v-1.55h7.76v1.55h-3v8H363Z" transform="translate(-3 -66.65)"/><path class="cls-4" d="M370.68,160.12h1.68v9.54h-1.68Z" transform="translate(-3 -66.65)"/><path class="cls-4" d="M375.57,164.92v0a5,5,0,0,1,10,0v0a5,5,0,0,1-10,0Zm8.23,0v0a3.26,3.26,0,0,0-3.25-3.38,3.22,3.22,0,0,0-3.22,3.35v0a3.26,3.26,0,0,0,3.25,3.38A3.21,3.21,0,0,0,383.8,164.92Z" transform="translate(-3 -66.65)"/><path class="cls-4" d="M388.68,160.12h1.55l5.12,6.6v-6.6H397v9.54h-1.41l-5.26-6.79v6.79h-1.65Z" transform="translate(-3 -66.65)"/></svg>