<svg id="Layer_1" data-name="Layer 1" xmlns="http://www.w3.org/2000/svg" viewBox="0 0 397 397"><defs><style>.cls-1{opacity:0.3;}.cls-2{fill:#fdba12;}.cls-3{fill:#fff;}</style></defs><g class="cls-1"><circle class="cls-2" cx="198.5" cy="198.5" r="193.5"/></g><rect class="cls-2" x="305.14154" y="248.49472" width="53.32077" height="6.6521"/><rect class="cls-2" x="141.88782" y="38.60698" width="6.6521" height="53.0436"/><path class="cls-2" d="M253.20663,361.7537H35.24628V143.828L143.828,35.24627H361.85766V253.172ZM41.86374,355.10161H250.43491l104.6667-104.66673V41.89839H146.59973L41.933,146.56509Z"/><rect class="cls-2" x="16.48114" y="301.82483" width="150.78102" height="6.6521" transform="translate(-188.86567 154.33969) rotate(-45)"/><path class="cls-3" d="M308.46759,308.15576H88.56706V88.28989H308.46759Zm-213.387-6.6521H301.81549V94.942H95.08058Z"/><rect class="cls-3" x="141.88782" y="91.61594" width="6.6521" height="213.2138"/><rect class="cls-3" x="195.17395" y="91.61594" width="6.6521" height="213.2138"/><rect class="cls-3" x="248.49472" y="91.61594" width="6.6521" height="213.2138"/><rect class="cls-3" x="91.89311" y="141.61066" width="213.24843" height="6.6521"/><rect class="cls-3" x="91.89311" y="194.89679" width="213.24843" height="6.6521"/><rect class="cls-3" x="91.89311" y="248.21754" width="213.24843" height="6.6521"/><polygon class="cls-2" points="255.147 358.428 248.495 358.428 248.495 148.54 38.607 148.54 38.607 141.888 255.147 141.888 255.147 358.428"/><rect class="cls-2" x="229.75499" y="88.57588" width="150.78101" height="6.6521" transform="translate(24.41689 242.73689) rotate(-45.01)"/></svg>