<svg id="Layer_1" data-name="Layer 1" xmlns="http://www.w3.org/2000/svg" viewBox="0 0 440.90633 153.64917"><path d="M141.43,40.62033a56.98224,56.98224,0,0,0-40.57435-17.19062l-.28071-.00086a57.12634,57.12634,0,0,0-15.86778,2.24909V46.81339a37.36814,37.36814,0,0,1,15.53733-3.55586c.14685-.00175.29242-.00265.439-.00265a36.94848,36.94848,0,0,1,26.04379,10.68644,37.35709,37.35709,0,0,1,.32556,53.2439v-.00043a37.16326,37.16326,0,0,1-26.3865,11.05621l-.1062.00043A37.49691,37.49691,0,0,1,65.57658,67.23578H44.868a57.331,57.331,0,0,0,55.45885,70.80754l.27149.00043h.00378A57.28794,57.28794,0,0,0,141.43,40.62033Z"/><path d="M237.1014,49.99279A26.22736,26.22736,0,0,1,230.774,67.75537q-6.32863,7.31849-17.76258,10.06292v.45741q13.49346,1.67889,20.43078,8.19518,6.93612,6.518,6.93732,17.572,0,16.08717-11.66384,25.043-11.66385,8.95839-33.31437,8.95753-18.14418,0-32.17085-6.02251v-20.0496a72.618,72.618,0,0,0,14.2558,5.33639,59.98672,59.98672,0,0,0,15.39932,2.05833q11.66385,0,17.22894-3.96418,5.56391-3.96332,5.5651-12.73112,0-7.85127-6.40367-11.1302-6.40368-3.27721-20.43078-3.27807h-8.462V70.19487h8.61447q12.95938,0,18.94421-3.39242,5.98395-3.39156,5.98438-11.62573,0-12.654-15.85672-12.65488a36.28551,36.28551,0,0,0-11.16832,1.82962,54.58157,54.58157,0,0,0-12.61676,6.32744L163.38289,34.441q15.24642-10.97773,36.36373-10.97773,17.30475,0,27.33,7.01355Q237.10022,37.49125,237.1014,49.99279Z"/><path d="M345.09479,79.72415q0,27.5223-15.66613,42.15754-15.66615,14.637-45.245,14.637h-31.561V25.0642h34.99152q27.29067,0,42.38624,14.40827Q345.09479,53.88073,345.09479,79.72415Zm-24.54742.60987q0-35.90632-31.71345-35.90633H276.25527v72.575h10.13915Q320.54618,117.0027,320.54737,80.334Z"/><rect x="45.00692" y="25.66975" width="27.54675" height="27.54675"/><rect x="22.40887" y="14.88257" width="11.38857" height="11.38857"/><rect x="15.7929" y="42.62336" width="17.86762" height="17.86762"/><path d="M421.63905,136.39549H357.338V24.74714h64.30108V44.1443H381.01191V68.65814h37.80171V88.0553H381.01191v28.79032h40.62714Z"/></svg>