<svg id="Layer_1" data-name="Layer 1" xmlns="http://www.w3.org/2000/svg" viewBox="0 0 491.44087 160.74386"><path d="M235.52888,31.17875a34.34354,34.34354,0,0,1,18.158,18.158,33.02624,33.02624,0,0,1,2.686,13.246v1.112a33.65947,33.65947,0,0,1-2.686,13.339,32.83905,32.83905,0,0,1-7.502,10.932,35.32443,35.32443,0,0,1,7.502,11.025,33.48662,33.48662,0,0,1,2.686,13.433v.925a33.01469,33.01469,0,0,1-2.686,13.248,34.36763,34.36763,0,0,1-18.158,18.159,32.99242,32.99242,0,0,1-13.246,2.686h-29.646a32.9785,32.9785,0,0,1-13.246-2.686,34.35864,34.35864,0,0,1-18.158-18.159,32.98094,32.98094,0,0,1-2.686-13.248v-9.819h19.454v9.744a13.9,13.9,0,0,0,4.354,10.209,14.11052,14.11052,0,0,0,10.282,4.32h29.646a14.66467,14.66467,0,0,0,14.636-14.55v-.92a14.00378,14.00378,0,0,0-4.261-10.312,14.17326,14.17326,0,0,0-10.375-4.235h-28.903v-19.639h28.903a14.66117,14.66117,0,0,0,14.636-14.548v-1.105a13.79124,13.79124,0,0,0-4.261-10.127,14.16936,14.16936,0,0,0-10.375-4.23505h-29.646a14.21769,14.21769,0,0,0-10.282,4.26,13.76211,13.76211,0,0,0-4.354,10.191v9.81995h-19.454V62.5828a32.99245,32.99245,0,0,1,2.686-13.246,34.33457,34.33457,0,0,1,18.158-18.158,33.014,33.014,0,0,1,13.246-2.68695h29.646a33.02794,33.02794,0,0,1,13.246,2.68695"/><path d="M139.27838,49.8906a35.20457,35.20457,0,0,0-18.621-18.619,33.76323,33.76323,0,0,0-13.617-2.779h-33.408v19.639h33.408a15.1684,15.1684,0,0,1,15.376,15.342v48.8a15.11482,15.11482,0,0,1-4.445,10.999,14.71969,14.71969,0,0,1-10.931,4.53h-45.209a15.48055,15.48055,0,0,1-15.563-15.529v-34.277h-19.455v34.427a33.79446,33.79446,0,0,0,2.779,13.618,35.19926,35.19926,0,0,0,18.622,18.62,33.77049,33.77049,0,0,0,13.617,2.78h45.209a33.781,33.781,0,0,0,13.617-2.78,35.21108,35.21108,0,0,0,18.621-18.62,33.77841,33.77841,0,0,0,2.78-13.618v-48.913a33.78823,33.78823,0,0,0-2.78-13.62006"/><path d="M67.19017,57.8452a3.66917,3.66917,0,0,1-1.061,2.65405,3.48918,3.48918,0,0,1-2.607,1.093h-10.784a3.56338,3.56338,0,0,1-2.63-1.093,3.62887,3.62887,0,0,1-1.083-2.65405v-11.774a3.5564,3.5564,0,0,1,1.083-2.631,3.60162,3.60162,0,0,1,2.63-1.071h10.784a3.526,3.526,0,0,1,2.607,1.071,3.59526,3.59526,0,0,1,1.061,2.631Z"/><path d="M42.18183,66.56118a4.58339,4.58339,0,0,1-1.325,3.317,4.36379,4.36379,0,0,1-3.26,1.367h-13.48a4.45368,4.45368,0,0,1-3.288-1.367,4.53644,4.53644,0,0,1-1.353-3.317V51.8442a4.44508,4.44508,0,0,1,1.353-3.289,4.505,4.505,0,0,1,3.288-1.338h13.48a4.41321,4.41321,0,0,1,3.26,1.338,4.49034,4.49034,0,0,1,1.325,3.289Z"/><path d="M63.7147,29.9218a5.73292,5.73292,0,0,1-1.657,4.147,5.45622,5.45622,0,0,1-4.074,1.707h-16.851a5.56249,5.56249,0,0,1-4.108-1.707,5.66831,5.66831,0,0,1-1.692-4.147v-18.396a5.54939,5.54939,0,0,1,1.692-4.111,5.6214,5.6214,0,0,1,4.108-1.674h16.851a5.51311,5.51311,0,0,1,4.074,1.674,5.61162,5.61162,0,0,1,1.657,4.111Z"/><path d="M28.60548,36.78981a3.66989,3.66989,0,0,1-1.06,2.654,3.49228,3.49228,0,0,1-2.607,1.093h-10.785a3.56337,3.56337,0,0,1-2.63-1.093,3.62955,3.62955,0,0,1-1.082-2.654v-11.774a3.55552,3.55552,0,0,1,1.082-2.631,3.60163,3.60163,0,0,1,2.63-1.071h10.785a3.52916,3.52916,0,0,1,2.607,1.071,3.5944,3.5944,0,0,1,1.06,2.631Z"/><path d="M366.61466,38.86816a35.7595,35.7595,0,0,0-11.303-7.596,34.41483,34.41483,0,0,0-13.711-2.78h-68.368v118.949h68.368a34.46557,34.46557,0,0,0,13.711-2.779,35.376,35.376,0,0,0,18.899-18.899,34.44618,34.44618,0,0,0,2.78-13.711v-48.173a34.47436,34.47436,0,0,0-2.78-13.711A35.712,35.712,0,0,0,366.61466,38.86816Zm-9.266,73.07306a15.75361,15.75361,0,0,1-1.203,6.178,15.388,15.388,0,0,1-3.335,4.981,16.8269,16.8269,0,0,1-5.004,3.411,14.9232,14.9232,0,0,1-6.206,1.291h-48.913v-79.671h48.913a14.95554,14.95554,0,0,1,6.206,1.292,16.8507,16.8507,0,0,1,5.004,3.413,15.40691,15.40691,0,0,1,3.335,4.978,15.769,15.769,0,0,1,1.203,6.179Z"/><polyline points="393.85 147.246 478.338 147.246 478.338 127.607 413.305 127.607 413.305 97.787 467.034 97.787 467.034 97.59 467.221 97.59 467.221 77.951 413.305 77.951 413.118 77.951 413.118 48.131 478.151 48.131 478.151 28.492 393.663 28.492 393.663 78.148"/></svg>