<?xml version="1.0" encoding="utf-8"?>
<!-- Generator: Adobe Illustrator 26.2.1, SVG Export Plug-In . SVG Version: 6.00 Build 0)  -->
<svg version="1.1" id="Layer_1" xmlns="http://www.w3.org/2000/svg" xmlns:xlink="http://www.w3.org/1999/xlink" x="0px" y="0px"
	 width="512px" height="512px" viewBox="0 0 512 512" style="enable-background:new 0 0 512 512;" xml:space="preserve">
<style type="text/css">
	.st0{fill:url(#SVGID_1_);}
	.st1{fill:#FFFFFF;}
</style>
<g>
	
		<linearGradient id="SVGID_1_" gradientUnits="userSpaceOnUse" x1="-403.8798" y1="28.5948" x2="39.1241" y2="471.5987" gradientTransform="matrix(-1 0 0 -1 79.5254 512)">
		<stop  offset="0" style="stop-color:#0F3876"/>
		<stop  offset="1" style="stop-color:#1E70EB"/>
	</linearGradient>
	<path class="st0" d="M89.8,0h332.4C471.6,0,512,40.4,512,89.8v332.4c0,49.4-40.4,89.8-89.8,89.8H89.8C40.4,512,0,471.6,0,422.2
		V89.8C0,40.4,40.4,0,89.8,0z"/>
	<g>
		<g>
			<path id="Gem_O_00000049907229645578492320000012693177719891827601_" class="st1" d="M460.9,256c0-7-0.4-14.2-1.1-21.4l0,0l0,0
				c-3-28.8-11.8-56-26.3-81h0l0,0c-14.3-24.7-34-46.5-57-63.3l0,0l0,0l0,0l0,0c-23.4-17-49.6-28.7-77.8-34.7l0,0l0,0
				c-27.9-5.9-57.3-5.9-85.2,0l0,0l0,0c-28.2,6-54.4,17.6-77.8,34.7l0,0l0,0c-23,16.8-42.7,38.6-57,63.3l0,0h0
				c-14.5,25-23.3,52.3-26.3,81l0,0l0,0l0,0c-0.7,7.2-1.1,14.4-1.1,21.4c0,21.6,3.4,42.9,10,63.3l0,0l0,0
				c8.9,27.4,23.3,52.2,42.6,73.8l0,0l0,0c19.4,21.5,42.5,38.4,68.9,50.1l0,0l0,0c26.3,11.7,54.4,17.7,83.4,17.7
				c29,0,57-5.9,83.4-17.7l0,0l0,0c26.4-11.8,49.5-28.6,68.9-50.1l0,0l0,0c19.4-21.5,33.7-46.3,42.6-73.8l0,0l0,0
				C457.5,298.9,460.9,277.6,460.9,256z M453.2,230l-49.4-22l27.1-46.9C442.5,182.6,450,205.7,453.2,230z M364.2,256
				c0,59.8-48.4,108.2-108.2,108.2S147.8,315.8,147.8,256S196.2,147.8,256,147.8S364.2,196.2,364.2,256z M101.8,256
				c0,3.1,0.1,6.2,0.3,9.2l-40.9-29.7l46.1-20.5C103.7,228,101.8,241.8,101.8,256z M119.1,327l-49.4-10.5l33.8-37.5
				C106.1,296.1,111.4,312.2,119.1,327z M408.5,279l33.8,37.5L392.9,327C400.6,312.2,406,296.1,408.5,279z M404.7,215l46.1,20.5
				l-40.9,29.7c0.2-3.1,0.3-6.1,0.3-9.2C410.2,241.8,408.3,228,404.7,215z M400.4,201.8c-6-16-14.6-30.8-25.3-43.7h24.3h26.3
				L400.4,201.8z M374,127.5l3.1-29.3c19.2,14.7,35.8,33.2,48.4,53.8l-54.1,0L374,127.5z M368.3,124.2l-2.5,23.5
				c-11.8-12-25.6-22.1-40.9-29.7l19.9-8.9l26.2-11.7L368.3,124.2z M368.6,92L343,103.5l-23.8,10.6l-0.7-2.1l-16-49.4
				C326.2,68.2,348.4,78.1,368.6,92z M312.3,112.4c-15.4-6.1-32-9.7-49.4-10.5l33.8-37.6L312.3,112.4z M292.2,60.4L256,100.6
				l-36.2-40.2C243.6,56,268.4,56,292.2,60.4z M215.3,64.4l33.8,37.6c-17.4,0.8-34,4.4-49.4,10.5L215.3,64.4z M209.5,62.6
				l-16.2,50.1l-0.5,1.4l-0.5-0.2L143.4,92C163.6,78.1,185.8,68.2,209.5,62.6z M169.5,110.3L187,118c-15.2,7.6-29,17.7-40.9,29.7
				l-1.9-17.9l-3.4-32.4L169.5,110.3z M134.9,98.2l5.7,53.8H86.4C99.1,131.4,115.7,113,134.9,98.2z M136.9,158
				c-10.7,13-19.3,27.7-25.3,43.7L86.4,158H136.9z M81.2,161.1l27.1,46.9l0,0l-49.4,22C62,205.7,69.5,182.6,81.2,161.1z M57.1,256
				c0-5.1,0.2-10.3,0.6-15.6l2.5,1.8l41.3,30l-36.2,40.2C59.8,294.2,57.1,275.2,57.1,256z M68.5,322.4l53,11.2l-16.7,51.5
				C88.8,366.5,76.6,345.5,68.5,322.4z M110.4,387.1l15.6-48c9.2,14.3,20.6,27,33.8,37.5L110.4,387.1z M111.8,392.9l52.9-11.2
				l5.6,53.8C148.3,425,128.6,410.7,111.8,392.9z M171,384.7c14,9.2,29.5,16.3,46.1,20.6l-40.8,29.7L171,384.7z M179.9,439.8
				l43.8-31.8l4.4,7.7l22.6,39.2C226.2,454.2,202.4,449.1,179.9,439.8z M230.7,408.1c8.2,1.4,16.7,2.1,25.3,2.1
				c8.6,0,17-0.7,25.3-2.1L256,451.9L230.7,408.1z M261.2,454.8l4.4-7.7l22.6-39.2l43.8,31.8C309.6,449.1,285.8,454.2,261.2,454.8z
				 M335.7,434.9l-40.8-29.7c16.6-4.3,32.2-11.3,46.1-20.6L335.7,434.9z M341.7,435.5l5.6-53.8l52.9,11.2
				C383.4,410.7,363.7,425,341.7,435.5z M352.1,376.6c13.2-10.6,24.7-23.2,33.8-37.5l15.6,48L352.1,376.6z M407.3,385.1l-16.7-51.5
				l53-11.2C435.4,345.5,423.2,366.5,407.3,385.1z M446.8,312.4l-36.2-40.2l43.8-31.8c0.4,5.2,0.6,10.5,0.6,15.6
				C454.9,275.2,452.2,294.2,446.8,312.4z"/>
		</g>
	</g>
</g>
</svg>
