<svg id="Layer_1" data-name="Layer 1" xmlns="http://www.w3.org/2000/svg" viewBox="0 0 195 195"><defs><style>.cls-1{fill:#410099;}</style></defs><path class="cls-1" d="M160.46531,10.01553H31.79831a22.399,22.399,0,0,0-22.333,22.334v128.666a22.399,22.399,0,0,0,22.333,22.334h128.667a22.399,22.399,0,0,0,22.333-22.334V32.34951A22.399,22.399,0,0,0,160.46531,10.01553ZM87.07206,66.1625v11.774a3.66908,3.66908,0,0,1-1.061,2.654,3.48912,3.48912,0,0,1-2.607,1.093H72.62a3.56343,3.56343,0,0,1-2.63-1.093,3.62887,3.62887,0,0,1-1.083-2.654V66.1625a3.55639,3.55639,0,0,1,1.083-2.631,3.60167,3.60167,0,0,1,2.63-1.071H83.404a3.52592,3.52592,0,0,1,2.607,1.071A3.59518,3.59518,0,0,1,87.07206,66.1625ZM55.21457,31.61709a5.5493,5.5493,0,0,1,1.692-4.111,5.62131,5.62131,0,0,1,4.108-1.674h16.851a5.513,5.513,0,0,1,4.074,1.674,5.61149,5.61149,0,0,1,1.657,4.111v18.396a5.73278,5.73278,0,0,1-1.657,4.147,5.45609,5.45609,0,0,1-4.074,1.707h-16.851a5.56237,5.56237,0,0,1-4.108-1.707,5.6682,5.6682,0,0,1-1.692-4.147Zm-23.8092,27.918a3.62964,3.62964,0,0,1-1.082-2.654v-11.774a3.55562,3.55562,0,0,1,1.082-2.631,3.60159,3.60159,0,0,1,2.63-1.071h10.785a3.5291,3.5291,0,0,1,2.607,1.071,3.59429,3.59429,0,0,1,1.06,2.631v11.774a3.66975,3.66975,0,0,1-1.06,2.654,3.49224,3.49224,0,0,1-2.607,1.093h-10.785A3.56335,3.56335,0,0,1,31.40537,59.53512Zm9.3053,30.43439a4.53649,4.53649,0,0,1-1.353-3.317v-14.717a4.44513,4.44513,0,0,1,1.353-3.289,4.505,4.505,0,0,1,3.288-1.338h13.48a4.41325,4.41325,0,0,1,3.26,1.338,4.4902,4.4902,0,0,1,1.325,3.289v14.717a4.58324,4.58324,0,0,1-1.325,3.317,4.36383,4.36383,0,0,1-3.26,1.367h-13.48A4.45374,4.45374,0,0,1,40.71067,89.96951Zm121.22961,42.54541a33.7781,33.7781,0,0,1-2.78,13.618,35.21136,35.21136,0,0,1-18.621,18.62,33.78037,33.78037,0,0,1-13.617,2.78H81.71323a33.77,33.77,0,0,1-13.617-2.78,35.19932,35.19932,0,0,1-18.622-18.62,33.79379,33.79379,0,0,1-2.779-13.618v-34.427H66.15024v34.277a15.48053,15.48053,0,0,0,15.563,15.529h45.20905a14.71972,14.71972,0,0,0,10.931-4.53,15.115,15.115,0,0,0,4.445-10.999v-48.8a15.16837,15.16837,0,0,0-15.376-15.342h-33.408V48.584h33.408a33.76328,33.76328,0,0,1,13.617,2.779,35.20483,35.20483,0,0,1,18.621,18.619,33.7877,33.7877,0,0,1,2.78,13.62005Z"/></svg>