<svg id="Layer_1" data-name="Layer 1" xmlns="http://www.w3.org/2000/svg" viewBox="0 0 400 400"><defs><style>.cls-1{fill:#fff;}.cls-2{fill:#1e70eb;}</style></defs><path class="cls-1" d="M342.40642,106.31828A149.94866,149.94866,0,0,0,235.63513,61.08121l-.73868-.00226a150.32749,150.32749,0,0,0-41.756,5.91848v55.61788a98.33352,98.33352,0,0,1,40.88644-9.35724c.38644-.00462.76948-.007,1.15535-.007a97.22976,97.22976,0,0,1,68.53415,28.12136,98.305,98.305,0,0,1,.8567,140.11113v-.00113a97.795,97.795,0,0,1-69.436,29.09439l-.27947.00113A98.673,98.673,0,0,1,142.7985,176.35675H88.30405A150.86642,150.86642,0,0,0,234.24386,362.68656l.71442.00113h.00993A150.753,150.753,0,0,0,342.40642,106.31828Z"/><rect class="cls-1" x="88.66949" y="66.97588" width="72.48917" height="72.48917"/><rect class="cls-1" x="29.20279" y="38.58946" width="29.96897" height="29.96897"/><rect class="cls-1" x="11.7929" y="111.58924" width="47.01858" height="47.01858"/><path class="cls-2" d="M284.39269,9.28591H115.60731c-58.47679,0-106.32143,47.84464-106.32143,106.32143V284.39266c0,58.47679,47.84464,106.32143,106.32143,106.32143H284.39269c58.47679,0,106.32143-47.84464,106.32143-106.32143V115.60734C390.71412,57.13055,342.86948,9.28591,284.39269,9.28591ZM109.40155,106.09815h47.88216v47.88216H109.40155ZM89.67907,166.62492H58.62136V135.56715H89.67907Zm.238-59.48146H70.12131V87.34771h19.7958ZM277.65746,270.66788a98.76729,98.76729,0,0,1-70.02469,28.94472h-.00655l-.47189-.00071a99.65364,99.65364,0,0,1-96.3994-123.07869h35.99586a65.23324,65.23324,0,0,0,60.80894,88.65873l.1846-.00071a64.59793,64.59793,0,0,0,45.86539-19.21807v.00076a65.13082,65.13082,0,0,0-45.83554-111.12466c-.25492,0-.50794.00153-.76315.0046a64.95431,64.95431,0,0,0-27.00724,6.18086V104.29676a99.29767,99.29767,0,0,1,27.58161-3.90942l.48794.00148a99.57147,99.57147,0,0,1,69.58412,170.27906Z"/></svg>