<svg id="Layer_1" data-name="Layer 1" xmlns="http://www.w3.org/2000/svg" viewBox="0 0 195 195"><defs><style>.cls-1{fill:#410099;}</style></defs><path class="cls-1" d="M177.23777,62.15183a45.577,45.577,0,0,0-24.10733-24.10469,43.71088,43.71088,0,0,0-17.629-3.59777H92.25039V59.87461h43.25105A19.63749,19.63749,0,0,1,155.4077,79.73682v63.178a19.56812,19.56812,0,0,1-5.75465,14.23964,19.05659,19.05659,0,0,1-14.15161,5.86468h-58.529a20.04161,20.04161,0,0,1-20.14835-20.10432V98.53876h-25.187V143.109a43.75137,43.75137,0,0,0,3.59778,17.63026,45.57008,45.57008,0,0,0,24.10862,24.10607,43.72016,43.72016,0,0,0,17.629,3.59907h58.529a43.73371,43.73371,0,0,0,17.629-3.59907,45.58539,45.58539,0,0,0,24.10733-24.10607,43.73065,43.73065,0,0,0,3.59907-17.63026V79.78478a43.74327,43.74327,0,0,0-3.59907-17.63295"/><path class="cls-1" d="M83.91012,72.4501a4.75024,4.75024,0,0,1-1.37361,3.436,4.5172,4.5172,0,0,1-3.37511,1.415H65.2001a4.61326,4.61326,0,0,1-3.40488-1.415,4.69806,4.69806,0,0,1-1.40208-3.436v-15.243A4.60427,4.60427,0,0,1,61.79522,53.801a4.66281,4.66281,0,0,1,3.40488-1.38653H79.1614A4.56489,4.56489,0,0,1,82.53651,53.801a4.6546,4.6546,0,0,1,1.37361,3.40616Z"/><path class="cls-1" d="M51.53353,83.73408a5.93377,5.93377,0,0,1-1.7154,4.29432,5.6495,5.6495,0,0,1-4.2205,1.76976H28.146a5.76587,5.76587,0,0,1-4.25675-1.76976,5.873,5.873,0,0,1-1.75164-4.29432V64.681A5.75474,5.75474,0,0,1,23.88926,60.423,5.83231,5.83231,0,0,1,28.146,58.69074H45.59763a5.71353,5.71353,0,0,1,4.2205,1.73223,5.81333,5.81333,0,0,1,1.7154,4.25805Z"/><path class="cls-1" d="M79.41065,36.2996a7.422,7.422,0,0,1-2.14521,5.36888,7.06373,7.06373,0,0,1-5.27432,2.20989H50.17529a7.20137,7.20137,0,0,1-5.31835-2.20989,7.33837,7.33837,0,0,1-2.19052-5.36888v-23.816a7.18444,7.18444,0,0,1,2.19052-5.32218,7.27767,7.27767,0,0,1,5.31835-2.16722H71.99112a7.13741,7.13741,0,0,1,5.27432,2.16722,7.265,7.265,0,0,1,2.14521,5.32218Z"/><path class="cls-1" d="M33.95717,45.19113a4.75114,4.75114,0,0,1-1.37232,3.436,4.5212,4.5212,0,0,1-3.3751,1.415H15.24715a4.61326,4.61326,0,0,1-3.40488-1.415,4.699,4.699,0,0,1-1.40079-3.436v-15.243A4.60313,4.60313,0,0,1,11.84227,26.542a4.66281,4.66281,0,0,1,3.40488-1.38653h13.9626a4.569,4.569,0,0,1,3.3751,1.38653,4.65344,4.65344,0,0,1,1.37232,3.40615Z"/></svg>