<?xml version="1.0" encoding="UTF-8"?><svg id="a" xmlns="http://www.w3.org/2000/svg" viewBox="0 0 512 512"><defs><style>.c{fill:#fff;}</style></defs><path id="b" class="c" d="M512,255.99c0-8.75-.47-17.75-1.41-26.75h-.03l.03-.03c-3.74-35.92-14.8-69.98-32.88-101.21h-.03l.02-.03c-17.83-30.8-42.46-58.15-71.22-79.08h0c-29.25-21.29-61.96-35.87-97.24-43.34h-.01c-34.85-7.38-71.6-7.38-106.45,0h-.01c-35.27,7.47-67.98,22.05-97.23,43.33h0c-28.76,20.94-53.39,48.29-71.22,79.09v.03h-.01C16.21,159.23,5.15,193.28,1.41,229.21h0v.03h-.01c-.94,9-1.41,18-1.41,26.75,0,26.99,4.2,53.61,12.48,79.11h.02v.02c11.12,34.27,29.04,65.28,53.26,92.16h0c24.2,26.86,53.16,47.93,86.08,62.61h.02c32.87,14.67,67.91,22.1,104.14,22.1s71.26-7.43,104.14-22.09v-.02h.02c32.92-14.67,61.88-35.74,86.08-62.59h0c24.21-26.89,42.14-57.89,53.27-92.16h-.01l.02-.02c8.28-25.5,12.48-52.12,12.48-79.11Zm-9.64-32.51l-61.76-27.48,33.81-58.55c14.61,26.83,23.99,55.71,27.94,86.03Zm-121.45,32.51c0,68.99-55.92,124.91-124.91,124.91s-124.91-55.92-124.91-124.91,55.92-124.91,124.91-124.91,124.91,55.92,124.91,124.91Zm-317.58,0c0,3.87,.13,7.72,.35,11.53L12.6,230.4l57.63-25.66c-4.49,16.32-6.9,33.5-6.9,51.24Zm21.62,88.75l-61.72-13.12,42.23-46.9c3.19,21.35,9.89,41.56,19.49,60.02Zm361.58-60.02l42.23,46.9-61.72,13.12c9.6-18.46,16.29-38.66,19.49-60.02Zm-4.77-79.97l57.64,25.66-51.08,37.12c.23-3.82,.35-7.66,.35-11.53,0-17.75-2.41-34.93-6.9-51.25Zm-5.36-16.49c-7.51-20-18.25-38.43-31.59-54.63h63.13l-31.54,54.63Zm-32.94-92.81l3.84-36.55c23.93,18.43,44.68,41.47,60.52,67.21h-67.59l3.22-30.66Zm-7.12-4.06l-3.09,29.42c-14.79-15.01-32.02-27.6-51.05-37.14l24.85-11.07,32.79-14.6-3.51,33.39Zm.36-40.21l-32.07,14.28-29.69,13.22-.85-2.63-20.03-61.71c29.69,7.1,57.44,19.46,82.65,36.83Zm-70.33,25.42c-19.26-7.56-40.04-12.1-61.75-13.06l42.26-46.93,19.49,59.99Zm-25.14-64.96l-45.23,50.27L210.76,11.62c29.75-5.47,60.73-5.48,90.47,0Zm-96.12,4.97l42.25,46.93c-21.71,.96-42.48,5.5-61.75,13.06l19.49-59.99Zm-7.18-2.26l-20.3,62.55-.58,1.78-.65-.29-61.11-27.21c25.21-17.37,52.95-29.74,82.64-36.83Zm-50.03,59.57l21.89,9.74c-19.03,9.54-36.26,22.13-51.04,37.14l-2.35-22.34-4.25-40.47,35.76,15.92Zm-43.21-15.02l7.06,67.21H44.16c15.84-25.74,36.59-48.78,60.52-67.21Zm2.49,74.73c-13.34,16.21-24.08,34.63-31.59,54.63l-31.54-54.63h63.13Zm-69.6,3.85l33.8,58.55h-.03l-61.71,27.47c3.95-30.31,13.33-59.19,27.94-86.02ZM7.51,255.99c0-6.38,.26-12.89,.77-19.44l3.13,2.28,51.55,37.45-45.28,50.25c-6.75-22.84-10.17-46.53-10.17-70.54Zm14.22,83.01l66.17,14.04-20.89,64.29c-19.91-23.27-35.11-49.57-45.29-78.33Zm52.39,80.75l19.5-60.01c11.43,17.86,25.74,33.7,42.26,46.89l-61.76,13.13Zm1.67,7.32l66.12-14.05,7.04,67.27c-27.54-13.15-52.1-31.01-73.16-53.21Zm74.07-10.28c17.43,11.53,36.85,20.31,57.63,25.7l-51.03,37.07-6.6-62.77Zm11.07,68.83l54.72-39.78,5.56,9.62,28.25,48.93c-30.65-.78-60.37-7.09-88.52-18.77Zm63.52-39.55c10.27,1.69,20.81,2.59,31.55,2.59s21.29-.89,31.56-2.59l-31.56,54.66-31.56-54.66Zm38.11,58.33l5.56-9.63,28.25-48.92,54.71,39.78c-28.15,11.69-57.87,17.99-88.52,18.77Zm92.99-24.83l-51.03-37.07c20.78-5.39,40.19-14.17,57.63-25.7l-6.6,62.78Zm7.5,.72l7.05-67.27,66.12,14.05c-21.06,22.2-45.62,40.06-73.16,53.21Zm13.08-73.66c16.52-13.19,30.82-29.03,42.26-46.89l19.5,60.02-61.76-13.13Zm68.87,10.7l-20.89-64.29,66.17-14.04c-10.18,28.76-25.38,55.06-45.28,78.33Zm49.33-90.8l-45.28-50.25,54.68-39.73c.51,6.55,.77,13.07,.77,19.44,0,24.01-3.42,47.7-10.17,70.54Z"/><g><path class="c" d="M254.05,200.47h43.73c34.75,0,58.86,22.11,58.86,55.54s-24.11,55.37-58.86,55.37h-43.73v-110.9Zm43.56,90.9c22.44,0,35.54-16.15,35.54-35.37s-12.24-35.54-35.54-35.54h-20.57v70.9h20.57Z"/><path class="c" d="M230.96,260.77c-4.25-3.72-10.29-6.25-17.99-7.56,6.39-1.91,11.53-4.93,15.32-9.01,4.47-4.82,6.74-10.74,6.74-17.6,0-8.26-3.6-14.79-10.7-19.42-6.98-4.55-16.58-6.85-28.54-6.85s-23.07,2.52-32.47,7.48c3.67,5.92,6.69,12.29,8.95,19.01,3.84-2.17,7.4-3.76,10.61-4.72,3.78-1.13,7.55-1.71,11.19-1.71,10.33,0,15.35,3.66,15.35,11.18,0,4.92-1.85,8.29-5.65,10.3-3.94,2.08-10.34,3.14-19.01,3.14h-8.4c.43,3.62,.66,7.31,.66,11.04,0,2.72-.13,5.41-.36,8.06h7.94c9.41,0,16.33,1.02,20.57,3.04,4.07,1.94,6.05,5.15,6.05,9.81,0,5.31-1.73,9.04-5.3,11.4-3.64,2.41-9.41,3.64-17.17,3.64-5.12,0-10.36-.65-15.58-1.94-.82-.2-1.62-.42-2.41-.64-2.46,6.28-5.58,12.22-9.29,17.74,8.84,3.01,18.87,4.54,29.87,4.54,14.94,0,26.62-2.94,34.71-8.73,8.2-5.86,12.35-14.17,12.35-24.68,0-7.29-2.5-13.17-7.43-17.49Z"/></g></svg>