<?xml version="1.0" encoding="UTF-8"?>
<svg id="Layer_1" data-name="Layer 1" xmlns="http://www.w3.org/2000/svg" viewBox="0 0 1500 600">
  <defs>
    <style>
      .cls-1 {
        fill: #a3c4f5;
      }

      .cls-2 {
        fill: #d1e0f9;
      }

      .cls-3 {
        fill: #1d70e9;
      }

      .cls-4 {
        fill: #225ae6;
      }

      .cls-5 {
        fill: #4b8bed;
      }

      .cls-6 {
        fill: #77a7f1;
      }
    </style>
  </defs>
  <g>
    <g>
      <path d="m1098.5999756,145.1000061c-35-32.6999969-83-50.0999985-139.4000244-50.0999985h-127.0999756c-9.5,0-17.5,8.0999985-17.5,18v328.7999802c0,9.8999939,8.0999756,18,17.5,18h127.0999756c56.4000244,0,104.5-17.2000122,139.4000244-49.7999878,35.4000244-33,54.0999756-78.7000122,54.0999756-132.2999878-.0999756-53.6000061-18.7999268-99.5000153-54.0999756-132.6000061m-61.4000244,206.5c-19.2000122,20.1000061-46.2000122,30.7000122-78.2000122,30.7000122h-53.2999878c-3.7999878,0-6.7999878-3.1000061-6.7999878-6.7999878v-196.2000275c0-3.8000031,3.0999756-6.8000031,6.7999878-6.8000031h53.3000488c65.4000244,0,106,40.3000031,106,105.2000122,0,28.7999878-9.9000244,55.0999756-27.8000488,73.8999939"/>
      <path d="m1298.0999756,172.5h188.1999512c7.5999756,0,13.6999512-6.1999969,13.6999512-13.6999969v-47c0-9.1999969-7.5-16.6999969-19.0999756-16.6999969h-258.0999756c-7.5,0-15.5999756,8.0999985-15.5999756,18v328.7999878c0,9.8999939,8.0999756,18,15.5999756,18h258.0999756c11.5999756,0,19.0999756-7.5,19.0999756-16.7000122v-47c0-7.6000061-6.0999756-13.7000122-13.6999512-13.7000122h-188.1999512c-3.8000488,0-6.8000488-3.1000061-6.8000488-6.7999878v-53.6999817c0-3.7999878,3.0999756-6.7999878,6.8000488-6.7999878h186c7.5999756,0,13.6999512-6.2000122,13.6999512-13.7000122v-50c0-7.6000061-6.1999512-13.6999969-13.6999512-13.6999969h-186c-3.8000488,0-6.8000488-3.1000061-6.8000488-6.8000031v-51.6000061c-.0999756-3.7999878,3.0001221-6.8999939,6.8000488-6.8999939"/>
      <path d="m736,288.5c-8.0999756-7.2000122-18.0999756-13.2000122-29.9000244-17.7000122-3.4000244-1.2999878-3.7999878-5.8999939-.7000122-7.7000122,8.5999756-5.1000061,16.0999756-11.1999969,22.4000244-18.1999969,15.2999878-16.5,23.0999756-37.8000031,23.0999756-61.6999969,0-28.8999939-12.4000244-51.6999969-37-67.9000015-23.2999878-15.3000031-54.9000244-23-94.0999756-23-35.5999756,0-67.2999878,6.8000031-95.9000244,20.2000046-6.9000244,3.1999969-11,11.5-7.7999878,20,.2999878.6999969.5999756,1.3999939,1,2,7.5999756,13.1999969,14.2000122,27.3999939,19.5999756,42,2.2000122,6,8,10,14.4000244,10,2.4000244,0,4.9000244-.6000061,7.0999756-1.6999969,8.5-4.3999939,16.4000244-7.6999969,23.7000122-9.8000031,11-3.3999939,21.4000244-5.1000061,32.7000122-5.1000061,37.2999878,0,42.0999756,15.6000061,42.0999756,29.1000061,0,13.1999969-4.5999756,22.5-14.4000244,27.8999939-11.5999756,6.1999969-30.7999878,9.3999939-57.0999756,9.3999939h-16.7999878c-1.2000122,0-2.5.1000061-3.5999756.3999939-7.9000244,2-12.4000244,9.3000031-11.7999878,16.6000061.7000122,8.1999969,1.0999756,16.5999908,1.0999756,25.0000153,0,5.1000061-.2000122,10.5-.5,16-.2000122,4.2999878,1.2999878,8.5,4.2000122,11.6000061s7,4.8999939,11.2000122,4.8999939h15.5999756c28.7999878,0,49.7999878,3,62.2999878,9,10.7000122,5.2000122,15.4000244,13,15.4000244,25.5,0,14.7999878-4.4000244,23.8999939-13.7999878,30.2000122-10.4000244,6.8999939-28,10.6000061-50.7999878,10.6000061-15.5999756,0-30.7000122-2-46.7000122-6.1000061-1.2999878-.3999939-2.7000122-.6000061-4.0999756-.6000061-6.2000122,0-11.7000122,3.7000122-14.0999756,9.5-5.5999756,13.3999939-12.2999878,26.6000061-20,39.2000122-2.6000061,4.2000122-3,9.2999878-1.2000122,14,1.7999878,4.6000061,5.7999878,7.8999939,10.5,9.2999878,25.5999756,7.3999939,53.2000122,11.1000061,84,11.1000061,48.7999878,0,87.0999756-9.7999878,113.9000244-29.2000122,27.7999878-20.2000122,41.9000244-47.8999939,41.9000244-83.7999878-.2000732-25.2999878-8.8001099-45.8999939-25.9000854-61"/>
    </g>
    <g>
      <path d="m511.7999878,557.9000244c0-16.7999878,13.2000122-30.0999756,30.2000122-30.0999756,17.0999756,0,30.2000122,13.2999878,30.2000122,30,0,16.5999756-13,29.9000244-30.2999878,29.9000244-17.2000122-.000061-30.1000366-13.2000732-30.1000366-29.8000488Zm47,0c-.0999756-10.0999756-7.5999756-17.2000122-16.7999878-17.2000122-9.2999878,0-16.7999878,7.2999878-16.7999878,17.2000122,0,9.7999878,7.4000244,17.0999756,16.7999878,17.0999756,9.5999756-.0999756,16.9000244-7.2999878,16.7999878-17.0999756Z"/>
      <path d="m648,548.5c0,10.0999756-6.2000122,19.0999756-21.9000244,19.0999756h-8.2999878v19.2000122h-12.9000244v-57.9000244h22.1000366c15.0999756.000061,21,9.6000366,21,19.6000366Zm-13.2000122-.2000122c0-4-2.7999878-7.5-7.7000122-7.5h-9.2999878v15.0999756h8.7999878c5.7000122.000061,8.2000122-3.7999878,8.2000122-7.5999756Z"/>
      <path d="m679.2999878,528.9000244h40.4000244v12.0999756h-27.4000244v10.7000122h25.4000244v12h-25.4000244v11h27.2999878v12.0999756h-40.2999878v-57.8999634Z"/>
      <path d="m803.7999878,528.9000244v57.9000244h-9.2999878l-28.2999878-33.5v33.5h-12.7999878v-57.9000244h8.7999878l28.9000244,33.7999878v-33.7999878h12.6999512Z"/>
      <path d="m877.0999756,582l5.2999878-10.2999878c5.2999878,3.0999756,9.7000122,4.2000122,13.0999756,4.2000122,5.5999756,0,8.5999756-2.7000122,8.5999756-6.2999878s-3.0999756-6.0999756-7.7999878-6.0999756h-7.4000244v-11.5999756h6c5.0999756,0,8-2.5,8-6,0-3.7000122-3.2000122-5.7999878-7.2000122-5.7999878-3.4000244,0-6.5,1.2000122-11.0999756,4.2999878l-6.0999756-9.2999878c4.5999756-4.2000122,11.5999756-7.0999756,18.9000244-7.0999756,10.5,0,18.5999756,6.5,18.5999756,15,0,6.4000244-4.5,11-9.7000122,12.9000244v.2999878c7.4000244,1.5999756,11.4000244,7.5,11.4000244,14.2999878,0,10.2000122-8.7000122,17.2999878-21.2000122,17.2999878-7.2999268-.1000977-13.499939-2.2001343-19.3999634-5.8001099Z"/>
      <path d="m950.5,528.9000244h23.0999756c17.7999878,0,28.2000122,11.2000122,28.2000122,29s-10.7000122,28.9000244-28.5999756,28.9000244h-22.7000122v-57.9000244Zm23.2999878,45.3999634c9.7999878,0,14.7000122-7.7000122,14.7000122-16.5,0-8.9000244-4.9000244-16.5-14.7000122-16.5h-10.2999878v33h10.2999878Z"/>
      <path d="m1077.5,528.9000244h40.4000244v12.0999756h-27.4000244v10.7000122h25.4000244v12h-25.4000244v11h27.3000488v12.0999756h-40.3000488v-57.8999634Z"/>
      <path d="m1202.0999756,528.9000244v57.9000244h-9.3000488l-28.3000488-33.5v33.5h-12.8000488v-57.9000244h8.8000488l28.9000244,33.7999878v-33.7999878h12.7000732Z"/>
      <path d="m1234.6999512,557.9000244c0-17.5999756,13.5999756-30,30.8000488-30,9.6999512,0,18.0999756,3.9000244,23.0999756,9l-8.3000488,9.4000244c-3.8000488-3.5999756-9.0999756-6-14.9000244-6-10.1999512,0-17.5,7.5-17.5,17.4000244,0,9.5999756,6.9000244,17.5999756,17.4000244,17.5999756,5.9000244,0,11.4000244-2.5,14.4000244-5.5v-6.7000122h-14.6999512v-11.1000366h26.5v24.4000244c-7.0999756,7.0999756-16.0999756,11.2999878-26.4000244,11.2999878-17.7999268-.1000366-30.4000244-12.7000122-30.4000244-29.7999878Z"/>
      <path d="m1337.6999512,528.9000244v57.9000244h-13v-57.9000244h13Z"/>
      <path d="m1423.8000488,528.9000244v57.9000244h-9.3000488l-28.3000488-33.5v33.5h-12.8000488v-57.9000244h8.8000488l28.9000244,33.7999878v-33.7999878h12.7000732Z"/>
      <path d="m1459.5999756,528.9000244h40.4000244v12.0999756h-27.4000244v10.7000122h25.4000244v12h-25.4000244v11h27.3000488v12.0999756h-40.3000488v-57.8999634Z"/>
    </g>
  </g>
  <g>
    <path class="cls-3" d="m398.7999878,365.7000122l11.5,35.6000061,11.7000122,35.8999939c22.5-25,39.7999878-54.5,50.5-87.2999878l-36.8999939,7.7999878-36.8000183,8h0Z"/>
    <path class="cls-4" d="m242.1000061,517.5c35,0,68.5-7.5,98.3999939-20.8999939l-30.5-22.3000183-30.2999878-22.1000061-18.7000122,32.5000305-18.8999939,32.7999878"/>
    <path class="cls-4" d="m348.3999939,421.7000122l-3.8999939,37.3999939-3.8999939,37.5c31.1000061-13.8999939,58.7999878-34.2000122,81.3999939-59.2999878l-36.8999939-7.7999878-36.7000122-7.8000183h0Z"/>
    <path class="cls-5" d="m85.5,365.7000122l-36.7999992-7.7999878-36.9000015-7.7999878c10.7000008,32.6000061,28,62.2999878,50.5,87.2999878l11.7000008-35.8999939,11.5-35.8000183h0Z"/>
    <path class="cls-5" d="m422,294.2000122l25.1000061,27.7999878,25.2000122,28.1000061c7.6000061-23.5,11.7999878-48.7999878,11.7999878-74.8999939,0-8.5-.3999939-17-1.2999878-25.3999939l-30.6000061,22.2000122-30.2000122,22.1999817h0Z"/>
    <path class="cls-5" d="m414.1000061,219.3000031l34.2999878,15.3000031,34.5,15.3000031c-3.6000061-34.5999908-14.3999939-67.0999908-31.1000061-95.8000031l-18.8999939,32.6999969-18.7999878,32.5h0Z"/>
    <path class="cls-5" d="m135.8000031,421.7000122l-36.8000031,7.7999878-36.9000015,7.7999878c22.5,25.1000061,50.2999954,45.2999878,81.4000015,59.2999878l-3.8999939-37.5-3.8000031-37.3999634h0Z"/>
    <path class="cls-5" d="m242,517.5l-18.6999969-32.6000061-18.6999969-32.6000061-30.3999939,22.1000061-30.6000061,22.2000122c30.0999908,13.3999939,63.3999939,20.8000183,98.3999939,20.8999939"/>
    <path class="cls-5" d="m279.7999878,452.2000122l30.2999878,22.1000061,30.6000061,22.2000122,3.8999939-37.5,3.8999939-37.3999939c-20.2999573,14.5999756-43.4999695,25.2999573-68.6999817,30.5999756h0Z"/>
    <path class="cls-5" d="m398.7999878,365.7000122c-12.7000122,21.8999939-30,41-50.2999878,55.7999878v.1000061l36.7999878,7.7999878,36.8999939,7.7999878-11.7000122-35.8999939-11.6999817-35.5999756h0Z"/>
    <path class="cls-2" d="m315.7000122,109.8000031l-11.5-35.8000031-11.7000122-35.9000015-25.2000122,28-25.1000061,28c26.2000122.0999985,51.0000305,5.5999985,73.5000305,15.7000046h0Z"/>
    <path class="cls-2" d="m242,94.3000031l-25.1000061-28-25.1999969-28-11.6999969,35.8999939-11.5,35.5999985c22.5-9.8999939,47.3999939-15.4999924,73.5-15.4999924h0Z"/>
    <path class="cls-2" d="m107.6999969,154.1000061c16.9000015-18.8000031,37.5999908-33.9000015,60.8000031-44.3000031l-34.3000031-15.3000031-34.3999939-15.3000031,3.9000015,37.5,3.9999924,37.4000092h0Z"/>
    <path class="cls-2" d="m107.6999969,154.1000061l-37.5-.1000061h-37.7999954l18.9000015,32.6999969,18.6999969,32.4000092c8-24.3000031,21-46.4000092,37.6999969-65Z"/>
    <path class="cls-2" d="m1.3,249.8999939l30.5999997,22.2000122,30.3999996,22.1000061c-.5999985-6.2000122-1-12.5-1-18.8999939,0-19.5,3.2000008-38.3999939,8.7999992-56l-34.2999992,15.3000031L1.3,249.8999939Z"/>
    <path class="cls-1" d="m107.6999969,154.1000061l-3.9000015-37.4000015-3.9000015-37.5c-27.4000015,19.9000015-50.2999992,45.4000015-67.3000031,74.9000015h75.1000061Z"/>
    <path class="cls-1" d="m35.7999992,234.3999939l34.2999992-15.3000031-18.7000008-32.4000092-18.8999977-32.6000061C15.8999996,182.7999725,5,215.2999725,1.3999996,249.8999786l34.3999996-15.4999847h0Z"/>
    <path class="cls-1" d="m168.5,109.8000031l11.5-35.6000061,11.6999969-35.9000015c-33.6999969,7.2000008-65,21.4000015-92,41l34.5,15.3000031,34.3000031,15.2000046h0Z"/>
    <path class="cls-1" d="m242.1000061,94.0999985l25.1000061-27.7999954,25.2000122-28.0999985c-16.2999878-3.5-33-5.2000008-50.3000031-5.2000008s-34.1999969,1.9000015-50.3000031,5.2000008l25.1999969,28.0999985,25.0999908,27.7999954h0Z"/>
    <path class="cls-1" d="m414.1000061,219.3000031l18.7000122-32.4000092,18.8999939-32.6999969h-75.2000122v.1000061c16.7999878,18.3999939,29.7000122,40.5999908,37.6000061,65Z"/>
    <path class="cls-1" d="m315.7000122,109.8000031c23.2000122,10.4000015,44,25.5,60.7999878,44.3000031h.1000061l3.8999939-37.4000015,3.8999939-37.5-34.3999939,15.2999954-34.2999878,15.3000031h0Z"/>
    <path class="cls-1" d="m62.2999992,294.2000122l-25.2000008,27.7999878-25.2000008,28,36.9000015,7.7999878,36.7999992,7.7999878c-12.5-21.3999634-20.6999969-45.5999756-23.2999992-71.3999634h0Z"/>
    <path class="cls-1" d="m135.8000031,421.7000122c-20.5-15-37.5999985-34-50.3000031-56l-11.5,35.6000061-11.7000008,35.8999939,36.8999977-7.7999878,36.6000061-7.7000122h0Z"/>
    <path class="cls-6" d="m62.0999985,294.2000122l-30.3999996-22.1000061L1.3,249.8999939c-.8999999,8.3999939-1.3,16.7000122-1.3,25.3999939,0,26.1000061,4.1999998,51.3999939,11.8000002,74.8999939l25.1999998-28.1999817,25.0999985-27.7999878Z"/>
    <path class="cls-6" d="m376.5,154.1000061h75.2000122c-17-29.4000015-40.1000061-54.9000015-67.2999878-74.9000015l-3.8999939,37.5-4.0000305,37.4000015h0Z"/>
    <path class="cls-6" d="m315.7000122,109.8000031l34.2999878-15.3000031,34.5-15.3000031c-27-19.7999992-58.2000122-33.9000015-92-41.0999985l11.7000122,35.9000015,11.5,35.8000031h0Z"/>
    <path class="cls-6" d="m242.1000061,517.5l18.8999939-32.7000122,18.7000122-32.5c-12.1000061,2.6000061-24.8000031,3.8999939-37.6000061,3.8999939s-25.5-1.2999878-37.6000061-3.8999939l18.6999969,32.5,18.9000092,32.7000122"/>
    <path class="cls-6" d="m398.7999878,365.7000122l36.7999878-7.7999878,36.8999939-7.7999878-25.3999634-28.1000366-25.1000061-27.7999878c-2.7000122,25.7999878-10.7999878,50-23.2000122,71.5h0Z"/>
    <path class="cls-6" d="m422.8999939,275.2999878c0,6.3999939-.2999878,12.7000122-1,18.8999939l30.3999939-22.1000061,30.6000061-22.1999969-34.5-15.3000031-34.2999878-15.3000031c5.7999878,17.6000214,8.7999878,36.4000244,8.7999878,56.0000153Z"/>
    <path class="cls-6" d="m135.8000031,421.7000122l3.8999939,37.3999939,3.8999939,37.5,30.6000061-22.2000122,30.3999939-22.1000061c-25.2999878-5.3999939-48.5999908-16.0999756-68.7999878-30.5999756h0Z"/>
    <path d="m242.1000061,94.0999985c-99.8999939,0-180.8999939,81.0999985-180.8999939,181.0000076s81,181,180.8999939,181,180.8999939-81,180.8999939-181-81-181.0000076-180.8999939-181.0000076h0Zm0,298.4000015c-64.6999969,0-117.3000031-52.5-117.3000031-117.3999939s52.5-117.3999939,117.3000031-117.3999939,117.3000183,52.5,117.3000183,117.3999939-52.5000305,117.3999939-117.3000183,117.3999939h0Z"/>
  </g>
</svg>