<?xml version="1.0" encoding="UTF-8"?>
<svg id="Layer_1" data-name="Layer 1" xmlns="http://www.w3.org/2000/svg" viewBox="0 0 1500 600">
  <defs>
    <style>
      .cls-1 {
        fill: #fff;
      }
    </style>
  </defs>
  <g>
    <g>
      <path class="cls-1" d="m1098.57,145.12c-34.99-32.74-83.05-50.05-139.43-50.05h-127.06c-9.46,0-17.52,8.06-17.52,17.96v328.76c0,9.9,8.06,17.96,17.52,17.96h127.06c56.42,0,104.48-17.21,139.42-49.76,35.38-32.96,54.08-78.71,54.08-132.3s-18.7-99.47-54.07-132.57Zm-61.37,206.48c-19.16,20.11-46.19,30.73-78.18,30.73h-53.31c-3.78,0-6.85-3.07-6.85-6.85v-196.14c0-3.78,3.07-6.85,6.85-6.85h53.31c65.36,0,105.96,40.31,105.96,105.2,0,28.86-9.86,55.11-27.78,73.9Z"/>
      <path class="cls-1" d="m1298.07,172.5h188.2c7.59,0,13.73-6.15,13.73-13.73v-46.99c0-9.21-7.49-16.7-19.08-16.7h-258.07c-7.53,0-15.58,8.06-15.58,17.96v328.76c0,9.9,8.06,17.96,15.58,17.96h258.07c11.58,0,19.08-7.49,19.08-16.7v-46.99c0-7.59-6.15-13.73-13.73-13.73h-188.2c-3.78,0-6.85-3.07-6.85-6.85v-53.44c0-3.78,3.07-6.85,6.85-6.85h186.04c7.59,0,13.73-6.15,13.73-13.73v-49.96c0-7.59-6.15-13.73-13.73-13.73h-186.04c-3.78,0-6.85-3.07-6.85-6.85v-51.58c0-3.78,3.07-6.85,6.85-6.85Z"/>
      <path class="cls-1" d="m735.99,288.53c-8.09-7.23-18.11-13.16-29.94-17.72-3.37-1.3-3.75-5.89-.65-7.75,8.58-5.14,16.08-11.21,22.44-18.18,15.3-16.54,23.05-37.77,23.05-61.69,0-28.91-12.43-51.74-36.96-67.87-23.26-15.28-54.91-23.03-94.07-23.03-35.62,0-67.27,6.79-95.93,20.17-6.95,3.25-10.99,11.54-7.83,19.95.26.71.62,1.37.99,2.03,7.56,13.25,14.16,27.39,19.6,42.04,2.23,6,8.01,10.03,14.39,10.03,2.44,0,4.89-.6,7.08-1.73,8.5-4.39,16.43-7.67,23.69-9.78,10.99-3.4,21.36-5.13,32.65-5.13,37.27,0,42.05,15.57,42.05,29.13s-4.59,22.53-14.4,27.9c-11.62,6.2-30.83,9.35-57.11,9.35h-16.78c-1.22,0-2.45.12-3.64.42-7.89,2.03-12.38,9.3-11.75,16.62.71,8.19,1.07,16.59,1.07,24.96,0,5.13-.16,10.52-.46,16-.24,4.25,1.29,8.46,4.19,11.56,2.91,3.11,7,4.89,11.23,4.89h15.58c28.8,0,49.76,3.05,62.27,9.04,10.67,5.16,15.43,13.03,15.43,25.5,0,14.79-4.39,23.92-13.81,30.23-10.4,6.93-27.96,10.59-50.78,10.59-15.59,0-30.73-2.04-46.71-6.05-1.33-.37-2.71-.56-4.09-.56-6.17,0-11.71,3.73-14.11,9.49-5.57,13.37-12.3,26.56-20,39.21-2.58,4.23-3.02,9.33-1.19,13.95,1.8,4.57,5.78,7.94,10.46,9.29,25.57,7.38,53.2,11.12,83.96,11.12,48.78,0,87.11-9.82,113.91-29.19,27.82-20.18,41.92-47.91,41.92-83.8,0-25.37-8.67-45.9-25.75-61Z"/>
    </g>
    <path class="cls-1" d="m244.46,32.95C109.67,32.95,0,142.62,0,277.41s109.67,244.46,244.46,244.46,244.46-109.67,244.46-244.46S379.25,32.95,244.46,32.95Zm106.34,244.46c0,58.63-47.7,106.34-106.34,106.34s-106.34-47.7-106.34-106.34,47.7-106.34,106.34-106.34,106.34,47.7,106.34,106.34Zm-141.54,177.86c11.39,2.25,23.16,3.46,35.2,3.46s23.81-1.21,35.2-3.46l.33.24-35.53,61.54-35.53-61.55.32-.23Zm206.81-236.26c-7.73-22.64-19.8-43.26-35.24-60.89l.06-.56h71.13l-35.58,61.62-.38-.17Zm-38.74-64.79c-15.97-17.22-35.24-31.32-56.79-41.32l-.15-.45,64.91-28.9-7.43,70.68h-.55Zm-57.97-44.97l-21.76-66.97c31.41,7.1,60.5,20.33,85.97,38.38l-64.21,28.59Zm-3.07,1.37l-.39.18c-21.2-9.12-44.47-14.29-68.89-14.62l-.28-.31,47.6-52.86,21.97,67.62Zm-74.35-14.45c-24.43.34-47.72,5.5-68.92,14.63l-.38-.17,21.98-67.64,47.61,52.87-.28.31Zm-72.38,13.09l-64.21-28.59c25.47-18.06,54.56-31.3,85.98-38.39l-21.76,66.98Zm-1.04,3.2l-.14.44c-21.55,10.01-40.81,24.11-56.79,41.32h-.57l-7.43-70.67,64.92,28.91Zm-60.45,45.69c-15.43,17.62-27.49,38.23-35.22,60.85l-.38.17-35.56-61.6h71.1l.06.58Zm-38.67,62.39L5.05,249.18c3.78-32.23,13.92-62.52,29.16-89.6l35.19,60.95Zm1.68,2.91l.17.3c-5.27,16.97-8.11,35-8.11,53.68,0,5.55.29,11.03.78,16.45l-.29.32L6.08,252.38l65-28.94Zm-6.62,75.48c2.86,24.03,10.41,46.62,21.75,66.85l-.16.48-69.51-14.77,47.55-52.81.36.26Zm20.55,70.52l-21.71,66.83c-20.68-23.56-36.84-51.16-47.14-81.46l68.85,14.63Zm3.29.7l.48.1c12.17,20.33,28.19,38.1,47.07,52.27l.05.46-69.58,14.79,21.97-67.62Zm51.75,55.37c19.05,13.47,40.79,23.35,64.26,28.68l.22.38-57.54,41.81-7.44-70.76.51-.11Zm66.16,31.97l35.2,60.97c-32.69-.41-63.84-7.33-92.19-19.57l56.99-41.4Zm76.51,0l56.98,41.4c-28.35,12.24-59.49,19.16-92.17,19.57l35.2-60.96Zm1.68-2.91l.22-.39c23.45-5.33,45.18-15.2,64.23-28.66l.5.11-7.44,70.74-57.52-41.79Zm68.64-32.05c18.89-14.17,34.92-31.95,47.1-52.3l.47-.1,21.98,67.65-69.6-14.79.05-.46Zm50.86-53.1l68.87-14.64c-10.3,30.31-26.46,57.92-47.15,81.48l-21.72-66.84Zm-1.04-3.2l-.15-.47c11.34-20.22,18.89-42.82,21.75-66.85l.37-.27,47.55,52.81-69.52,14.78Zm22.14-72.39c.49-5.42.78-10.89.78-16.43,0-18.67-2.84-36.69-8.11-53.66l.17-.3,64.98,28.93-57.52,41.79-.3-.33Zm-5.47-73.3l35.19-60.95c15.24,27.08,25.38,57.38,29.16,89.6l-64.35-28.65Zm32.1-66.33h-70.38l7.35-69.98c25.31,18.93,46.76,42.74,63.02,69.98Zm-159.98-113.25l-47.17,52.39-47.17-52.39c15.26-3.04,31.03-4.66,47.17-4.66s31.91,1.62,47.18,4.66Zm-191.33,43.29l7.35,69.97H37.3c16.26-27.24,37.7-51.04,63-69.97ZM4.4,255.29l56.98,41.4-47.17,52.38c-7.06-22.65-10.87-46.71-10.87-71.65,0-7.46.39-14.84,1.06-22.13Zm63.08,185.65l68.78-14.62,7.36,70.03c-28.92-13.37-54.76-32.29-76.14-55.41Zm277.8,55.42l7.36-70.03,68.79,14.62c-21.38,23.12-47.23,42.03-76.15,55.4Zm129.43-147.3l-47.17-52.38,56.97-41.39c.67,7.29,1.06,14.67,1.06,22.13,0,24.94-3.81,49-10.87,71.64Z"/>
  </g>
  <g>
    <path class="cls-1" d="m513.41,552.07c0-12.73,9.99-22.83,22.95-22.83s22.95,10.1,22.95,22.77-9.87,22.65-23.01,22.65-22.89-9.99-22.89-22.59Zm35.67-.06c-.06-7.67-5.77-13.08-12.72-13.08s-12.73,5.53-12.73,13.08,5.59,12.96,12.73,12.96,12.78-5.53,12.72-12.96Z"/>
    <path class="cls-1" d="m598.3,544.88c0,7.67-4.7,14.51-16.65,14.51h-6.3v14.57h-9.81v-43.93h16.83c11.47,0,15.93,7.31,15.93,14.86Zm-10.05-.12c0-3.03-2.14-5.71-5.83-5.71h-7.08v11.47h6.66c4.34,0,6.24-2.85,6.24-5.77Z"/>
    <path class="cls-1" d="m603.59,530.02h30.68v9.16h-20.81v8.14h19.26v9.1h-19.26v8.38h20.75v9.16h-30.62v-43.93Z"/>
    <path class="cls-1" d="m679.69,530.02v43.93h-7.08l-21.46-25.45v25.45h-9.69v-43.93h6.65l21.94,25.68v-25.68h9.63Z"/>
    <path class="cls-1" d="m698.41,570.32l4.04-7.85c4.04,2.38,7.37,3.15,9.93,3.15,4.22,0,6.54-2.02,6.54-4.82s-2.32-4.64-5.95-4.64h-5.65v-8.8h4.58c3.87,0,6.06-1.9,6.06-4.52,0-2.79-2.43-4.4-5.47-4.4-2.62,0-4.94.89-8.44,3.27l-4.64-7.07c3.51-3.21,8.8-5.41,14.33-5.41,7.97,0,14.15,4.93,14.15,11.41,0,4.87-3.45,8.38-7.37,9.81v.24c5.65,1.25,8.62,5.71,8.62,10.82,0,7.73-6.6,13.14-16.11,13.14-5.41,0-10.17-1.61-14.63-4.34Z"/>
    <path class="cls-1" d="m735.68,530.02h17.54c13.49,0,21.4,8.5,21.4,22s-8.08,21.94-21.7,21.94h-17.24v-43.93Zm17.65,34.48c7.43,0,11.12-5.83,11.12-12.54s-3.69-12.49-11.12-12.49h-7.85v25.03h7.85Z"/>
    <path class="cls-1" d="m795.19,530.02h30.68v9.16h-20.81v8.14h19.26v9.1h-19.26v8.38h20.75v9.16h-30.62v-43.93Z"/>
    <path class="cls-1" d="m871.28,530.02v43.93h-7.07l-21.46-25.45v25.45h-9.69v-43.93h6.66l21.94,25.68v-25.68h9.63Z"/>
    <path class="cls-1" d="m877.57,552.01c0-13.38,10.29-22.77,23.37-22.77,7.37,0,13.73,2.97,17.54,6.84l-6.3,7.13c-2.91-2.73-6.9-4.52-11.3-4.52-7.73,0-13.26,5.71-13.26,13.2s5.23,13.32,13.2,13.32c4.46,0,8.62-1.9,10.94-4.16v-5.05h-11.18v-8.44h20.1v18.49c-5.35,5.35-12.25,8.56-20.04,8.56-13.49,0-23.07-9.57-23.07-22.59Z"/>
    <path class="cls-1" d="m937.32,530.02v43.93h-9.87v-43.93h9.87Z"/>
    <path class="cls-1" d="m984.23,530.02v43.93h-7.08l-21.46-25.45v25.45h-9.69v-43.93h6.66l21.94,25.68v-25.68h9.63Z"/>
    <path class="cls-1" d="m992.9,530.02h30.68v9.16h-20.81v8.14h19.26v9.1h-19.26v8.38h20.75v9.16h-30.62v-43.93Z"/>
    <path class="cls-1" d="m1053.97,547.98h107.94v7.79h-107.94v-7.79Z"/>
    <path class="cls-1" d="m1189.9,552.07c0-12.73,9.99-22.83,22.95-22.83s22.95,10.1,22.95,22.77-9.87,22.65-23.01,22.65-22.89-9.99-22.89-22.59Zm35.67-.06c-.06-7.67-5.77-13.08-12.73-13.08s-12.72,5.53-12.72,13.08,5.59,12.96,12.72,12.96,12.79-5.53,12.73-12.96Z"/>
    <path class="cls-1" d="m1236.87,570.32l4.04-7.85c4.04,2.38,7.37,3.15,9.93,3.15,4.22,0,6.54-2.02,6.54-4.82s-2.32-4.64-5.94-4.64h-5.65v-8.8h4.58c3.86,0,6.06-1.9,6.06-4.52,0-2.79-2.44-4.4-5.47-4.4-2.61,0-4.93.89-8.44,3.27l-4.64-7.07c3.51-3.21,8.8-5.41,14.33-5.41,7.96,0,14.15,4.93,14.15,11.41,0,4.87-3.45,8.38-7.37,9.81v.24c5.65,1.25,8.62,5.71,8.62,10.82,0,7.73-6.6,13.14-16.11,13.14-5.41,0-10.16-1.61-14.63-4.34Z"/>
    <path class="cls-1" d="m1274.14,530.02h17.54c13.49,0,21.4,8.5,21.4,22s-8.09,21.94-21.7,21.94h-17.24v-43.93Zm17.66,34.48c7.43,0,11.12-5.83,11.12-12.54s-3.69-12.49-11.12-12.49h-7.85v25.03h7.85Z"/>
    <path class="cls-1" d="m1319.56,530.02h30.68v9.16h-20.81v8.14h19.26v9.1h-19.26v8.38h20.75v9.16h-30.62v-43.93Z"/>
    <path class="cls-1" d="m1355.1,569.67c0-2.92,2.32-5.18,5.29-5.18,2.8,0,5.12,2.26,5.12,5.18s-2.32,5.23-5.12,5.23c-2.97,0-5.29-2.2-5.29-5.23Z"/>
    <path class="cls-1" d="m1367.17,552.07c0-12.73,9.99-22.83,22.95-22.83s22.95,10.1,22.95,22.77-9.87,22.65-23.01,22.65-22.89-9.99-22.89-22.59Zm35.67-.06c-.06-7.67-5.77-13.08-12.72-13.08s-12.72,5.53-12.72,13.08,5.59,12.96,12.72,12.96,12.78-5.53,12.72-12.96Z"/>
    <path class="cls-1" d="m1433.93,558.61h-4.82v15.34h-9.81v-43.93h17.48c10.64,0,15.52,6.66,15.52,14.21,0,5.23-2.5,10.52-8.51,13.02l10.17,16.71h-11.42l-8.62-15.34Zm-4.82-8.68h6.96c4.46,0,6.12-2.74,6.12-5.53s-1.84-5.35-5.47-5.35h-7.61v10.88Z"/>
    <path class="cls-1" d="m1456.7,552.01c0-13.38,10.29-22.77,23.37-22.77,7.37,0,13.73,2.97,17.54,6.84l-6.3,7.13c-2.91-2.73-6.9-4.52-11.3-4.52-7.73,0-13.26,5.71-13.26,13.2s5.23,13.32,13.2,13.32c4.46,0,8.62-1.9,10.94-4.16v-5.05h-11.18v-8.44h20.1v18.49c-5.35,5.35-12.25,8.56-20.04,8.56-13.49,0-23.07-9.57-23.07-22.59Z"/>
  </g>
</svg>