<?xml version="1.0" encoding="UTF-8"?><svg id="a" xmlns="http://www.w3.org/2000/svg" viewBox="0 0 512 512"><defs><style>.d{fill:#d2e2fb;}.e{fill:#a5c6f7;}.f{fill:#1e70eb;}.g{fill:#4b8def;}.h{fill:#78a9f3;}</style></defs><circle class="d" cx="256" cy="256" r="124.02" transform="translate(-4.69 507.22) rotate(-88.94)"/><g><g id="b"><g><g><path class="f" d="M421.67,351.64l12.26,37.72,12.32,37.92c23.73-26.34,42.06-57.64,53.27-92.15l-39.05,8.27-38.79,8.25Z"/><path class="f" d="M295.78,443.11l-19.83,34.35-19.94,34.54c37.09,0,72.32-7.9,104.13-22.09l-32.28-23.48-32.08-23.31Z"/><path class="f" d="M368.44,410.76l-4.15,39.44-4.14,39.7c32.96-14.7,62.24-36.15,86.08-62.61l-39-8.29-38.79-8.25Z"/></g><g><path class="g" d="M90.33,351.65l-38.79-8.25-39.06-8.27c11.21,34.51,29.54,65.81,53.27,92.16l12.32-37.92,12.26-37.72Z"/><path class="g" d="M446.25,275.99l26.54,29.47,26.73,29.65c8.09-24.92,12.48-51.5,12.48-79.11,0-9.04-.5-17.96-1.41-26.76l-32.26,23.44-32.08,23.31Z"/><path class="g" d="M437.93,196.88l36.23,16.13,36.42,16.2c-3.81-36.58-15.31-70.86-32.87-101.21l-19.95,34.53-19.83,34.35Z"/><path class="g" d="M143.56,410.76l-38.79,8.25-39,8.29c23.84,26.46,53.13,47.9,86.08,62.6l-4.14-39.7-4.15-39.44Z"/><path class="g" d="M216.23,443.11l-32.09,23.31-32.28,23.48c31.81,14.19,67.05,22.09,104.13,22.09h0l-19.94-34.54-19.83-34.35Z"/><path class="g" d="M295.79,443.08l-.02,.03,32.08,23.31,32.27,23.44,4.17-39.67,4.15-39.44-.08-.02c-21.29,15.49-45.91,26.69-72.57,32.34Z"/><path class="g" d="M421.67,351.64h-.04c-13.43,23.21-31.6,43.32-53.18,59.04v.08l38.78,8.25,39,8.29h0l-12.32-37.93-12.26-37.72Z"/></g><g><path class="d" d="M333.77,81.25h.03l-12.26-37.73-12.33-37.93-26.69,29.64-26.54,29.47,.06,.06c27.68,0,53.97,5.9,77.72,16.49Z"/><path class="d" d="M255.94,64.77l.06-.06-26.54-29.47-26.69-29.64-12.33,37.93-12.26,37.72h.03c23.75-10.57,50.04-16.47,77.72-16.48Z"/><path class="d" d="M113.84,128h.09c17.8-19.74,39.65-35.75,64.25-46.72v-.03l-36.22-16.13-36.43-16.22h0l4.17,39.66,4.15,39.44Z"/><path class="d" d="M113.82,128.08v-.08H34.29l19.94,34.54,19.82,34.33h.02c8.37-25.76,22.04-49.12,39.75-68.79Z"/><path class="d" d="M1.41,229.25l32.26,23.44,32.09,23.31,.04-.05c-.68-6.56-1.03-13.21-1.03-19.95,0-20.62,3.28-40.48,9.32-59.09l-.02-.03-36.23,16.13L1.41,229.23h0Z"/></g><g><path class="e" d="M113.81,127.99h.02l-4.15-39.43-4.17-39.66c-28.91,21.04-53.23,48.01-71.22,79.09H113.81Z"/><path class="e" d="M37.84,213.02l36.23-16.13v-.02h-.02l-19.83-34.34-19.93-34.52C16.72,158.36,5.22,192.64,1.41,229.21l36.42-16.2Z"/><path class="e" d="M178.19,81.24l12.26-37.72,12.31-37.96c-35.72,7.56-68.7,22.57-97.22,43.33l36.43,16.22,36.23,16.13Z"/><path class="e" d="M256,64.7l26.54-29.47,26.68-29.67c-17.17-3.63-34.97-5.56-53.22-5.56s-36.06,1.92-53.23,5.56l26.69,29.67,26.54,29.47Z"/><path class="e" d="M437.9,196.87h.03l19.83-34.33,19.94-34.54h-79.55v.09c17.7,19.67,31.38,43.02,39.74,68.78Z"/><path class="e" d="M333.8,81.24v.03c24.61,10.97,46.46,26.98,64.26,46.72h.09l4.15-39.44,4.17-39.66h0l-36.43,16.21-36.23,16.13Z"/><path class="e" d="M65.81,276.03l-.05-.04-26.54,29.47-26.69,29.64,39.01,8.29,38.79,8.25v-.04c-13.09-22.66-21.68-48.26-24.53-75.57Z"/><path class="e" d="M143.56,410.76v-.08c-21.59-15.71-39.76-35.83-53.18-59.03h-.04l-12.26,37.71-12.32,37.92h0l39-8.28,38.79-8.25Z"/></g><g><path class="h" d="M65.75,276l-32.09-23.31L1.41,229.25C.5,238.04,0,246.96,0,256,0,283.61,4.39,310.2,12.48,335.11l26.74-29.65,26.54-29.47Z"/><path class="h" d="M398.16,127.99h39.66l39.88-.02c-17.99-31.08-42.31-58.04-71.22-79.09l-4.17,39.66-4.15,39.44Z"/><path class="h" d="M333.8,81.24l36.23-16.13,36.43-16.22c-28.53-20.76-61.51-35.77-97.23-43.33l12.32,37.96,12.26,37.72Z"/><path class="h" d="M295.78,443.11l-.03-.02c-12.82,2.71-26.11,4.15-39.74,4.15s-26.92-1.44-39.74-4.15l-.03,.02,19.83,34.35,19.94,34.54,19.94-34.54,19.83-34.35Z"/><path class="h" d="M421.66,351.6v.04l38.81-8.25,39.01-8.29-26.69-29.64-26.54-29.47-.05,.04c-2.84,27.31-11.43,52.91-24.54,75.57Z"/><path class="h" d="M447.24,256c0,6.73-.35,13.39-1.03,19.94l.04,.05,32.08-23.31,32.26-23.44h0l-36.42-16.23-36.23-16.13-.02,.03c6.04,18.61,9.32,38.47,9.32,59.09Z"/><path class="h" d="M143.64,410.74l-.08,.02,4.15,39.44,4.17,39.67,32.27-23.44,32.09-23.31-.02-.03c-26.67-5.64-51.28-16.84-72.57-32.33Z"/></g></g></g><g id="c"><path d="M256,64.7c-105.65,0-191.3,85.65-191.3,191.3s85.65,191.3,191.3,191.3,191.3-85.65,191.3-191.3S361.65,64.7,256,64.7Zm0,315.32c-68.5,0-124.02-55.53-124.02-124.02s55.53-124.02,124.02-124.02,124.02,55.53,124.02,124.02-55.53,124.02-124.02,124.02Z"/></g></g><g><path d="M254.05,200.47h43.73c34.75,0,58.86,22.11,58.86,55.54s-24.11,55.37-58.86,55.37h-43.73v-110.9Zm43.56,90.9c22.44,0,35.54-16.15,35.54-35.37s-12.24-35.54-35.54-35.54h-20.57v70.9h20.57Z"/><path d="M230.96,260.77c-4.25-3.72-10.29-6.25-17.99-7.56,6.39-1.91,11.53-4.93,15.32-9.01,4.47-4.82,6.74-10.74,6.74-17.6,0-8.26-3.6-14.79-10.7-19.42-6.98-4.55-16.58-6.85-28.54-6.85s-23.07,2.52-32.47,7.48c3.67,5.92,6.69,12.29,8.95,19.01,3.84-2.17,7.4-3.76,10.61-4.72,3.78-1.13,7.55-1.71,11.19-1.71,10.33,0,15.35,3.66,15.35,11.18,0,4.92-1.85,8.29-5.65,10.3-3.94,2.08-10.34,3.14-19.01,3.14h-8.4c.43,3.62,.66,7.31,.66,11.04,0,2.72-.13,5.41-.36,8.06h7.94c9.41,0,16.33,1.02,20.57,3.04,4.07,1.94,6.05,5.15,6.05,9.81,0,5.31-1.73,9.04-5.3,11.4-3.64,2.41-9.41,3.64-17.17,3.64-5.12,0-10.36-.65-15.58-1.94-.82-.2-1.62-.42-2.41-.64-2.46,6.28-5.58,12.22-9.29,17.74,8.84,3.01,18.87,4.54,29.87,4.54,14.94,0,26.62-2.94,34.71-8.73,8.2-5.86,12.35-14.17,12.35-24.68,0-7.29-2.5-13.17-7.43-17.49Z"/></g></svg>