<?xml version="1.0" encoding="utf-8"?>
<!-- Generator: Adobe Illustrator 26.2.1, SVG Export Plug-In . SVG Version: 6.00 Build 0)  -->
<svg version="1.1" id="Monochrome__Engine_Logo" xmlns="http://www.w3.org/2000/svg" xmlns:xlink="http://www.w3.org/1999/xlink"
	 x="0px" y="0px" width="1200px" height="500px" viewBox="0 0 1200 500" style="enable-background:new 0 0 1200 500;"
	 xml:space="preserve">
<style type="text/css">
	.st0{fill:#FFFFFF;}
</style>
<g id="Subtitle">
	<path class="st0" d="M442.3,390.8c14.5,0,24,8.4,24,19.4s-9.6,19.4-24,19.4c-14.5,0-24-8.4-24-19.4S427.7,390.8,442.3,390.8z
		 M442.3,393.7c-12,0-19.6,7-19.6,16.5s7.6,16.5,19.6,16.5c11.9,0,19.6-7,19.6-16.5C461.8,400.7,454.1,393.7,442.3,393.7z"/>
	<path class="st0" d="M484.2,391.4h18.5c9.5,0,14.9,5.1,14.9,11s-5.5,11-14.9,11h-14.3V429h-4.2L484.2,391.4L484.2,391.4z
		 M502.3,394.3h-13.9v16.1h13.9c6.5,0,10.9-3.3,10.9-8.1C513.2,397.6,508.8,394.3,502.3,394.3z"/>
	<path class="st0" d="M534,391.4h31.4v2.9h-27.2v13.9h26.6v2.9h-26.6V426h27.2v2.9H534V391.4z"/>
	<path class="st0" d="M587.5,396.5v32.4h-4.2v-37.6h4.3l31,32v-32h4.2v37.6h-4.2L587.5,396.5z"/>
	<path class="st0" d="M668.3,421.5c2.7,3,7.6,5.2,13.9,5.2c7.6,0,12.5-3,12.5-8c0-5.4-5.9-7.6-13.3-7.6c-2,0-3.9,0-4.6,0.1v-3
		c0.7,0.1,2.6,0.1,4.6,0.1c6.5,0,12.5-2.1,12.5-7.2c0-4.7-5.5-7.3-11.9-7.3c-5.6,0-9.6,1.7-13.3,4.8l-2.7-2
		c3.4-3.2,8.9-5.7,16.2-5.7c8.6,0,16,3.5,16,9.9c0,5.7-6.4,8.2-10.6,8.8c4.3,0.3,11.4,3.2,11.4,9.3s-6.2,10.8-16.7,10.8
		c-8.1,0-14-2.9-16.8-6.3L668.3,421.5z"/>
	<path class="st0" d="M716.9,391.4h15.8c15.4,0,25,8.5,25,18.8c0,10.4-9.6,18.8-25,18.8h-15.8V391.4z M732.7,426
		c13.1,0,20.5-7,20.5-15.8s-7.4-15.9-20.5-15.9h-11.6V426H732.7z"/>
	<path class="st0" d="M802.3,391.4h31.4v2.9h-27.2v13.9h26.6v2.9h-26.6V426h27.2v2.9h-31.4V391.4z"/>
	<path class="st0" d="M855.8,396.5v32.4h-4.2v-37.6h4.3l31,32v-32h4.2v37.6H887L855.8,396.5z"/>
	<path class="st0" d="M934.1,390.8c8.2,0,14.1,2.5,18.6,6.4l-3.2,1.7c-3.5-3.2-9.1-5.2-15.4-5.2c-11.6,0-20.6,6.7-20.6,16.5
		c0,9.7,9,16.6,20.6,16.6c6.6,0,11.8-2.5,14.5-4.6v-9h-18.8v-2.9h23v13.1c-4.5,3.7-11,6.3-18.8,6.3c-13.9,0-25.1-7.9-25.1-19.5
		S920.1,390.8,934.1,390.8z"/>
	<path class="st0" d="M971,391.4h4.2V429H971V391.4z"/>
	<path class="st0" d="M999.2,396.5v32.4H995v-37.6h4.3l31,32v-32h4.2v37.6h-4.2L999.2,396.5z"/>
	<path class="st0" d="M1054.3,391.4h31.4v2.9h-27.2v13.9h26.6v2.9h-26.6V426h27.2v2.9h-31.4V391.4z"/>
</g>
<g id="Letters_3DE">
	<path class="st0" d="M626.4,112.1h98.3c78.1,0,132.4,49.7,132.4,124.9s-54.2,124.5-132.4,124.5h-98.3L626.4,112.1L626.4,112.1z
		 M724.4,316.6c50.5,0,79.9-36.3,79.9-79.5c0-45.1-27.5-79.9-79.9-79.9h-46.3v159.4H724.4z"/>
	<g>
		<path class="st0" d="M892.3,115.6h193.5V160H944v52.8h141.7v44.5H944v56.5h141.7v44.8H892.3V115.6z"/>
	</g>
	<path class="st0" d="M574.5,247.7c-9.5-8.4-23.1-14.1-40.5-17c14.4-4.3,25.9-11.1,34.4-20.3c10.1-10.8,15.1-24.2,15.1-39.6
		c0-18.6-8.1-33.3-24.1-43.7c-15.7-10.2-37.3-15.4-64.2-15.4c-27.4,0-51.9,5.7-73,16.8c8.3,13.3,15,27.6,20.1,42.7
		c8.6-4.9,16.6-8.5,23.9-10.6c8.5-2.6,17-3.8,25.2-3.8c23.2,0,34.5,8.2,34.5,25.1c0,11.1-4.2,18.6-12.7,23.2
		c-8.9,4.7-23.2,7.1-42.7,7.1h-18.9c1,8.1,1.5,16.4,1.5,24.8c0,6.1-0.3,12.2-0.8,18.1h17.8c21.2,0,36.7,2.3,46.2,6.8
		c9.2,4.4,13.6,11.6,13.6,22.1c0,11.9-3.9,20.3-11.9,25.6c-8.2,5.4-21.2,8.2-38.6,8.2c-11.5,0-23.3-1.5-35-4.4
		c-1.8-0.5-3.6-0.9-5.4-1.4c-5.5,14.1-12.6,27.5-20.9,39.9c19.9,6.8,42.4,10.2,67.2,10.2c33.6,0,59.9-6.6,78.1-19.6
		c18.4-13.2,27.8-31.9,27.8-55.5C591.2,270.7,585.6,257.4,574.5,247.7z"/>
</g>
<path id="Gem_O" class="st0" d="M413.8,237.1c0-5.7-0.3-11.6-0.9-17.4l0,0l0,0c-2.4-23.4-9.6-45.6-21.4-65.9l0,0l0,0
	c-11.6-20.1-27.7-37.9-46.4-51.5l0,0l0,0l0,0l0,0c-19.1-13.9-40.4-23.4-63.3-28.2l0,0l0,0c-22.7-4.8-46.6-4.8-69.3,0l0,0l0,0
	c-23,4.9-44.3,14.4-63.3,28.2l0,0l0,0c-18.7,13.6-34.8,31.5-46.4,51.5l0,0l0,0c-11.8,20.4-19,42.5-21.4,65.9l0,0l0,0l0,0
	c-0.6,5.9-0.9,11.7-0.9,17.4c0,17.6,2.7,34.9,8.1,51.5l0,0l0,0c7.3,22.3,18.9,42.5,34.7,60l0,0l0,0c15.8,17.5,34.6,31.2,56.1,40.8
	l0,0l0,0c21.4,9.6,44.2,14.4,67.8,14.4s46.4-4.8,67.8-14.4l0,0l0,0c21.4-9.6,40.3-23.3,56.1-40.8l0,0l0,0
	c15.8-17.5,27.4-37.7,34.7-60l0,0l0,0C411.1,272,413.8,254.7,413.8,237.1z M407.5,215.9L367.3,198l22-38.1
	C398.8,177.3,404.9,196.2,407.5,215.9z M328.4,237.1c0,44.9-36.4,81.4-81.4,81.4s-81.4-36.4-81.4-81.4s36.4-81.4,81.4-81.4
	S328.4,192.1,328.4,237.1z M121.5,237.1c0,2.5,0.1,5,0.2,7.5l-33.3-24.2l37.5-16.7C123.1,214.3,121.5,225.5,121.5,237.1z
	 M135.6,294.9l-40.2-8.5l27.5-30.6C125,269.7,129.3,282.9,135.6,294.9z M371.1,255.8l27.5,30.6l-40.2,8.5
	C364.7,282.9,369.1,269.7,371.1,255.8z M368,203.7l37.5,16.7l-33.3,24.2c0.1-2.5,0.2-5,0.2-7.5C372.5,225.5,371,214.3,368,203.7z
	 M364.5,192.9c-4.9-13-11.9-25-20.6-35.6h19.8h21.4L364.5,192.9z M343.1,132.5l2.5-23.8c15.6,12,29.1,27,39.4,43.8h-44L343.1,132.5z
	 M338.4,129.8l-2,19.2c-9.6-9.8-20.9-18-33.3-24.2l16.2-7.2l21.4-9.5L338.4,129.8z M338.7,103.6l-20.9,9.3l-19.3,8.6l-0.6-1.7
	l-13.1-40.2C304.2,84.3,322.3,92.3,338.7,103.6z M292.9,120.2c-12.5-4.9-26.1-7.9-40.2-8.5l27.5-30.6L292.9,120.2z M276.5,77.9
	L247,110.6l-29.5-32.7C236.9,74.3,257.1,74.3,276.5,77.9z M213.9,81.1l27.5,30.6c-14.1,0.6-27.7,3.6-40.2,8.5L213.9,81.1z
	 M209.2,79.6L196,120.4l-0.4,1.2l-0.4-0.2l-39.8-17.7C171.8,92.3,189.8,84.3,209.2,79.6z M176.6,118.5l14.3,6.3
	c-12.4,6.2-23.6,14.4-33.3,24.2l-1.5-14.6l-2.8-26.4L176.6,118.5z M148.4,108.7l4.6,43.8h-44C119.3,135.7,132.8,120.7,148.4,108.7z
	 M150.1,157.4c-8.7,10.6-15.7,22.6-20.6,35.6L109,157.4H150.1z M104.7,159.9l22,38.1l0,0l-40.2,17.9
	C89.1,196.2,95.2,177.3,104.7,159.9z M85.1,237.1c0-4.2,0.2-8.4,0.5-12.7l2,1.5l33.6,24.4L91.8,283
	C87.4,268.2,85.1,252.7,85.1,237.1z M94.4,291.2l43.1,9.1l-13.6,41.9C110.9,327,101,309.9,94.4,291.2z M128.5,343.8l12.7-39.1
	c7.4,11.6,16.8,22,27.5,30.5L128.5,343.8z M129.6,348.5l43.1-9.2l4.6,43.8C159.3,374.6,143.3,363,129.6,348.5z M177.9,341.8
	c11.4,7.5,24,13.2,37.5,16.7l-33.2,24.2L177.9,341.8z M185.1,386.7l35.6-25.9l3.6,6.3l18.4,31.9
	C222.8,398.4,203.4,394.3,185.1,386.7z M226.5,360.9c6.7,1.1,13.6,1.7,20.6,1.7s13.9-0.6,20.6-1.7L247,396.5L226.5,360.9z
	 M251.3,398.9l3.6-6.3l18.4-31.9l35.6,25.9C290.6,394.3,271.2,398.4,251.3,398.9z M311.9,382.7l-33.2-24.2
	c13.5-3.5,26.2-9.2,37.5-16.7L311.9,382.7z M316.7,383.2l4.6-43.8l43.1,9.2C350.7,363,334.7,374.6,316.7,383.2z M325.3,335.2
	c10.8-8.6,20.1-18.9,27.5-30.5l12.7,39.1L325.3,335.2z M370.1,342.2l-13.6-41.9l43.1-9.1C393,309.9,383.1,327,370.1,342.2z
	 M402.3,283l-29.5-32.7l35.6-25.9c0.3,4.3,0.5,8.5,0.5,12.7C408.9,252.7,406.7,268.2,402.3,283z"/>
</svg>
