<svg id="Layer_1" data-name="Layer 1" xmlns="http://www.w3.org/2000/svg" viewBox="0 0 400 400"><defs><style>.cls-1{fill:#fff;}</style></defs><path class="cls-1" d="M342.40642,106.31828A149.94866,149.94866,0,0,0,235.63513,61.08121l-.73868-.00226a150.32749,150.32749,0,0,0-41.756,5.91848v55.61788a98.33352,98.33352,0,0,1,40.88644-9.35724c.38644-.00462.76948-.007,1.15535-.007a97.22976,97.22976,0,0,1,68.53415,28.12136,98.305,98.305,0,0,1,.8567,140.11113v-.00113a97.795,97.795,0,0,1-69.436,29.09439l-.27947.00113A98.673,98.673,0,0,1,142.7985,176.35675H88.30405A150.86642,150.86642,0,0,0,234.24386,362.68656l.71442.00113h.00993A150.753,150.753,0,0,0,342.40642,106.31828Z"/><rect class="cls-1" x="88.66949" y="66.97588" width="72.48917" height="72.48917"/><rect class="cls-1" x="29.20279" y="38.58946" width="29.96897" height="29.96897"/><rect class="cls-1" x="11.7929" y="111.58924" width="47.01858" height="47.01858"/></svg>