<?xml version="1.0" encoding="UTF-8"?>
<svg id="Layer_1" data-name="Layer 1" xmlns="http://www.w3.org/2000/svg" viewBox="0 0 1500 600">
  <defs>
    <style>
      .cls-1 {
        fill: #a3c4f5;
      }

      .cls-2 {
        fill: #d1e0f9;
      }

      .cls-3 {
        fill: #1d70e9;
      }

      .cls-4 {
        fill: #225ae6;
      }

      .cls-5 {
        fill: #4b8bed;
      }

      .cls-6 {
        fill: #77a7f1;
      }
    </style>
  </defs>
  <path d="m1098.91,143.88c-34.96-33.29-82.98-50.89-139.32-50.89h-126.95c-9.45,0-17.5,8.19-17.5,18.27v334.29c0,10.07,8.05,18.27,17.5,18.27h126.95c56.38,0,104.39-17.5,139.3-50.6,35.35-33.52,54.04-80.03,54.04-134.53s-18.68-101.14-54.03-134.8Zm-61.31,209.95c-19.14,20.44-46.16,31.25-78.11,31.25h-53.27c-3.78,0-6.84-3.12-6.84-6.96v-199.44c0-3.85,3.06-6.96,6.84-6.96h53.27c65.3,0,105.87,40.99,105.87,106.97,0,29.35-9.86,56.03-27.75,75.15Z"/>
  <path d="m1298.24,171.72h188.04c7.58,0,13.72-6.25,13.72-13.96v-47.78c0-9.36-7.48-16.98-19.06-16.98h-257.86c-7.52,0-15.57,8.19-15.57,18.27v334.29c0,10.07,8.05,18.27,15.57,18.27h257.86c11.58,0,19.06-7.62,19.06-16.98v-47.78c0-7.71-6.14-13.96-13.72-13.96h-188.04c-3.78,0-6.84-3.12-6.84-6.96v-54.34c0-3.85,3.06-6.96,6.84-6.96h185.88c7.58,0,13.72-6.25,13.72-13.96v-50.8c0-7.71-6.14-13.96-13.72-13.96h-185.88c-3.78,0-6.84-3.12-6.84-6.96v-52.45c0-3.85,3.06-6.96,6.84-6.96Z"/>
  <path d="m736.63,289.71c-8.08-7.35-18.09-13.38-29.92-18.02-3.37-1.32-3.75-5.99-.65-7.88,8.57-5.22,16.07-11.4,22.42-18.48,15.28-16.82,23.03-38.4,23.03-62.73,0-29.4-12.42-52.61-36.93-69.01-23.24-15.54-54.86-23.41-93.99-23.41-35.59,0-67.22,6.9-95.85,20.51-6.94,3.3-10.98,11.73-7.83,20.29.26.72.62,1.4.99,2.06,7.56,13.47,14.15,27.85,19.58,42.75,2.23,6.1,8.01,10.2,14.38,10.2,2.44,0,4.89-.61,7.07-1.76,8.49-4.47,16.42-7.8,23.67-9.95,10.98-3.46,21.34-5.21,32.63-5.21,37.24,0,42.01,15.83,42.01,29.62s-4.59,22.91-14.38,28.37c-11.61,6.31-30.8,9.51-57.06,9.51h-16.77c-1.22,0-2.45.12-3.63.43-7.88,2.06-12.37,9.46-11.74,16.9.71,8.33,1.07,16.86,1.07,25.38,0,5.22-.15,10.7-.46,16.27-.24,4.32,1.29,8.6,4.18,11.75,2.9,3.16,6.99,4.97,11.22,4.97h15.57c28.77,0,49.72,3.1,62.22,9.19,10.66,5.25,15.42,13.24,15.42,25.93,0,15.04-4.39,24.32-13.8,30.74-10.39,7.05-27.94,10.77-50.74,10.77-15.58,0-30.7-2.08-46.67-6.15-1.33-.38-2.71-.57-4.09-.57-6.16,0-11.7,3.79-14.1,9.65-5.56,13.59-12.29,27.01-19.99,39.87-2.58,4.31-3.01,9.49-1.19,14.19,1.8,4.65,5.77,8.07,10.45,9.45,25.55,7.5,53.15,11.3,83.89,11.3,48.74,0,87.03-9.98,113.82-29.68,27.79-20.52,41.89-48.71,41.89-85.21,0-25.8-8.67-46.67-25.73-62.02Z"/>
  <path class="cls-3" d="m398.83,365.71l11.53,35.63,11.67,35.92c22.48-24.95,39.78-54.52,50.45-87.26l-36.9,7.79-36.75,7.93Z"/>
  <path class="cls-4" d="m242.15,517.45c35.03,0,68.47-7.5,98.45-20.91l-30.56-22.21-30.27-22.07-18.74,32.45-18.88,32.74"/>
  <path class="cls-4" d="m348.38,421.67l-3.89,37.36-3.89,37.5c31.13-13.85,58.81-34.18,81.44-59.28l-36.9-7.79-36.75-7.79Z"/>
  <path class="cls-5" d="m85.47,365.71l-36.75-7.79-36.9-7.79c10.67,32.6,27.96,62.31,50.45,87.26l11.68-35.92,11.53-35.77Z"/>
  <path class="cls-5" d="m422.03,294.17l25.08,27.84,25.22,28.13c7.64-23.51,11.82-48.75,11.82-74.86,0-8.51-.43-17.02-1.3-25.39l-30.56,22.21-30.27,22.07Z"/>
  <path class="cls-5" d="m414.1,219.31l34.3,15.29,34.45,15.29c-3.6-34.62-14.41-67.07-31.14-95.77l-18.88,32.74-18.74,32.45Z"/>
  <path class="cls-5" d="m135.78,421.67l-36.75,7.79-36.9,7.79c22.49,25.1,50.3,45.29,81.44,59.28l-3.89-37.5-3.89-37.36Z"/>
  <path class="cls-5" d="m242,517.45l-18.74-32.6-18.74-32.6-30.41,22.07-30.56,22.21c30.12,13.42,63.42,20.91,98.44,20.91"/>
  <path class="cls-5" d="m279.77,452.25l30.27,22.07,30.56,22.21,3.89-37.5,3.89-37.36c-20.18,14.57-43.38,25.24-68.61,30.58Z"/>
  <path class="cls-5" d="m398.83,365.71c-12.68,21.92-29.98,40.96-50.3,55.82v.14l36.75,7.79,36.9,7.79-11.67-35.92-11.67-35.63Z"/>
  <path class="cls-2" d="m315.66,109.83l-11.53-35.77-11.68-35.92-25.22,27.98-25.08,27.98c26.23.14,51.02,5.63,73.51,15.72Z"/>
  <path class="cls-2" d="m242.01,94.26l-25.08-27.98-25.22-27.98-11.67,35.91-11.53,35.63c22.49-9.95,47.42-15.58,73.51-15.58Z"/>
  <path class="cls-2" d="m107.67,154.11c16.86-18.75,37.62-33.9,60.83-44.28l-34.3-15.29-34.45-15.29,3.89,37.5,4.04,37.36Z"/>
  <path class="cls-2" d="m107.67,154.11l-37.48-.14h-37.76l18.88,32.74,18.74,32.45c7.93-24.38,20.9-46.44,37.62-65.05Z"/>
  <path class="cls-2" d="m1.3,249.89l30.56,22.21,30.41,22.07c-.58-6.2-1.01-12.55-1.01-18.9,0-19.47,3.17-38.37,8.79-55.96l-34.3,15.29L1.3,249.89Z"/>
  <path class="cls-1" d="m107.67,154.11l-3.89-37.36-3.89-37.5c-27.39,19.91-50.3,45.43-67.31,74.86h75.09Z"/>
  <path class="cls-1" d="m35.75,234.45l34.3-15.29-18.74-32.45-18.88-32.6C15.86,182.82,4.9,215.27,1.3,249.89l34.45-15.43Z"/>
  <path class="cls-1" d="m168.5,109.83l11.53-35.63,11.67-35.91c-33.73,7.21-65.01,21.35-91.96,40.96l34.45,15.29,34.3,15.29Z"/>
  <path class="cls-1" d="m242.15,94.11l25.08-27.84,25.22-28.13c-16.29-3.46-33.01-5.19-50.3-5.19s-34.16,1.88-50.3,5.19l25.22,28.13,25.08,27.84Z"/>
  <path class="cls-1" d="m414.1,219.31l18.74-32.45,18.88-32.74h-75.24v.14c16.86,18.46,29.69,40.68,37.62,65.05Z"/>
  <path class="cls-1" d="m315.66,109.83c23.21,10.39,43.96,25.53,60.83,44.28h.14l3.89-37.36,3.89-37.5-34.45,15.29-34.3,15.29Z"/>
  <path class="cls-1" d="m62.27,294.17l-25.22,27.84-25.22,27.98,36.9,7.79,36.75,7.79c-12.4-21.35-20.61-45.58-23.21-71.4Z"/>
  <path class="cls-1" d="m135.78,421.67c-20.47-15-37.62-34.04-50.3-55.96l-11.53,35.63-11.68,35.92,36.9-7.79,36.61-7.79Z"/>
  <path class="cls-6" d="m62.12,294.17l-30.41-22.07L1.3,249.89c-.86,8.37-1.3,16.73-1.3,25.39,0,26.11,4.18,51.35,11.82,74.86l25.22-28.13,25.08-27.84Z"/>
  <path class="cls-6" d="m376.48,154.11h75.24c-17.01-29.42-40.07-54.95-67.31-74.86l-3.89,37.5-4.04,37.36Z"/>
  <path class="cls-6" d="m315.66,109.83l34.3-15.29,34.45-15.29c-26.95-19.76-58.23-33.9-91.96-41.11l11.67,35.92,11.53,35.77Z"/>
  <path class="cls-6" d="m242.15,517.45l18.88-32.74,18.74-32.45c-12.11,2.6-24.79,3.9-37.62,3.9s-25.51-1.3-37.62-3.9l18.74,32.45,18.88,32.74"/>
  <path class="cls-6" d="m398.82,365.71l36.75-7.79,36.9-7.79-25.37-28.13-25.08-27.84c-2.74,25.82-10.81,50.05-23.21,71.54Z"/>
  <path class="cls-6" d="m422.9,275.27c0,6.35-.29,12.69-1.01,18.9l30.41-22.07,30.56-22.21-34.45-15.29-34.3-15.29c5.76,17.6,8.79,36.35,8.79,55.96Z"/>
  <path class="cls-6" d="m135.78,421.67l3.89,37.36,3.89,37.5,30.56-22.21,30.41-22.07c-25.22-5.33-48.57-16.01-68.75-30.58Z"/>
  <path d="m242.15,94.11c-99.89,0-180.89,81.06-180.89,181.02s81,181.02,180.89,181.02,180.89-81.06,180.89-181.02-81.01-181.02-180.89-181.02Zm0,298.43c-64.72,0-117.33-52.5-117.33-117.41s52.47-117.41,117.33-117.41,117.33,52.5,117.33,117.41-52.61,117.41-117.33,117.41Z"/>
</svg>