<svg id="Layer_1" data-name="Layer 1" xmlns="http://www.w3.org/2000/svg" viewBox="0 0 397 112.56"><defs><style>.cls-1{opacity:0.3;}.cls-2{fill:#fff;}.cls-3{fill:none;}.cls-4{opacity:0.5;}</style></defs><g class="cls-1"><circle class="cls-2" cx="56.28" cy="56.28" r="56.28"/></g><path class="cls-3" d="M322.34,111.22v.18a23.34,23.34,0,0,1-3.59,12.8,21.64,21.64,0,0,0,5.92-15.42v-.19c0-12.66-8.88-22-22.47-22H289.44v1.66h9.48C312.71,88.25,322.34,97.7,322.34,111.22Z" transform="translate(-1 -65.91)"/><path class="cls-3" d="M275.74,142.63h23.18a36.45,36.45,0,0,0,17.89-4.44A38.37,38.37,0,0,1,302.2,141H278.06V79.81h-2.32Z" transform="translate(-1 -65.91)"/><rect class="cls-3" x="358.89" y="47.58" width="28.22" height="1.67"/><rect class="cls-3" x="358.89" y="20.49" width="32.38" height="1.67"/><polygon class="cls-3" points="347.51 13.9 345.19 13.9 345.19 76.71 391.73 76.71 391.73 75.04 347.51 75.04 347.51 13.9"/><path class="cls-3" d="M140.84,111.4c0,18.43,14.1,32.34,32.8,32.34a34.25,34.25,0,0,0,16.86-4.3,35.42,35.42,0,0,1-13.58,2.63c-19.88,0-33.75-15.08-33.75-33.29v-.19a33.63,33.63,0,0,1,6.26-19.7,32.28,32.28,0,0,0-8.59,22.33Z" transform="translate(-1 -65.91)"/><path class="cls-3" d="M320.43,111.4v-.18c0-12.4-8.85-21-21.51-21h-9.48V130.6H302.2a25.6,25.6,0,0,0,9-1.56C317,125.5,320.43,119.27,320.43,111.4Z" transform="translate(-1 -65.91)"/><path class="cls-3" d="M218.83,131.25l-2.37,2.23c6,6.81,13.86,10.26,23.47,10.26a24.39,24.39,0,0,0,12.6-3.24,27.23,27.23,0,0,1-9.32,1.57C232.2,142.07,224.28,137.57,218.83,131.25Z" transform="translate(-1 -65.91)"/><path class="cls-3" d="M194.69,111.4v-.18c0-12.53-9.05-22-21.05-22a20.36,20.36,0,0,0-14.89,6.23,24,24,0,0,0-3.66,12.94v.18c0,12.58,9.16,22.94,22,22.94a22.37,22.37,0,0,0,7.39-1.23C190.68,126.6,194.69,119.69,194.69,111.4Z" transform="translate(-1 -65.91)"/><path class="cls-3" d="M254.58,122v-.18c0-6.38-5.82-10-14.89-10h-5.27l-1.74-6.7-2.33,2.47,1.53,5.9h4.53c9.78,0,15.85,4.19,15.85,10.94v.18a10.37,10.37,0,0,1-1.07,4.62A9.12,9.12,0,0,0,254.58,122Z" transform="translate(-1 -65.91)"/><path class="cls-3" d="M196.6,111.22v.18A24.83,24.83,0,0,1,192.73,125a23.39,23.39,0,0,0,6.19-16.2v-.19c0-12.57-9.15-22.93-22-22.93a21.63,21.63,0,0,0-11.31,3.07,23.16,23.16,0,0,1,8-1.4C186.73,87.33,196.6,97.6,196.6,111.22Z" transform="translate(-1 -65.91)"/><polygon class="cls-3" points="218.71 21.88 247.48 21.88 249.05 20.21 221.03 20.21 221.03 13.9 218.71 13.9 218.71 21.88"/><g class="cls-4"><path class="cls-2" d="M173.64,89.24c12,0,21.05,9.45,21.05,22v.18c0,8.29-4,15.2-10.2,18.9a20.78,20.78,0,0,0,8.24-5.32,24.83,24.83,0,0,0,3.87-13.58v-.18c0-13.62-9.87-23.89-23-23.89a23.16,23.16,0,0,0-8,1.4,21,21,0,0,0-6.86,6.74A20.36,20.36,0,0,1,173.64,89.24Z" transform="translate(-1 -65.91)"/><path class="cls-2" d="M190.5,139.44a34.25,34.25,0,0,1-16.86,4.3c-18.7,0-32.8-13.91-32.8-32.34v-.18a32.28,32.28,0,0,1,8.59-22.33,32.48,32.48,0,0,1,10.2-9.22,34,34,0,0,0-20.7,31.55v.18c0,19.52,14.92,34.25,34.71,34.25a34.74,34.74,0,0,0,28.49-14.33A32.59,32.59,0,0,1,190.5,139.44Z" transform="translate(-1 -65.91)"/><path class="cls-2" d="M247.35,103.31l15.17-15.56v-.63l-15.71,16.11Z" transform="translate(-1 -65.91)"/><path class="cls-2" d="M228.24,107.06l2.16,8.35h6c8.73,0,13.94,3.38,13.94,9v.18a8.23,8.23,0,0,1-3.25,6.69,11.13,11.13,0,0,0,4.09-2.07,10.37,10.37,0,0,0,1.07-4.62v-.18c0-6.75-6.07-10.94-15.85-10.94h-4.53l-1.53-5.9,2.33-2.47-.11-.42,15.91-16.92H219.71v-8H222V77.9H217.8V89.7h26.76Z" transform="translate(-1 -65.91)"/><path class="cls-2" d="M239.93,143.74c-9.61,0-17.5-3.45-23.47-10.26l2.37-2.23-.4-.47,5.59-5.26c-.07-.08-.13-.14-.19-.22l-.65-.77-9.34,8.8.57.69c6.32,7.61,15.15,11.63,25.52,11.63,9.26,0,16.65-3.93,20.56-10.28a20.7,20.7,0,0,1-8,5.13A24.39,24.39,0,0,1,239.93,143.74Z" transform="translate(-1 -65.91)"/><path class="cls-2" d="M316.81,138.19a36.45,36.45,0,0,1-17.89,4.44H275.74V79.81h2.32V77.9h-4.23v66.64h25.09c13.08,0,23.86-5.72,29.95-14.88A32,32,0,0,1,316.81,138.19Z" transform="translate(-1 -65.91)"/><path class="cls-2" d="M320.43,111.22v.18c0,7.87-3.44,14.1-9.2,17.64a20.53,20.53,0,0,0,7.52-4.84,23.34,23.34,0,0,0,3.59-12.8v-.18c0-13.52-9.63-23-23.42-23h-9.48v1.92h9.48C311.58,90.17,320.43,98.82,320.43,111.22Z" transform="translate(-1 -65.91)"/><polygon class="cls-2" points="389.02 47.58 387.11 47.58 387.11 49.25 358.89 49.25 358.89 51.16 389.02 51.16 389.02 47.58"/><polygon class="cls-2" points="393.18 20.49 391.27 20.49 391.27 22.16 358.89 22.16 358.89 24.07 393.18 24.07 393.18 20.49"/><polygon class="cls-2" points="391.73 75.04 391.73 76.71 345.19 76.71 345.19 13.9 347.51 13.9 347.51 11.99 343.28 11.99 343.28 78.62 393.64 78.62 393.64 75.04 391.73 75.04"/></g><path class="cls-2" d="M177.1,75.12a34.72,34.72,0,0,0-17.47,4.55,32.48,32.48,0,0,0-10.2,9.22,33.63,33.63,0,0,0-6.26,19.7v.19c0,18.21,13.87,33.29,33.75,33.29a35.42,35.42,0,0,0,13.58-2.63,32.59,32.59,0,0,0,11.63-8.12,33.48,33.48,0,0,0,8.72-22.73v-.18C210.85,90.19,197,75.12,177.1,75.12Zm0,56.41c-12.85,0-22-10.36-22-22.94v-.18a24,24,0,0,1,3.66-12.94,21,21,0,0,1,6.86-6.74,21.63,21.63,0,0,1,11.31-3.07c12.85,0,22,10.36,22,22.93v.19a23.39,23.39,0,0,1-6.19,16.2,20.78,20.78,0,0,1-8.24,5.32A22.37,22.37,0,0,1,177.1,131.53Z" transform="translate(-1 -65.91)"/><path class="cls-2" d="M247.35,103.31l-.54-.08,15.71-16.11,2.32-2.38V76.23H222v9.89h28l-1.57,1.67-15.91,16.92.11.42,1.74,6.7h5.27c9.07,0,14.89,3.61,14.89,10V122a9.12,9.12,0,0,1-3.39,7.24,11.13,11.13,0,0,1-4.09,2.07,13.91,13.91,0,0,1-3.71.49c-7.21,0-12.39-3.05-17-8.5L224,125.52l-5.59,5.26.4.47c5.45,6.32,13.37,10.82,24.38,10.82a27.23,27.23,0,0,0,9.32-1.57,20.7,20.7,0,0,0,8-5.13,19.65,19.65,0,0,0,5.37-13.83v-.19C265.86,109.64,257,104.63,247.35,103.31Z" transform="translate(-1 -65.91)"/><path class="cls-2" d="M302.2,76.23H278.06V141H302.2a38.37,38.37,0,0,0,14.61-2.77,32,32,0,0,0,12.06-8.53,31.61,31.61,0,0,0,7.72-21.07v-.18C336.59,90.19,322.54,76.23,302.2,76.23Zm0,54.37H289.44v-44H302.2c13.59,0,22.47,9.34,22.47,22v.19a21.64,21.64,0,0,1-5.92,15.42,20.53,20.53,0,0,1-7.52,4.84A25.6,25.6,0,0,1,302.2,130.6Z" transform="translate(-1 -65.91)"/><polygon class="cls-2" points="358.89 64.87 358.89 51.16 358.89 49.25 358.89 47.58 387.11 47.58 389.02 47.58 391.35 47.58 391.35 37.32 358.89 37.32 358.89 24.07 358.89 22.16 358.89 20.49 391.27 20.49 393.18 20.49 395.51 20.49 395.51 10.32 347.51 10.32 347.51 11.99 347.51 13.9 347.51 75.04 391.73 75.04 393.64 75.04 395.97 75.04 395.97 64.87 358.89 64.87"/><rect class="cls-2" x="87.29" y="70.82" width="15.5" height="1.94"/><rect class="cls-2" x="39.81" y="9.77" width="1.94" height="15.42"/><path class="cls-2" d="M73.19,169.67H9.8V106.29L41.38,74.71h63.38V138.1Zm-61.45-1.94H72.38l30.44-30.43V76.65H42.18L11.74,107.09Z" transform="translate(-1 -65.91)"/><rect class="cls-2" x="4.35" y="152.23" width="43.85" height="1.94" transform="translate(-101.63 -2.46) rotate(-45)"/><path class="cls-2" d="M89.26,154.09h-64V90.14h64Zm-62-1.94H87.32V92.08H27.24Z" transform="translate(-1 -65.91)"/><rect class="cls-2" x="39.81" y="25.19" width="1.94" height="62.01"/><rect class="cls-2" x="55.31" y="25.19" width="1.94" height="62.01"/><rect class="cls-2" x="70.82" y="25.19" width="1.94" height="62.01"/><rect class="cls-2" x="25.27" y="39.73" width="62.01" height="1.94"/><rect class="cls-2" x="25.27" y="55.23" width="62.01" height="1.94"/><rect class="cls-2" x="25.27" y="70.74" width="62.01" height="1.94"/><polygon class="cls-2" points="72.75 102.79 70.82 102.79 70.82 41.75 9.77 41.75 9.77 39.81 72.75 39.81 72.75 102.79"/><rect class="cls-2" x="66.36" y="90.22" width="43.85" height="1.94" transform="translate(-39.62 23.25) rotate(-45.01)"/><path class="cls-2" d="M148.56,164.94v0a5,5,0,0,1,10.06,0v0a5,5,0,0,1-10.06,0Zm8.29,0v0a3.28,3.28,0,0,0-3.27-3.41,3.24,3.24,0,0,0-3.25,3.38v0a3.28,3.28,0,0,0,3.27,3.41A3.25,3.25,0,0,0,156.85,164.94Z" transform="translate(-1 -65.91)"/><path class="cls-2" d="M161.77,160.1h3.79c2.25,0,3.65,1.28,3.65,3.22v0c0,2.16-1.73,3.29-3.84,3.29h-1.91v3.09h-1.69Zm3.65,5c1.28,0,2.08-.71,2.08-1.72v0c0-1.13-.81-1.72-2.08-1.72h-2v3.46Z" transform="translate(-1 -65.91)"/><path class="cls-2" d="M172,160.1h7.13v1.51h-5.44v2.5h4.83v1.53h-4.83v2.57h5.51v1.51H172Z" transform="translate(-1 -65.91)"/><path class="cls-2" d="M182.35,160.1h1.57l5.15,6.65V160.1h1.66v9.62h-1.41L184,162.88v6.84h-1.66Z" transform="translate(-1 -65.91)"/><g class="cls-4"><path class="cls-2" d="M198.88,168.21l1.18-1.12a3.15,3.15,0,0,0,2.53,1.27,1.52,1.52,0,0,0,1.66-1.46v0c0-.94-.86-1.48-2.21-1.48h-.78l-.28-1.06,2.6-2.76h-4.16V160.1h6.36v1.26l-2.68,2.75c1.46.18,2.83.92,2.83,2.69v0a3.08,3.08,0,0,1-3.37,3A4.61,4.61,0,0,1,198.88,168.21Z" transform="translate(-1 -65.91)"/></g><g class="cls-4"><path class="cls-2" d="M209.12,160.1h3.58a4.79,4.79,0,0,1,5.11,4.78v0a4.81,4.81,0,0,1-5.11,4.81h-3.58Zm1.69,1.54v6.54h1.89a3.13,3.13,0,0,0,3.34-3.24v0a3.16,3.16,0,0,0-3.34-3.27Z" transform="translate(-1 -65.91)"/></g><g class="cls-4"><path class="cls-2" d="M226.19,160.1h7.12v1.51h-5.44v2.5h4.83v1.53h-4.83v2.57h5.51v1.51h-7.19Z" transform="translate(-1 -65.91)"/></g><g class="cls-4"><path class="cls-2" d="M236.49,160.1h1.57l5.15,6.65V160.1h1.66v9.62h-1.41l-5.31-6.84v6.84h-1.66Z" transform="translate(-1 -65.91)"/></g><g class="cls-4"><path class="cls-2" d="M248,164.94v0a4.9,4.9,0,0,1,5-5,5.16,5.16,0,0,1,3.69,1.3l-1.07,1.28a3.81,3.81,0,0,0-2.69-1,3.24,3.24,0,0,0-3.12,3.38v0a3.21,3.21,0,0,0,3.27,3.43,3.9,3.9,0,0,0,2.32-.72v-1.79h-2.46v-1.48H257v4a6.14,6.14,0,0,1-4,1.5A4.77,4.77,0,0,1,248,164.94Z" transform="translate(-1 -65.91)"/></g><g class="cls-4"><path class="cls-2" d="M260.41,160.1h1.69v9.62h-1.69Z" transform="translate(-1 -65.91)"/></g><g class="cls-4"><path class="cls-2" d="M265.77,160.1h1.57l5.15,6.65V160.1h1.66v9.62h-1.41l-5.31-6.84v6.84h-1.66Z" transform="translate(-1 -65.91)"/></g><g class="cls-4"><path class="cls-2" d="M277.73,160.1h7.13v1.51h-5.44v2.5h4.82v1.53h-4.82v2.57h5.51v1.51h-7.2Z" transform="translate(-1 -65.91)"/></g><path class="cls-2" d="M293.25,160.1h7.16v1.54h-5.47v2.62h4.85v1.54h-4.85v3.92h-1.69Z" transform="translate(-1 -65.91)"/><path class="cls-2" d="M302.86,164.94v0a5,5,0,0,1,10.06,0v0a5,5,0,0,1-10.06,0Zm8.28,0v0a3.28,3.28,0,0,0-3.27-3.41,3.24,3.24,0,0,0-3.24,3.38v0a3.28,3.28,0,0,0,3.27,3.41A3.24,3.24,0,0,0,311.14,164.94Z" transform="translate(-1 -65.91)"/><path class="cls-2" d="M315.91,165.64V160.1h1.69v5.47c0,1.78.92,2.73,2.43,2.73s2.42-.89,2.42-2.66V160.1h1.69v5.45c0,2.88-1.62,4.32-4.13,4.32S315.91,168.43,315.91,165.64Z" transform="translate(-1 -65.91)"/><path class="cls-2" d="M327.57,160.1h1.56l5.15,6.65V160.1H336v9.62h-1.42l-5.3-6.84v6.84h-1.66Z" transform="translate(-1 -65.91)"/><path class="cls-2" d="M339.52,160.1h3.59a4.8,4.8,0,0,1,5.11,4.78v0a4.81,4.81,0,0,1-5.11,4.81h-3.59Zm1.69,1.54v6.54h1.9a3.13,3.13,0,0,0,3.33-3.24v0a3.15,3.15,0,0,0-3.33-3.27Z" transform="translate(-1 -65.91)"/><path class="cls-2" d="M354.1,160h1.57l4.23,9.69h-1.79l-1-2.32h-4.55l-1,2.32h-1.73Zm2.42,5.87-1.67-3.85-1.64,3.85Z" transform="translate(-1 -65.91)"/><path class="cls-2" d="M363.77,161.67h-3.06V160.1h7.82v1.57h-3.07v8.05h-1.69Z" transform="translate(-1 -65.91)"/><path class="cls-2" d="M371.48,160.1h1.69v9.62h-1.69Z" transform="translate(-1 -65.91)"/><path class="cls-2" d="M376.42,164.94v0a5,5,0,0,1,10.05,0v0a5,5,0,0,1-10.05,0Zm8.28,0v0a3.28,3.28,0,0,0-3.27-3.41,3.24,3.24,0,0,0-3.24,3.38v0a3.28,3.28,0,0,0,3.27,3.41A3.24,3.24,0,0,0,384.7,164.94Z" transform="translate(-1 -65.91)"/><path class="cls-2" d="M389.62,160.1h1.57l5.15,6.65V160.1H398v9.62h-1.42l-5.3-6.84v6.84h-1.66Z" transform="translate(-1 -65.91)"/></svg>