<svg id="Layer_1" data-name="Layer 1" xmlns="http://www.w3.org/2000/svg" viewBox="0 0 397 397"><defs><style>.cls-1{opacity:0.3;}.cls-2{fill:#fff;}</style></defs><g class="cls-1"><circle class="cls-2" cx="198.5" cy="198.5" r="193.5"/></g><rect class="cls-2" x="305.11755" y="248.49094" width="53.29158" height="6.67005"/><rect class="cls-2" x="141.87341" y="38.59089" width="6.67004" height="53.01653"/><path class="cls-2" d="M253.20124,361.74413H35.25586v-217.911l108.5773-108.5773h217.911V253.20124ZM41.92591,355.07407h208.4904L355.0741,250.45064V41.9259H146.58369L41.92591,146.58367Z"/><rect class="cls-2" x="16.52813" y="301.78089" width="150.76358" height="6.67005" transform="translate(-188.82974 154.35651) rotate(-45)"/><path d="M308.45257,308.17749H88.40992V88.30676H308.45257ZM95.28626,301.50744H301.78252V94.97681H95.21749Z"/><rect x="141.87341" y="91.60741" width="6.67004" height="213.20069"/><rect x="195.16499" y="91.60741" width="6.67004" height="213.20069"/><rect x="248.49094" y="91.60741" width="6.67005" height="213.20069"/><rect x="91.88247" y="141.59835" width="213.20069" height="6.67004"/><rect x="91.88247" y="194.88993" width="213.20069" height="6.67004"/><rect x="91.88247" y="248.21588" width="213.20069" height="6.67005"/><polygon class="cls-2" points="255.127 358.409 248.491 358.409 248.491 148.543 38.591 148.543 38.591 141.873 255.127 141.873 255.127 358.409"/><rect class="cls-2" x="229.73007" y="88.58871" width="150.76359" height="6.67005" transform="translate(24.39161 242.71949) rotate(-45.01)"/></svg>